<svg width="131" height="131" viewBox="0 0 131 131" fill="none" xmlns="http://www.w3.org/2000/svg">
<rect x="1.41091" y="1.41091" width="127.922" height="127.922" rx="17.4012" fill="#D6E499" stroke="#482C1C" stroke-width="2.82182"/>
<path d="M32.3987 63.0698C32.3987 62.9038 32.4075 62.7575 32.3987 62.6092C32.2946 61.0696 32.4424 59.5488 32.763 58.0447C33.3605 55.2388 34.5284 52.6786 36.1367 50.3136C38.4023 46.9826 41.2445 44.2242 44.5224 41.9029C47.5177 39.7846 50.7634 38.1774 54.3109 37.201C57.147 36.4176 60.0909 36.0967 63.0292 36.2506C65.4364 36.375 67.8077 36.7565 70.155 37.2972C72.7053 37.8854 75.2035 38.663 77.7018 39.4483C80.0345 40.1822 82.3636 40.9291 84.7057 41.6307C86.2151 42.0819 87.7354 42.4858 89.2858 42.7757C90.502 42.9977 91.7433 43.0476 92.9733 42.924C93.9903 42.8283 95.0032 42.7158 95.9983 42.4629C96.3913 42.359 96.8051 42.364 97.1954 42.4775C97.9761 42.7059 98.3966 43.4622 98.1322 44.232C97.9818 44.6753 97.787 45.1024 97.5508 45.5066C96.0077 48.1042 94.5098 50.73 92.8208 53.2381C92.7615 53.3256 92.711 53.4187 92.6335 53.5468C92.8349 53.6108 93.0124 53.6722 93.1919 53.7237C96.5229 54.685 99.4729 56.3157 101.991 58.7088C102.671 59.3552 103.286 60.062 103.884 60.7823C104.774 61.8566 105.453 63.0536 106.026 64.3179C106.13 64.55 106.241 64.7806 106.35 65.0116C106.981 66.3519 107.327 67.7727 107.547 69.23C107.737 70.5005 107.745 71.7777 107.643 73.0524C107.533 74.4139 107.231 75.7406 106.818 77.0438C105.998 79.6337 104.696 81.9628 102.976 84.0551C99.5861 88.1727 95.3548 91.0607 90.282 92.7193C88.9808 93.1476 87.6443 93.3834 86.2921 93.552C85.1736 93.692 84.0541 93.819 82.933 93.9424C82.2142 94.0215 81.4949 94.1095 80.7736 94.1464C80.0309 94.1849 79.2835 94.2011 78.5408 94.1657C76.7712 94.0808 75.0266 93.8206 73.3251 93.3168C70.9502 92.6131 68.6623 91.7085 66.5539 90.3845C64.9321 89.3619 63.4274 88.1644 62.0669 86.8135C61.9305 86.6787 61.7963 86.5419 61.6583 86.4091C61.6243 86.3828 61.5873 86.3606 61.548 86.343C61.4439 86.3123 61.395 86.3951 61.3445 86.4565C59.373 88.7819 56.9091 90.4068 54.0985 91.5331C52.0802 92.3363 49.9612 92.8587 47.8009 93.0857C44.5347 93.4459 41.2301 93.1975 38.0546 92.3529C37.0246 92.0854 36.0055 91.7923 35.0265 91.3708C32.5282 90.296 30.1966 88.9532 28.1933 87.0857C27.223 86.1904 26.3403 85.2047 25.5571 84.142C25.4946 84.0561 25.4343 83.9681 25.3801 83.8765C24.3439 82.1246 23.5242 80.289 23.2082 78.2555C22.731 75.191 23.2962 72.3273 24.8701 69.6625C26.2316 67.3574 28.1251 65.581 30.3969 64.1976C31.0324 63.8109 31.6929 63.4664 32.3987 63.0698ZM93.6874 45.9604C93.4969 45.9604 93.3491 45.9469 93.2049 45.9604C91.3651 46.1577 89.5523 45.9927 87.7562 45.5737C85.1866 44.9747 82.6556 44.2387 80.1407 43.4429C77.5253 42.6159 74.9157 41.7691 72.2816 40.9967C69.4398 40.164 66.5492 39.5566 63.5846 39.3448C61.6229 39.2048 59.6707 39.2563 57.7298 39.568C54.847 40.0313 52.126 40.9853 49.5585 42.365C46.0141 44.27 42.9251 46.7417 40.3405 49.8353C38.981 51.4623 37.8323 53.2184 36.9959 55.1701C36.0211 57.4472 35.4866 59.8169 35.4803 62.3005C35.4803 62.7898 35.4866 63.2801 35.5111 63.7682C35.5464 64.4756 35.2586 65.0064 34.6695 65.377C34.454 65.5118 34.2192 65.6154 33.9928 65.7335C33.3521 66.0682 32.6943 66.3737 32.0744 66.7432C30.2939 67.8029 28.7814 69.1587 27.6712 70.9247C26.0489 73.5052 25.6643 76.2621 26.5528 79.1845C27.1149 81.0332 28.1303 82.616 29.4382 84.0207C30.7259 85.4046 32.2201 86.5221 33.8747 87.4282C37.2286 89.266 40.8391 90.1211 44.6442 90.194C46.0924 90.2201 47.5395 90.1017 48.9641 89.8406C51.0502 89.4617 53.0456 88.8137 54.9089 87.7873C56.819 86.7355 58.4611 85.3771 59.7102 83.5715C59.8288 83.3948 59.9578 83.2252 60.0964 83.0636C60.2348 82.9021 60.3885 82.7544 60.5555 82.6227C61.141 82.1793 61.9186 82.2064 62.4151 82.7268C62.5332 82.8497 62.6654 82.96 62.7726 83.0911C63.189 83.6054 63.6913 84.0363 64.1779 84.4829C65.0386 85.2774 65.961 86.0022 66.9364 86.6506C71.0746 89.3982 75.6553 90.7144 80.594 90.8664C82.0628 90.9041 83.5322 90.8189 84.9868 90.6119C86.5914 90.402 88.1726 90.0413 89.7095 89.5345C91.4842 88.9352 93.1865 88.1395 94.7846 87.1623C96.5791 86.0693 98.2108 84.7842 99.6374 83.2468C102.062 80.634 103.773 77.6471 104.39 74.0865C104.779 71.899 104.651 69.6508 104.015 67.5219C103.153 64.6099 101.41 62.275 99.1789 60.2972C96.9377 58.3106 94.2865 57.0813 91.376 56.4109C91.1314 56.3547 90.8811 56.3224 90.6193 56.2766C90.4074 56.5468 90.2112 56.7971 90.0166 57.0475C88.8028 58.6125 87.5376 60.1338 86.1651 61.5646C83.1741 64.6944 79.7011 67.3249 75.878 69.356C71.9334 71.454 67.8009 73.055 63.4493 74.0818C62.1642 74.3853 60.8693 74.6518 59.5562 74.7673C57.2613 74.9708 54.9486 74.7517 52.7328 74.1209C51.8719 73.8761 51.0516 73.5063 50.2981 73.0232C49.3764 72.4455 48.5375 71.7451 47.8045 70.9413C45.4208 68.2927 44.6062 65.2339 45.4926 61.7671C45.9256 60.0724 46.7729 58.5761 47.8743 57.2218C49.0401 55.7879 50.4245 54.6002 51.974 53.604C54.9448 51.696 58.2076 50.5988 61.6942 50.157C63.5122 49.9244 65.3516 49.9132 67.1722 50.1237C68.9787 50.3318 70.7306 50.7513 72.4128 51.4457C72.6901 51.5541 72.9562 51.6895 73.207 51.85C73.506 52.051 73.723 52.3525 73.8188 52.6998C73.9146 53.047 73.8827 53.4171 73.7289 53.7429C73.5752 54.0687 73.3098 54.3286 72.9808 54.4755C72.6519 54.6224 72.2812 54.6465 71.936 54.5435C71.7531 54.4863 71.5744 54.4168 71.401 54.3353C69.7651 53.6212 68.045 53.2387 66.2764 53.0945C64.7686 52.9679 63.2513 53.0109 61.7531 53.2225C59.2892 53.5754 56.9434 54.3041 54.7517 55.497C53.1903 56.3479 51.7757 57.3977 50.588 58.7327C49.7167 59.7122 49.012 60.7964 48.5925 62.046C47.816 64.3595 48.1563 66.4939 49.6621 68.4238C50.3506 69.3086 51.2026 70.0092 52.1603 70.5822C52.8369 70.9871 53.5286 71.3629 54.3052 71.5472C54.9678 71.7038 55.6434 71.7993 56.3235 71.8324C57.7564 71.9058 59.1715 71.7283 60.5825 71.531C61.8681 71.3504 63.1302 71.0434 64.3819 70.6983C68.2619 69.6272 71.9939 68.0786 75.4924 66.088C79.3985 63.864 82.7612 60.9843 85.6707 57.5648C88.6311 54.0849 91.2188 50.3469 93.4839 46.382C93.5552 46.2602 93.6088 46.1275 93.6874 45.9604Z" fill="#482C1C"/>
</svg>
