<svg width="131" height="131" viewBox="0 0 131 131" fill="none" xmlns="http://www.w3.org/2000/svg">
<rect x="1.41091" y="1.41091" width="127.922" height="127.922" rx="17.4012" fill="#FFF1A1" stroke="#482C1C" stroke-width="2.82182"/>
<path d="M74.518 25.9589C74.6935 25.8647 74.8555 25.7799 75.0151 25.6917C76.5348 24.8579 78.1529 24.3106 79.8743 24.1054C82.0557 23.8486 84.1823 24.1098 86.2264 24.9233C90.0487 26.4442 92.6545 29.193 94.2587 32.9258C94.895 34.406 95.2529 35.9596 95.4021 37.5662C95.6715 40.4741 95.1451 43.2393 93.9694 45.8978C93.0463 47.9853 91.7737 49.8482 90.3171 51.5956C87.9588 54.4252 85.1377 56.715 82.0154 58.6448C80.4167 59.6323 78.7971 60.5856 77.187 61.5547C75.9392 62.3062 74.7183 63.0974 73.5501 63.9674C73.3746 64.0982 73.2076 64.24 73.0421 64.3724C73.136 64.5568 73.2991 64.5578 73.4318 64.6064C74.594 65.0317 75.7185 65.5348 76.7848 66.1644C80.0926 68.12 82.5677 70.8083 84.0227 74.384C84.9672 76.7059 85.3261 79.1265 85.1725 81.6215C85.1252 82.5032 85.0038 83.3794 84.8097 84.2409C84.7933 84.3113 84.7878 84.3842 84.7729 84.4858C84.9121 84.6182 85.0552 84.7584 85.2034 84.8928C86.3008 85.8793 87.2533 87.0151 88.0329 88.2667C88.9829 89.8069 89.6043 91.4656 89.8334 93.2621C90.087 95.2539 89.821 97.1857 89.1226 99.062C88.4604 100.842 87.4607 102.42 86.2219 103.852C84.8012 105.493 83.1458 106.864 81.3214 108.034C78.7921 109.657 76.0645 110.842 73.1892 111.706C69.0827 112.929 64.8032 113.473 60.5204 113.316C57.2633 113.188 54.0694 112.686 50.9575 111.692C48.5135 110.913 46.1898 109.8 44.0526 108.385C43.0385 107.713 42.0269 107.039 41.1197 106.223C40.035 105.247 39.0363 104.191 38.1986 102.995C37.2407 101.626 36.5622 100.125 36.073 98.5331C35.4185 96.4189 35.1618 94.2023 35.3159 91.995C35.465 89.7999 35.8921 87.6609 36.7824 85.6314C36.8783 85.4123 36.9633 85.1887 37.0632 84.9716C37.4803 84.0689 37.5435 83.129 37.3486 82.1668C37.192 81.3925 37.0185 80.6216 36.8485 79.8498C36.4777 78.1782 36.3554 76.4613 36.4856 74.7543C36.6347 72.8026 36.9419 70.8877 37.5186 69.0158C38.1554 66.9506 39.0219 64.9866 40.197 63.1663C40.8893 62.1008 41.7036 61.1193 42.6234 60.2415C43.0082 59.8712 43.3805 59.489 43.7563 59.1093C44.1043 58.7559 44.4622 58.4088 44.7973 58.042C45.9178 56.8156 46.7514 55.4236 47.249 53.8328C47.6785 52.4612 47.9783 51.0613 48.2298 49.6494C48.5236 48.0012 48.6802 46.3365 48.8149 44.6684C48.974 42.6895 49.1823 40.715 49.574 38.7659C49.8852 37.2157 50.27 35.6835 50.7715 34.1824C51.1528 33.0467 51.6663 31.966 52.1585 30.8789C52.8285 29.4018 53.7146 28.0319 54.7877 26.814C56.4132 24.967 58.3584 23.5794 60.7033 22.7922C62.4369 22.2026 64.2767 21.9881 66.0999 22.1631C69.1775 22.4576 71.8505 23.6622 74.169 25.6828C74.2769 25.7745 74.3942 25.8602 74.518 25.9589ZM61.3739 110.699C62.8858 110.72 64.3976 110.65 65.9011 110.49C67.9177 110.275 69.913 109.894 71.8664 109.35C74.4141 108.632 76.8494 107.647 79.1277 106.292C80.9919 105.182 82.693 103.872 84.1286 102.239C85.3217 100.883 86.2662 99.3832 86.813 97.6527C87.5045 95.466 87.4344 93.3077 86.56 91.1805C85.8605 89.4797 84.7609 88.0669 83.4123 86.836C83.0723 86.5252 82.7491 86.201 82.432 85.8669C82.0219 85.4351 81.9145 84.9622 82.0626 84.3976C82.2756 83.5787 82.42 82.7437 82.4946 81.9011C82.6716 79.9346 82.4857 78.0042 81.8528 76.1324C80.8517 73.1734 79.0143 70.8361 76.4413 69.0738C73.6142 67.137 70.4462 66.2115 67.0509 66.0073C65.484 65.9131 63.9191 65.9627 62.3627 66.2095C62.1621 66.2386 61.9602 66.2573 61.7577 66.2655C60.9881 66.3072 60.1301 65.4823 60.3275 64.5548C60.3864 64.2472 60.4931 63.9507 60.6437 63.6759C61.0732 62.9244 61.536 62.1957 62.0788 61.518C63.1386 60.1944 64.289 58.9527 65.4706 57.7376C66.6905 56.484 67.9203 55.2402 69.1248 53.9701C70.6505 52.365 72.03 50.6424 73.2011 48.7591C74.4787 46.7019 75.5052 44.5301 76.1868 42.2027C76.6187 40.7556 76.8456 39.2554 76.8609 37.7457C76.8812 35.901 76.5208 34.0719 75.802 32.372C74.6885 29.7487 72.9267 27.6781 70.4511 26.2434C68.2216 24.9546 65.8171 24.4826 63.2634 24.8663C61.2407 25.1697 59.4764 26.0402 57.9404 27.3801C57.3558 27.8897 56.8467 28.4677 56.3382 29.0532C55.5473 29.9668 54.9279 30.9865 54.4238 32.0721C54.0997 32.7716 53.8168 33.4919 53.5524 34.2166C52.3056 37.6292 51.732 41.1756 51.4566 44.781C51.385 45.7154 51.3109 46.6508 51.2015 47.5818C50.991 49.3888 50.6693 51.1813 50.2381 52.949C49.9712 54.0396 49.6416 55.1098 49.1912 56.1404C48.549 57.6073 47.6194 58.8808 46.5213 60.0368C45.9381 60.6505 45.3376 61.2478 44.7486 61.8566C43.9283 62.7048 43.1553 63.5916 42.4892 64.5687C41.2514 66.381 40.4232 68.3778 39.8451 70.4817C39.3876 72.1313 39.1504 73.8339 39.1397 75.5455C39.1327 76.7813 39.2142 78.0052 39.4618 79.2183C39.6532 80.1542 39.849 81.0901 40.0022 82.033C40.1841 83.1548 40.1404 84.2697 39.7367 85.3493C39.595 85.7281 39.4543 86.1078 39.2893 86.4761C38.5218 88.1725 38.139 89.966 37.9804 91.8061C37.8412 93.4261 37.9227 95.0407 38.2996 96.63C38.6107 97.9402 39.0373 99.2077 39.688 100.397C40.5584 101.984 41.7575 103.296 43.118 104.476C43.9413 105.191 44.8609 105.77 45.7706 106.365C47.6015 107.564 49.569 108.469 51.646 109.145C54.8026 110.175 58.0552 110.643 61.3739 110.699ZM64.103 63.3239C64.3019 63.3958 64.5072 63.3527 64.7075 63.3487C65.8325 63.3264 66.9569 63.31 68.0769 63.4449C68.589 63.5068 69.1015 63.5683 69.611 63.6466C69.8099 63.6774 69.9739 63.6645 70.1081 63.5029C70.1668 63.4325 70.2389 63.3735 70.3035 63.3076C70.9677 62.643 71.6885 62.0372 72.458 61.4972C73.8086 60.533 75.2189 59.663 76.6392 58.8059C78.3104 57.7966 79.9937 56.8037 81.6341 55.7458C84.2519 54.0604 86.5734 52.0279 88.5439 49.6038C89.6977 48.1836 90.7153 46.6791 91.4769 45.01C92.6923 42.3455 93.1402 39.5729 92.6202 36.6729C92.1331 33.9465 90.9241 31.5834 88.8974 29.6833C86.5003 27.4371 83.6459 26.414 80.3471 26.7114C79.0273 26.8304 77.789 27.2369 76.6098 27.8317C76.5179 27.8783 76.3976 27.9091 76.3891 28.0726C76.4885 28.2214 76.6034 28.3899 76.7167 28.556C78.2577 30.8244 79.1525 33.3313 79.4235 36.0518C79.6263 38.1001 79.4369 40.1271 78.9363 42.1244C78.2463 44.8771 77.089 47.4286 75.6255 49.8532C74.3644 51.9412 72.8651 53.8507 71.1923 55.6224C69.8148 57.0813 68.3996 58.505 67.0022 59.9456C66.079 60.8979 65.1862 61.8789 64.3496 62.907C64.2492 63.031 64.1001 63.1321 64.103 63.3239Z" fill="#482C1C"/>
<path d="M74.4464 91.3694C74.3967 93.1074 74.179 94.6278 73.5695 96.0733C73.1867 96.9805 72.6971 97.8187 71.9589 98.487C70.9806 99.3718 69.8342 99.8606 68.5035 99.8805C67.2856 99.8988 66.2844 99.4219 65.4751 98.5296C64.8204 97.8078 64.3889 96.9557 64.0891 96.0406C63.5469 94.393 63.3771 92.646 63.592 90.9252C63.683 90.1727 63.8277 89.4381 64.1344 88.7411C64.2681 88.4391 64.4315 88.151 64.622 87.881C64.9899 87.361 65.5024 87.1731 66.1248 87.3392C66.4981 87.4383 66.8705 87.5469 67.2344 87.6763C68.3494 88.0729 69.5007 88.1646 70.6674 88.0639C71.0651 88.0292 71.4578 87.8974 71.849 87.7972C72.0265 87.7516 72.197 87.6713 72.3695 87.6118C73.1186 87.358 73.6665 87.6118 73.9573 88.3524C74.1606 88.869 74.2685 89.4113 74.3321 89.9586C74.3962 90.4875 74.4201 91.0204 74.4464 91.3694Z" fill="#482C1C"/>
<path d="M78.2463 82.4211C78.2374 83.2113 78.0579 83.878 77.6727 84.4818C77.3903 84.925 77.0185 85.27 76.5199 85.4698C75.7484 85.7791 75.04 85.6542 74.3883 85.1644C74.0213 84.8825 73.7372 84.5071 73.566 84.0778C73.1137 83.0016 73.1534 81.9249 73.6158 80.8685C73.8111 80.4284 74.1249 80.0509 74.5225 79.7779C75.4138 79.1518 76.5109 79.2326 77.3003 79.9921C77.8556 80.5265 78.1191 81.2001 78.219 81.9467C78.2429 82.1291 78.2404 82.314 78.2463 82.4211Z" fill="#482C1C"/>
<path d="M56.3919 82.7944C56.4192 81.8436 56.627 81.0415 57.232 80.3812C57.5228 80.064 57.8613 79.8201 58.2759 79.6912C59.0464 79.4532 59.73 79.6262 60.3379 80.1314C60.636 80.3802 60.8717 80.6949 61.0264 81.0504C61.5529 82.2362 61.5051 83.4081 60.8967 84.5488C60.6128 85.0817 60.1923 85.4857 59.6166 85.7097C58.9082 85.9858 58.2386 85.8912 57.6237 85.4619C56.8959 84.9572 56.5664 84.2136 56.4341 83.3679C56.4013 83.1538 56.4013 82.9317 56.3919 82.7944Z" fill="#482C1C"/>
</svg>
