<svg width="184" height="240" viewBox="0 0 184 240" fill="none" xmlns="http://www.w3.org/2000/svg">
<path d="M178.813 26.6067C179.658 31.1338 178.948 35.4653 177.034 39.6226C175.787 42.3308 174.105 44.754 172.201 47.0375C169.28 50.5209 165.845 53.5385 162.014 55.9864C159.36 57.6939 156.643 59.2997 153.944 60.9355C151.944 62.1484 149.963 63.3915 148.061 64.7539C146.867 65.6086 145.726 66.5234 144.706 67.585C144.648 67.6461 144.579 67.6992 144.529 67.762C144.435 67.8861 144.308 67.9804 144.162 68.0336C144.016 68.0868 143.858 68.0967 143.706 68.0619C143.151 67.9734 142.592 67.8991 142.032 67.8336C139.957 67.5912 137.878 67.4798 135.79 67.6311C135.625 67.6434 135.459 67.6311 135.313 67.6311C135.188 67.4417 135.308 67.3373 135.393 67.2382C136.308 66.1686 137.189 65.0645 138.155 64.0409C140.107 61.9706 142.103 59.9411 144.082 57.9C146.363 55.5529 148.558 53.1323 150.488 50.4843C153.633 46.1678 156.074 41.4956 157.582 36.3571C158.576 32.9713 158.998 29.5174 158.686 25.9962C158.37 22.2748 157.206 18.6752 155.284 15.4734C155.081 15.1354 154.867 14.8036 154.652 14.4736C154.437 14.1436 154.218 13.8234 153.955 13.4306C154.187 13.2917 154.325 13.1961 154.473 13.1218C157.185 11.777 160.047 11.1551 163.07 11.4293C166.536 11.7443 169.629 13.013 172.292 15.2557C175.839 18.2443 177.966 22.0716 178.813 26.6067Z" fill="#FFC2C2"/>
<path d="M168.552 108.201C169.96 110.59 170.705 113.156 170.675 115.926C170.65 118.038 170.151 120.055 169.284 121.978C168.206 124.367 166.675 126.446 164.84 128.31C162.83 130.354 160.551 132.045 158.09 133.499C154.526 135.605 150.718 137.126 146.732 138.215C144.067 138.933 141.354 139.459 138.613 139.789C136.401 140.064 134.175 140.125 132.27 140.195C126.537 140.156 121.224 139.457 116.067 137.747C112.95 136.713 109.988 135.358 107.25 133.535C106.757 133.208 106.247 132.906 105.755 132.579C103.396 131.023 101.305 129.096 99.5616 126.873C97.6302 124.404 96.4996 121.573 95.8006 118.546C95.2441 116.135 95.1176 113.689 95.3291 111.236C95.5688 108.444 96.135 105.719 97.2949 103.144C97.5152 102.657 97.7054 102.156 97.9027 101.658C98.6052 99.8788 98.7273 98.0386 98.407 96.1727C98.1787 94.8412 97.9116 93.5132 97.5984 92.1994C97.012 89.7842 96.8622 87.2836 97.156 84.8156C97.4329 82.5153 97.8735 80.254 98.6556 78.067C99.2661 76.3621 100.084 74.7563 100.987 73.1939C101.44 72.4101 102.035 71.7279 102.686 71.0998C102.871 70.9268 103.074 70.774 103.292 70.6442C107.077 68.3014 110.291 65.3438 112.877 61.7156C115.234 58.4094 116.827 54.7697 117.566 50.7716C118.179 47.4313 118.016 43.9944 117.088 40.7274C117.066 40.6458 117.04 40.5654 117.009 40.4868C116.655 39.6215 116.672 38.7527 116.839 37.8326C117.055 36.6436 117.148 35.4315 117.287 34.2292C117.652 31.0672 117.983 27.9008 118.791 24.8087C119.621 21.6193 120.854 18.6157 122.768 15.9093C124.183 13.909 125.896 12.2156 127.971 10.8974C130.666 9.18544 133.616 8.39628 136.798 8.46175C141.193 8.55022 144.972 10.1825 148.195 13.1198C151.723 16.3375 153.768 20.3568 154.505 25.0591C155.046 28.521 154.682 31.9165 153.703 35.2546C152.316 39.9843 150.05 44.2743 147.136 48.2334C145.176 50.8964 142.927 53.3046 140.624 55.665C138.441 57.9051 136.207 60.0983 134.143 62.4517C133.081 63.6593 132.025 64.8696 131.135 66.2135C130.7 66.8708 130.291 67.5477 129.914 68.2395C129.736 68.5907 129.602 68.9624 129.514 69.3463C129.096 70.9441 130.643 72.2269 131.814 72.0889C132.373 72.0243 132.931 71.9518 133.49 71.8801C135.727 71.5922 137.988 71.5353 140.236 71.7103C142.891 71.9155 145.484 72.4083 147.995 73.2921C152.283 74.8032 155.983 77.1893 158.857 80.7574C161.378 83.8863 162.862 87.4515 163.31 91.4528C163.606 94.0909 163.442 96.7604 162.826 99.3427C162.762 99.6169 162.684 99.8885 162.636 100.165C162.516 100.844 162.659 101.46 163.141 101.966C163.623 102.472 164.114 102.987 164.628 103.463C166.149 104.871 167.496 106.412 168.552 108.201ZM156.15 99.7222C156.647 98.8516 156.874 97.8997 156.867 96.7142C156.862 96.6452 156.867 96.3912 156.831 96.1409C156.677 94.966 156.269 93.8999 155.378 93.0824C154.35 92.1393 153.159 91.9243 151.855 92.418C151.303 92.6388 150.819 93.0013 150.452 93.469C149.38 94.7695 149.102 96.2815 149.308 97.9068C149.43 98.872 149.773 99.7567 150.409 100.513C151.732 102.086 153.948 102.194 155.393 100.732C155.688 100.429 155.942 100.09 156.15 99.7222ZM151.065 110.794C151.027 110.255 150.989 109.268 150.878 108.291C150.787 107.392 150.565 106.512 150.22 105.677C149.961 105.073 149.483 104.776 148.867 104.655C148.49 104.583 148.142 104.711 147.796 104.826C147.368 104.968 146.95 105.142 146.516 105.258C144.406 105.82 142.329 105.576 140.271 104.969C139.624 104.777 138.979 104.578 138.333 104.381C137.359 104.087 136.613 104.446 136.046 105.216C135.767 105.603 135.529 106.018 135.338 106.455C134.705 107.862 134.475 109.367 134.379 110.89C134.293 112.184 134.346 113.484 134.538 114.767C134.763 116.251 135.134 117.693 135.767 119.057C136.28 120.164 136.931 121.18 137.838 122.014C139.062 123.143 140.52 123.664 142.166 123.594C144.219 123.505 145.988 122.709 147.459 121.274C148.485 120.272 149.177 119.053 149.73 117.744C150.607 115.667 150.942 113.477 151.065 110.794ZM131.113 97.2875C131.111 96.4565 130.943 95.6343 130.618 94.8695C130.372 94.2993 130.006 93.7883 129.546 93.3708C128.994 92.8604 128.281 92.5569 127.53 92.5118C126.779 92.4667 126.035 92.6826 125.425 93.1231C124.71 93.6325 124.166 94.3465 123.865 95.1712C123.48 96.2052 123.373 97.3219 123.554 98.4102C123.691 99.3135 124.024 100.147 124.63 100.848C125.487 101.842 126.566 102.279 127.869 102.036C128.862 101.851 129.601 101.263 130.158 100.437C130.805 99.4745 131.064 98.3925 131.113 97.2875Z" fill="#FFC2C2"/>
<path d="M95.7148 74.3828C95.8103 74.5651 95.6626 74.6995 95.6007 74.8384C94.5337 77.2201 93.8719 79.7177 93.4357 82.2816C93.2033 83.671 93.0508 85.0726 92.9792 86.4796C92.8598 88.7206 93.1703 90.9191 93.6552 93.1008C93.9002 94.1996 94.1382 95.3011 94.3514 96.4061C94.4492 96.9039 94.5084 97.4085 94.5284 97.9154C94.5496 98.5064 94.5142 99.1018 94.3063 99.6672C94.0639 100.327 93.8356 100.994 93.5534 101.637C92.3626 104.346 91.7176 107.19 91.3876 110.117C91.1302 112.396 91.1125 114.676 91.4248 116.947C91.937 120.67 93.0474 124.195 95.0344 127.414C95.1663 127.627 95.2954 127.843 95.4476 128.094C94.6914 129.148 93.7945 130.094 92.7819 130.906C90.7188 132.598 88.4114 133.886 85.9838 134.966C82.3157 136.596 78.4867 137.722 74.5709 138.56C72.3113 139.043 70.0347 139.42 67.7409 139.691C66.2873 139.868 64.8257 139.973 63.3668 140.092C60.3853 140.335 57.3976 140.336 54.4117 140.232C52.9793 140.183 51.5461 140.04 50.1217 139.863C47.2426 139.507 44.3911 138.956 41.5868 138.213C37.2668 137.062 33.1218 135.48 29.2574 133.207C26.9899 131.874 24.8816 130.327 22.9892 128.495C20.3837 125.97 18.3409 123.064 17.0713 119.648C16.0181 116.813 15.5691 113.789 15.7531 110.77C15.9831 106.677 17.1686 102.861 19.0371 99.2398C19.414 98.5091 19.4945 97.8075 19.1637 97.0555C18.601 95.7735 18.3674 94.4217 18.3108 93.03C18.2161 90.6413 18.5559 88.3118 19.1831 86.0142C20.3333 81.7844 22.2398 77.9093 24.7117 74.3023C24.7434 74.2626 24.778 74.2253 24.8152 74.1908C25.0603 74.0705 25.2673 74.1908 25.4814 74.2457C28.7757 75.1425 32.1821 75.5596 35.5955 75.4843C40.0103 75.3746 44.2578 74.5058 48.285 72.6532C51.4231 71.2084 54.1843 69.2567 56.4457 66.6247C56.5341 66.5221 56.6412 66.4336 56.7491 66.3274C57.0774 66.461 57.2517 66.7273 57.4658 66.9388C58.9871 68.4477 60.6414 69.8163 62.4087 71.0279C64.604 72.5138 66.9767 73.7191 69.4714 74.6155C71.3293 75.2888 73.2031 75.8727 75.1495 76.2327C77.3394 76.6395 79.5686 76.7944 81.7937 76.6946C82.974 76.6415 84.1497 76.4973 85.3264 76.3814C86.4474 76.2708 87.5692 76.1637 88.6883 76.0178C90.8356 75.7283 92.9492 75.229 94.999 74.527C95.2114 74.4553 95.4281 74.3987 95.644 74.3394C95.6626 74.335 95.6891 74.366 95.7148 74.3828ZM80.9515 101.49C82.2706 102.066 83.7587 101.072 83.7392 99.5699C83.726 99.4991 83.7056 99.3602 83.6764 99.223C83.5756 98.7329 83.2951 98.3534 82.9341 98.0225C82.0919 97.2483 81.1125 96.7025 80.05 96.3026C77.6179 95.3869 75.1168 95.1984 72.5679 95.6443C71.4517 95.8246 70.3834 96.2285 69.4271 96.8316C69.117 97.0249 68.8338 97.2585 68.5849 97.5261C67.9877 98.195 67.9382 99.1266 68.4159 99.8786C68.6417 100.239 68.9789 100.516 69.3765 100.668C69.7741 100.82 70.2103 100.837 70.6189 100.718C70.8877 100.637 71.1435 100.518 71.3788 100.364C71.975 99.9862 72.6416 99.7327 73.3385 99.6194C74.9761 99.3381 76.5925 99.4141 78.1797 99.9193C78.9635 100.169 79.6943 100.52 80.3171 101.077C80.5058 101.247 80.7198 101.386 80.9515 101.49ZM61.5877 111.641C61.8184 111.316 61.9417 110.928 61.9402 110.53C61.9388 110.132 61.8127 109.744 61.5797 109.421C61.0966 108.737 60.4296 108.466 59.5962 108.586C59.1918 108.644 58.853 108.841 58.5345 109.077C58.0523 109.431 57.51 109.658 56.942 109.832C55.568 110.252 54.164 110.286 52.7591 110.097C51.6089 109.943 50.4986 109.629 49.5794 108.848C49.4264 108.724 49.2563 108.622 49.0742 108.547C48.6717 108.369 48.2216 108.329 47.7939 108.433C47.3662 108.537 46.9849 108.78 46.7094 109.123C46.4292 109.464 46.2729 109.889 46.2662 110.33C46.2594 110.771 46.4026 111.201 46.6722 111.55C46.9004 111.835 47.1651 112.09 47.4596 112.306C48.2965 112.931 49.2416 113.395 50.2473 113.676C51.5432 114.068 52.8926 114.254 54.2463 114.229C55.5435 114.253 56.8367 114.076 58.0797 113.704C59.06 113.418 59.989 113.016 60.8082 112.4C61.104 112.187 61.3667 111.931 61.5877 111.641ZM42.2309 98.901C43.5412 99.4973 45.0496 98.525 45.0461 97.0174C45.0338 96.5888 44.878 96.1766 44.6037 95.847C44.4056 95.6079 44.1871 95.3865 43.9508 95.1852C43.209 94.5773 42.3721 94.0961 41.4736 93.7608C38.9362 92.7805 36.3263 92.6106 33.6677 93.1052C32.7251 93.2831 31.8188 93.6171 30.9861 94.0934C30.5677 94.3306 30.1616 94.588 29.8634 94.9782C29.3521 95.6417 29.2636 96.3689 29.6352 97.1183C29.9891 97.8385 30.6004 98.195 31.4046 98.2092C31.8594 98.2163 32.3042 98.0749 32.6715 97.8066C33.2798 97.3915 33.9766 97.124 34.7064 97.0254C36.3705 96.768 38.0188 96.837 39.6263 97.3846C40.3509 97.6314 41.0286 97.9623 41.609 98.479C41.7951 98.6469 42.0046 98.7869 42.2309 98.8948V98.901Z" fill="#F8FCE1"/>
<path d="M20.8871 72.6704C20.7278 72.9358 20.596 73.1791 20.4491 73.4091C19.1323 75.4774 17.9878 77.6506 17.027 79.9065C16.0784 82.1064 15.3509 84.3952 14.855 86.7391C14.7825 87.1552 14.5484 87.5256 14.2039 87.7698C13.0883 88.605 11.908 89.3128 10.5305 89.6048C8.96459 89.9374 7.49861 89.7481 6.25823 88.6316C5.69696 88.1133 5.24566 87.4875 4.93116 86.7913C4.53152 85.9194 4.26891 84.991 4.15261 84.039C3.92966 82.4023 4.02874 80.7717 4.35874 79.1633C4.96607 76.1096 6.30962 73.2503 8.27274 70.8337C9.29193 69.5791 10.458 68.4803 11.8594 67.6487C12.0284 67.5487 12.2035 67.4585 12.3805 67.3709C12.4512 67.3513 12.5239 67.34 12.5972 67.3373C13.198 67.8292 13.812 68.3635 14.4596 68.8546C15.1328 69.3642 15.8238 69.8534 16.5333 70.3108C17.219 70.7532 17.9294 71.1601 18.6478 71.5494C19.3662 71.9387 20.1041 72.282 20.8871 72.6704Z" fill="#D6E499"/>
<path d="M112.802 40.7213C113.615 43.0709 113.949 45.5598 113.782 48.0406C113.512 51.9926 112.168 55.5607 109.968 58.8271C107.579 62.366 104.508 65.1714 100.873 67.3956C98.6406 68.7713 96.2524 69.8758 93.7587 70.6858C89.5806 71.9937 85.2 72.5332 80.8294 72.2783C72.8793 71.7873 65.8529 69.0527 59.9739 63.586C59.336 62.9923 58.7495 62.3474 58.1231 61.7351C57.9106 61.5109 57.6629 61.3229 57.3897 61.1787C56.7819 60.8955 56.1696 60.9805 55.6202 61.3556C55.3467 61.5531 55.0975 61.7824 54.878 62.0386C54.6581 62.2958 54.4537 62.5659 54.2657 62.8472C52.6591 65.1272 50.5676 66.8559 48.1479 68.2024C45.384 69.7401 42.4132 70.6549 39.2928 71.1273C37.3127 71.4264 35.3074 71.5242 33.3076 71.4193C27.9436 71.1397 22.9361 69.6879 18.4134 66.7303C15.8336 65.044 13.6492 62.9525 12.0293 60.3072C10.9252 58.5042 10.2023 56.5604 9.9555 54.4583C9.6738 52.1496 10.0389 49.808 11.0101 47.6947C12.1602 45.1697 13.9297 43.164 16.1317 41.5123C17.3991 40.5691 18.7662 39.7681 20.2085 39.1235C20.5425 38.9763 20.8675 38.8094 21.1817 38.6237C22.0337 38.1079 22.4132 37.3399 22.3407 36.3473C22.3186 36.0376 22.2832 35.728 22.277 35.4192C22.226 32.9931 22.5316 30.5726 23.1838 28.2353C24.2552 24.431 26.1688 21.0806 28.6965 18.061C32.1203 13.9666 36.2007 10.6851 40.8932 8.15838C44.4719 6.23146 48.2664 4.93269 52.2928 4.34878C54.051 4.10301 55.8264 4.0027 57.6011 4.04886C61.6841 4.13291 65.6591 4.89111 69.5917 5.92623C73.1606 6.86492 76.6694 8.01682 80.1738 9.15545C83.764 10.3197 87.3825 11.3849 91.0505 12.2803C93.352 12.8461 95.7244 13.0694 98.0911 12.9429C98.4786 12.9226 98.8714 12.8403 99.3111 12.9491C99.2504 13.1087 99.1813 13.2649 99.1041 13.4171C96.0368 18.7909 92.5254 23.8568 88.4875 28.5458C84.7611 32.8809 80.4631 36.5278 75.514 39.396C72.6315 41.0547 69.6231 42.4841 66.5164 43.671C63.4111 44.8698 60.2349 45.8562 56.9685 46.4906C54.3887 46.9904 51.7867 47.278 49.1529 47.0842C47.8506 46.9887 46.5996 46.6887 45.4283 46.0801C43.9128 45.2944 42.5379 44.3292 41.4055 43.041C40.273 41.7529 39.4989 40.2604 39.2291 38.5387C39.0139 37.1398 39.1371 35.7097 39.5882 34.3682C40.1562 32.6235 41.1197 31.1124 42.3309 29.7535C43.9083 27.9902 45.7813 26.6065 47.8568 25.4865C50.9179 23.8329 54.1941 22.8491 57.6391 22.4351C61.063 22.0237 64.4515 22.2245 67.7612 23.2313C68.5141 23.4596 69.2405 23.7728 69.9818 24.0408C70.2417 24.1476 70.5101 24.2319 70.7843 24.293C71.2324 24.3769 71.6958 24.3039 72.0964 24.0863C72.497 23.8686 72.8105 23.5196 72.9839 23.0979C73.1573 22.6762 73.1802 22.2077 73.0487 21.7712C72.9172 21.3346 72.6393 20.9567 72.2618 20.701C71.9288 20.4915 71.5769 20.3138 71.2107 20.1702C69.6269 19.5009 67.9735 19.0101 66.2811 18.7069C64.3347 18.353 62.3742 18.1513 60.3959 18.2061C54.4975 18.368 48.9963 19.8827 44.0083 23.096C41.9573 24.3981 40.1341 26.0282 38.6115 27.9212C37.0429 29.8871 35.9025 32.0661 35.3823 34.5442C34.5958 38.2945 35.3823 41.7104 37.6348 44.7822C39.0211 46.6764 40.7906 48.1441 42.8546 49.2615C44.156 49.9649 45.5707 50.3462 47.0128 50.6275C48.9822 51.0115 50.9755 51.2097 52.9793 51.1203C54.1044 51.0611 55.2242 50.9272 56.3315 50.7195C64.2055 49.3084 71.5487 46.4534 78.4132 42.3633C83.296 39.4535 87.5585 35.7908 91.2708 31.4928C92.4678 30.1074 93.595 28.6617 94.7531 27.2462C94.93 27.0303 95.107 26.8118 95.2892 26.5791C95.5652 26.6136 95.82 26.6242 96.0616 26.6782C99.9543 27.5355 103.501 29.143 106.51 31.7724C109.325 34.2284 111.58 37.1196 112.802 40.7213Z" fill="#D6E499"/>
<path d="M183.029 27.4497C183.591 32.2475 182.763 36.8207 180.755 41.1982C179.3 44.3753 177.337 47.2143 175.088 49.8764C171.672 53.9161 167.646 57.2435 163.183 60.0507C161.086 61.3716 158.949 62.6314 156.824 63.9081C154.48 65.3165 152.15 66.7445 149.949 68.3697C149.632 68.6041 149.33 68.8563 149.023 69.1058C148.985 69.1367 148.977 69.2031 148.924 69.3181C149.605 69.5835 150.237 69.8171 150.862 70.0719C154.509 71.5609 157.751 73.6639 160.485 76.5109C164.124 80.2992 166.359 84.7912 167.19 89.9869C167.697 93.1984 167.567 96.3878 166.916 99.564C166.889 99.6993 166.866 99.8365 166.835 100.006C167.045 100.205 167.245 100.397 167.454 100.585C169.446 102.405 171.138 104.463 172.423 106.844C173.618 109.025 174.364 111.423 174.618 113.896C175.016 117.837 174.139 121.505 172.304 124.979C170.894 127.648 169.021 129.96 166.825 132.018C163.585 135.055 159.872 137.378 155.847 139.215C151.858 141.037 147.692 142.307 143.388 143.14C141.011 143.608 138.606 143.923 136.188 144.082C133.178 144.283 130.158 144.264 127.152 144.025C124.484 143.809 121.836 143.404 119.225 142.814C113.981 141.624 109.084 139.62 104.602 136.63C103.289 135.753 101.967 134.888 100.766 133.863C99.9694 133.186 99.2316 132.447 98.4654 131.744C98.3451 131.633 98.215 131.532 98.0885 131.425C98.0073 131.473 97.9311 131.529 97.8611 131.593C95.8935 133.857 93.4924 135.567 90.8949 137.019C88.0824 138.593 85.107 139.787 82.0415 140.764C78.3887 141.914 74.6506 142.774 70.8622 143.335C68.1302 143.748 65.3876 144.025 62.6299 144.191C60.2916 144.332 57.955 144.307 55.6158 144.321C53.581 144.332 51.5709 144.116 49.5573 143.855C47.4888 143.589 45.4354 143.242 43.3988 142.798C38.6744 141.769 34.1092 140.277 29.783 138.092C26.0088 136.185 22.5575 133.826 19.5848 130.798C16.7635 127.925 14.5853 124.638 13.2042 120.841C12.3461 118.481 11.8442 116.006 11.7153 113.498C11.4967 109.383 12.1912 105.415 13.6147 101.566C14.0049 100.511 14.4614 99.4782 14.9135 98.4475C15.0666 98.0936 15.1462 97.7698 15.0285 97.3938C14.5862 95.9605 14.4092 94.4742 14.2455 92.9932C14.2215 92.875 14.1878 92.759 14.1447 92.6464C13.8934 92.6579 13.7023 92.7835 13.5068 92.8693C11.9851 93.5249 10.405 93.8708 8.73817 93.7788C6.36005 93.6488 4.40305 92.6552 2.83268 90.8902C1.58699 89.4906 0.851794 87.8282 0.422706 86.0172C-0.0913155 83.8478 -0.108124 81.6652 0.219222 79.4703C0.799597 75.5731 2.29654 72.059 4.65343 68.9094C5.9637 67.1576 7.50665 65.6448 9.3504 64.4522C9.45561 64.3775 9.5569 64.2975 9.65385 64.2124C9.64156 64.1431 9.61983 64.0759 9.58927 64.0125C8.50195 62.6217 7.76675 61.0363 7.10498 59.419C6.09443 56.986 5.67307 54.3487 5.87522 51.722C6.12737 48.4379 7.27308 45.475 9.20442 42.8128C10.9163 40.4533 13.0521 38.5547 15.539 37.048C16.3804 36.5384 17.2509 36.0748 18.1586 35.5626C18.1848 35.3868 18.199 35.2094 18.2011 35.0317C18.0891 32.7204 18.312 30.405 18.8629 28.1575C19.0398 27.4497 19.2398 26.7419 19.4725 26.0492C20.6686 22.4838 22.4964 19.2599 24.8542 16.3421C29.4857 10.61 35.1426 6.18993 41.885 3.18985C45.3867 1.61916 49.114 0.610287 52.9298 0.20039C55.5176 -0.075642 58.1046 -0.0499869 60.6932 0.176501C64.893 0.543659 68.9813 1.47615 73.0076 2.68025C76.5952 3.75253 80.1562 4.9124 83.7278 6.03687C86.8172 7.01006 89.9314 7.89479 93.0969 8.58487C94.4484 8.87119 95.8307 8.98563 97.2109 8.92548C98.958 8.87741 100.696 8.65483 102.399 8.26106C102.784 8.17749 103.181 8.15599 103.573 8.19736C104.926 8.32034 105.667 9.47931 105.19 10.7489C104.962 11.3552 104.681 11.9402 104.351 12.4971C102.333 15.8864 100.379 19.3094 98.1681 22.5829C98.103 22.6928 98.0439 22.8062 97.9912 22.9226C98.7512 23.227 99.5226 23.3747 100.247 23.6534C100.955 23.9259 101.673 24.1842 102.371 24.4886C103.092 24.8053 103.805 25.1477 104.494 25.5219C105.183 25.8961 105.865 26.3031 106.529 26.7349C107.165 27.1507 107.784 27.5957 108.381 28.0619C109.001 28.5494 109.6 29.0652 110.176 29.6031C110.732 30.1207 111.251 30.678 111.78 31.2257C112.308 31.7733 112.745 32.4457 113.353 33.0314C113.484 32.5483 113.496 32.1263 113.53 31.7087C113.814 28.5875 114.354 25.5157 115.237 22.5024C116.222 19.1511 117.658 16.0138 119.749 13.196C121.704 10.5569 124.074 8.38315 126.969 6.80304C130.489 4.90287 134.498 4.10134 138.479 4.50189C141.774 4.82241 144.947 5.91968 147.736 7.70369C148.736 8.33848 149.686 9.0483 150.578 9.82701C150.747 9.97299 150.922 10.111 151.094 10.2526C151.416 10.2588 151.635 10.0641 151.876 9.93141C153.876 8.82304 156.044 8.04959 158.294 7.64175C161.471 7.0639 164.741 7.28554 167.811 8.28672C172.76 9.87302 176.577 12.9377 179.393 17.2728C181.407 20.3737 182.597 23.7826 183.029 27.4497ZM177.034 39.6252C178.948 35.467 179.658 31.1319 178.813 26.6092C177.968 22.0865 175.839 18.2469 172.294 15.2618C169.631 13.0191 166.537 11.7504 163.072 11.4354C160.048 11.1612 157.187 11.7831 154.475 13.1279C154.327 13.2022 154.188 13.2978 153.957 13.4367C154.222 13.8295 154.441 14.1524 154.654 14.4797C154.867 14.8071 155.083 15.1415 155.286 15.4795C157.208 18.6808 158.372 22.2798 158.688 26.0005C158.997 29.5217 158.578 32.9757 157.584 36.3615C156.076 41.4999 153.635 46.1721 150.49 50.4887C148.56 53.1366 146.365 55.5572 144.084 57.9044C142.101 59.9454 140.103 61.9741 138.157 64.0452C137.191 65.0688 136.31 66.1685 135.394 67.2426C135.306 67.3417 135.19 67.4461 135.315 67.6354C135.461 67.6354 135.627 67.646 135.792 67.6354C137.88 67.4806 139.959 67.5956 142.033 67.838C142.593 67.9035 143.153 67.9742 143.708 68.0662C143.86 68.101 144.018 68.0912 144.164 68.0379C144.31 67.9847 144.437 67.8904 144.531 67.7663C144.584 67.7017 144.652 67.6487 144.708 67.5894C145.728 66.5277 146.868 65.6129 148.063 64.7583C149.966 63.3958 151.946 62.1528 153.946 60.9398C156.644 59.304 159.363 57.6982 162.016 55.9907C165.847 53.5429 169.282 50.5252 172.203 47.0418C174.105 44.7566 175.787 42.3307 177.034 39.6252ZM170.673 115.929C170.705 113.157 169.96 110.588 168.549 108.204C167.493 106.415 166.146 104.874 164.624 103.473C164.106 102.997 163.622 102.485 163.137 101.976C162.651 101.466 162.512 100.854 162.631 100.175C162.68 99.8984 162.758 99.6268 162.822 99.3525C163.438 96.7703 163.602 94.1008 163.306 91.4626C162.851 87.4661 161.367 83.9009 158.853 80.7673C155.978 77.1992 152.278 74.8131 147.99 73.302C145.479 72.4173 142.887 71.9254 140.232 71.7201C137.983 71.5452 135.722 71.6021 133.485 71.89C132.927 71.9616 132.369 72.0342 131.81 72.0988C130.641 72.2359 129.093 70.9487 129.509 69.3562C129.597 68.9723 129.732 68.6006 129.91 68.2494C130.287 67.5575 130.696 66.8807 131.13 66.2234C132.015 64.8795 133.076 63.6692 134.138 62.4616C136.203 60.1082 138.436 57.915 140.62 55.6749C142.92 53.3118 145.171 50.9036 147.132 48.2432C150.045 44.2841 152.312 39.9941 153.698 35.2644C154.676 31.9264 155.041 28.5308 154.501 25.0689C153.766 20.3667 151.718 16.3474 148.19 13.1297C144.968 10.1924 141.188 8.56275 136.794 8.47162C133.609 8.40615 130.661 9.19532 127.966 10.9073C125.892 12.2255 124.18 13.9153 122.763 15.9192C120.85 18.6229 119.616 21.6292 118.786 24.8186C117.981 27.9107 117.65 31.0771 117.282 34.239C117.144 35.4414 117.051 36.6534 116.835 37.8425C116.668 38.7591 116.658 39.6279 117.005 40.4967C117.035 40.5753 117.062 40.6557 117.083 40.7373C118.011 44.0043 118.175 47.4411 117.561 50.7815C116.827 54.7795 115.234 58.4193 112.872 61.7255C110.286 65.3528 107.073 68.3113 103.287 70.654C103.07 70.7839 102.867 70.9367 102.682 71.1097C102.031 71.7378 101.435 72.4199 100.982 73.2038C100.079 74.7662 99.2617 76.372 98.6512 78.0768C97.8691 80.2639 97.4285 82.5252 97.1516 84.8255C96.8578 87.2934 97.0076 89.7941 97.594 92.2093C97.9071 93.5231 98.1743 94.8511 98.4026 96.1826C98.7229 98.0485 98.6008 99.8887 97.8983 101.668C97.701 102.166 97.5108 102.667 97.2905 103.154C96.1306 105.729 95.5644 108.454 95.3247 111.246C95.1132 113.699 95.2362 116.144 95.7962 118.556C96.4951 121.583 97.6258 124.414 99.5572 126.883C101.301 129.106 103.392 131.033 105.75 132.589C106.243 132.916 106.753 133.218 107.245 133.545C109.988 135.37 112.946 136.723 116.062 137.756C121.219 139.467 126.532 140.166 132.266 140.204C134.171 140.135 136.393 140.073 138.609 139.799C141.349 139.469 144.063 138.943 146.728 138.224C150.713 137.135 154.522 135.614 158.086 133.509C160.547 132.054 162.826 130.364 164.836 128.32C166.67 126.456 168.198 124.381 169.279 121.988C170.148 120.055 170.647 118.038 170.673 115.926V115.929ZM113.785 48.0433C113.951 45.5625 113.618 43.0736 112.805 40.724C111.583 37.1223 109.328 34.2275 106.513 31.768C103.505 29.1386 99.9562 27.5311 96.0643 26.6738C95.8201 26.6198 95.568 26.6092 95.2919 26.5747C95.1053 26.8074 94.9318 27.0259 94.7558 27.2418C93.5977 28.6574 92.4706 30.1065 91.2735 31.4885C87.5577 35.7864 83.2987 39.4509 78.4159 42.359C71.5532 46.449 64.2127 49.304 56.3342 50.7151C55.2269 50.9228 54.1071 51.0567 52.982 51.1159C50.9782 51.2044 48.9849 51.0071 47.0155 50.6231C45.5743 50.3418 44.1596 49.9605 42.8573 49.2571C40.7951 48.1433 39.0256 46.672 37.6375 44.7778C35.3868 41.7025 34.5985 38.2902 35.385 34.5398C35.9052 32.0626 37.0456 29.8827 38.6142 27.9168C40.1368 26.0238 41.96 24.3937 44.011 23.0916C48.999 19.8783 54.5002 18.3637 60.3986 18.2017C62.3769 18.1469 64.3392 18.346 66.2838 18.7025C67.9762 19.0057 69.6296 19.4965 71.2134 20.1658C71.5796 20.3094 71.9315 20.4872 72.2645 20.6967C72.6394 20.9525 72.9153 21.3292 73.046 21.7639C73.1767 22.1986 73.1544 22.665 72.9827 23.0852C72.8111 23.5054 72.5005 23.854 72.1028 24.0729C71.7052 24.2917 71.2445 24.3676 70.7976 24.2877C70.5234 24.2267 70.255 24.1423 69.9952 24.0356C69.2538 23.7702 68.5274 23.4543 67.7745 23.2261C64.4613 22.2201 61.0763 22.0193 57.6525 22.4298C54.2074 22.8439 50.9286 23.8277 47.8701 25.4812C45.7972 26.6013 43.9216 27.985 42.3442 29.7482C41.1295 31.1071 40.166 32.6182 39.6016 34.3629C39.1504 35.7044 39.0273 37.1345 39.2424 38.5335C39.5078 40.2551 40.2757 41.7379 41.4188 43.0358C42.5618 44.3337 43.9261 45.2892 45.4416 46.0748C46.613 46.6835 47.8639 46.9834 49.1663 47.079C51.8001 47.2727 54.402 46.9852 56.9818 46.4853C60.2553 45.851 63.4244 44.8645 66.5297 43.6657C69.6364 42.4788 72.6449 41.0494 75.5273 39.3908C80.4764 36.5225 84.7744 32.8722 88.5008 28.5406C92.5387 23.8516 96.0501 18.783 99.1174 13.4119C99.1946 13.2596 99.2637 13.1034 99.3245 12.9439C98.8821 12.835 98.492 12.9173 98.1044 12.9377C95.7378 13.0642 93.3654 12.8409 91.0639 12.275C87.3958 11.3797 83.7773 10.3145 80.1871 9.1502C76.6792 8.01157 73.174 6.85966 69.605 5.92098C65.6724 4.88586 61.6974 4.12765 57.6144 4.04361C55.8398 3.99744 54.0643 4.09776 52.3061 4.34353C48.2798 4.92744 44.4852 6.22621 40.9065 8.15312C36.2175 10.6799 32.1337 13.9613 28.7098 18.0558C26.1822 21.078 24.2685 24.4257 23.1971 28.23C22.5449 30.5674 22.2393 32.9878 22.2903 35.4139C22.2965 35.7236 22.3319 36.0332 22.354 36.342C22.4265 37.3347 22.047 38.1026 21.195 38.6184C20.8808 38.8041 20.5558 38.971 20.2218 39.1183C18.7795 39.7628 17.4124 40.5639 16.145 41.507C13.9456 43.1588 12.1691 45.1644 11.0234 47.6894C10.0522 49.8028 9.68711 52.1444 9.96881 54.4531C10.2157 56.5552 10.942 58.4989 12.0426 60.302C13.6625 62.9473 15.8469 65.0387 18.4267 66.725C22.9494 69.68 27.9569 71.1318 33.3209 71.414C35.3207 71.5189 37.326 71.4211 39.3061 71.1221C42.4265 70.6496 45.3974 69.7348 48.1612 68.1972C50.5809 66.8506 52.6733 65.1219 54.279 62.842C54.467 62.5606 54.6714 62.2906 54.8913 62.0333C55.1108 61.7772 55.36 61.5479 55.6335 61.3503C56.1794 60.977 56.7916 60.8921 57.403 61.1734C57.6762 61.3176 57.9239 61.5056 58.1364 61.7299C58.7628 62.3377 59.3494 62.9871 59.9872 63.5807C65.8662 69.0474 72.8926 71.7821 80.8427 72.2731C85.2133 72.528 89.5939 71.9884 93.772 70.6806C96.2657 69.8706 98.6539 68.766 100.886 67.3903C104.521 65.1661 107.595 62.3598 109.981 58.8218C112.168 55.5625 113.512 51.9926 113.782 48.0406L113.785 48.0433ZM95.6007 74.837C95.6626 74.6981 95.8104 74.5636 95.7148 74.3814C95.6892 74.3645 95.6626 74.3336 95.6449 74.338C95.4291 74.3973 95.2123 74.4539 95 74.5256C92.9472 75.2272 90.8306 75.7256 88.6804 76.0137C87.5639 76.1597 86.4421 76.2667 85.3185 76.3773C84.1418 76.4932 82.966 76.6374 81.7858 76.6905C79.5607 76.7903 77.3315 76.6353 75.1416 76.2286C73.1952 75.8686 71.3178 75.2847 69.4635 74.6114C66.9687 73.715 64.5961 72.5098 62.4008 71.0239C60.6335 69.8122 58.9792 68.4436 57.4578 66.9347C57.2437 66.7232 57.0694 66.4569 56.7412 66.3233C56.6333 66.4295 56.5271 66.518 56.4378 66.6206C54.1764 69.2527 51.4152 71.2043 48.2771 72.6491C44.2499 74.507 40.0023 75.3722 35.5876 75.4802C32.1742 75.5555 28.7678 75.1384 25.4735 74.2416C25.2594 74.1841 25.0524 74.0646 24.8073 74.1867C24.77 74.2212 24.7354 74.2585 24.7038 74.2982C22.2319 77.9052 20.3298 81.7803 19.1752 86.0101C18.5479 88.3104 18.2082 90.6381 18.3029 93.0259C18.3586 94.4176 18.593 95.7685 19.1557 97.0514C19.4866 97.8034 19.4061 98.505 19.0292 99.2357C17.1633 102.857 15.9752 106.673 15.7451 110.766C15.5612 113.785 16.0102 116.809 17.0634 119.644C18.3329 123.059 20.3758 125.966 22.9813 128.491C24.8737 130.323 26.9819 131.869 29.2495 133.203C33.1139 135.476 37.2588 137.06 41.5789 138.208C44.3839 138.953 47.2363 139.506 50.1164 139.864C51.5408 140.041 52.9741 140.184 54.4064 140.234C57.3924 140.337 60.3801 140.336 63.3616 140.093C64.8205 139.974 66.2811 139.866 67.7356 139.692C70.0288 139.418 72.3055 139.042 74.5656 138.561C78.4849 137.723 82.314 136.597 85.9785 134.967C88.4062 133.887 90.7135 132.599 92.7767 130.907C93.7893 130.096 94.6861 129.15 95.4423 128.095C95.2902 127.844 95.161 127.628 95.0292 127.415C93.0421 124.196 91.9327 120.671 91.4195 116.948C91.1072 114.678 91.1249 112.398 91.3824 110.119C91.7123 107.191 92.3555 104.348 93.5481 101.639C93.8304 100.995 94.0586 100.328 94.301 99.6684C94.5089 99.103 94.5443 98.5076 94.5231 97.9166C94.5031 97.4097 94.4439 96.9051 94.3462 96.4073C94.1329 95.3023 93.895 94.2008 93.6499 93.102C93.1651 90.9203 92.8536 88.7218 92.974 86.4808C93.0456 85.0738 93.198 83.6722 93.4305 82.2828C93.872 79.718 94.5337 77.2204 95.6007 74.837ZM20.4492 73.4073C20.5961 73.1773 20.7279 72.9384 20.8871 72.6685C20.1041 72.2802 19.3654 71.9369 18.6506 71.5503C17.9357 71.1636 17.2217 70.754 16.5361 70.3117C15.8283 69.8543 15.1356 69.365 14.4623 68.8554C13.8147 68.3644 13.2007 67.83 12.6 67.3381C12.5267 67.3409 12.4539 67.3521 12.3832 67.3717C12.2063 67.4602 12.0293 67.5487 11.8621 67.6495C10.4607 68.4768 9.29643 69.5756 8.27547 70.8345C6.31235 73.2512 4.96879 76.1105 4.36147 79.1642C4.03147 80.7726 3.93238 82.4031 4.15533 84.0398C4.27163 84.9919 4.53424 85.9203 4.93388 86.7922C5.24838 87.4884 5.69969 88.1142 6.26096 88.6324C7.49957 89.7489 8.96731 89.9383 10.5333 89.6056C11.9108 89.3136 13.091 88.6059 14.2066 87.7707C14.5511 87.5265 14.7852 87.156 14.8578 86.74C15.3536 84.3961 16.0812 82.1073 17.0298 79.9073C17.9896 77.6512 19.1332 75.4778 20.4491 73.4091L20.4492 73.4073Z" fill="#E67C4F"/>
<path d="M156.866 96.71C156.874 97.9 156.647 98.8519 156.15 99.7181C155.942 100.084 155.687 100.422 155.393 100.723C153.946 102.185 151.732 102.078 150.409 100.505C149.773 99.7481 149.43 98.8634 149.307 97.8982C149.102 96.273 149.38 94.761 150.452 93.4605C150.819 92.9928 151.303 92.6302 151.855 92.4094C153.159 91.9157 154.35 92.1307 155.378 93.0738C156.269 93.8913 156.677 94.9574 156.831 96.1323C156.864 96.3871 156.862 96.641 156.866 96.71Z" fill="#E67C4F"/>
<path d="M150.878 108.291C150.989 109.264 151.027 110.255 151.065 110.794C150.942 113.477 150.607 115.668 149.73 117.748C149.177 119.057 148.485 120.276 147.459 121.278C145.988 122.715 144.22 123.511 142.166 123.597C140.521 123.667 139.062 123.147 137.838 122.018C136.931 121.183 136.28 120.168 135.767 119.061C135.134 117.696 134.763 116.254 134.538 114.771C134.346 113.488 134.293 112.188 134.379 110.894C134.475 109.37 134.705 107.866 135.338 106.459C135.529 106.022 135.767 105.607 136.046 105.22C136.613 104.449 137.362 104.09 138.333 104.385C138.979 104.581 139.624 104.781 140.271 104.972C142.329 105.58 144.406 105.823 146.516 105.262C146.95 105.146 147.368 104.971 147.796 104.83C148.142 104.715 148.49 104.587 148.867 104.659C149.486 104.779 149.961 105.077 150.22 105.681C150.565 106.514 150.787 107.393 150.878 108.291Z" fill="#E67C4F"/>
<path d="M130.618 94.8695C130.943 95.6343 131.111 96.4565 131.113 97.2875C131.064 98.3925 130.805 99.4745 130.158 100.437C129.601 101.263 128.862 101.853 127.869 102.036C126.566 102.279 125.487 101.842 124.63 100.848C124.024 100.147 123.691 99.3135 123.554 98.4102C123.373 97.3219 123.48 96.2052 123.865 95.1712C124.166 94.3465 124.71 93.6325 125.425 93.1231C126.035 92.6826 126.779 92.4667 127.53 92.5118C128.281 92.5569 128.994 92.8604 129.546 93.3708C130.006 93.7883 130.372 94.2993 130.618 94.8695Z" fill="#E67C4F"/>
<path d="M83.7392 99.5699C83.7587 101.074 82.2706 102.066 80.9515 101.49C80.7199 101.387 80.5059 101.249 80.3171 101.08C79.6978 100.522 78.9635 100.171 78.1796 99.9214C76.5924 99.4163 74.9761 99.3402 73.3384 99.6215C72.6416 99.7349 71.975 99.9883 71.3788 100.366C71.1435 100.52 70.8876 100.639 70.6188 100.72C70.2103 100.839 69.7741 100.822 69.3765 100.67C68.9789 100.519 68.6416 100.241 68.4159 99.8807C67.9381 99.1287 67.9877 98.1998 68.5849 97.5283C68.8337 97.2606 69.1169 97.0271 69.4271 96.8338C70.3834 96.2306 71.4517 95.8268 72.5678 95.6465C75.1167 95.2041 77.6178 95.389 80.0499 96.3047C81.1116 96.7046 82.0918 97.2505 82.9341 98.0246C83.2951 98.3555 83.5755 98.7324 83.6764 99.2252C83.7056 99.3605 83.726 99.4991 83.7392 99.5699Z" fill="#E67C4F"/>
<path d="M61.5797 109.42C61.8128 109.743 61.9389 110.13 61.9403 110.529C61.9417 110.927 61.8184 111.315 61.5877 111.64C61.3669 111.93 61.1042 112.186 60.8082 112.4C59.989 113.019 59.06 113.418 58.0797 113.704C56.8367 114.076 55.5435 114.253 54.2463 114.229C52.8926 114.254 51.5432 114.068 50.2473 113.676C49.2409 113.395 48.2952 112.931 47.4579 112.306C47.1634 112.089 46.8987 111.835 46.6705 111.549C46.4009 111.201 46.2577 110.77 46.2645 110.33C46.2712 109.889 46.4275 109.463 46.7076 109.123C46.9832 108.779 47.3645 108.537 47.7921 108.433C48.2198 108.329 48.6699 108.369 49.0725 108.547C49.2545 108.622 49.4247 108.723 49.5776 108.848C50.4969 109.629 51.6054 109.943 52.7573 110.097C54.1623 110.284 55.5663 110.251 56.9403 109.831C57.51 109.654 58.0524 109.434 58.5328 109.077C58.8513 108.84 59.1901 108.644 59.5944 108.586C60.4269 108.464 61.0967 108.736 61.5797 109.42Z" fill="#E67C4F"/>
<path d="M45.046 97.0113C45.046 98.5154 43.5421 99.4885 42.2309 98.8948C42.0015 98.7877 41.7889 98.6477 41.6 98.4791C41.0197 97.9624 40.342 97.6315 39.6174 97.3847C38.0099 96.837 36.3616 96.7654 34.6975 97.0255C33.9677 97.1241 33.2709 97.3916 32.6626 97.8067C32.2953 98.075 31.8505 98.2163 31.3957 98.2092C30.5924 98.1951 29.9802 97.8385 29.6263 97.1184C29.2547 96.369 29.3432 95.6418 29.8545 94.9782C30.1527 94.5916 30.5623 94.3342 30.9772 94.0935C31.8099 93.6172 32.7162 93.2831 33.6588 93.1053C36.313 92.6152 38.9273 92.7806 41.4647 93.7609C42.3632 94.0962 43.2001 94.5774 43.9419 95.1853C44.1793 95.3833 44.3993 95.6015 44.5992 95.8373C44.8758 96.1673 45.0332 96.5809 45.046 97.0113Z" fill="#E67C4F"/>
<path d="M23.5703 162.693C22.55 161.8 21.6147 161.12 21.6147 159.632C21.6147 155.253 33.1783 154.488 36.3668 154.488C44.6144 154.488 51.1614 158.229 51.1614 167.327C51.1614 169.538 50.4387 171.706 49.2058 173.534C45.082 179.656 37.4296 179.061 30.9251 179.061C30.0748 181.569 31.3927 187.563 27.2264 187.563C22.72 187.563 22.4649 176.893 22.4649 173.662C22.4649 169.963 22.8901 166.307 23.5703 162.693ZM30.755 170.048C32.2855 170.388 33.8585 170.473 35.4315 170.473C37.8547 170.473 42.3186 170.771 42.3186 167.242C42.3186 161.375 34.3261 162.693 30.4574 163.118C30.5425 165.414 30.6275 167.752 30.755 170.048Z" fill="#E67C4F"/>
<path d="M62.8217 183.227C62.8217 185.14 61.9289 186.926 59.7607 186.926C56.0621 186.926 54.7016 180.889 54.7016 178.04C54.7016 175.277 55.1693 169.58 58.9105 169.58C61.3762 169.58 62.269 171.323 62.5666 173.449C62.8217 175.277 62.6516 177.403 62.8217 183.227ZM62.6091 162.438C62.6091 164.266 61.1212 165.882 59.2506 165.882C57.38 165.882 55.892 164.224 55.892 162.396C55.892 160.652 57.38 159.122 59.1655 159.122C61.0786 159.122 62.6091 160.482 62.6091 162.438Z" fill="#E67C4F"/>
<path d="M76.2625 184.12C76.0925 187.691 76.4751 195.088 71.2035 195.088C67.8874 195.088 66.8246 191.985 66.8246 189.264C66.8246 182.419 68.0575 175.405 68.0575 168.432C68.0575 167.327 67.7174 166.222 67.7174 165.159C67.7174 161.29 78.2607 159.59 81.2366 159.59C88.9315 159.59 94.4157 165.541 94.4157 173.194C94.4157 184.035 84.085 183.44 76.2625 184.12ZM74.7746 168.305L75.7524 173.747C77.9631 173.874 80.2588 174.087 82.4695 174.087C84.085 174.087 84.7652 173.321 84.7652 171.748C84.7652 168.262 82.0018 167.795 79.196 167.795C77.708 167.795 76.22 168.007 74.7746 168.305Z" fill="#E67C4F"/>
<path d="M108.189 184.12C108.019 187.691 108.402 195.088 103.13 195.088C99.8139 195.088 98.7511 191.985 98.7511 189.264C98.7511 182.419 99.984 175.405 99.984 168.432C99.984 167.327 99.6439 166.222 99.6439 165.159C99.6439 161.29 110.187 159.59 113.163 159.59C120.858 159.59 126.342 165.541 126.342 173.194C126.342 184.035 116.011 183.44 108.189 184.12ZM106.701 168.305L107.679 173.747C109.89 173.874 112.185 174.087 114.396 174.087C116.011 174.087 116.692 173.321 116.692 171.748C116.692 168.262 113.928 167.795 111.122 167.795C109.634 167.795 108.147 168.007 106.701 168.305Z" fill="#E67C4F"/>
<path d="M138.798 183.227C138.798 185.14 137.905 186.926 135.737 186.926C132.038 186.926 130.678 180.889 130.678 178.04C130.678 175.277 131.145 169.58 134.886 169.58C137.352 169.58 138.245 171.323 138.543 173.449C138.798 175.277 138.628 177.403 138.798 183.227ZM138.585 162.438C138.585 164.266 137.097 165.882 135.227 165.882C133.356 165.882 131.868 164.224 131.868 162.396C131.868 160.652 133.356 159.122 135.141 159.122C137.055 159.122 138.585 160.482 138.585 162.438Z" fill="#E67C4F"/>
<path d="M149.815 163.926C151.686 162.948 152.579 162.14 154.832 162.14C164.822 162.14 163.93 172.344 163.93 179.868C163.93 182.164 163.334 185.65 160.359 185.65C157.808 185.65 156.32 183.737 156.065 180.676C155.682 176.085 156.66 168.007 154.492 168.007C152.579 168.007 150.793 171.748 150.793 173.406C150.793 175.575 151.346 177.785 151.346 179.954C151.346 182.674 150.878 186.245 147.307 186.245C142.46 186.245 142.886 179.613 142.886 176.34C142.886 173.832 142.886 164.819 143.821 163.033C144.331 162.055 145.351 161.375 146.499 161.375C148.327 161.375 148.922 162.651 149.815 163.926Z" fill="#E67C4F"/>
<path d="M61.2998 214.28C60.2795 213.388 59.3442 212.707 59.3442 211.219C59.3442 206.841 70.9078 206.075 74.0963 206.075C82.3439 206.075 88.8909 209.816 88.8909 218.914C88.8909 221.125 88.1682 223.293 86.9353 225.121C82.8115 231.243 75.1591 230.648 68.6546 230.648C67.8043 233.156 69.1222 239.151 64.9559 239.151C60.4495 239.151 60.1944 228.48 60.1944 225.249C60.1944 221.55 60.6196 217.894 61.2998 214.28ZM68.4845 221.635C70.015 221.975 71.588 222.06 73.161 222.06C75.5843 222.06 80.0482 222.358 80.0482 218.829C80.0482 212.962 72.0557 214.28 68.1869 214.705C68.272 217.001 68.357 219.339 68.4845 221.635Z" fill="#E67C4F"/>
<path d="M110.627 227.332C111.18 224.824 111.605 219.85 115.048 219.85C116.281 219.85 117.301 220.572 117.812 221.678C119.044 224.484 119.002 227.885 120.617 231.371C121 232.221 121.298 233.114 121.298 234.092C121.298 236.472 119.682 238.64 117.174 238.64C114.283 238.64 113.263 236.727 111.945 234.644C108.586 235.622 106.843 237.493 102.932 237.493C96.725 237.493 92.2186 232.901 92.2186 226.737C92.2186 218.489 98.1705 211.687 106.673 211.687C109.522 211.687 115.516 212.41 115.516 216.236C115.516 222.57 101.231 216.534 101.231 227.715C101.231 229.373 101.869 230.265 103.57 230.265C105.143 230.265 109.096 228.097 110.627 227.332Z" fill="#E67C4F"/>
<path d="M129.376 238.938C128.016 238.938 126.868 238.003 126.273 236.855C124.87 234.177 124.147 222.783 124.147 219.424C124.147 216.236 124.317 206.628 128.824 206.628C133.628 206.628 132.905 214.493 132.905 217.809C132.905 223.633 132.565 229.585 132.352 235.409C132.267 237.323 131.502 238.938 129.376 238.938Z" fill="#E67C4F"/>
<path d="M150.253 218.404C151.231 218.362 152.209 218.319 153.186 218.319C162.964 218.319 162.837 224.016 162.837 230.818C162.837 237.535 155.397 238.811 150.125 238.811C145.917 238.811 136.521 238.981 136.521 232.944C136.521 230.18 139.199 228.055 141.835 228.055C145.321 228.055 148.765 228.905 152.251 228.905C153.101 228.905 153.952 228.862 154.802 228.735C154.929 228.055 155.142 227.374 155.142 226.694C155.142 225.079 149.743 225.759 148.425 225.759C141.453 225.759 136.691 224.611 136.691 216.661C136.691 209.689 143.451 206.585 149.573 206.585C152.889 206.585 161.391 207.691 161.391 212.155C161.391 214.791 159.436 215.641 157.098 215.641C154.887 215.641 152.719 215.216 150.508 215.216C142.133 215.216 142.856 218.744 150.253 218.404Z" fill="#E67C4F"/>
<path d="M34.5886 216.852C36.7986 217.824 39.1764 218.164 41.5598 218.389C42.2758 216.34 41.0558 211.914 43.2937 210.919C44.8788 210.215 46.2403 211.285 46.8969 212.78C47.615 214.414 47.686 217.621 47.8447 219.504C49.8495 220.009 53.0964 220.297 54.0402 222.446C54.7173 223.987 53.9658 225.828 52.4739 226.491C50.8888 227.195 47.9421 226.83 46.1947 226.657C44.703 230.111 42.8774 232.932 39.2875 234.527C34.6253 236.598 28.7936 236.007 26.4751 230.729C24.9569 227.272 25.2271 224.082 25.7882 220.539C23.3637 218.825 21.2767 216.738 20.0456 213.935C17.4194 207.956 19.8918 200.773 25.8128 198.143C30.7081 195.968 36.635 197.41 38.9535 202.688C41.354 208.153 37.3092 212.518 34.5886 216.852ZM28.5273 213.963C29.4634 212.542 33.2415 207.57 32.5439 205.982C31.8258 204.347 30.0056 204.263 28.6069 204.884C26.136 205.982 25.4219 208.923 26.4888 211.352C26.9402 212.379 27.6974 213.215 28.5273 213.963ZM39.4286 225.588L32.2783 223.517C32.0565 224.788 32.3289 226.677 32.8623 227.891C33.4163 229.152 35.6784 228.594 36.6109 228.179C37.7764 227.662 38.845 226.796 39.4286 225.588Z" fill="#D6E499"/>
</svg>
