<svg width="145" height="145" viewBox="0 0 145 145" fill="none" xmlns="http://www.w3.org/2000/svg">
<rect x="1.55497" y="1.55497" width="140.984" height="140.984" rx="19.178" fill="#FFC2C2" stroke="#E67C4F" stroke-width="3.10994"/>
<path d="M82.1268 28.6098C82.3202 28.506 82.4988 28.4126 82.6747 28.3153C84.3495 27.3964 86.1328 26.7932 88.0301 26.5671C90.4341 26.2841 92.7779 26.572 95.0307 27.4685C99.2433 29.1447 102.115 32.1741 103.883 36.2881C104.584 37.9194 104.979 39.6317 105.143 41.4023C105.44 44.6072 104.86 47.6546 103.564 50.5847C102.547 52.8853 101.144 54.9384 99.5391 56.8643C96.94 59.9828 93.8309 62.5063 90.3897 64.6332C88.6278 65.7215 86.8428 66.7721 85.0683 67.8402C83.6931 68.6685 82.3476 69.5404 81.0601 70.4992C80.8667 70.6435 80.6826 70.7997 80.5002 70.9456C80.6037 71.1488 80.7834 71.1499 80.9297 71.2035C82.2106 71.6722 83.4499 72.2268 84.6251 72.9206C88.2706 75.0759 90.9984 78.0387 92.602 81.9794C93.643 84.5385 94.0385 87.2063 93.8692 89.956C93.8171 90.9277 93.6833 91.8934 93.4693 92.8428C93.4512 92.9204 93.4452 93.0007 93.4288 93.1127C93.5822 93.2586 93.7399 93.4132 93.9032 93.5613C95.1127 94.6485 96.1625 95.9003 97.0217 97.2796C98.0686 98.9771 98.7535 100.805 99.0061 102.785C99.2855 104.98 98.9924 107.109 98.2226 109.177C97.4928 111.139 96.3911 112.878 95.0258 114.457C93.46 116.265 91.6356 117.776 89.6249 119.065C86.8373 120.854 83.8312 122.16 80.6623 123.112C76.1366 124.46 71.42 125.06 66.6999 124.887C63.1103 124.746 59.5902 124.192 56.1606 123.096C53.4671 122.238 50.9061 121.012 48.5507 119.452C47.433 118.712 46.3181 117.969 45.3183 117.07C44.1228 115.993 43.0221 114.83 42.099 113.511C41.0432 112.003 40.2954 110.349 39.7563 108.594C39.035 106.264 38.7521 103.821 38.9219 101.389C39.0863 98.9695 39.5569 96.612 40.5381 94.3753C40.6439 94.1338 40.7375 93.8874 40.8477 93.6481C41.3073 92.6533 41.3769 91.6174 41.1621 90.557C40.9896 89.7036 40.7984 88.854 40.611 88.0034C40.2023 86.1611 40.0676 84.2689 40.211 82.3876C40.3754 80.2366 40.714 78.1261 41.3495 76.0631C42.0513 73.7871 43.0063 71.6225 44.3014 69.6163C45.0643 68.442 45.9618 67.3603 46.9756 66.393C47.3996 65.9848 47.81 65.5636 48.2242 65.1451C48.6077 64.7556 49.0021 64.3731 49.3714 63.9688C50.6063 62.6172 51.5251 61.0831 52.0735 59.3299C52.5468 57.8182 52.8772 56.2753 53.1544 54.7193C53.4782 52.9028 53.6508 51.0682 53.7993 49.2297C53.9746 47.0488 54.2041 44.8727 54.6359 42.7245C54.9788 41.0161 55.4029 39.3273 55.9557 37.673C56.3759 36.4214 56.9418 35.2304 57.4842 34.0322C58.2227 32.4043 59.1992 30.8945 60.3819 29.5523C62.1734 27.5166 64.3172 25.9874 66.9015 25.1198C68.8122 24.47 70.8398 24.2336 72.8492 24.4265C76.241 24.751 79.1869 26.0786 81.7422 28.3055C81.8611 28.4066 81.9904 28.5011 82.1268 28.6098ZM67.6406 122.002C69.3069 122.025 70.973 121.949 72.63 121.772C74.8526 121.535 77.0516 121.115 79.2045 120.515C82.0123 119.725 84.6963 118.639 87.2072 117.145C89.2617 115.922 91.1365 114.479 92.7187 112.678C94.0336 111.184 95.0745 109.531 95.6772 107.624C96.4393 105.214 96.362 102.835 95.3983 100.491C94.6275 98.6165 93.4156 97.0595 91.9292 95.7029C91.5545 95.3604 91.1984 95.0031 90.8488 94.6348C90.3968 94.159 90.2785 93.6378 90.4418 93.0155C90.6764 92.1131 90.8357 91.1928 90.9179 90.2641C91.1129 88.0968 90.908 85.9694 90.2106 83.9064C89.1072 80.6453 87.0822 78.0693 84.2465 76.1271C81.1308 73.9925 77.6392 72.9725 73.8973 72.7474C72.1704 72.6436 70.4457 72.6982 68.7303 72.9703C68.5093 73.0024 68.2867 73.023 68.0636 73.0321C67.2155 73.0779 66.2698 72.1688 66.4873 71.1466C66.5523 70.8077 66.6699 70.4809 66.8358 70.178C67.3091 69.3497 67.8192 68.5466 68.4175 67.7998C69.5855 66.341 70.8533 64.9725 72.1556 63.6334C73.5 62.2517 74.8555 60.8809 76.183 59.4812C77.8644 57.7122 79.3847 55.8137 80.6755 53.7381C82.0835 51.4708 83.2148 49.0773 83.966 46.5122C84.442 44.9174 84.692 43.264 84.7089 41.6001C84.7313 39.5671 84.3341 37.5512 83.5419 35.6778C82.3147 32.7866 80.3731 30.5045 77.6447 28.9234C75.1875 27.5029 72.5374 26.9828 69.723 27.4057C67.4938 27.7401 65.5494 28.6994 63.8565 30.1762C63.2122 30.7378 62.6512 31.3748 62.0907 32.0201C61.219 33.027 60.5364 34.1508 59.9809 35.3473C59.6236 36.1182 59.3119 36.912 59.0204 37.7107C57.6464 41.4717 57.0142 45.3802 56.7106 49.3537C56.6317 50.3836 56.5501 51.4145 56.4296 52.4406C56.1975 54.4321 55.843 56.4076 55.3678 58.3558C55.0736 59.5577 54.7104 60.7373 54.214 61.8731C53.5062 63.4897 52.4816 64.8933 51.2714 66.1673C50.6287 66.8437 49.9669 67.502 49.3177 68.1729C48.4137 69.1077 47.5618 70.0851 46.8276 71.1619C45.4634 73.1594 44.5507 75.36 43.9135 77.6787C43.4093 79.4967 43.1479 81.3732 43.1361 83.2595C43.1284 84.6215 43.2183 85.9704 43.4911 87.3073C43.7021 88.3388 43.9179 89.3703 44.0867 90.4094C44.2872 91.6458 44.239 92.8745 43.7941 94.0644C43.638 94.4818 43.4829 94.9003 43.301 95.3063C42.4551 97.1758 42.0332 99.1525 41.8585 101.18C41.7051 102.966 41.7949 104.745 42.2102 106.497C42.5532 107.941 43.0232 109.338 43.7404 110.649C44.6997 112.397 46.0212 113.844 47.5207 115.144C48.428 115.932 49.4415 116.57 50.4441 117.226C52.4619 118.547 54.6304 119.545 56.9194 120.29C60.3983 121.425 63.983 121.94 67.6406 122.002ZM70.6484 69.7901C70.8675 69.8693 71.0938 69.8218 71.3146 69.8174C72.5544 69.7928 73.7937 69.7748 75.028 69.9234C75.5924 69.9917 76.1572 70.0594 76.7188 70.1458C76.9379 70.1796 77.1187 70.1654 77.2666 69.9873C77.3313 69.9097 77.4107 69.8447 77.482 69.7721C78.214 69.0396 79.0084 68.372 79.8564 67.7768C81.345 66.7142 82.8993 65.7554 84.4645 64.8108C86.3065 63.6984 88.1615 62.6041 89.9695 61.4382C92.8546 59.5807 95.4131 57.3407 97.5849 54.6691C98.8565 53.1038 99.978 51.4457 100.817 49.6062C102.157 46.6696 102.65 43.6139 102.077 40.4178C101.54 37.413 100.208 34.8086 97.9744 32.7145C95.3326 30.239 92.1867 29.1114 88.5511 29.4392C87.0965 29.5703 85.7318 30.0183 84.4322 30.6739C84.3309 30.7252 84.1983 30.7591 84.189 30.9394C84.2985 31.1033 84.4251 31.2891 84.55 31.4721C86.2484 33.9721 87.2346 36.735 87.5331 39.7333C87.7567 41.9907 87.5479 44.2247 86.9962 46.4259C86.2358 49.4597 84.9604 52.2717 83.3474 54.9439C81.9575 57.2451 80.3051 59.3496 78.4615 61.3022C76.9434 62.91 75.3836 64.4791 73.8436 66.0668C72.8262 67.1163 71.8422 68.1975 70.9201 69.3306C70.8095 69.4672 70.6451 69.5787 70.6484 69.7901Z" fill="#E67C4F"/>
<path d="M82.0479 100.699C81.9931 102.615 81.7532 104.29 81.0815 105.883C80.6596 106.883 80.12 107.807 79.3064 108.544C78.2282 109.519 76.9648 110.057 75.4981 110.079C74.1559 110.099 73.0525 109.574 72.1605 108.591C71.439 107.795 70.9634 106.856 70.6331 105.847C70.0355 104.031 69.8484 102.106 70.0852 100.21C70.1855 99.3803 70.3449 98.5707 70.6829 97.8025C70.8304 97.4697 71.0104 97.1522 71.2204 96.8546C71.6258 96.2815 72.1907 96.0744 72.8766 96.2575C73.2881 96.3667 73.6984 96.4864 74.0994 96.629C75.3283 97.066 76.5972 97.1671 77.883 97.0562C78.3213 97.018 78.7541 96.8726 79.1853 96.7623C79.3809 96.712 79.5688 96.6235 79.7589 96.5579C80.5846 96.2782 81.1883 96.558 81.5088 97.3742C81.7329 97.9435 81.8518 98.5412 81.9219 99.1443C81.9926 99.7273 82.0189 100.315 82.0479 100.699Z" fill="#E67C4F"/>
<path d="M86.2358 90.8372C86.226 91.7081 86.0282 92.4429 85.6036 93.1083C85.2924 93.5968 84.8826 93.977 84.3331 94.1972C83.4828 94.5381 82.7021 94.4004 81.9838 93.8606C81.5793 93.5499 81.2663 93.1362 81.0776 92.6631C80.5791 91.477 80.6229 90.2903 81.1324 89.1261C81.3477 88.641 81.6936 88.225 82.1317 87.9241C83.1141 87.2341 84.3232 87.3232 85.1932 88.1602C85.8052 88.7491 86.0956 89.4916 86.2057 90.3144C86.232 90.5154 86.2292 90.7192 86.2358 90.8372Z" fill="#E67C4F"/>
<path d="M62.1499 91.2486C62.18 90.2007 62.409 89.3168 63.0758 88.589C63.3963 88.2394 63.7694 87.9706 64.2263 87.8285C65.0755 87.5663 65.8288 87.757 66.4988 88.3137C66.8273 88.5879 67.0871 88.9347 67.2576 89.3266C67.8378 90.6334 67.7852 91.925 67.1147 93.1821C66.8018 93.7694 66.3383 94.2147 65.7039 94.4616C64.9232 94.7659 64.1852 94.6616 63.5075 94.1885C62.7054 93.6323 62.3422 92.8128 62.1964 91.8807C62.1603 91.6447 62.1603 91.4 62.1499 91.2486Z" fill="#E67C4F"/>
</svg>
