<svg width="145" height="145" viewBox="0 0 145 145" fill="none" xmlns="http://www.w3.org/2000/svg">
<rect x="1.55497" y="1.55497" width="140.984" height="140.984" rx="19.178" fill="#FFF1A1" stroke="#E67C4F" stroke-width="3.10994"/>
<path d="M105.15 81.952C104.903 83.2106 104.662 84.4376 104.411 85.7205C104.485 85.8422 104.587 86.0154 104.694 86.1865C105.734 87.8518 106.464 89.6422 106.834 91.5704C107.117 93.0223 107.196 94.5065 107.069 95.9803C106.776 99.301 105.601 102.306 103.82 105.093C102.224 107.589 100.24 109.742 97.9662 111.631C97.2192 112.252 96.4328 112.826 95.6586 113.413C95.0296 113.891 94.4034 114.374 93.7561 114.826C92.0198 116.037 90.1345 116.97 88.1715 117.75C85.7769 118.703 83.3091 119.411 80.7903 119.952C78.9264 120.353 77.0488 120.661 75.1575 120.876C73.9937 121.011 72.8161 121.076 71.6451 121.172C69.4593 121.35 67.267 121.272 65.0812 121.263C64.5564 121.263 64.0283 121.187 63.5079 121.128C60.4837 120.788 57.4944 120.263 54.5688 119.412C51.7192 118.582 48.9754 117.497 46.394 116.023C43.9672 114.639 41.7616 112.97 39.884 110.89C37.5425 108.296 35.9348 105.322 35.216 101.888C34.7982 99.8893 34.7322 97.8747 34.9589 95.8491C35.2448 93.2911 35.9847 90.862 37.0648 88.532C37.0779 88.4938 37.0942 88.4567 37.1136 88.4213C37.3247 88.1103 37.3269 87.7848 37.2128 87.4367C36.9141 86.5268 36.8248 85.5782 36.7057 84.6351C36.6907 84.515 36.6758 84.395 36.6503 84.2765C36.6431 84.2428 36.6021 84.2162 36.5533 84.1597C36.3815 84.2295 36.1981 84.3009 36.0168 84.3778C34.9561 84.8277 33.8527 85.0419 32.6983 84.9777C30.9881 84.8809 29.5833 84.1592 28.4577 82.8885C27.5793 81.8961 27.055 80.7212 26.7469 79.4427C26.3667 77.8659 26.3551 76.277 26.5962 74.6803C27.0151 71.9031 28.0797 69.3954 29.7584 67.1473C30.7116 65.8705 31.8333 64.7675 33.1788 63.903C33.2459 63.8598 33.3068 63.8067 33.4005 63.7369C33.3224 63.6141 33.2525 63.4973 33.1788 63.3849C31.9225 61.5099 31.033 59.4887 30.7465 57.2339C30.2832 53.5867 31.3561 50.3966 33.6732 47.5917C35.1013 45.8639 36.8703 44.5616 38.8482 43.5283C39.0449 43.4248 39.2422 43.3213 39.4384 43.2173C39.4562 43.2043 39.4725 43.1894 39.4872 43.173C39.5858 42.961 39.5265 42.7369 39.5199 42.5183C39.4473 40.0781 39.8756 37.7287 40.7596 35.4535C41.6078 33.2804 42.787 31.2512 44.2554 29.4375C47.7357 25.1118 52.014 21.8215 57.1458 19.6658C59.5011 18.6723 61.9904 18.0315 64.5332 17.7642C66.3947 17.5683 68.2551 17.5876 70.1172 17.7526C73.1375 18.0199 76.078 18.6896 78.9731 19.5563C81.5523 20.3311 84.1138 21.1613 86.6835 21.9676C88.887 22.6583 91.1076 23.2859 93.3643 23.7818C94.3563 23.9915 95.371 24.0746 96.384 24.0292C97.642 23.9838 98.8879 23.8433 100.115 23.5466C100.373 23.4919 100.638 23.4776 100.9 23.504C101.904 23.5826 102.446 24.4277 102.086 25.3658C101.929 25.7824 101.736 26.1847 101.51 26.5684C100.047 29.0186 98.6318 31.4991 97.0302 33.8651C97.0001 33.9151 96.9731 33.9668 96.9493 34.0201C96.9826 34.1861 97.125 34.1728 97.2353 34.2033C98.9964 34.6841 100.686 35.3965 102.259 36.3219C104.955 37.9224 107.149 40.0344 108.816 42.697C110.084 44.7227 110.827 46.9287 111.135 49.2831C111.445 51.6491 111.165 53.9652 110.465 56.2388C110.157 57.2454 109.766 58.2249 109.296 59.1671C109.197 59.3641 109.101 59.5634 108.99 59.7892C109.114 59.8999 109.227 60.0106 109.352 60.1052C111.948 62.1076 113.951 64.5931 115.396 67.5292C116.146 69.0352 116.67 70.6435 116.951 72.3021C117.234 74.0178 117.228 75.7285 116.748 77.4165C116.385 78.6845 115.778 79.8141 114.844 80.7566C113.721 81.8911 112.35 82.5326 110.784 82.7756C109.118 83.034 107.514 82.7623 105.943 82.226C105.675 82.1363 105.412 82.0428 105.15 81.952ZM44.3424 70.8504C44.2854 70.9048 44.2317 70.9627 44.1817 71.0236C42.4548 73.5485 41.1159 76.2587 40.2819 79.2069C39.7942 80.9304 39.5248 82.6837 39.6058 84.4818C39.6501 85.4609 39.8147 86.4123 40.2109 87.3133C40.4476 87.8529 40.4071 88.3571 40.1356 88.8829C38.7822 91.5018 37.9221 94.2607 37.7603 97.2222C37.6914 98.4556 37.7667 99.6928 37.9848 100.909C38.4591 103.552 39.5808 105.905 41.2423 108.008C42.7912 109.969 44.6782 111.55 46.7842 112.878C49.2337 114.42 51.8727 115.543 54.6298 116.404C56.662 117.03 58.7362 117.51 60.8367 117.843C61.796 117.998 62.7609 118.119 63.7268 118.23C64.7543 118.344 65.7878 118.363 66.8214 118.379C68.7677 118.41 70.7124 118.366 72.652 118.21C74.4899 118.071 76.3196 117.839 78.1341 117.516C80.0261 117.17 81.9025 116.784 83.7314 116.162C86.5976 115.186 89.3492 113.971 91.9372 112.398C94.5829 110.788 96.9848 108.878 99.0563 106.569C100.401 105.07 101.555 103.439 102.458 101.634C103.419 99.7133 104.045 97.6938 104.189 95.5464C104.38 92.7144 103.718 90.0866 102.197 87.6824C102.046 87.4428 101.889 87.2059 101.725 86.9757C101.478 86.632 101.351 86.2562 101.409 85.8345C101.455 85.4947 101.496 85.1504 101.589 84.8222C102.067 83.1381 102.284 81.4157 102.36 79.6751C102.409 78.3599 102.342 77.043 102.159 75.7396C101.972 74.3504 101.655 72.9945 101.131 71.6933C100.789 70.846 100.369 70.0385 99.7546 69.3483C99.6589 69.2508 99.5581 69.1585 99.4526 69.0716C99.2436 69.1751 99.058 69.2559 98.8823 69.355C97.4852 70.1459 95.9939 70.7226 94.4826 71.2445C92.8699 71.8012 91.2007 72.13 89.5071 72.3292C88.565 72.4399 87.6134 72.5213 86.6669 72.6198C84.6695 72.8356 82.6515 72.7672 80.6733 72.4167C78.2055 71.9739 75.8608 71.1437 73.6279 70.0125C71.46 68.9133 69.5458 67.4605 67.8167 65.7581C67.6471 65.5921 67.5003 65.394 67.2559 65.26C67.1534 65.3646 67.0558 65.4626 66.9605 65.5616C66.6091 65.9258 66.2728 66.3055 65.9075 66.653C64.3004 68.1739 62.4416 69.3096 60.3972 70.1453C58.2065 71.0413 55.9277 71.5605 53.568 71.7586C51.0809 71.9668 48.5766 71.8057 46.1369 71.2804C45.5455 71.146 44.957 70.996 44.3424 70.8504ZM97.877 26.9481C97.7889 26.9022 97.7706 26.8845 97.7529 26.885C97.4697 26.8933 97.1859 26.9005 96.9028 26.9155C95.2413 27.0002 93.5764 26.8415 91.9611 26.4445C89.301 25.7986 86.6819 25.0282 84.0816 24.1836C81.6936 23.4088 79.3073 22.6279 76.8821 21.9737C73.9023 21.1701 70.8869 20.5779 67.7862 20.5226C66.5498 20.4939 65.3131 20.565 64.0881 20.7351C61.1714 21.1552 58.4238 22.0922 55.8307 23.488C52.4762 25.295 49.5568 27.6388 47.105 30.5605C45.2856 32.7283 43.9024 35.127 43.1271 37.861C42.6549 39.5386 42.4308 41.2762 42.462 43.0186C42.4654 43.261 42.4942 43.5029 42.5097 43.7453C42.5551 44.4321 42.2958 44.9717 41.7106 45.3392C41.4864 45.477 41.2529 45.5991 41.0117 45.7045C40.1604 46.0824 39.3444 46.535 38.5733 47.0571C37.1828 47.998 35.9869 49.1392 35.078 50.5588C33.794 52.5645 33.2875 54.7423 33.6588 57.1083C33.8713 58.4306 34.3399 59.699 35.0381 60.8424C36.2075 62.7894 37.8052 64.3219 39.6966 65.555C42.932 67.6636 46.5132 68.7019 50.3487 68.9106C51.8271 68.9926 53.3101 68.9197 54.7733 68.6931C56.667 68.3992 58.4908 67.88 60.2177 67.0449C62.389 65.9933 64.2444 64.5594 65.6194 62.5509C65.7172 62.3976 65.8285 62.2533 65.9519 62.1198C66.117 61.9425 66.3014 61.7842 66.5016 61.6477C66.8846 61.4058 67.3091 61.3665 67.7209 61.5624C67.9159 61.6549 68.0883 61.8115 68.2462 61.9648C68.6962 62.402 69.118 62.868 69.5763 63.2931C73.8053 67.217 78.8589 69.179 84.5759 69.5304C87.7188 69.7129 90.8687 69.3259 93.8736 68.3881C95.6662 67.8054 97.3831 67.0119 98.9882 66.0243C101.638 64.4044 103.871 62.3561 105.594 59.7704C107.126 57.4691 108.063 54.9554 108.265 52.1881C108.394 50.3867 108.156 48.5779 107.564 46.8711C106.686 44.2843 105.064 42.2056 103.04 40.439C100.879 38.5506 98.3254 37.395 95.5262 36.7801C95.351 36.7414 95.1693 36.7331 94.9803 36.7098C94.865 36.846 94.7586 36.9666 94.6594 37.0901C93.801 38.1416 92.9669 39.2114 92.0808 40.2381C89.5869 43.1232 86.7473 45.6137 83.5075 47.631C78.5591 50.7115 73.2217 52.8334 67.4958 53.9547C66.5831 54.1335 65.6554 54.2818 64.7288 54.3305C63.0019 54.4224 61.2884 54.2387 59.6025 53.8463C58.5313 53.5972 57.511 53.2153 56.58 52.6148C55.7071 52.0514 54.8997 51.4083 54.2064 50.6357C51.8932 48.0566 51.1262 45.0924 52.055 41.7363C52.4762 40.2143 53.2454 38.8628 54.2363 37.6363C55.3247 36.298 56.6214 35.1432 58.0769 34.216C61.663 31.9053 65.6183 30.8167 69.8595 30.6966C71.2821 30.6568 72.6936 30.7996 74.0918 31.053C75.3481 31.2793 76.575 31.6457 77.7494 32.1455C77.9935 32.2441 78.2265 32.3682 78.4444 32.5158C78.7032 32.6991 78.892 32.9647 78.9801 33.2691C79.0682 33.5735 79.0503 33.8987 78.9293 34.1916C78.6733 34.8298 78.052 35.1879 77.3687 35.0722C77.1505 35.0299 76.938 34.9619 76.7358 34.8696C75.331 34.2608 73.8601 33.9033 72.3444 33.7196C70.7046 33.5209 69.0686 33.5751 67.4354 33.8037C65.0846 34.1357 62.8584 34.8414 60.773 35.9782C59.3038 36.7796 57.9771 37.7691 56.861 39.0221C56.0047 39.9851 55.3242 41.0544 54.9213 42.2875C54.5941 43.2499 54.5021 44.2765 54.6531 45.2816C54.8398 46.4959 55.368 47.5508 56.1671 48.4745C56.943 49.3755 57.8901 50.0601 58.9331 50.6257C59.8785 51.1382 60.886 51.3945 61.9534 51.4476C63.0462 51.4996 64.1414 51.4647 65.2287 51.343C66.8192 51.163 68.3927 50.8552 69.9337 50.4226C73.5504 49.4275 77.0335 47.9999 80.3076 46.171C82.4133 44.9931 84.3921 43.6022 86.213 42.0202C88.1178 40.3692 89.8042 38.5141 91.3902 36.561C93.7572 33.6454 95.8326 30.5328 97.708 27.2824C97.7678 27.1783 97.8166 27.0699 97.8781 26.9481H97.877ZM102.064 67.5253C102.136 67.6315 102.198 67.7339 102.271 67.828C102.969 68.7329 103.483 69.7385 103.897 70.7978C104.648 72.7161 105.026 74.7157 105.192 76.7607C105.218 77.0828 105.238 77.406 105.256 77.7292C105.274 78.0707 105.287 78.4127 105.301 78.7559C105.755 79.0675 106.25 79.2468 106.742 79.43C107.717 79.7941 108.722 80.0105 109.77 79.9651C111.738 79.8799 113.137 78.8461 113.801 77.0822C114.032 76.4551 114.167 75.7969 114.202 75.1297C114.3 73.5916 114.044 72.1034 113.544 70.6578C112.46 67.522 110.597 64.9202 108.064 62.7883C107.866 62.6223 107.673 62.4408 107.399 62.3251C106.858 62.9571 106.346 63.6041 105.779 64.2068C105.212 64.8095 104.615 65.3879 103.994 65.9391C103.372 66.4903 102.719 66.9907 102.065 67.5253H102.064ZM41.4739 69.8226C40.8992 69.5376 40.3683 69.2908 39.8535 69.0135C39.3386 68.7362 38.8266 68.4423 38.3328 68.128C37.8224 67.7998 37.3253 67.4478 36.8415 67.082C36.3754 66.7294 35.9337 66.3453 35.497 65.9878C35.2315 66.0188 35.0537 66.1616 34.8669 66.2762C33.9059 66.865 33.0979 67.6277 32.3913 68.4971C30.9778 70.2321 30.0112 72.2864 29.5761 74.4805C29.2956 75.8591 29.2374 77.2477 29.545 78.6385C29.7218 79.4377 30.0128 80.1882 30.5248 80.8374C31.0369 81.4866 31.682 81.9133 32.5005 82.0384C33.0431 82.1204 33.5967 82.0921 34.1282 81.9554C35.1329 81.7019 35.9902 81.1805 36.7944 80.5507C36.9566 80.4269 37.0641 80.2449 37.0942 80.0432C37.1429 79.7665 37.2128 79.4897 37.2809 79.213C38.049 76.0999 39.3525 73.2169 41.0494 70.5039L41.4739 69.8226Z" fill="#E67C4F"/>
<path d="M65.3855 99.6673C64.4545 99.6873 63.5173 99.5395 62.5979 99.2744C61.8935 99.0802 61.2296 98.7616 60.6378 98.3335C60.4071 98.1697 60.199 97.9764 60.0187 97.7585C59.5898 97.2156 59.6192 96.49 60.0586 95.9686C60.2641 95.7283 60.5431 95.5622 60.8525 95.496C61.1619 95.4298 61.4845 95.4671 61.7705 95.6023C61.882 95.6507 61.9866 95.7138 62.0814 95.7899C62.7392 96.3527 63.5351 96.5824 64.3641 96.697C65.3129 96.8276 66.2633 96.8115 67.1982 96.5647C67.7109 96.4297 68.1958 96.2326 68.6231 95.9094C68.9556 95.6571 69.3391 95.5403 69.7652 95.6072C70.8182 95.7733 71.3397 96.9787 70.7124 97.8415C70.5503 98.048 70.3581 98.229 70.1421 98.3784C69.5657 98.8029 68.9151 99.0829 68.2318 99.286C67.3252 99.5533 66.4673 99.6684 65.3855 99.6673Z" fill="#E67C4F"/>
<path d="M80.4517 86.1239C81.9984 86.1604 83.4731 86.461 84.8525 87.1683C85.3626 87.42 85.8259 87.7569 86.2224 88.1645C86.5932 88.5569 86.7533 89.0179 86.6104 89.5586C86.5593 89.7654 86.4622 89.9581 86.3264 90.1224C86.1906 90.2867 86.0195 90.4183 85.8257 90.5075C85.632 90.5967 85.4207 90.6412 85.2074 90.6377C84.9941 90.6342 84.7843 90.5828 84.5937 90.4873C84.4484 90.4158 84.3137 90.3245 84.1935 90.2161C83.7474 89.8121 83.2182 89.5641 82.6546 89.3859C81.5086 89.0278 80.2915 88.9597 79.1127 89.1878C78.6529 89.2701 78.213 89.4391 77.8165 89.6859C77.63 89.8061 77.4281 89.9007 77.2163 89.967C76.932 90.0487 76.629 90.038 76.3511 89.9364C76.0733 89.8349 75.835 89.6477 75.6707 89.402C75.3088 88.8729 75.3204 88.1988 75.7339 87.7101C75.9067 87.5125 76.1072 87.3409 76.329 87.2004C77.0694 86.7172 77.8924 86.4349 78.7608 86.3027C79.3217 86.2147 79.8886 86.1809 80.4517 86.1239Z" fill="#E67C4F"/>
<path d="M52.6353 84.2687C53.8889 84.3008 55.0975 84.5134 56.2624 84.9661C56.9275 85.2245 57.5487 85.5627 58.0913 86.0287C58.2794 86.1827 58.447 86.3602 58.59 86.5567C58.7716 86.8164 58.8595 87.13 58.8394 87.4461C58.8192 87.7622 58.6923 88.0621 58.4792 88.2967C58.263 88.5423 57.9689 88.7063 57.6461 88.7614C57.3234 88.8165 56.9914 88.7594 56.7058 88.5995C56.5815 88.5317 56.4655 88.4498 56.36 88.3554C55.946 87.9807 55.4567 87.7466 54.9352 87.5678C53.7791 87.1749 52.5937 87.1251 51.3967 87.3088C50.8723 87.38 50.3718 87.5722 49.9347 87.87C49.6709 88.0629 49.3512 88.1646 49.0242 88.1595C48.4462 88.1495 48.0078 87.8949 47.7496 87.3775C47.4819 86.839 47.5451 86.3171 47.9125 85.8405C48.127 85.5638 48.419 85.3762 48.7199 85.2074C49.3537 84.8425 50.0484 84.5956 50.7704 84.4785C51.3867 84.3828 52.0129 84.3363 52.6353 84.2687Z" fill="#E67C4F"/>
</svg>
