<svg width="131" height="131" viewBox="0 0 131 131" fill="none" xmlns="http://www.w3.org/2000/svg">
<rect x="1.41091" y="1.41091" width="127.922" height="127.922" rx="17.4012" fill="#F8FCE1" stroke="#482C1C" stroke-width="2.82182"/>
<path d="M95.4087 74.3591C95.1849 75.501 94.9667 76.6143 94.7384 77.7784C94.8058 77.8889 94.8983 78.046 94.9954 78.2012C95.9387 79.7123 96.6009 81.3368 96.9368 83.0864C97.1939 84.4037 97.2658 85.7505 97.1505 87.0877C96.8845 90.1007 95.8185 92.8275 94.2019 95.3565C92.7542 97.6208 90.954 99.5747 88.8908 101.289C88.213 101.852 87.4994 102.372 86.797 102.906C86.2262 103.339 85.658 103.777 85.0707 104.187C83.4953 105.286 81.7846 106.133 80.0035 106.841C77.8308 107.705 75.5916 108.347 73.3061 108.838C71.6149 109.203 69.9113 109.482 68.1952 109.677C67.1393 109.799 66.0707 109.858 65.0082 109.945C63.025 110.107 61.0357 110.036 59.0525 110.028C58.5763 110.028 58.0971 109.959 57.6249 109.905C54.8809 109.597 52.1686 109.121 49.514 108.349C46.9284 107.595 44.4388 106.611 42.0966 105.273C39.8946 104.018 37.8933 102.503 36.1897 100.616C34.0652 98.2625 32.6064 95.5639 31.9542 92.4484C31.5751 90.6345 31.5152 88.8066 31.7209 86.9687C31.9804 84.6476 32.6517 82.4436 33.6317 80.3294C33.6436 80.2948 33.6584 80.2612 33.676 80.229C33.8675 79.9468 33.8695 79.6515 33.766 79.3356C33.4949 78.5101 33.414 77.6493 33.3059 76.7936C33.2923 76.6847 33.2787 76.5757 33.2556 76.4682C33.249 76.4376 33.2118 76.4135 33.1676 76.3623C33.0117 76.4255 32.8453 76.4903 32.6808 76.5601C31.7184 76.9684 30.7172 77.1627 29.6698 77.1045C28.118 77.0166 26.8433 76.3618 25.822 75.2088C25.025 74.3084 24.5493 73.2423 24.2697 72.0822C23.9248 70.6516 23.9142 69.2098 24.133 67.761C24.5131 65.2411 25.4791 62.9658 27.0022 60.926C27.8671 59.7674 28.8848 58.7666 30.1058 57.9822C30.1666 57.9431 30.2219 57.8948 30.3069 57.8316C30.236 57.7201 30.1726 57.6141 30.1058 57.5122C28.9658 55.8108 28.1587 53.9769 27.8988 51.931C27.4784 48.6217 28.4519 45.7272 30.5543 43.1822C31.8501 41.6144 33.4552 40.4328 35.2499 39.4952C35.4284 39.4013 35.6074 39.3074 35.7854 39.213C35.8015 39.2012 35.8163 39.1877 35.8296 39.1728C35.9191 38.9805 35.8653 38.7771 35.8593 38.5788C35.7934 36.3647 36.1821 34.233 36.9842 32.1685C37.7538 30.1968 38.8237 28.3555 40.1561 26.7099C43.314 22.7849 47.1959 19.7995 51.8523 17.8435C53.9894 16.942 56.248 16.3606 58.5552 16.1181C60.2443 15.9403 61.9323 15.9579 63.6219 16.1075C66.3624 16.3501 69.0305 16.9577 71.6573 17.7441C73.9976 18.4471 76.3217 19.2004 78.6534 19.9321C80.6527 20.5588 82.6676 21.1282 84.7152 21.5782C85.6153 21.7684 86.536 21.8438 87.4552 21.8027C88.5967 21.7615 89.7271 21.6339 90.8403 21.3648C91.0744 21.3151 91.3148 21.3021 91.5529 21.3261C92.4635 21.3974 92.9558 22.1642 92.629 23.0154C92.4861 23.3934 92.3111 23.7584 92.106 24.1066C90.7785 26.3297 89.4947 28.5805 88.0415 30.7273C88.0142 30.7726 87.9897 30.8196 87.9681 30.8679C87.9983 31.0185 88.1275 31.0065 88.2276 31.0341C89.8256 31.4703 91.3584 32.1168 92.7859 32.9564C95.2322 34.4087 97.223 36.325 98.735 38.741C99.8855 40.5789 100.56 42.5806 100.84 44.7168C101.121 46.8636 100.867 48.9652 100.231 51.0281C99.952 51.9415 99.5973 52.8302 99.171 53.6851C99.081 53.8639 98.994 54.0447 98.8934 54.2496C99.0055 54.35 99.1081 54.4504 99.2213 54.5363C101.577 56.3532 103.395 58.6084 104.706 61.2725C105.387 62.639 105.862 64.0982 106.117 65.6032C106.374 67.1599 106.368 68.7122 105.932 70.2438C105.603 71.3943 105.052 72.4192 104.205 73.2744C103.186 74.3039 101.942 74.8859 100.521 75.1063C99.0096 75.3408 97.5538 75.0943 96.1283 74.6077C95.8854 74.5263 95.6465 74.4415 95.4087 74.3591ZM40.2351 64.286C40.1833 64.3354 40.1346 64.3879 40.0892 64.4432C38.5224 66.7341 37.3075 69.1932 36.5507 71.8683C36.1082 73.4321 35.8638 75.023 35.9372 76.6545C35.9775 77.5429 36.1268 78.4061 36.4864 79.2236C36.7011 79.7133 36.6644 80.1707 36.418 80.6478C35.19 83.0241 34.4096 85.5274 34.2628 88.2146C34.2003 89.3337 34.2686 90.4562 34.4664 91.5595C34.8969 93.9579 35.9146 96.0931 37.4221 98.0009C38.8276 99.7801 40.5398 101.215 42.4506 102.42C44.6732 103.819 47.0677 104.838 49.5694 105.619C51.4133 106.187 53.2953 106.623 55.2012 106.925C56.0717 107.066 56.9471 107.176 57.8236 107.276C58.7558 107.379 59.6936 107.397 60.6314 107.412C62.3974 107.44 64.1619 107.399 65.9219 107.258C67.5895 107.132 69.2497 106.921 70.896 106.628C72.6127 106.314 74.3154 105.964 75.9748 105.399C78.5755 104.514 81.0721 103.411 83.4204 101.985C85.8209 100.523 88.0003 98.7908 89.8799 96.6958C91.1003 95.3354 92.1472 93.8549 92.9664 92.2179C93.8388 90.4748 94.406 88.6424 94.5373 86.694C94.7102 84.1244 94.1098 81.74 92.7295 79.5586C92.5923 79.3412 92.4505 79.1262 92.3011 78.9173C92.0773 78.6055 91.9622 78.2645 92.0145 77.8818C92.0562 77.5735 92.0934 77.2611 92.1779 76.9634C92.6119 75.4352 92.809 73.8725 92.8774 72.2932C92.9221 71.0998 92.8612 69.9048 92.6954 68.7222C92.5254 67.4617 92.2378 66.2314 91.7621 65.0508C91.4523 64.282 91.0712 63.5493 90.5135 62.9231C90.4267 62.8346 90.3352 62.7508 90.2394 62.672C90.0499 62.7659 89.8814 62.8392 89.722 62.9291C88.4544 63.6467 87.1012 64.17 85.7299 64.6435C84.2667 65.1487 82.7521 65.447 81.2154 65.6278C80.3606 65.7282 79.4972 65.8021 78.6383 65.8914C76.826 66.0872 74.9949 66.0252 73.2 65.7071C70.9609 65.3054 68.8333 64.5522 66.8074 63.5257C64.8403 62.5284 63.1034 61.2102 61.5346 59.6655C61.3807 59.5149 61.2474 59.3351 61.0257 59.2136C60.9327 59.3085 60.8442 59.3973 60.7577 59.4872C60.4389 59.8177 60.1336 60.1622 59.8023 60.4775C58.344 61.8575 56.6575 62.888 54.8025 63.6462C52.8147 64.4593 50.747 64.9303 48.6059 65.1101C46.3492 65.299 44.077 65.1528 41.8633 64.6762C41.3267 64.5542 40.7927 64.4181 40.2351 64.286ZM88.8099 24.4511C88.7299 24.4094 88.7133 24.3934 88.6972 24.3939C88.4403 24.4014 88.1828 24.4079 87.9259 24.4215C86.4184 24.4984 84.9077 24.3544 83.442 23.9941C81.0283 23.4081 78.6519 22.7091 76.2925 21.9428C74.1258 21.2397 71.9605 20.5312 69.7601 19.9376C67.0563 19.2084 64.3203 18.6711 61.5069 18.6209C60.385 18.5949 59.2629 18.6594 58.1514 18.8137C55.5049 19.1949 53.0118 20.0451 50.659 21.3115C47.6153 22.9511 44.9663 25.0778 42.7417 27.7288C41.0909 29.6958 39.8358 31.8722 39.1323 34.353C38.7039 35.8752 38.5006 37.4518 38.5289 39.0327C38.5319 39.2527 38.5581 39.4721 38.5721 39.6921C38.6134 40.3153 38.3781 40.8049 37.847 41.1383C37.6437 41.2634 37.4318 41.3742 37.213 41.4698C36.4405 41.8126 35.7001 42.2234 35.0004 42.6971C33.7388 43.5508 32.6537 44.5863 31.829 45.8743C30.6639 47.6942 30.2043 49.6702 30.5412 51.817C30.7341 53.0169 31.1592 54.1677 31.7928 55.2052C32.8538 56.9718 34.3035 58.3624 36.0197 59.4812C38.9553 61.3945 42.2047 62.3366 45.6849 62.5259C47.0264 62.6003 48.3719 62.5341 49.6996 62.3285C51.4178 62.0619 53.0727 61.5908 54.6395 60.8331C56.6097 59.8789 58.2932 58.5778 59.5408 56.7554C59.6295 56.6163 59.7305 56.4854 59.8425 56.3642C59.9923 56.2034 60.1596 56.0597 60.3413 55.9359C60.6888 55.7164 61.074 55.6808 61.4476 55.8585C61.6246 55.9424 61.7809 56.0845 61.9243 56.2236C62.3326 56.6203 62.7152 57.0432 63.1311 57.4288C66.9683 60.9892 71.5537 62.7694 76.7411 63.0883C79.5927 63.2539 82.4509 62.9027 85.1773 62.0518C86.8039 61.5231 88.3617 60.8031 89.8181 59.907C92.2227 58.4372 94.2486 56.5786 95.812 54.2325C97.2018 52.1445 98.0521 49.8636 98.2357 47.3527C98.3526 45.7182 98.1362 44.0769 97.5996 42.5283C96.8026 40.1812 95.3307 38.295 93.4944 36.6921C91.5333 34.9787 89.2167 33.9301 86.6768 33.3722C86.5179 33.3371 86.353 33.3295 86.1815 33.3084C86.0769 33.432 85.9804 33.5415 85.8903 33.6534C85.1114 34.6076 84.3547 35.5783 83.5506 36.5098C81.2878 39.1276 78.7112 41.3874 75.7716 43.2178C71.2817 46.0129 66.4388 47.9383 61.2434 48.9557C60.4152 49.1179 59.5735 49.2524 58.7327 49.2966C57.1658 49.38 55.611 49.2133 54.0814 48.8572C53.1094 48.6313 52.1837 48.2848 51.3389 47.7399C50.5469 47.2287 49.8143 46.6452 49.1852 45.9441C47.0863 43.604 46.3904 40.9144 47.2331 37.8692C47.6153 36.4882 48.3133 35.2619 49.2123 34.1491C50.1999 32.9348 51.3764 31.8869 52.6971 31.0457C55.951 28.9491 59.5398 27.9613 63.388 27.8523C64.6788 27.8162 65.9596 27.9457 67.2283 28.1757C68.3682 28.381 69.4814 28.7135 70.547 29.167C70.7685 29.2565 70.9799 29.3691 71.1776 29.503C71.4124 29.6693 71.5838 29.9103 71.6637 30.1865C71.7436 30.4627 71.7274 30.7578 71.6176 31.0236C71.3853 31.6026 70.8216 31.9275 70.2016 31.8225C70.0036 31.7842 69.8108 31.7225 69.6273 31.6387C68.3526 31.0863 67.0181 30.7619 65.6428 30.5952C64.1549 30.4149 62.6705 30.4641 61.1886 30.6715C59.0555 30.9728 57.0356 31.6131 55.1434 32.6446C53.8104 33.3717 52.6065 34.2696 51.5938 35.4065C50.8169 36.2803 50.1994 37.2505 49.8339 38.3693C49.537 39.2426 49.4535 40.1741 49.5905 41.0861C49.7599 42.1879 50.2392 43.145 50.9643 43.9831C51.6682 44.8007 52.5276 45.4219 53.4739 45.9351C54.3318 46.4001 55.246 46.6326 56.2145 46.6808C57.206 46.728 58.1998 46.6963 59.1863 46.5859C60.6295 46.4226 62.0572 46.1433 63.4554 45.7508C66.737 44.8478 69.8975 43.5526 72.8682 41.8931C74.7788 40.8243 76.5743 39.5622 78.2265 38.1268C79.9548 36.6288 81.4849 34.9455 82.9241 33.1734C85.0717 30.5279 86.9549 27.7037 88.6565 24.7544C88.7108 24.66 88.7551 24.5616 88.8109 24.4511H88.8099ZM92.6089 61.2689C92.6742 61.3654 92.7305 61.4583 92.7969 61.5436C93.4305 62.3647 93.8961 63.2771 94.2723 64.2383C94.9531 65.9788 95.2966 67.7932 95.4474 69.6487C95.471 69.941 95.4891 70.2342 95.5052 70.5275C95.5218 70.8374 95.5329 71.1477 95.546 71.459C95.9583 71.7418 96.4068 71.9045 96.8534 72.0707C97.7384 72.4011 98.6505 72.5975 99.6014 72.5563C101.387 72.479 102.656 71.5409 103.259 69.9405C103.468 69.3714 103.591 68.7742 103.623 68.1688C103.711 66.7733 103.479 65.4229 103.026 64.1112C102.042 61.2659 100.351 58.9052 98.0532 56.9708C97.8736 56.8202 97.6982 56.6555 97.4497 56.5505C96.959 57.124 96.4943 57.711 95.9799 58.2579C95.4655 58.8048 94.924 59.3296 94.3598 59.8297C93.7956 60.3299 93.2032 60.7838 92.6099 61.2689H92.6089ZM37.6323 63.3535C37.1109 63.0948 36.6292 62.8709 36.162 62.6193C35.6949 62.3677 35.2302 62.101 34.7822 61.8158C34.3191 61.518 33.868 61.1986 33.4291 60.8667C33.0062 60.5468 32.6054 60.1983 32.2092 59.8739C31.9683 59.902 31.8069 60.0316 31.6374 60.1355C30.7655 60.6698 30.0323 61.3618 29.3912 62.1508C28.1087 63.725 27.2316 65.589 26.8368 67.5798C26.5823 68.8307 26.5295 70.0906 26.8086 71.3526C26.969 72.0777 27.233 72.7587 27.6976 73.3477C28.1623 73.9368 28.7476 74.3239 29.4903 74.4374C29.9826 74.5118 30.4849 74.4862 30.9671 74.3621C31.8788 74.1321 32.6567 73.6591 33.3863 73.0876C33.5335 72.9753 33.6311 72.8101 33.6584 72.6271C33.7026 72.376 33.766 72.1249 33.8278 71.8738C34.5248 69.0491 35.7074 66.4333 37.2472 63.9716L37.6323 63.3535Z" fill="#482C1C"/>
<path d="M59.3286 90.4331C58.4838 90.4512 57.6335 90.3171 56.7993 90.0766C56.1601 89.9004 55.5577 89.6113 55.0207 89.2229C54.8114 89.0743 54.6226 88.8989 54.459 88.7011C54.0698 88.2085 54.0965 87.5502 54.4952 87.0771C54.6817 86.8591 54.9348 86.7084 55.2155 86.6483C55.4962 86.5882 55.789 86.6221 56.0485 86.7447C56.1497 86.7887 56.2446 86.8459 56.3306 86.9149C56.9275 87.4256 57.6496 87.634 58.4018 87.738C59.2627 87.8565 60.1251 87.8419 60.9734 87.618C61.4385 87.4954 61.8785 87.3166 62.2662 87.0234C62.5679 86.7944 62.9159 86.6884 63.3026 86.7492C64.258 86.8998 64.7311 87.9936 64.1619 88.7765C64.0149 88.9639 63.8405 89.1281 63.6445 89.2636C63.1215 89.6488 62.5312 89.9028 61.9112 90.0871C61.0885 90.3297 60.3101 90.4341 59.3286 90.4331Z" fill="#482C1C"/>
<path d="M72.9989 78.1445C74.4023 78.1776 75.7404 78.4503 76.992 79.0921C77.4549 79.3204 77.8753 79.6261 78.235 79.996C78.5714 80.352 78.7168 80.7703 78.587 81.2609C78.5407 81.4486 78.4526 81.6235 78.3294 81.7725C78.2061 81.9216 78.0509 82.041 77.8751 82.1219C77.6993 82.2029 77.5076 82.2433 77.314 82.2401C77.1205 82.2369 76.9302 82.1903 76.7572 82.1036C76.6253 82.0387 76.5032 81.9559 76.3941 81.8575C75.9893 81.4909 75.5091 81.266 74.9977 81.1043C73.9579 80.7793 72.8536 80.7176 71.784 80.9245C71.3668 80.9991 70.9676 81.1525 70.6079 81.3764C70.4386 81.4855 70.2555 81.5713 70.0633 81.6315C69.8053 81.7057 69.5304 81.696 69.2783 81.6038C69.0262 81.5116 68.81 81.3418 68.6609 81.1188C68.3325 80.6388 68.3431 80.0271 68.7182 79.5837C68.875 79.4044 69.0569 79.2487 69.2582 79.1212C69.93 78.6828 70.6768 78.4267 71.4647 78.3067C71.9736 78.2268 72.488 78.1962 72.9989 78.1445Z" fill="#482C1C"/>
<path d="M47.7596 76.4612C48.8971 76.4903 49.9938 76.6831 51.0507 77.0939C51.6542 77.3284 52.2179 77.6353 52.7101 78.0581C52.8808 78.1979 53.0329 78.3588 53.1627 78.5372C53.3274 78.7728 53.4072 79.0573 53.3889 79.3441C53.3707 79.631 53.2554 79.9031 53.0621 80.116C52.8659 80.3388 52.5991 80.4876 52.3062 80.5376C52.0134 80.5876 51.7122 80.5357 51.453 80.3907C51.3402 80.3292 51.235 80.2549 51.1392 80.1692C50.7636 79.8292 50.3196 79.6168 49.8464 79.4546C48.7975 79.0981 47.7219 79.0529 46.6358 79.2196C46.16 79.2842 45.7058 79.4585 45.3093 79.7288C45.0698 79.9039 44.7798 79.9961 44.4831 79.9915C43.9586 79.9824 43.5609 79.7514 43.3266 79.2819C43.0837 78.7933 43.141 78.3197 43.4744 77.8873C43.669 77.6363 43.934 77.466 44.207 77.3129C44.782 76.9818 45.4124 76.7577 46.0676 76.6515C46.6267 76.5646 47.1949 76.5224 47.7596 76.4612Z" fill="#482C1C"/>
</svg>
