<svg width="145" height="145" viewBox="0 0 145 145" fill="none" xmlns="http://www.w3.org/2000/svg">
<rect x="1.55497" y="1.55497" width="140.984" height="140.984" rx="19.178" fill="#D6E499" stroke="#E67C4F" stroke-width="3.10994"/>
<mask id="path-2-inside-1_240_206" fill="white">
<path d="M35.7083 69.5091C35.7083 69.3261 35.7181 69.1649 35.7083 69.0014C35.5936 67.3047 35.7565 65.6286 36.1099 63.9708C36.7684 60.8785 38.0555 58.0569 39.828 55.4504C42.3249 51.7793 45.4574 48.7392 49.07 46.1808C52.3712 43.8462 55.9482 42.0749 59.8579 40.9988C62.9837 40.1355 66.2282 39.7819 69.4665 39.9514C72.1195 40.0885 74.7328 40.509 77.3198 41.105C80.1305 41.7531 82.8839 42.6101 85.6372 43.4757C88.2081 44.2845 90.775 45.1076 93.3563 45.8808C95.0197 46.3782 96.6953 46.8233 98.4041 47.1428C99.7444 47.3875 101.112 47.4425 102.468 47.3063C103.589 47.2007 104.705 47.0768 105.802 46.7981C106.235 46.6835 106.691 46.6891 107.121 46.8141C107.982 47.0659 108.445 47.8994 108.154 48.7478C107.988 49.2364 107.773 49.707 107.513 50.1525C105.812 53.0154 104.161 55.9093 102.3 58.6735C102.235 58.7699 102.179 58.8726 102.094 59.0137C102.316 59.0842 102.511 59.1519 102.709 59.2087C106.38 60.2682 109.631 62.0653 112.407 64.7028C113.156 65.4152 113.834 66.1941 114.493 66.988C115.474 68.172 116.222 69.4913 116.853 70.8846C116.968 71.1404 117.091 71.3945 117.21 71.6492C117.906 73.1262 118.288 74.6922 118.53 76.2983C118.739 77.6985 118.748 79.1061 118.635 80.5109C118.515 82.0115 118.181 83.4736 117.726 84.9099C116.822 87.7642 115.388 90.3311 113.492 92.6371C109.756 97.1751 105.093 100.358 99.5019 102.186C98.0679 102.658 96.5949 102.918 95.1046 103.104C93.8719 103.258 92.6381 103.398 91.4026 103.534C90.6104 103.621 89.8177 103.718 89.0226 103.759C88.2041 103.801 87.3804 103.819 86.5618 103.78C84.6116 103.687 82.6888 103.4 80.8137 102.844C78.1963 102.069 75.6747 101.072 73.351 99.6127C71.5636 98.4857 69.9053 97.166 68.4059 95.6772C68.2556 95.5286 68.1076 95.3778 67.9556 95.2315C67.9181 95.2025 67.8773 95.178 67.834 95.1587C67.7193 95.1248 67.6654 95.216 67.6097 95.2837C65.4369 97.8466 62.7214 99.6374 59.6239 100.879C57.3995 101.764 55.0642 102.34 52.6832 102.59C49.0836 102.987 45.4415 102.713 41.9418 101.782C40.8066 101.487 39.6834 101.164 38.6045 100.7C35.8512 99.5152 33.2814 98.0353 31.0735 95.9772C30.0042 94.9905 29.0314 93.9041 28.1682 92.7329C28.0994 92.6382 28.0328 92.5413 27.9732 92.4403C26.8311 90.5095 25.9277 88.4864 25.5795 86.2453C25.0535 82.8679 25.6764 79.7119 27.411 76.775C28.9116 74.2345 30.9984 72.2767 33.5022 70.7521C34.2026 70.3259 34.9305 69.9461 35.7083 69.5091ZM103.255 50.6527C103.045 50.6527 102.882 50.6378 102.723 50.6527C100.696 50.8701 98.6977 50.6883 96.7182 50.2265C93.8863 49.5663 91.0968 48.7552 88.3251 47.8782C85.4427 46.9667 82.5666 46.0334 79.6636 45.1822C76.5317 44.2644 73.3458 43.595 70.0785 43.3615C67.9166 43.2072 65.765 43.264 63.626 43.6076C60.4488 44.1181 57.4499 45.1696 54.6203 46.6902C50.714 48.7896 47.3096 51.5137 44.4611 54.9233C42.9628 56.7164 41.6968 58.6517 40.775 60.8028C39.7007 63.3123 39.1116 65.924 39.1047 68.6613C39.1047 69.2004 39.1116 69.7408 39.1385 70.2788C39.1775 71.0584 38.8603 71.6435 38.211 72.0519C37.9735 72.2004 37.7148 72.3146 37.4653 72.4448C36.7592 72.8136 36.0341 73.1503 35.351 73.5576C33.3886 74.7255 31.7217 76.2197 30.4982 78.166C28.7103 81.01 28.2864 84.0484 29.2655 87.2692C29.885 89.3067 31.0041 91.051 32.4456 92.5992C33.8647 94.1244 35.5116 95.356 37.3351 96.3546C41.0314 98.3801 45.0106 99.3225 49.2043 99.4028C50.8002 99.4316 52.3951 99.3011 53.9652 99.0133C56.2643 98.5957 58.4635 97.8816 60.517 96.7504C62.6222 95.5912 64.4319 94.094 65.8086 92.1042C65.9393 91.9094 66.0814 91.7224 66.2342 91.5443C66.3867 91.3664 66.5561 91.2036 66.7401 91.0585C67.3854 90.5698 68.2424 90.5996 68.7896 91.1732C68.9198 91.3086 69.0655 91.4302 69.1837 91.5747C69.6426 92.1415 70.1961 92.6164 70.7325 93.1086C71.681 93.9842 72.6976 94.783 73.7726 95.4977C78.3334 98.5258 83.3817 99.9764 88.8247 100.144C90.4435 100.185 92.0629 100.092 93.666 99.8634C95.4345 99.6321 97.1772 99.2345 98.871 98.676C100.827 98.0155 102.703 97.1386 104.464 96.0615C106.442 94.8569 108.24 93.4407 109.813 91.7462C112.484 88.8667 114.371 85.5748 115.051 81.6507C115.48 79.2398 115.338 76.762 114.637 74.4157C113.687 71.2064 111.766 68.6331 109.307 66.4534C106.837 64.2639 103.915 62.9091 100.708 62.1703C100.438 62.1083 100.162 62.0728 99.8736 62.0223C99.6402 62.32 99.4239 62.5959 99.2094 62.8718C97.8717 64.5966 96.4773 66.2733 94.9647 67.8502C91.6683 71.2995 87.8407 74.1986 83.6273 76.4371C79.2798 78.7494 74.7254 80.5138 69.9294 81.6455C68.5132 81.9799 67.086 82.2736 65.6388 82.401C63.1096 82.6253 60.5608 82.3838 58.1188 81.6885C57.1699 81.4188 56.2658 81.0112 55.4354 80.4788C54.4196 79.8421 53.495 79.0702 52.6872 78.1843C50.0601 75.2652 49.1624 71.8941 50.1392 68.0733C50.6165 66.2056 51.5503 64.5565 52.7641 63.064C54.049 61.4837 55.5748 60.1747 57.2824 59.0768C60.5566 56.9739 64.1526 55.7647 67.9952 55.2778C69.9987 55.0215 72.0259 55.0091 74.0324 55.241C76.0235 55.4705 77.9542 55.9328 79.8081 56.698C80.1138 56.8175 80.407 56.9668 80.6835 57.1437C81.013 57.3652 81.2522 57.6974 81.3577 58.0802C81.4633 58.4629 81.4281 58.8708 81.2587 59.2299C81.0893 59.5889 80.7968 59.8754 80.4342 60.0372C80.0717 60.1991 79.6632 60.2257 79.2827 60.1121C79.0812 60.0492 78.8841 59.9725 78.693 59.8827C76.8902 59.0957 74.9944 58.6741 73.0453 58.5152C71.3835 58.3757 69.7113 58.423 68.06 58.6563C65.3445 59.0452 62.7593 59.8483 60.3438 61.163C58.623 62.1009 57.0639 63.2578 55.7549 64.7291C54.7947 65.8087 54.018 67.0035 53.5557 68.3808C52.6998 70.9305 53.075 73.2828 54.7344 75.4098C55.4933 76.3849 56.4323 77.157 57.4878 77.7886C58.2335 78.2348 58.9958 78.649 59.8516 78.852C60.5819 79.0247 61.3265 79.1299 62.0761 79.1664C63.6552 79.2472 65.2149 79.0516 66.77 78.8342C68.1868 78.6352 69.5778 78.2968 70.9573 77.9165C75.2335 76.736 79.3465 75.0293 83.2022 72.8354C87.5072 70.3844 91.2133 67.2106 94.4198 63.442C97.6825 59.6068 100.534 55.4871 103.031 51.1173C103.109 50.9831 103.168 50.8369 103.255 50.6527Z"/>
</mask>
<path d="M35.7083 69.5091C35.7083 69.3261 35.7181 69.1649 35.7083 69.0014C35.5936 67.3047 35.7565 65.6286 36.1099 63.9708C36.7684 60.8785 38.0555 58.0569 39.828 55.4504C42.3249 51.7793 45.4574 48.7392 49.07 46.1808C52.3712 43.8462 55.9482 42.0749 59.8579 40.9988C62.9837 40.1355 66.2282 39.7819 69.4665 39.9514C72.1195 40.0885 74.7328 40.509 77.3198 41.105C80.1305 41.7531 82.8839 42.6101 85.6372 43.4757C88.2081 44.2845 90.775 45.1076 93.3563 45.8808C95.0197 46.3782 96.6953 46.8233 98.4041 47.1428C99.7444 47.3875 101.112 47.4425 102.468 47.3063C103.589 47.2007 104.705 47.0768 105.802 46.7981C106.235 46.6835 106.691 46.6891 107.121 46.8141C107.982 47.0659 108.445 47.8994 108.154 48.7478C107.988 49.2364 107.773 49.707 107.513 50.1525C105.812 53.0154 104.161 55.9093 102.3 58.6735C102.235 58.7699 102.179 58.8726 102.094 59.0137C102.316 59.0842 102.511 59.1519 102.709 59.2087C106.38 60.2682 109.631 62.0653 112.407 64.7028C113.156 65.4152 113.834 66.1941 114.493 66.988C115.474 68.172 116.222 69.4913 116.853 70.8846C116.968 71.1404 117.091 71.3945 117.21 71.6492C117.906 73.1262 118.288 74.6922 118.53 76.2983C118.739 77.6985 118.748 79.1061 118.635 80.5109C118.515 82.0115 118.181 83.4736 117.726 84.9099C116.822 87.7642 115.388 90.3311 113.492 92.6371C109.756 97.1751 105.093 100.358 99.5019 102.186C98.0679 102.658 96.5949 102.918 95.1046 103.104C93.8719 103.258 92.6381 103.398 91.4026 103.534C90.6104 103.621 89.8177 103.718 89.0226 103.759C88.2041 103.801 87.3804 103.819 86.5618 103.78C84.6116 103.687 82.6888 103.4 80.8137 102.844C78.1963 102.069 75.6747 101.072 73.351 99.6127C71.5636 98.4857 69.9053 97.166 68.4059 95.6772C68.2556 95.5286 68.1076 95.3778 67.9556 95.2315C67.9181 95.2025 67.8773 95.178 67.834 95.1587C67.7193 95.1248 67.6654 95.216 67.6097 95.2837C65.4369 97.8466 62.7214 99.6374 59.6239 100.879C57.3995 101.764 55.0642 102.34 52.6832 102.59C49.0836 102.987 45.4415 102.713 41.9418 101.782C40.8066 101.487 39.6834 101.164 38.6045 100.7C35.8512 99.5152 33.2814 98.0353 31.0735 95.9772C30.0042 94.9905 29.0314 93.9041 28.1682 92.7329C28.0994 92.6382 28.0328 92.5413 27.9732 92.4403C26.8311 90.5095 25.9277 88.4864 25.5795 86.2453C25.0535 82.8679 25.6764 79.7119 27.411 76.775C28.9116 74.2345 30.9984 72.2767 33.5022 70.7521C34.2026 70.3259 34.9305 69.9461 35.7083 69.5091ZM103.255 50.6527C103.045 50.6527 102.882 50.6378 102.723 50.6527C100.696 50.8701 98.6977 50.6883 96.7182 50.2265C93.8863 49.5663 91.0968 48.7552 88.3251 47.8782C85.4427 46.9667 82.5666 46.0334 79.6636 45.1822C76.5317 44.2644 73.3458 43.595 70.0785 43.3615C67.9166 43.2072 65.765 43.264 63.626 43.6076C60.4488 44.1181 57.4499 45.1696 54.6203 46.6902C50.714 48.7896 47.3096 51.5137 44.4611 54.9233C42.9628 56.7164 41.6968 58.6517 40.775 60.8028C39.7007 63.3123 39.1116 65.924 39.1047 68.6613C39.1047 69.2004 39.1116 69.7408 39.1385 70.2788C39.1775 71.0584 38.8603 71.6435 38.211 72.0519C37.9735 72.2004 37.7148 72.3146 37.4653 72.4448C36.7592 72.8136 36.0341 73.1503 35.351 73.5576C33.3886 74.7255 31.7217 76.2197 30.4982 78.166C28.7103 81.01 28.2864 84.0484 29.2655 87.2692C29.885 89.3067 31.0041 91.051 32.4456 92.5992C33.8647 94.1244 35.5116 95.356 37.3351 96.3546C41.0314 98.3801 45.0106 99.3225 49.2043 99.4028C50.8002 99.4316 52.3951 99.3011 53.9652 99.0133C56.2643 98.5957 58.4635 97.8816 60.517 96.7504C62.6222 95.5912 64.4319 94.094 65.8086 92.1042C65.9393 91.9094 66.0814 91.7224 66.2342 91.5443C66.3867 91.3664 66.5561 91.2036 66.7401 91.0585C67.3854 90.5698 68.2424 90.5996 68.7896 91.1732C68.9198 91.3086 69.0655 91.4302 69.1837 91.5747C69.6426 92.1415 70.1961 92.6164 70.7325 93.1086C71.681 93.9842 72.6976 94.783 73.7726 95.4977C78.3334 98.5258 83.3817 99.9764 88.8247 100.144C90.4435 100.185 92.0629 100.092 93.666 99.8634C95.4345 99.6321 97.1772 99.2345 98.871 98.676C100.827 98.0155 102.703 97.1386 104.464 96.0615C106.442 94.8569 108.24 93.4407 109.813 91.7462C112.484 88.8667 114.371 85.5748 115.051 81.6507C115.48 79.2398 115.338 76.762 114.637 74.4157C113.687 71.2064 111.766 68.6331 109.307 66.4534C106.837 64.2639 103.915 62.9091 100.708 62.1703C100.438 62.1083 100.162 62.0728 99.8736 62.0223C99.6402 62.32 99.4239 62.5959 99.2094 62.8718C97.8717 64.5966 96.4773 66.2733 94.9647 67.8502C91.6683 71.2995 87.8407 74.1986 83.6273 76.4371C79.2798 78.7494 74.7254 80.5138 69.9294 81.6455C68.5132 81.9799 67.086 82.2736 65.6388 82.401C63.1096 82.6253 60.5608 82.3838 58.1188 81.6885C57.1699 81.4188 56.2658 81.0112 55.4354 80.4788C54.4196 79.8421 53.495 79.0702 52.6872 78.1843C50.0601 75.2652 49.1624 71.8941 50.1392 68.0733C50.6165 66.2056 51.5503 64.5565 52.7641 63.064C54.049 61.4837 55.5748 60.1747 57.2824 59.0768C60.5566 56.9739 64.1526 55.7647 67.9952 55.2778C69.9987 55.0215 72.0259 55.0091 74.0324 55.241C76.0235 55.4705 77.9542 55.9328 79.8081 56.698C80.1138 56.8175 80.407 56.9668 80.6835 57.1437C81.013 57.3652 81.2522 57.6974 81.3577 58.0802C81.4633 58.4629 81.4281 58.8708 81.2587 59.2299C81.0893 59.5889 80.7968 59.8754 80.4342 60.0372C80.0717 60.1991 79.6632 60.2257 79.2827 60.1121C79.0812 60.0492 78.8841 59.9725 78.693 59.8827C76.8902 59.0957 74.9944 58.6741 73.0453 58.5152C71.3835 58.3757 69.7113 58.423 68.06 58.6563C65.3445 59.0452 62.7593 59.8483 60.3438 61.163C58.623 62.1009 57.0639 63.2578 55.7549 64.7291C54.7947 65.8087 54.018 67.0035 53.5557 68.3808C52.6998 70.9305 53.075 73.2828 54.7344 75.4098C55.4933 76.3849 56.4323 77.157 57.4878 77.7886C58.2335 78.2348 58.9958 78.649 59.8516 78.852C60.5819 79.0247 61.3265 79.1299 62.0761 79.1664C63.6552 79.2472 65.2149 79.0516 66.77 78.8342C68.1868 78.6352 69.5778 78.2968 70.9573 77.9165C75.2335 76.736 79.3465 75.0293 83.2022 72.8354C87.5072 70.3844 91.2133 67.2106 94.4198 63.442C97.6825 59.6068 100.534 55.4871 103.031 51.1173C103.109 50.9831 103.168 50.8369 103.255 50.6527Z" fill="#482C1C" stroke="#E67C4F" stroke-width="6.21988" mask="url(#path-2-inside-1_240_206)"/>
</svg>
