<svg width="234" height="137" viewBox="0 0 234 137" fill="none" xmlns="http://www.w3.org/2000/svg">
<path d="M7.37663 13.2462C5.72944 11.8049 4.21951 10.7068 4.21951 8.3046C4.21951 1.2354 22.8877 0 28.0352 0C41.35 0 51.9195 6.03971 51.9195 20.7272C51.9195 24.2961 50.7527 27.7964 48.7624 30.7476C42.105 40.6308 29.751 39.6699 19.2502 39.6699C17.8775 43.7193 20.0051 53.3965 13.2791 53.3965C6.00397 53.3965 5.59217 36.1696 5.59217 30.9535C5.59217 24.9825 6.2785 19.08 7.37663 13.2462ZM18.9756 25.1197C21.4464 25.6688 23.9858 25.806 26.5253 25.806C30.4373 25.806 37.6438 26.2865 37.6438 20.5899C37.6438 11.1186 24.7408 13.2462 18.4952 13.9325C18.6325 17.6387 18.7697 21.4135 18.9756 25.1197Z" fill="#E67C4F"/>
<path d="M70.7437 46.396C70.7437 49.4845 69.3025 52.3671 65.8022 52.3671C59.8311 52.3671 57.6348 42.6212 57.6348 38.0227C57.6348 33.5616 58.3898 24.3648 64.4295 24.3648C68.4102 24.3648 69.8515 27.1787 70.3319 30.6104C70.7437 33.5616 70.4692 36.9932 70.7437 46.396ZM70.4006 12.8344C70.4006 15.7856 67.9984 18.3937 64.9786 18.3937C61.9587 18.3937 59.5565 15.717 59.5565 12.7658C59.5565 9.9518 61.9587 7.48101 64.8413 7.48101C67.9298 7.48101 70.4006 9.67727 70.4006 12.8344Z" fill="#E67C4F"/>
<path d="M92.4425 47.8373C92.168 53.6025 92.7857 65.5446 84.2752 65.5446C78.9218 65.5446 77.206 60.5344 77.206 56.1419C77.206 45.0919 79.1963 33.7675 79.1963 22.5117C79.1963 20.7272 78.6473 18.9427 78.6473 17.2269C78.6473 10.9813 95.6683 8.23597 100.473 8.23597C112.895 8.23597 121.749 17.8446 121.749 30.1986C121.749 47.7 105.071 46.7391 92.4425 47.8373ZM90.0404 22.3058L91.6189 31.0908C95.1878 31.2967 98.894 31.6399 102.463 31.6399C105.071 31.6399 106.169 30.4045 106.169 27.865C106.169 22.2371 101.708 21.4822 97.1782 21.4822C94.776 21.4822 92.3739 21.8253 90.0404 22.3058Z" fill="#E67C4F"/>
<path d="M143.984 47.8373C143.71 53.6025 144.328 65.5446 135.817 65.5446C130.464 65.5446 128.748 60.5344 128.748 56.1419C128.748 45.0919 130.738 33.7675 130.738 22.5117C130.738 20.7272 130.189 18.9427 130.189 17.2269C130.189 10.9813 147.21 8.23597 152.014 8.23597C164.437 8.23597 173.291 17.8446 173.291 30.1986C173.291 47.7 156.613 46.7391 143.984 47.8373ZM141.582 22.3058L143.161 31.0908C146.73 31.2967 150.436 31.6399 154.005 31.6399C156.613 31.6399 157.711 30.4045 157.711 27.865C157.711 22.2371 153.25 21.4822 148.72 21.4822C146.318 21.4822 143.916 21.8253 141.582 22.3058Z" fill="#E67C4F"/>
<path d="M193.399 46.396C193.399 49.4845 191.957 52.3671 188.457 52.3671C182.486 52.3671 180.29 42.6212 180.29 38.0227C180.29 33.5616 181.045 24.3648 187.084 24.3648C191.065 24.3648 192.506 27.1787 192.987 30.6104C193.399 33.5616 193.124 36.9932 193.399 46.396ZM193.055 12.8344C193.055 15.7856 190.653 18.3937 187.633 18.3937C184.614 18.3937 182.211 15.717 182.211 12.7658C182.211 9.9518 184.614 7.48101 187.496 7.48101C190.585 7.48101 193.055 9.67727 193.055 12.8344Z" fill="#E67C4F"/>
<path d="M211.185 15.2365C214.205 13.658 215.646 12.354 219.284 12.354C235.413 12.354 233.971 28.8259 233.971 40.974C233.971 44.6801 233.011 50.3081 228.206 50.3081C224.088 50.3081 221.686 47.2196 221.274 42.278C220.657 34.8656 222.235 21.8253 218.735 21.8253C215.646 21.8253 212.764 27.865 212.764 30.5417C212.764 34.042 213.656 37.6109 213.656 41.1112C213.656 45.5037 212.901 51.2689 207.136 51.2689C199.312 51.2689 199.998 40.5622 199.998 35.2774C199.998 31.2281 199.998 16.6778 201.508 13.7953C202.332 12.2167 203.979 11.1186 205.832 11.1186C208.783 11.1186 209.744 13.1776 211.185 15.2365Z" fill="#E67C4F"/>
<path d="M68.2868 96.5282C66.6396 95.0869 65.1297 93.9887 65.1297 91.5866C65.1297 84.5174 83.7979 83.282 88.9454 83.282C102.26 83.282 112.83 89.3217 112.83 104.009C112.83 107.578 111.663 111.078 109.673 114.03C103.015 123.913 90.6612 122.952 80.1603 122.952C78.7877 127.001 80.9153 136.679 74.1892 136.679C66.9141 136.679 66.5023 119.452 66.5023 114.236C66.5023 108.264 67.1887 102.362 68.2868 96.5282ZM79.8858 108.402C82.3566 108.951 84.896 109.088 87.4354 109.088C91.3475 109.088 98.554 109.568 98.554 103.872C98.554 94.4005 85.651 96.5282 79.4054 97.2145C79.5426 100.921 79.6799 104.696 79.8858 108.402Z" fill="#E67C4F"/>
<path d="M147.92 117.599C148.812 113.549 149.499 105.519 155.058 105.519C157.048 105.519 158.695 106.686 159.519 108.47C161.509 113 161.441 118.491 164.049 124.119C164.666 125.491 165.147 126.933 165.147 128.511C165.147 132.355 162.539 135.855 158.489 135.855C153.822 135.855 152.175 132.766 150.048 129.403C144.626 130.982 141.812 134.002 135.497 134.002C125.477 134.002 118.202 126.589 118.202 116.638C118.202 103.323 127.81 92.3415 141.537 92.3415C146.135 92.3415 155.813 93.5083 155.813 99.6853C155.813 109.912 132.752 100.166 132.752 118.216C132.752 120.893 133.782 122.334 136.527 122.334C139.066 122.334 145.449 118.834 147.92 117.599Z" fill="#E67C4F"/>
<path d="M178.189 136.335C175.993 136.335 174.139 134.825 173.179 132.972C170.914 128.648 169.747 110.255 169.747 104.833C169.747 99.6853 170.021 84.1742 177.297 84.1742C185.052 84.1742 183.885 96.8713 183.885 102.225C183.885 111.627 183.336 121.236 182.993 130.639C182.856 133.727 181.62 136.335 178.189 136.335Z" fill="#E67C4F"/>
<path d="M211.892 103.186C213.47 103.117 215.049 103.048 216.628 103.048C232.413 103.048 232.207 112.245 232.207 123.226C232.207 134.07 220.197 136.129 211.686 136.129C204.891 136.129 189.723 136.404 189.723 126.658C189.723 122.197 194.047 118.765 198.303 118.765C203.93 118.765 209.49 120.138 215.118 120.138C216.49 120.138 217.863 120.069 219.236 119.863C219.442 118.765 219.785 117.667 219.785 116.569C219.785 113.961 211.068 115.059 208.941 115.059C197.685 115.059 189.998 113.206 189.998 100.372C189.998 89.1158 200.911 84.1056 210.794 84.1056C216.147 84.1056 229.874 85.89 229.874 93.0965C229.874 97.3518 226.717 98.7244 222.942 98.7244C219.373 98.7244 215.873 98.0381 212.304 98.0381C198.783 98.0381 199.95 103.735 211.892 103.186Z" fill="#E67C4F"/>
<path d="M25.1644 100.681C28.7323 102.25 32.571 102.797 36.4187 103.161C37.5746 99.8533 35.6051 92.7074 39.2179 91.1023C41.777 89.9654 43.9749 91.6925 45.0348 94.1055C46.1941 96.7447 46.3089 101.921 46.565 104.961C49.8016 105.776 55.0433 106.241 56.567 109.71C57.66 112.198 56.4469 115.171 54.0384 116.241C51.4793 117.378 46.7223 116.787 43.9013 116.509C41.493 122.085 38.5458 126.639 32.7503 129.213C25.2237 132.557 15.8091 131.603 12.0662 123.082C9.61512 117.502 10.0513 112.352 10.9572 106.632C7.04307 103.865 3.67384 100.495 1.68647 95.9709C-2.55327 86.319 1.43821 74.7224 10.997 70.4755C18.8999 66.9644 28.4682 69.2923 32.2111 77.8132C36.0865 86.6357 29.5567 93.6823 25.1644 100.681ZM15.3793 96.0158C16.8905 93.7221 22.9897 85.6952 21.8635 83.1314C20.7042 80.4922 17.7658 80.3557 15.5078 81.3589C11.5187 83.1312 10.3659 87.8791 12.0883 91.8002C12.817 93.4591 14.0394 94.8086 15.3793 96.0158ZM32.9782 114.783L21.4349 111.44C21.0767 113.492 21.5165 116.541 22.3777 118.501C23.272 120.537 26.9239 119.636 28.4293 118.967C30.3109 118.131 32.036 116.733 32.9782 114.783Z" fill="#D6E499"/>
</svg>
