<svg width="145" height="85" viewBox="0 0 145 85" fill="none" xmlns="http://www.w3.org/2000/svg">
<path d="M4.5693 8.20507C3.54898 7.31229 2.61368 6.63208 2.61368 5.14411C2.61368 0.76524 14.1773 0 17.3658 0C25.6134 0 32.1604 3.74117 32.1604 12.839C32.1604 15.0497 31.4377 17.2179 30.2048 19.046C26.081 25.1679 18.4286 24.5727 11.9241 24.5727C11.0738 27.081 12.3917 33.0754 8.22544 33.0754C3.71903 33.0754 3.46395 22.4045 3.46395 19.1735C3.46395 15.4748 3.88908 11.8187 4.5693 8.20507ZM11.754 15.5599C13.2845 15.9 14.8575 15.985 16.4305 15.985C18.8538 15.985 23.3177 16.2826 23.3177 12.754C23.3177 6.88716 15.3252 8.20507 11.4565 8.6302C11.5415 10.9259 11.6265 13.2642 11.754 15.5599Z" fill="#E67C4F"/>
<path d="M43.8207 28.739C43.8207 30.6521 42.9279 32.4377 40.7598 32.4377C37.0611 32.4377 35.7007 26.4008 35.7007 23.5524C35.7007 20.789 36.1683 15.0922 39.9095 15.0922C42.3753 15.0922 43.268 16.8353 43.5656 18.9609C43.8207 20.789 43.6507 22.9147 43.8207 28.739ZM43.6081 7.94999C43.6081 9.77806 42.1202 11.3936 40.2496 11.3936C38.379 11.3936 36.891 9.73555 36.891 7.90747C36.891 6.16443 38.379 4.63395 40.1646 4.63395C42.0777 4.63395 43.6081 5.99438 43.6081 7.94999Z" fill="#E67C4F"/>
<path d="M57.2616 29.6318C57.0915 33.2029 57.4741 40.6002 52.2025 40.6002C48.8864 40.6002 47.8236 37.4967 47.8236 34.7759C47.8236 27.9312 49.0565 20.9165 49.0565 13.9444C49.0565 12.839 48.7164 11.7337 48.7164 10.6708C48.7164 6.80213 59.2597 5.1016 62.2356 5.1016C69.9305 5.1016 75.4147 11.0535 75.4147 18.7059C75.4147 29.5468 65.084 28.9516 57.2616 29.6318ZM55.7736 13.8168L56.7514 19.2585C58.9621 19.3861 61.2578 19.5986 63.4685 19.5986C65.084 19.5986 65.7642 18.8334 65.7642 17.2604C65.7642 13.7743 63.0009 13.3067 60.195 13.3067C58.707 13.3067 57.219 13.5192 55.7736 13.8168Z" fill="#E67C4F"/>
<path d="M89.1881 29.6318C89.018 33.2029 89.4006 40.6002 84.129 40.6002C80.8129 40.6002 79.7501 37.4967 79.7501 34.7759C79.7501 27.9312 80.983 20.9165 80.983 13.9444C80.983 12.839 80.6429 11.7337 80.6429 10.6708C80.6429 6.80213 91.1862 5.1016 94.1621 5.1016C101.857 5.1016 107.341 11.0535 107.341 18.7059C107.341 29.5468 97.0105 28.9516 89.1881 29.6318ZM87.7001 13.8168L88.6779 19.2585C90.8886 19.3861 93.1843 19.5986 95.395 19.5986C97.0105 19.5986 97.6907 18.8334 97.6907 17.2604C97.6907 13.7743 94.9274 13.3067 92.1215 13.3067C90.6335 13.3067 89.1456 13.5192 87.7001 13.8168Z" fill="#E67C4F"/>
<path d="M119.797 28.739C119.797 30.6521 118.904 32.4377 116.736 32.4377C113.037 32.4377 111.677 26.4008 111.677 23.5524C111.677 20.789 112.144 15.0922 115.885 15.0922C118.351 15.0922 119.244 16.8353 119.542 18.9609C119.797 20.789 119.627 22.9147 119.797 28.739ZM119.584 7.94999C119.584 9.77806 118.096 11.3936 116.226 11.3936C114.355 11.3936 112.867 9.73555 112.867 7.90747C112.867 6.16443 114.355 4.63395 116.141 4.63395C118.054 4.63395 119.584 5.99438 119.584 7.94999Z" fill="#E67C4F"/>
<path d="M130.814 9.43796C132.685 8.46015 133.578 7.6524 135.831 7.6524C145.821 7.6524 144.929 17.8556 144.929 25.3804C144.929 27.6762 144.333 31.1623 141.358 31.1623C138.807 31.1623 137.319 29.2492 137.064 26.1882C136.681 21.5968 137.659 13.5192 135.491 13.5192C133.578 13.5192 131.792 17.2604 131.792 18.9184C131.792 21.0866 132.345 23.2973 132.345 25.4655C132.345 28.1863 131.877 31.7574 128.306 31.7574C123.459 31.7574 123.885 25.1254 123.885 21.8518C123.885 19.3436 123.885 10.3307 124.82 8.54517C125.33 7.56737 126.35 6.88716 127.498 6.88716C129.326 6.88716 129.921 8.16255 130.814 9.43796Z" fill="#E67C4F"/>
<path d="M42.2988 59.7923C41.2785 58.8995 40.3432 58.2193 40.3432 56.7314C40.3432 52.3525 51.9068 51.5872 55.0953 51.5872C63.3429 51.5872 69.89 55.3284 69.89 64.4263C69.89 66.637 69.1672 68.8051 67.9343 70.6332C63.8105 76.7551 56.1581 76.1599 49.6536 76.1599C48.8033 78.6682 50.1213 84.6626 45.955 84.6626C41.4485 84.6626 41.1935 73.9918 41.1935 70.7607C41.1935 67.0621 41.6186 63.4059 42.2988 59.7923ZM49.4836 67.1471C51.014 67.4872 52.587 67.5723 54.16 67.5723C56.5833 67.5723 61.0472 67.8699 61.0472 64.3412C61.0472 58.4744 53.0547 59.7923 49.186 60.2174C49.271 62.5132 49.356 64.8514 49.4836 67.1471Z" fill="#E67C4F"/>
<path d="M91.6259 72.8439C92.1786 70.3356 92.6037 65.3616 96.0473 65.3616C97.2802 65.3616 98.3005 66.0843 98.8106 67.1896C100.044 69.9955 100.001 73.3966 101.617 76.8827C101.999 77.7329 102.297 78.6257 102.297 79.6035C102.297 81.9843 100.681 84.1524 98.1729 84.1524C95.282 84.1524 94.2617 82.2393 92.9438 80.1562C89.5852 81.134 87.8422 83.0046 83.931 83.0046C77.724 83.0046 73.2176 78.4131 73.2176 72.2487C73.2176 64.0011 79.1695 57.199 87.6721 57.199C90.5205 57.199 96.5149 57.9217 96.5149 61.7479C96.5149 68.0824 82.2304 62.0455 82.2304 73.2265C82.2304 74.8845 82.8681 75.7773 84.5687 75.7773C86.1417 75.7773 90.0954 73.6091 91.6259 72.8439Z" fill="#E67C4F"/>
<path d="M110.375 84.45C109.015 84.45 107.867 83.5147 107.272 82.3669C105.869 79.6885 105.146 68.295 105.146 64.9364C105.146 61.7479 105.316 52.1399 109.823 52.1399C114.627 52.1399 113.904 60.0049 113.904 63.3209C113.904 69.1452 113.564 75.0971 113.351 80.9214C113.266 82.8345 112.501 84.45 110.375 84.45Z" fill="#E67C4F"/>
<path d="M131.252 63.9161C132.23 63.8736 133.208 63.8311 134.185 63.8311C143.963 63.8311 143.836 69.5279 143.836 76.33C143.836 83.0471 136.396 84.3225 131.124 84.3225C126.916 84.3225 117.52 84.4926 117.52 78.4557C117.52 75.6923 120.198 73.5666 122.834 73.5666C126.32 73.5666 129.764 74.4169 133.25 74.4169C134.1 74.4169 134.951 74.3744 135.801 74.2468C135.928 73.5666 136.141 72.8864 136.141 72.2062C136.141 70.5907 130.742 71.2709 129.424 71.2709C122.452 71.2709 117.69 70.1231 117.69 62.1731C117.69 55.2009 124.45 52.0974 130.572 52.0974C133.888 52.0974 142.39 53.2028 142.39 57.6666C142.39 60.3025 140.435 61.1527 138.097 61.1527C135.886 61.1527 133.718 60.7276 131.507 60.7276C123.132 60.7276 123.855 64.2562 131.252 63.9161Z" fill="#E67C4F"/>
<path d="M15.5876 62.3644C17.7976 63.3364 20.1754 63.6756 22.5588 63.9006C23.2748 61.852 22.0549 57.4256 24.2927 56.4314C25.8779 55.7271 27.2393 56.797 27.8959 58.2917C28.614 59.9265 28.6851 63.1327 28.8437 65.016C30.8485 65.5209 34.0954 65.8089 35.0392 67.9575C35.7163 69.4989 34.9648 71.34 33.4729 72.0029C31.8878 72.7071 28.9412 72.3415 27.1937 72.1689C25.702 75.6228 23.8764 78.4436 20.2865 80.0385C15.6243 82.1098 9.79262 81.5188 7.47416 76.2407C5.95588 72.7843 6.22609 69.5939 6.7872 66.051C4.36268 64.337 2.27568 62.2497 1.04465 59.4472C-1.58157 53.4685 0.890867 46.2852 6.81186 43.6546C11.7072 41.4797 17.634 42.9216 19.9525 48.1997C22.353 53.6646 18.3082 58.0295 15.5876 62.3644ZM9.52636 59.4749C10.4625 58.0542 14.2405 53.082 13.5429 51.494C12.8248 49.8592 11.0046 49.7746 9.60597 50.396C7.135 51.4939 6.42092 54.4348 7.48782 56.8637C7.9392 57.8913 8.69642 58.7272 9.52636 59.4749ZM20.4277 71.0998L13.2774 69.029C13.0555 70.2999 13.3279 72.1886 13.8614 73.403C14.4153 74.6641 16.6775 74.1057 17.6099 73.6914C18.7755 73.1736 19.844 72.3081 20.4277 71.0998Z" fill="#D6E499"/>
</svg>
