<svg width="72" height="61" viewBox="0 0 72 61" fill="none" xmlns="http://www.w3.org/2000/svg">
<path d="M68.9933 7.00287C69.545 8.78308 69.4653 10.5577 68.8951 12.3188C68.5239 13.466 67.965 14.5191 67.3107 15.5265C66.3057 17.064 65.073 18.4384 63.6551 19.6023C62.6733 20.4134 61.6616 21.1865 60.6587 21.9708C59.9153 22.5524 59.181 23.1451 58.484 23.7821C58.0462 24.1818 57.6329 24.6031 57.2747 25.0777C57.2542 25.105 57.2294 25.1296 57.2122 25.1572C57.1806 25.2115 57.1341 25.2554 57.0781 25.2836C57.0222 25.3119 56.9593 25.3232 56.8971 25.3164C56.6705 25.3069 56.4432 25.3033 56.2159 25.3033C55.3741 25.3033 54.5367 25.3561 53.7081 25.5149C53.6429 25.5277 53.5757 25.5305 53.5173 25.5373C53.4584 25.4671 53.5013 25.4195 53.5306 25.3757C53.8467 24.9027 54.1473 24.4175 54.4853 23.9606C55.1692 23.0367 55.8724 22.1271 56.5683 21.2137C57.3705 20.163 58.1348 19.0869 58.7823 17.9318C59.8375 16.0489 60.5942 14.056 60.9556 11.9195C61.1936 10.5118 61.1996 9.10349 60.9089 7.70261C60.6068 6.22147 59.9712 4.8291 59.0506 3.63224C58.9536 3.50589 58.8523 3.38258 58.7506 3.26002C58.649 3.13745 58.5461 3.01901 58.4224 2.87344C58.5086 2.80671 58.5594 2.76182 58.6154 2.72497C59.6373 2.05703 60.7535 1.6726 61.9764 1.64089C63.3783 1.60477 64.6765 1.96949 65.8482 2.74602C67.4088 3.78086 68.4406 5.21955 68.9933 7.00287Z" fill="#FFC2C2"/>
<path d="M68.7348 40.2856C69.4112 41.1797 69.8303 42.1761 69.949 43.2911C70.0383 44.1413 69.9337 44.9756 69.6774 45.7895C69.3587 46.8004 68.8438 47.7081 68.1977 48.5436C67.4895 49.4595 66.6571 50.2462 65.7405 50.9465C64.4135 51.9603 62.9608 52.7509 61.4169 53.3755C60.384 53.7896 59.3228 54.1285 58.2415 54.3898C57.3691 54.6039 56.481 54.733 55.7219 54.8506C53.4251 55.1045 51.2657 55.0727 49.1209 54.6274C47.8246 54.3584 46.5752 53.9526 45.3932 53.3485C45.1805 53.2401 44.9623 53.1427 44.7497 53.0343C43.7324 52.5196 42.8045 51.8433 42.0018 51.0315C41.1123 50.1295 40.5262 49.0446 40.1037 47.8607C39.7672 46.9173 39.6013 45.9402 39.5702 44.944C39.5345 43.8103 39.6326 42.6883 39.9754 41.5989C40.0406 41.3926 40.0931 41.1824 40.1485 40.9729C40.3458 40.2247 40.3079 39.4792 40.0917 38.7441C39.9375 38.2196 39.7679 37.6983 39.5806 37.1849C39.232 36.2415 39.0541 35.2433 39.0553 34.2373C39.0577 33.2996 39.1274 32.3699 39.3372 31.454C39.5012 30.74 39.7526 30.0561 40.0405 29.3856C40.1848 29.0492 40.391 28.747 40.622 28.4639C40.6878 28.3857 40.7618 28.3147 40.8427 28.2523C42.2474 27.1328 43.3941 25.7929 44.258 24.2129C45.0458 22.7731 45.5115 21.2352 45.6186 19.5933C45.7068 18.2217 45.4793 16.8477 44.9537 15.578C44.9412 15.5462 44.9268 15.5151 44.9108 15.4849C44.7284 15.1537 44.6941 14.8037 44.7177 14.426C44.748 13.9378 44.728 13.4462 44.7269 12.9564C44.724 11.6681 44.7071 10.3797 44.8846 9.09872C45.0663 7.77761 45.4183 6.51225 46.0566 5.33444C46.5288 4.46383 47.1345 3.70267 47.9027 3.07532C48.9006 2.26057 50.0443 1.80477 51.3212 1.68165C53.0842 1.51085 54.674 1.98955 56.1022 3.01901C57.6661 4.14684 58.6744 5.66653 59.1912 7.52222C59.5708 8.88851 59.5854 10.2706 59.3508 11.6585C59.019 13.6249 58.3141 15.4559 57.3348 17.1843C56.6757 18.3469 55.8891 19.4206 55.0787 20.4776C54.3104 21.4807 53.52 22.4672 52.8045 23.5102C52.4365 24.0455 52.0712 24.5816 51.778 25.1637C51.6351 25.4484 51.5034 25.7396 51.3852 26.0354C51.3304 26.185 51.2941 26.3407 51.277 26.4992C51.1852 27.1611 51.8651 27.6041 52.327 27.4937C52.5478 27.4415 52.7678 27.3861 52.9879 27.3311C53.8697 27.1103 54.772 26.9812 55.6803 26.946C56.7523 26.9038 57.8135 26.9802 58.8601 27.2176C60.6478 27.6236 62.2412 28.4091 63.56 29.7085C64.7166 30.8479 65.4788 32.2114 65.8467 33.7989C66.0896 34.8455 66.15 35.9263 66.0251 36.9933C66.0126 37.1066 65.9942 37.2194 65.9878 37.333C65.972 37.6114 66.0581 37.8523 66.2749 38.0331C66.4918 38.2138 66.7126 38.3978 66.9408 38.565C67.6159 39.0598 68.2276 39.6161 68.7348 40.2856ZM63.3709 37.4594C63.5289 37.0861 63.575 36.6927 63.5159 36.2165C63.5108 36.189 63.5006 36.0867 63.4747 35.9877C63.3576 35.5226 63.1441 35.1132 62.749 34.8264C62.293 34.4956 61.8059 34.4651 61.3075 34.7248C61.097 34.8395 60.9204 35.0079 60.7955 35.2132C60.4277 35.7864 60.3878 36.4072 60.5466 37.0509C60.641 37.4332 60.8201 37.7727 61.1104 38.047C61.714 38.6172 62.6061 38.5565 63.1154 37.9008C63.2192 37.7654 63.3051 37.617 63.3709 37.4594ZM61.858 42.1488C61.8174 41.934 61.7556 41.5393 61.6649 41.1515C61.5862 40.7945 61.4559 40.451 61.2782 40.1318C61.1463 39.901 60.9407 39.804 60.6885 39.7845C60.5343 39.7731 60.4011 39.841 60.2677 39.9035C60.1034 39.9805 59.9441 40.0702 59.7761 40.1371C58.958 40.4621 58.1151 40.4618 57.2627 40.3141C56.9949 40.2677 56.7273 40.2176 56.4592 40.169C56.0558 40.0963 55.7738 40.2757 55.5832 40.6121C55.4898 40.7807 55.4144 40.9587 55.3583 41.1433C55.1715 41.7388 55.1504 42.3542 55.1836 42.9712C55.2103 43.4955 55.293 44.0155 55.4302 44.5222C55.5902 45.1081 55.8069 45.6704 56.1244 46.1891C56.3821 46.6103 56.6906 46.988 57.0929 47.2808C57.6362 47.6771 58.2443 47.8177 58.8997 47.7124C59.7174 47.5804 60.3877 47.1772 60.9089 46.5313C61.2721 46.0805 61.4919 45.5579 61.6511 45.0056C61.9045 44.1297 61.935 43.2334 61.858 42.1488ZM53.2351 37.6564C53.1951 37.3224 53.0889 36.9998 52.9227 36.7076C52.7973 36.49 52.627 36.3017 52.4232 36.1555C52.1778 35.9763 51.8784 35.8877 51.5756 35.9048C51.2729 35.9219 50.9855 36.0437 50.7621 36.2494C50.4998 36.4877 50.3157 36.8003 50.234 37.146C50.1289 37.5798 50.1387 38.0337 50.2625 38.4627C50.36 38.8193 50.5324 39.1388 50.8081 39.3923C51.1981 39.7515 51.6504 39.8765 52.1605 39.7175C52.5491 39.5966 52.8174 39.3257 53.0012 38.9674C53.215 38.55 53.2673 38.1029 53.2351 37.6564Z" fill="#FFC2C2"/>
<path d="M37.9864 30.1111C38.0332 30.1798 37.9804 30.2408 37.9622 30.2996C37.6475 31.3071 37.5004 32.3422 37.4467 33.3934C37.4192 33.9628 37.4243 34.5334 37.462 35.1024C37.5199 36.0089 37.7479 36.8781 38.0449 37.7324C38.1948 38.1626 38.342 38.5942 38.4794 39.0284C38.542 39.2239 38.5895 39.424 38.6214 39.6268C38.6578 39.8634 38.6717 40.1044 38.6152 40.3415C38.5493 40.6182 38.4894 40.897 38.4068 41.1689C38.0579 42.3138 37.9339 43.4872 37.9398 44.6795C37.9443 45.6078 38.0447 46.5251 38.2768 47.4231C38.6574 48.8956 39.2681 50.2608 40.2153 51.4613C40.2781 51.5408 40.34 51.6215 40.4127 51.7154C40.1598 52.1748 39.8454 52.5972 39.4784 52.9709C38.7324 53.7481 37.8697 54.3743 36.9489 54.9222C35.5576 55.7499 34.0781 56.3821 32.5504 56.9032C31.6688 57.2035 30.7753 57.4619 29.87 57.6784C29.2965 57.8178 28.7165 57.9288 28.1381 58.045C26.9563 58.2828 25.7605 58.4234 24.5605 58.522C23.9848 58.5694 23.4044 58.5794 22.8259 58.5748C21.6568 58.567 20.4894 58.4793 19.332 58.3123C17.5486 58.0529 15.815 57.6112 14.161 56.879C13.1905 56.4495 12.2737 55.9269 11.4299 55.2792C10.2679 54.3865 9.31321 53.3141 8.64395 52.0005C8.0887 50.9104 7.76637 49.7159 7.69763 48.4938C7.59663 46.8374 7.89117 45.2478 8.46826 43.7043C8.58465 43.3928 8.58378 43.107 8.41588 42.8203C8.1302 42.3313 7.97295 41.7989 7.88465 41.2421C7.7341 40.2863 7.76021 39.3339 7.90291 38.3808C8.16375 36.6264 8.7441 34.9791 9.56336 33.413C9.57416 33.3955 9.58625 33.3789 9.59954 33.3633C9.69195 33.3034 9.78049 33.3421 9.86877 33.3541C11.2296 33.5599 12.6127 33.5676 13.9754 33.377C15.7372 33.1256 17.3963 32.5769 18.9209 31.643C20.1088 30.9149 21.1219 30.0007 21.9029 28.8364C21.9335 28.791 21.9721 28.7504 22.0103 28.7026C22.148 28.7409 22.2303 28.8398 22.326 28.9148C23.0061 29.4499 23.7328 29.9224 24.4973 30.3265C25.446 30.8207 26.4526 31.1938 27.4934 31.437C28.2687 31.6204 29.0463 31.7671 29.8423 31.8205C30.738 31.8811 31.6376 31.8387 32.5235 31.6941C32.9934 31.6174 33.4572 31.5042 33.9227 31.4023C34.3661 31.3052 34.8101 31.2095 35.2512 31.0983C36.0969 30.8811 36.9194 30.5811 37.7067 30.2026C37.7883 30.1639 37.8724 30.1309 37.956 30.097C37.9632 30.0943 37.9753 30.1055 37.9864 30.1111ZM33.3558 41.7013C33.911 41.8708 34.4597 41.4016 34.3811 40.7986C34.3724 40.7707 34.3577 40.7159 34.3396 40.6621C34.2761 40.4698 34.1459 40.3304 33.9859 40.2143C33.6122 39.9427 33.1945 39.7692 32.7503 39.6584C31.7337 39.4045 30.7237 39.4462 29.7246 39.7451C29.2863 39.87 28.8778 40.0825 28.5235 40.3699C28.4084 40.4622 28.3061 40.5694 28.2191 40.6887C28.0116 40.9856 28.0357 41.3624 28.2624 41.6423C28.3698 41.7767 28.5179 41.8722 28.6841 41.9145C28.8504 41.9567 29.0259 41.9433 29.1838 41.8763C29.2875 41.831 29.3843 41.7711 29.4713 41.6984C29.692 41.5184 29.9469 41.3852 30.2205 41.3069C30.8627 41.1169 31.5132 41.0716 32.1723 41.2001C32.4978 41.2636 32.8069 41.3705 33.0825 41.5653C33.166 41.6247 33.2582 41.6705 33.3558 41.7013ZM26.0842 46.6914C26.1612 46.5501 26.1922 46.3881 26.1729 46.2281C26.1535 46.0681 26.0848 45.9182 25.9763 45.7994C25.7507 45.5472 25.4709 45.4693 25.143 45.5568C24.9839 45.5993 24.8575 45.6941 24.7412 45.804C24.5649 45.969 24.3585 46.0858 24.1394 46.1822C23.6093 46.4157 23.0489 46.4951 22.4777 46.4853C22.0101 46.4775 21.5508 46.4033 21.1461 46.1325C21.079 46.0897 21.0061 46.057 20.9297 46.0353C20.7602 45.9826 20.5781 45.9876 20.4119 46.0496C20.2456 46.1115 20.1044 46.2269 20.0103 46.3779C19.9142 46.5279 19.8718 46.7063 19.8899 46.8838C19.9079 47.0614 19.9855 47.2276 20.1099 47.3552C20.2147 47.4592 20.3326 47.549 20.4607 47.6223C20.8251 47.834 21.2253 47.9763 21.6411 48.0419C22.1783 48.1387 22.7272 48.1503 23.2678 48.0764C23.7882 48.0251 24.2974 47.8933 24.7774 47.6855C25.1563 47.5246 25.5091 47.3191 25.808 47.0331C25.9163 46.9335 26.0094 46.8183 26.0842 46.6914ZM17.7357 42.4789C18.2882 42.6571 18.8461 42.1954 18.7736 41.5895C18.7485 41.4178 18.6667 41.2594 18.5414 41.1398C18.4508 41.053 18.3529 40.9742 18.2488 40.9044C17.9233 40.6949 17.5655 40.5407 17.1901 40.4481C16.1283 40.1732 15.0756 40.2275 14.0349 40.5512C13.666 40.6669 13.319 40.8437 13.0082 41.0743C12.8519 41.1893 12.7015 41.3119 12.6005 41.4827C12.4271 41.7735 12.426 42.07 12.6101 42.3538C12.7857 42.6267 13.0472 42.7413 13.3698 42.7092C13.5522 42.6907 13.7235 42.613 13.8579 42.4879C14.0818 42.2925 14.348 42.1522 14.6355 42.0783C15.2894 41.8966 15.9524 41.847 16.6216 41.9916C16.9233 42.0568 17.2102 42.158 17.4668 42.3385C17.5493 42.3972 17.6397 42.4437 17.7354 42.4764L17.7357 42.4789Z" fill="#F8FCE1"/>
<path d="M7.95556 32.9366C7.90434 33.0507 7.86305 33.1547 7.81511 33.2541C7.38561 34.1474 7.02999 35.0747 6.75186 36.0267C6.47594 36.9557 6.29267 37.9099 6.20477 38.8755C6.19535 39.0461 6.11914 39.206 5.99276 39.3204C5.58562 39.7085 5.14661 40.0484 4.60903 40.2305C3.99794 40.4378 3.40225 40.4305 2.85312 40.0399C2.60403 39.8579 2.39388 39.6276 2.23516 39.3625C2.03408 39.0307 1.88518 38.6698 1.79373 38.2926C1.6273 37.6451 1.59006 36.985 1.64628 36.3229C1.74534 35.0668 2.14824 33.8543 2.82001 32.7906C3.16877 32.2384 3.58367 31.7419 4.10536 31.3418C4.16828 31.2937 4.23413 31.2492 4.30083 31.2057C4.3282 31.1945 4.35678 31.1865 4.386 31.182C4.64964 31.3515 4.9206 31.5375 5.20296 31.7045C5.49648 31.8777 5.79611 32.0419 6.10168 32.1925C6.39698 32.3381 6.70053 32.4684 7.00643 32.5911C7.31233 32.7139 7.62385 32.8172 7.95556 32.9366Z" fill="#D6E499"/>
<path d="M43.2381 15.7768C43.6744 16.6831 43.9252 17.668 43.9756 18.6731C44.0537 20.2745 43.6841 21.772 42.9574 23.1884C42.1683 24.7232 41.0715 25.9952 39.7213 27.06C38.8928 27.7178 37.989 28.274 37.0291 28.7167C35.4185 29.4387 33.6906 29.8613 31.9292 29.9641C28.724 30.14 25.7827 29.3707 23.1718 27.4491C22.8884 27.2405 22.6232 27.0087 22.3437 26.792C22.248 26.7119 22.14 26.6479 22.0239 26.6028C21.7672 26.5175 21.5262 26.5804 21.324 26.757C21.2238 26.8492 21.1349 26.9531 21.0591 27.0664C20.9832 27.1801 20.9141 27.2983 20.8522 27.4202C20.3167 28.4122 19.5611 29.2054 18.6561 29.8603C17.6224 30.6082 16.4764 31.1155 15.2497 31.4519C14.4713 31.6651 13.6733 31.7986 12.8679 31.8504C10.7078 31.9899 8.63502 31.6414 6.68531 30.6648C5.57319 30.1081 4.60024 29.3699 3.8271 28.3826C3.30013 27.7096 2.91914 26.9622 2.7212 26.1287C2.49956 25.2139 2.53525 24.2554 2.8243 23.3602C3.16555 22.2912 3.77918 21.4018 4.58266 20.6344C5.04544 20.1957 5.55485 19.8095 6.10174 19.4827C6.22848 19.4078 6.35068 19.3255 6.46769 19.236C6.78437 18.9887 6.90006 18.6621 6.82421 18.2665C6.80075 18.1431 6.77198 18.0202 6.75494 17.8964C6.62012 16.9235 6.62826 15.9362 6.77908 14.9659C7.02848 13.3863 7.6364 11.9496 8.50568 10.617C9.68298 8.81025 11.1614 7.29952 12.9204 6.06341C14.2619 5.12074 15.7194 4.42044 17.3035 3.99663C17.9956 3.81527 18.7015 3.69157 19.414 3.62679C21.0522 3.46884 22.679 3.58697 24.3018 3.81841C25.7746 4.02816 27.2333 4.32645 28.6896 4.61961C30.1815 4.91906 31.6801 5.17734 33.1905 5.36501C34.1383 5.48441 35.0984 5.46276 36.0397 5.30077C36.1939 5.2744 36.3472 5.22287 36.5284 5.24597C36.5116 5.31295 36.4913 5.379 36.4676 5.44383C35.4933 7.74812 34.3268 9.9495 32.9318 12.0241C31.6447 13.9418 30.0964 15.6096 28.2508 16.9951C27.1753 17.7972 26.0386 18.5131 24.8511 19.1361C23.6647 19.7639 22.44 20.3096 21.1625 20.718C20.1535 21.0401 19.1256 21.2778 18.0623 21.3236C17.5366 21.3464 17.0217 21.2846 16.5241 21.0949C15.8805 20.8502 15.2847 20.5268 14.7707 20.0621C14.2567 19.5975 13.8764 19.0338 13.6872 18.3544C13.5351 17.8021 13.517 17.2214 13.6343 16.661C13.7793 15.9329 14.0937 15.2802 14.5144 14.6771C15.0626 13.8942 15.747 13.25 16.5249 12.7022C17.6721 11.8938 18.937 11.3444 20.2964 11.0162C21.6474 10.6901 23.0131 10.6117 24.3853 10.861C24.6975 10.9174 25.0029 11.0092 25.3123 11.0821C25.4214 11.1128 25.5328 11.1341 25.6454 11.1458C25.8287 11.1585 26.0108 11.1074 26.1608 11.0011C26.3109 10.8948 26.4199 10.7397 26.4694 10.5621C26.519 10.3844 26.506 10.195 26.4328 10.0257C26.3596 9.85638 26.2305 9.71751 26.0674 9.63245C25.9242 9.56387 25.775 9.50895 25.6216 9.46842C24.9562 9.27374 24.2712 9.15408 23.5795 9.11166C22.7838 9.0608 21.9896 9.07178 21.2003 9.18673C18.8471 9.5288 16.7167 10.396 14.8718 11.922C14.1123 12.5418 13.4594 13.2827 12.9393 14.1152C12.4041 14.9791 12.0505 15.9086 11.9591 16.9292C11.8212 18.4738 12.2971 19.8101 13.3436 20.9391C13.9878 21.6355 14.7652 22.1424 15.6441 22.4947C16.1982 22.7163 16.7824 22.8031 17.3728 22.8485C18.1792 22.9104 18.9864 22.8965 19.7842 22.7664C20.2317 22.6898 20.6736 22.5834 21.107 22.4479C24.1921 21.5109 26.9965 20.0183 29.5512 18.0518C31.3683 16.6527 32.9017 14.9802 34.1848 13.0781C34.5986 12.4649 34.9815 11.8308 35.3783 11.2074C35.4389 11.1123 35.4994 11.0162 35.5614 10.9141C35.6735 10.915 35.776 10.9073 35.8752 10.9176C37.4738 11.0794 38.9692 11.5591 40.2976 12.4748C41.5402 13.3299 42.5792 14.3863 43.2381 15.7768Z" fill="#D6E499"/>
<path d="M70.7205 7.14381C71.172 9.0461 71.0562 10.9234 70.4588 12.7775C70.0265 14.1229 69.3747 15.3564 68.6001 16.5322C67.4234 18.3165 65.9687 19.8432 64.315 21.1813C63.5377 21.8108 62.7419 22.4175 61.9516 23.0305C61.08 23.7068 60.2146 24.3903 59.4102 25.147C59.2945 25.2561 59.1853 25.3717 59.0745 25.4863C59.0608 25.5006 59.0603 25.5277 59.0449 25.5763C59.3297 25.6511 59.5939 25.7153 59.8559 25.7884C61.3858 26.2157 62.7828 26.9088 64.0113 27.9249C65.6466 29.2769 66.753 30.9778 67.3307 33.0274C67.6851 34.2946 67.7834 35.5828 67.6726 36.8902C67.668 36.9459 67.6653 37.0021 67.6609 37.0719C67.7545 37.1417 67.8437 37.2098 67.9361 37.2754C68.8194 37.9134 69.5935 38.6612 70.2203 39.5583C70.8012 40.379 71.213 41.3078 71.4315 42.2901C71.7764 43.8556 71.5984 45.3713 71.0279 46.8541C70.5893 47.993 69.9487 49.0106 69.1668 49.941C68.0133 51.3141 66.6367 52.4221 65.1125 53.3497C63.6017 54.2694 61.9941 54.9754 60.3106 55.5125C59.3812 55.8124 58.4335 56.0519 57.4733 56.2294C56.2782 56.4515 55.0685 56.5858 53.8537 56.631C52.7759 56.6691 51.6967 56.6308 50.6241 56.5163C48.4688 56.2843 46.4143 55.7087 44.4793 54.717C43.9125 54.4262 43.3426 54.1405 42.8134 53.7847C42.4628 53.55 42.1326 53.2877 41.7928 53.0409C41.7394 53.0021 41.6825 52.9673 41.6269 52.9306C41.5966 52.9536 41.5688 52.9797 41.5438 53.0085C40.863 54.0113 39.9826 54.8112 39.0114 55.5172C37.96 56.282 36.8254 56.9015 35.6444 57.4381C34.2366 58.072 32.781 58.5932 31.2911 58.9966C30.2171 59.291 29.1324 59.5311 28.0365 59.7274C27.1073 59.8941 26.1709 59.9936 25.2353 60.1091C24.4213 60.2093 23.6066 60.2165 22.7883 60.2062C21.9479 60.1966 21.1096 60.1533 20.2735 60.0707C18.334 59.8786 16.4364 59.4933 14.6018 58.818C13.0012 58.2288 11.5086 57.4427 10.1759 56.3649C8.91111 55.3423 7.88427 54.1233 7.15245 52.662C6.69765 51.7535 6.38007 50.7822 6.21014 49.78C5.92856 48.1358 6.01939 46.508 6.40764 44.8941C6.51403 44.4515 6.64805 44.015 6.78039 43.5794C6.82496 43.43 6.84156 43.2961 6.77673 43.1504C6.53207 42.5951 6.39115 42.0059 6.25579 41.4182C6.2406 41.3718 6.22163 41.3268 6.19906 41.2835C6.09904 41.2999 6.02847 41.3594 5.95426 41.4031C5.37611 41.7381 4.75998 41.9513 4.08849 41.9926C3.13051 42.052 2.30035 41.7445 1.58856 41.1087C1.02396 40.6046 0.651285 39.9708 0.394125 39.263C0.0860706 38.415 -0.0235982 37.5384 0.00389708 36.6407C0.0523853 35.0468 0.485801 33.5638 1.28061 32.187C1.72242 31.4213 2.26864 30.7406 2.95036 30.1746C2.98895 30.1397 3.02572 30.1028 3.06051 30.064C3.05232 30.0367 3.04045 30.0107 3.02523 29.9867C2.52443 29.4786 2.15539 28.8758 1.81424 28.2568C1.29501 27.3262 1.00197 26.2857 0.958995 25.2203C0.905025 23.8883 1.22385 22.6434 1.87132 21.4825C2.44524 20.4536 3.21052 19.5901 4.13487 18.8676C4.44759 18.6232 4.77417 18.396 5.11333 18.1474C5.11549 18.0756 5.11281 18.0036 5.10529 17.9321C4.95146 17.0082 4.93147 16.0669 5.04595 15.1375C5.08339 14.8447 5.13003 14.5508 5.19049 14.2614C5.50109 12.7719 6.08063 11.3901 6.88672 10.1064C8.47014 7.58464 10.5259 5.54214 13.0831 4.01949C14.4105 3.22364 15.8548 2.64304 17.3628 2.29907C18.3855 2.06659 19.4222 1.95542 20.469 1.9249C22.1673 1.87528 23.8476 2.05815 25.516 2.35312C27.0025 2.6157 28.4825 2.91474 29.965 3.19906C31.2475 3.4452 32.5357 3.65461 33.8353 3.78337C34.3897 3.835 34.9484 3.8161 35.4979 3.7271C36.195 3.62573 36.8801 3.45464 37.5431 3.21638C37.6935 3.16468 37.8511 3.13743 38.01 3.13564C38.5573 3.12155 38.9087 3.55264 38.7777 4.0854C38.715 4.33983 38.6302 4.58819 38.5241 4.8276C37.8766 6.28484 37.2558 7.75265 36.5252 9.17239C36.5043 9.21963 36.486 9.268 36.4704 9.31727C36.789 9.40393 37.1047 9.4271 37.4079 9.5051C37.704 9.58141 38.0038 9.65152 38.2971 9.74113C38.6007 9.83459 38.9022 9.93875 39.1958 10.0568C39.4893 10.1749 39.7815 10.3065 40.0674 10.4489C40.3416 10.5862 40.6105 10.736 40.8715 10.8954C41.1424 11.0622 41.4065 11.2415 41.6624 11.4306C41.9095 11.6126 42.1436 11.8122 42.3809 12.0076C42.6181 12.2029 42.8248 12.4527 43.0957 12.6596C43.1256 12.4592 43.1103 12.2891 43.1041 12.1196C43.0709 10.8515 43.142 9.5913 43.3533 8.33848C43.5894 6.94501 44.0161 5.61643 44.7204 4.38546C45.3785 3.23272 46.2243 2.24762 47.3087 1.47644C48.6281 0.547263 50.1949 0.0367893 51.8068 0.0108997C53.141 -0.0150113 54.4627 0.277102 55.6633 0.863274C56.0933 1.07152 56.507 1.31225 56.9008 1.5834C56.9754 1.63415 57.052 1.6814 57.1274 1.73025C57.2565 1.71761 57.3352 1.62907 57.4252 1.56442C58.1734 1.02494 59.0047 0.612207 59.886 0.342605C61.1303 -0.0388843 62.4499 -0.103381 63.7259 0.154923C65.7813 0.560243 67.4538 1.61296 68.7854 3.22342C69.7376 4.37543 70.3747 5.68989 70.7205 7.14381ZM68.8953 12.3198C69.4654 10.5584 69.545 8.78233 68.9935 7.0039C68.442 5.22547 67.4089 3.78189 65.8492 2.74839C64.6775 1.97186 63.3794 1.60714 61.9775 1.64326C60.7542 1.67501 59.6383 2.0594 58.6164 2.72733C58.5604 2.76419 58.5097 2.80908 58.4234 2.8758C58.5482 3.02125 58.6509 3.1408 58.7517 3.26238C58.8525 3.38396 58.9546 3.50826 59.0517 3.63461C59.9721 4.83126 60.6077 6.22338 60.9098 7.70427C61.1995 9.10527 61.1945 10.5134 60.9565 11.9212C60.5951 14.0577 59.8385 16.0505 58.7832 17.9334C58.1358 19.0885 57.3714 20.1647 56.5692 21.2153C55.8716 22.129 55.1676 23.0383 54.4863 23.9623C54.1482 24.4191 53.8474 24.9026 53.5316 25.3773C53.5008 25.4213 53.4594 25.4687 53.5182 25.539C53.5766 25.5321 53.6437 25.5286 53.7091 25.5166C54.5375 25.3563 55.3751 25.3049 56.2169 25.3049C56.4441 25.305 56.6713 25.3072 56.898 25.318C56.9603 25.3249 57.0231 25.3135 57.0791 25.2853C57.135 25.257 57.1816 25.2131 57.2132 25.1588C57.2314 25.1304 57.2561 25.1058 57.2756 25.0794C57.6339 24.6047 58.0472 24.1834 58.4849 23.7838C59.1823 23.1467 59.9162 22.554 60.6597 21.9725C61.6625 21.1882 62.675 20.415 63.6561 19.604C65.074 18.4401 66.3066 17.0656 67.3116 15.5281C67.9652 14.5202 68.5239 13.466 68.8953 12.3198ZM69.948 43.2924C69.8304 42.1766 69.4111 41.1791 68.7338 40.2869C68.2266 39.6173 67.615 39.061 66.9395 38.5692C66.7099 38.4021 66.492 38.2193 66.2736 38.0372C66.0552 37.8552 65.9707 37.6156 65.9865 37.3372C65.9929 37.2236 66.0113 37.1107 66.0238 36.9975C66.1487 35.9305 66.0883 34.8497 65.8454 33.803C65.4749 32.2178 64.7127 30.8543 63.5587 29.7126C62.2399 28.4133 60.6465 27.6278 58.8588 27.2217C57.8121 26.984 56.7514 26.908 55.679 26.9501C54.7707 26.9854 53.8684 27.1145 52.9866 27.3353C52.7665 27.3903 52.5465 27.4457 52.3257 27.4979C51.8644 27.6079 51.1844 27.1631 51.2757 26.5034C51.2928 26.3449 51.3291 26.1892 51.3839 26.0396C51.5021 25.7438 51.6338 25.4525 51.7767 25.1679C52.0674 24.5861 52.4352 24.0497 52.8032 23.5144C53.5187 22.4714 54.3091 21.4848 55.0774 20.4818C55.8866 19.4238 56.6742 18.35 57.3335 17.1885C58.3128 15.4601 59.0177 13.6291 59.3495 11.6626C59.5834 10.2749 59.5695 8.89269 59.1899 7.5264C58.6738 5.67062 57.6648 4.15102 56.1009 3.02319C54.6726 1.99373 53.083 1.5161 51.3198 1.68583C50.042 1.80908 48.8993 2.26475 47.9014 3.0795C47.1332 3.70685 46.5277 4.46654 46.0553 5.33861C45.4168 6.51536 45.065 7.78179 44.8833 9.1029C44.7065 10.3838 44.7234 11.6722 44.7256 12.9605C44.7267 13.4504 44.7467 13.942 44.7164 14.4301C44.6927 14.8064 44.7297 15.1562 44.9095 15.4891C44.9255 15.5193 44.9399 15.5504 44.9524 15.5822C45.4779 16.8519 45.7055 18.2258 45.6173 19.5975C45.512 21.2392 45.0463 22.7771 44.2567 24.2171C43.3927 25.7968 42.2461 27.137 40.8414 28.2565C40.7605 28.3189 40.6865 28.3899 40.6207 28.4681C40.3897 28.7512 40.1835 29.0534 40.0392 29.3897C39.7513 30.0602 39.4999 30.7441 39.3359 31.4582C39.1261 32.3741 39.0564 33.3038 39.054 34.2415C39.0528 35.2474 39.2307 36.2456 39.5793 37.189C39.7666 37.7025 39.9362 38.2238 40.0904 38.7483C40.3066 39.4833 40.3445 40.2288 40.1472 40.977C40.0918 41.1865 40.0393 41.3968 39.9741 41.6031C39.6313 42.6925 39.5332 43.8145 39.5689 44.9482C39.6 45.9444 39.7645 46.9216 40.1024 47.8649C40.5249 49.0487 41.111 50.1337 42.0005 51.0357C42.8032 51.8475 43.7311 52.5238 44.7484 53.0385C44.961 53.1469 45.1792 53.2443 45.3919 53.3527C46.5757 53.9576 47.8233 54.3625 49.1196 54.6316C51.2644 55.0769 53.4238 55.1087 55.7206 54.8547C56.4797 54.7372 57.3664 54.6083 58.2401 54.394C59.3215 54.1327 60.3827 53.7937 61.4156 53.3797C62.9595 52.7547 64.4122 51.9645 65.7392 50.9507C66.6558 50.2504 67.4882 49.4637 68.1964 48.5477C68.8425 47.7123 69.3562 46.8065 69.6761 45.7937C69.9326 44.9758 70.0372 44.1415 69.9479 43.2913L69.948 43.2924ZM43.9768 18.674C43.9264 17.669 43.6756 16.6841 43.2393 15.7778C42.5804 14.3873 41.5412 13.3295 40.2984 12.4729C38.9704 11.5572 37.4743 11.0776 35.8761 10.9157C35.7758 10.9055 35.6744 10.9131 35.5623 10.9122C35.4986 11.0145 35.4395 11.1105 35.3792 11.2055C34.9824 11.8289 34.5996 12.4644 34.1857 13.0762C32.9011 14.9785 31.3693 16.6516 29.5521 18.0499C26.9981 20.0164 24.1947 21.5088 21.1079 22.446C20.6745 22.5815 20.2326 22.6879 19.7851 22.7646C18.9872 22.8942 18.1801 22.9085 17.3737 22.8466C16.7836 22.8012 16.1994 22.7144 15.645 22.4928C14.767 22.1419 13.9894 21.6335 13.3444 20.9372C12.2985 19.8067 11.8221 18.4719 11.96 16.9274C12.0514 15.9071 12.405 14.9772 12.9401 14.1133C13.4603 13.2808 14.1131 12.5399 14.8726 11.9201C16.7176 10.3941 18.848 9.52692 21.2012 9.18484C21.9904 9.0699 22.7852 9.05777 23.5804 9.10978C24.2721 9.1522 24.957 9.27186 25.6225 9.46654C25.7759 9.50707 25.9251 9.56199 26.0682 9.63057C26.2304 9.71581 26.3586 9.85429 26.4314 10.0229C26.5042 10.1915 26.5173 10.38 26.4684 10.557C26.4195 10.734 26.3116 10.8887 26.1628 10.9954C26.0139 11.102 25.8331 11.1542 25.6505 11.1431C25.5379 11.1314 25.4264 11.1101 25.3174 11.0794C25.0082 11.0075 24.7025 10.9146 24.3904 10.8582C23.0168 10.6094 21.6525 10.6877 20.3015 11.0135C18.9421 11.3417 17.6762 11.8912 16.53 12.6995C15.7531 13.2471 15.0677 13.8914 14.5195 14.6743C14.0973 15.2777 13.783 15.9304 13.6394 16.6582C13.5221 17.2187 13.5402 17.7994 13.6923 18.3516C13.8797 19.0313 14.257 19.5913 14.7758 20.0594C15.2945 20.5274 15.8856 20.8475 16.5292 21.0921C17.0268 21.2818 17.5416 21.3436 18.0674 21.3209C19.1307 21.2751 20.1586 21.0373 21.1676 20.7152C22.4479 20.3065 23.6698 19.7611 24.8562 19.1334C26.0437 18.5104 27.1804 17.7945 28.2559 16.9923C30.1015 15.6069 31.6496 13.9376 32.9369 12.0214C34.3319 9.94676 35.4983 7.74432 36.4727 5.4411C36.4964 5.37626 36.5167 5.31022 36.5334 5.24323C36.3513 5.22026 36.199 5.27166 36.0448 5.29804C35.1035 5.46002 34.1434 5.48167 33.1956 5.36228C31.6852 5.1746 30.1866 4.91632 28.6947 4.61687C27.237 4.32388 25.7796 4.02542 24.3069 3.81567C22.684 3.58423 21.0573 3.4661 19.4191 3.62405C18.7066 3.68883 18.0007 3.81253 17.3085 3.99389C15.7245 4.4177 14.267 5.118 12.9255 6.06067C11.1679 7.29661 9.68806 8.80752 8.51076 10.6143C7.64161 11.9479 7.03356 13.3835 6.78416 14.9632C6.63333 15.9334 6.6252 16.9208 6.76002 17.8937C6.77711 18.0179 6.80588 18.1407 6.82929 18.2638C6.90515 18.6594 6.78945 18.9859 6.47277 19.2333C6.35576 19.3227 6.23356 19.4051 6.10682 19.4799C5.55993 19.8068 5.05052 20.193 4.58774 20.6317C3.78532 21.3989 3.16886 22.2886 2.82938 23.3575C2.54033 24.2527 2.50464 25.2111 2.72628 26.126C2.92422 26.9594 3.30662 27.7067 3.83218 28.3798C4.60532 29.3672 5.57827 30.1054 6.69039 30.6621C8.63998 31.6376 10.7127 31.9861 12.873 31.8476C13.6784 31.7959 14.4764 31.6624 15.2548 31.4492C16.4815 31.1127 17.6274 30.6055 18.6612 29.8576C19.5662 29.2026 20.3221 28.4094 20.8573 27.4175C20.9192 27.2956 20.9883 27.1774 21.0642 27.0637C21.14 26.9504 21.2289 26.8465 21.3291 26.7543C21.5299 26.5785 21.771 26.5156 22.0289 26.6C22.1451 26.6452 22.2531 26.7091 22.3487 26.7893C22.6281 27.0042 22.8935 27.2377 23.1768 27.4464C25.7877 29.3679 28.7291 30.1373 31.9343 29.9613C33.6957 29.8586 35.4236 29.436 37.0342 28.714C37.9941 28.2713 38.8979 27.7151 39.7264 27.0573C41.0765 25.9924 42.1744 24.72 42.9625 23.1856C43.6842 21.7727 44.0537 20.2745 43.9756 18.6731L43.9768 18.674ZM37.9622 30.299C37.9804 30.2403 38.0332 30.1793 37.9863 30.1105C37.9753 30.1049 37.9632 30.0937 37.9563 30.0963C37.8727 30.1303 37.7886 30.1632 37.707 30.202C36.9185 30.5805 36.0948 30.8802 35.2478 31.097C34.8078 31.2081 34.3638 31.3038 33.9193 31.401C33.4538 31.5029 32.99 31.6161 32.5201 31.6928C31.6342 31.8375 30.7347 31.8799 29.839 31.8192C29.0429 31.7659 28.264 31.6193 27.49 31.4357C26.4492 31.1925 25.4427 30.8194 24.4939 30.3252C23.7294 29.9211 23.0027 29.4486 22.3226 28.9135C22.227 28.8385 22.1446 28.7397 22.007 28.7014C21.9688 28.7491 21.9304 28.7897 21.8995 28.8351C21.1186 29.9994 20.1054 30.9136 18.9175 31.6418C17.3932 32.5778 15.734 33.1251 13.972 33.3758C12.6094 33.5664 11.2263 33.5586 9.86541 33.3528C9.777 33.3397 9.6885 33.3015 9.59617 33.362C9.58288 33.3777 9.57079 33.3943 9.56 33.4117C8.74073 34.9778 8.16216 36.6249 7.89954 38.3795C7.75697 39.3337 7.73077 40.2853 7.88129 41.2408C7.96923 41.7976 8.12679 42.3297 8.41251 42.819C8.58042 43.1058 8.58128 43.3916 8.4649 43.703C7.88887 45.2464 7.59326 46.8361 7.69427 48.4925C7.76301 49.7146 8.08534 50.9091 8.64059 51.9992C9.30985 53.3128 10.2646 54.3852 11.4265 55.2779C12.2704 55.9256 13.1872 56.4483 14.1576 56.8777C15.8116 57.6099 17.5453 58.0523 19.3286 58.3111C20.4865 58.4788 21.6542 58.5671 22.8239 58.5756C23.4023 58.5798 23.9828 58.5701 24.5584 58.5228C25.7584 58.4242 26.9542 58.2835 28.1361 58.0457C28.7144 57.9295 29.2939 57.8172 29.8679 57.6792C30.7729 57.4615 31.6663 57.203 32.5483 56.9039C34.0775 56.3827 35.557 55.7505 36.9468 54.9229C37.8676 54.375 38.7304 53.7488 39.4763 52.9716C39.8434 52.5979 40.1577 52.1755 40.4107 51.7161C40.3379 51.6223 40.276 51.5416 40.2132 51.462C39.2661 50.2615 38.6557 48.8963 38.2748 47.4238C38.0427 46.5259 37.9422 45.6085 37.9378 44.6803C37.9318 43.4879 38.0551 42.3146 38.4047 41.1696C38.4873 40.8978 38.5472 40.6189 38.6131 40.3422C38.6697 40.1052 38.6558 39.8641 38.6194 39.6276C38.5875 39.4247 38.54 39.2247 38.4774 39.0291C38.3399 38.5949 38.1927 38.1633 38.0428 37.7331C37.7458 36.8788 37.5175 36.0096 37.46 35.1031C37.4223 34.5342 37.4172 33.9636 37.4447 33.3941C37.5004 32.3423 37.6475 31.3072 37.9622 30.299ZM7.81506 33.2534C7.86299 33.154 7.90449 33.0518 7.9555 32.9358C7.62379 32.8165 7.31192 32.7132 7.00756 32.5913C6.70321 32.4695 6.39812 32.3383 6.10282 32.1927C5.79795 32.0421 5.49761 31.8779 5.2041 31.7047C4.92173 31.5377 4.65077 31.3517 4.38713 31.1822C4.35791 31.1867 4.32933 31.1947 4.30196 31.2059C4.23531 31.2497 4.16866 31.2936 4.10649 31.342C3.58459 31.7404 3.1704 32.2368 2.82114 32.7908C2.14937 33.8545 1.74647 35.067 1.64741 36.3231C1.59119 36.9852 1.62843 37.6453 1.79486 38.2928C1.88631 38.6701 2.03521 39.0309 2.23629 39.3627C2.39501 39.6278 2.60516 39.8581 2.85425 40.0401C3.40267 40.4308 3.99907 40.438 4.61016 40.2307C5.14774 40.0487 5.58674 39.7087 5.99389 39.3206C6.12027 39.2062 6.19648 39.0463 6.2059 38.8757C6.29381 37.9101 6.47707 36.9559 6.75299 36.0269C7.03075 35.0749 7.38597 34.1475 7.81511 33.2541L7.81506 33.2534Z" fill="#E67C4F"/>
<path d="M63.5156 36.2149C63.575 36.6928 63.5288 37.0862 63.3707 37.4577C63.3047 37.6148 63.2188 37.7625 63.115 37.8973C62.6049 38.5528 61.7135 38.6138 61.11 38.0435C60.8197 37.7693 60.6405 37.4298 60.5462 37.0475C60.3874 36.4038 60.4272 35.7829 60.7951 35.2098C60.92 35.0045 61.0966 34.836 61.3071 34.7213C61.8054 34.4617 62.2926 34.4922 62.7485 34.823C63.1437 35.1098 63.3572 35.5192 63.4742 35.9843C63.4993 36.0852 63.5106 36.1873 63.5156 36.2149Z" fill="#E67C4F"/>
<path d="M61.6649 41.1515C61.7554 41.5375 61.8174 41.934 61.858 42.1488C61.935 43.2334 61.9045 44.1298 61.6513 45.0071C61.4921 45.5594 61.2723 46.082 60.9091 46.5328C60.3881 47.1798 59.7177 47.5826 58.8999 47.7139C58.2445 47.8192 57.6364 47.6786 57.0931 47.2823C56.6907 46.9891 56.3823 46.6118 56.1246 46.1906C55.8071 45.6719 55.5903 45.1096 55.4304 44.5237C55.2932 44.017 55.2105 43.497 55.1838 42.9727C55.1506 42.3558 55.1717 41.7403 55.3585 41.1448C55.4146 40.9602 55.49 40.7822 55.5834 40.6136C55.774 40.2772 56.057 40.0976 56.4594 40.1705C56.7275 40.2191 56.9951 40.2692 57.2629 40.3156C58.1153 40.4633 58.9582 40.4636 59.7763 40.1386C59.9443 40.0717 60.1036 39.982 60.2679 39.905C60.4013 39.8425 60.5344 39.7746 60.6887 39.7861C60.9423 39.8053 61.1464 39.9025 61.2783 40.1333C61.4559 40.4521 61.5861 40.795 61.6649 41.1515Z" fill="#E67C4F"/>
<path d="M52.9227 36.7076C53.0889 36.9998 53.1951 37.3224 53.2351 37.6564C53.2673 38.1029 53.215 38.55 53.0012 38.9674C52.8174 39.3257 52.5492 39.5973 52.1605 39.7175C51.6504 39.8765 51.1981 39.7515 50.8081 39.3923C50.5324 39.1388 50.36 38.8193 50.2625 38.4627C50.1387 38.0337 50.1289 37.5798 50.234 37.146C50.3157 36.8003 50.4998 36.4877 50.7621 36.2494C50.9855 36.0437 51.2729 35.9219 51.5756 35.9048C51.8784 35.8877 52.1778 35.9763 52.4232 36.1555C52.627 36.3017 52.7973 36.49 52.9227 36.7076Z" fill="#E67C4F"/>
<path d="M34.3811 40.7986C34.4598 41.4023 33.911 41.8708 33.3558 41.7013C33.2583 41.6707 33.1661 41.6253 33.0826 41.5662C32.8084 41.3712 32.4979 41.2645 32.1724 41.201C31.5133 41.0724 30.8628 41.1178 30.2206 41.3078C29.947 41.3861 29.6921 41.5192 29.4713 41.6992C29.3844 41.7719 29.2876 41.8319 29.1838 41.8772C29.0259 41.9442 28.8505 41.9576 28.6842 41.9153C28.5179 41.8731 28.3699 41.7775 28.2625 41.6431C28.0358 41.3633 28.0118 40.9875 28.2192 40.6895C28.3062 40.5702 28.4085 40.463 28.5235 40.3708C28.8779 40.0834 29.2864 39.8709 29.7246 39.746C30.724 39.4485 31.7338 39.4053 32.7504 39.6592C33.1942 39.7701 33.6123 39.9435 33.9859 40.2152C34.146 40.3313 34.2761 40.4696 34.3397 40.663C34.3577 40.716 34.3724 40.7707 34.3811 40.7986Z" fill="#E67C4F"/>
<path d="M25.9762 45.7989C26.0847 45.9177 26.1535 46.0676 26.1728 46.2276C26.1922 46.3876 26.1612 46.5496 26.0841 46.6908C26.0094 46.8181 25.9164 46.9333 25.808 47.0331C25.5093 47.3205 25.1563 47.5246 24.7774 47.6855C24.2974 47.8933 23.7882 48.0251 23.2678 48.0764C22.7272 48.1503 22.1783 48.1387 21.6411 48.0419C21.2251 47.9763 20.8246 47.8341 20.46 47.6222C20.3319 47.549 20.214 47.4592 20.1092 47.3551C19.9848 47.2275 19.9072 47.0613 19.8891 46.8838C19.871 46.7062 19.9135 46.5278 20.0096 46.3778C20.1037 46.2269 20.2449 46.1115 20.4111 46.0495C20.5774 45.9875 20.7595 45.9825 20.929 46.0352C21.0054 46.0569 21.0783 46.0897 21.1454 46.1324C21.5501 46.4033 22.0086 46.4775 22.477 46.4853C23.0481 46.4947 23.6085 46.4152 24.1387 46.1821C24.3584 46.0843 24.5651 45.9702 24.7405 45.804C24.8568 45.6941 24.9832 45.5992 25.1423 45.5567C25.4698 45.4689 25.7506 45.5466 25.9762 45.7989Z" fill="#E67C4F"/>
<path d="M18.7733 41.5871C18.8442 42.1917 18.2882 42.6535 17.7354 42.4764C17.6385 42.4441 17.5468 42.3978 17.4633 42.3389C17.2066 42.1585 16.9197 42.0573 16.6181 41.9921C15.9488 41.8474 15.2857 41.896 14.6319 42.0787C14.3445 42.1527 14.0782 42.2929 13.8543 42.4883C13.72 42.6135 13.5486 42.6912 13.3662 42.7097C13.044 42.7417 12.7822 42.6271 12.6065 42.3542C12.4225 42.0704 12.4236 41.7739 12.597 41.4832C12.6981 41.3138 12.8499 41.191 13.0046 41.0748C13.3154 40.8442 13.6624 40.6674 14.0313 40.5516C15.0705 40.2299 16.1247 40.1737 17.1866 40.4486C17.562 40.5412 17.9197 40.6953 18.2452 40.9049C18.3496 40.9733 18.4479 41.0507 18.5391 41.1361C18.6654 41.2558 18.7479 41.4146 18.7733 41.5871Z" fill="#E67C4F"/>
</svg>
