<svg width="49" height="54" viewBox="0 0 49 54" fill="none" xmlns="http://www.w3.org/2000/svg">
<path d="M3.19047 13.3861C1.52588 11.9296 0 10.8199 0 8.39233C0 1.24845 18.8654 0 24.0673 0C37.5227 0 48.2039 6.10352 48.2039 20.9462C48.2039 24.5528 47.0248 28.09 45.0134 31.0724C38.2857 41.06 25.8012 40.089 15.1894 40.089C13.8023 44.1811 15.9524 53.9606 9.15527 53.9606C1.80331 53.9606 1.38716 36.5517 1.38716 31.2805C1.38716 25.2464 2.08074 19.2816 3.19047 13.3861ZM14.912 25.3851C17.4089 25.9399 19.9751 26.0787 22.5414 26.0787C26.4948 26.0787 33.7774 26.5642 33.7774 20.8074C33.7774 11.236 20.7381 13.3861 14.4265 14.0797C14.5652 17.825 14.7039 21.6397 14.912 25.3851Z" fill="#E67C4F" fill-opacity="0.2"/>
</svg>
