<svg width="44" height="44" viewBox="0 0 44 44" fill="none" xmlns="http://www.w3.org/2000/svg">
<path fill-rule="evenodd" clip-rule="evenodd" d="M20.9311 7.28551C20.4631 7.42896 19.9753 7.92745 19.8337 8.4098C19.7404 8.7236 19.7243 9.5592 19.7243 14.25V19.7244H14.2499C8.04388 19.7244 8.27878 19.7047 7.72112 20.2624C7.54959 20.4234 7.41287 20.6178 7.31941 20.8337C7.22595 21.0496 7.17773 21.2823 7.17773 21.5176C7.17773 21.7528 7.22595 21.9855 7.31941 22.2014C7.41287 22.4173 7.54959 22.6118 7.72112 22.7727C8.27878 23.3304 8.04388 23.3107 14.2499 23.3107H19.7243V28.821C19.7243 35.0449 19.6992 34.7508 20.273 35.3246C20.5958 35.6456 21.0943 35.8626 21.5174 35.8626C21.9424 35.8626 22.4391 35.6474 22.7672 35.3192C23.3303 34.7544 23.3106 35.0001 23.3106 28.7851V23.3107H28.785C34.9999 23.3107 34.7543 23.3304 35.3191 22.7674C35.6473 22.4392 35.8624 21.9425 35.8624 21.5176C35.8624 21.0926 35.6473 20.5959 35.3191 20.2677C34.7543 19.7047 34.9999 19.7244 28.785 19.7244H23.3106V14.25C23.3106 8.03504 23.3303 8.2807 22.7672 7.71586C22.267 7.21558 21.6376 7.06855 20.9311 7.28551Z" fill="#F8FCE1"/>
</svg>
