<svg width="30" height="30" viewBox="0 0 30 30" fill="none" xmlns="http://www.w3.org/2000/svg">
<path fill-rule="evenodd" clip-rule="evenodd" d="M17.1098 6.09991C16.8308 6.16776 16.57 6.29562 16.3455 6.47458C16.1209 6.65355 15.9381 6.87932 15.8098 7.13616C15.6911 7.38991 15.6748 7.48616 15.6748 7.92491C15.6748 8.76366 15.6173 8.68616 17.9773 11.0512C19.0898 12.1662 19.9998 13.0937 19.9998 13.1137C19.9998 13.1324 16.5073 13.1549 12.2373 13.1624L4.4748 13.1749L4.2248 13.2974C3.84431 13.5005 3.53051 13.8091 3.32105 14.1862C3.1873 14.4512 3.1748 14.5187 3.1748 14.9999C3.1748 15.4812 3.1873 15.5487 3.32105 15.8137C3.4948 16.1549 3.8773 16.5324 4.2248 16.7024L4.4748 16.8249L12.2373 16.8374C16.5073 16.8449 19.9998 16.8674 19.9998 16.8862C19.9998 16.9062 19.0898 17.8337 17.9773 18.9487C15.6173 21.3137 15.6748 21.2362 15.6748 22.0749C15.6748 22.5137 15.6911 22.6099 15.8098 22.8637C16.2473 23.7962 17.3911 24.1937 18.3398 23.7424C18.6773 23.5812 26.0798 16.1799 26.2411 15.8437C26.4873 15.3262 26.4873 14.6737 26.2423 14.1624C26.1561 13.9799 25.2673 13.0599 22.4523 10.2349C20.4298 8.20491 18.6623 6.47116 18.5248 6.37991C18.3933 6.29256 18.2534 6.21844 18.1073 6.15866C17.7821 6.07228 17.4429 6.0523 17.1098 6.09991Z" fill="#F8FCE1"/>
</svg>
