<svg width="50" height="50" viewBox="0 0 50 50" fill="none" xmlns="http://www.w3.org/2000/svg">
<path fill-rule="evenodd" clip-rule="evenodd" d="M12.498 16.4458C11.6646 16.625 10.8271 17.2813 10.4271 18.0625C10.0105 18.8813 10.0292 20.0604 10.473 20.9521C10.6376 21.2833 12.0313 22.7229 16.9042 27.5875C24.0605 34.7354 23.523 34.2917 25.0001 34.2917C26.4771 34.2917 25.9396 34.7354 33.0959 27.5875C37.9688 22.7229 39.3626 21.2833 39.5271 20.9521C40.1688 19.6625 39.923 18.1583 38.9146 17.2146C38.5676 16.8762 38.1438 16.6269 37.6794 16.4879C37.215 16.3489 36.7239 16.3245 36.248 16.4167C35.2001 16.6063 35.2376 16.575 29.9376 21.8604L25.0001 26.7854L20.0626 21.8604C14.7938 16.6063 14.798 16.6104 13.7938 16.425C13.2084 16.3167 13.0959 16.3167 12.498 16.4458Z" fill="#482C1C"/>
</svg>
