<svg width="145" height="145" viewBox="0 0 145 145" fill="none" xmlns="http://www.w3.org/2000/svg">
<rect x="1.55497" y="1.55497" width="140.984" height="140.984" rx="19.178" fill="#FFF1A1" stroke="#E67C4F" stroke-width="3.10994"/>
<path d="M105.149 81.952C104.903 83.2106 104.662 84.4376 104.41 85.7205C104.485 85.8422 104.587 86.0154 104.694 86.1865C105.733 87.8518 106.463 89.6422 106.833 91.5704C107.117 93.0223 107.196 94.5065 107.069 95.9803C106.776 99.301 105.601 102.306 103.819 105.093C102.224 107.589 100.24 109.742 97.9658 111.631C97.2187 112.252 96.4323 112.826 95.6581 113.413C95.0291 113.891 94.4029 114.374 93.7556 114.826C92.0193 116.037 90.134 116.97 88.171 117.75C85.7764 118.703 83.3086 119.411 80.7898 119.952C78.9259 120.353 77.0483 120.661 75.157 120.876C73.9932 121.011 72.8156 121.076 71.6446 121.172C69.4588 121.35 67.2665 121.272 65.0808 121.263C64.5559 121.263 64.0278 121.187 63.5074 121.128C60.4832 120.788 57.4939 120.263 54.5684 119.412C51.7187 118.582 48.9749 117.497 46.3935 116.023C43.9667 114.639 41.7611 112.97 39.8835 110.89C37.542 108.296 35.9343 105.322 35.2155 101.888C34.7977 99.8893 34.7317 97.8747 34.9584 95.8491C35.2444 93.2911 35.9842 90.862 37.0643 88.532C37.0774 88.4938 37.0937 88.4567 37.1131 88.4213C37.3242 88.1103 37.3264 87.7848 37.2123 87.4367C36.9136 86.5268 36.8243 85.5782 36.7052 84.6351C36.6902 84.515 36.6753 84.395 36.6498 84.2765C36.6426 84.2428 36.6016 84.2162 36.5528 84.1597C36.381 84.2295 36.1976 84.3009 36.0163 84.3778C34.9556 84.8277 33.8522 85.0419 32.6979 84.9777C30.9876 84.8809 29.5828 84.1592 28.4572 82.8885C27.5788 81.8961 27.0546 80.7212 26.7464 79.4427C26.3663 77.8659 26.3546 76.277 26.5957 74.6803C27.0147 71.9031 28.0793 69.3954 29.7579 67.1473C30.7111 65.8705 31.8328 64.7675 33.1783 63.903C33.2454 63.8598 33.3064 63.8067 33.4 63.7369C33.3219 63.6141 33.252 63.4973 33.1783 63.3849C31.922 61.5099 31.0325 59.4887 30.746 57.2339C30.2827 53.5867 31.3556 50.3966 33.6727 47.5917C35.1008 45.8639 36.8698 44.5616 38.8477 43.5283C39.0444 43.4248 39.2417 43.3213 39.4379 43.2173C39.4557 43.2043 39.472 43.1894 39.4867 43.173C39.5853 42.961 39.526 42.7369 39.5194 42.5183C39.4468 40.0781 39.8752 37.7287 40.7591 35.4535C41.6073 33.2804 42.7865 31.2512 44.2549 29.4375C47.7352 25.1118 52.0135 21.8215 57.1453 19.6658C59.5006 18.6723 61.9899 18.0315 64.5327 17.7642C66.3942 17.5683 68.2546 17.5876 70.1167 17.7526C73.137 18.0199 76.0775 18.6896 78.9726 19.5563C81.5518 20.3311 84.1133 21.1613 86.683 21.9676C88.8865 22.6583 91.1071 23.2859 93.3638 23.7818C94.3558 23.9915 95.3705 24.0746 96.3836 24.0292C97.6416 23.9838 98.8874 23.8433 100.114 23.5466C100.372 23.4919 100.637 23.4776 100.9 23.504C101.903 23.5826 102.446 24.4277 102.086 25.3658C101.928 25.7824 101.735 26.1847 101.509 26.5684C100.046 29.0186 98.6313 31.4991 97.0297 33.8651C96.9996 33.9151 96.9726 33.9668 96.9488 34.0201C96.9821 34.1861 97.1245 34.1728 97.2348 34.2033C98.996 34.6841 100.685 35.3965 102.258 36.3219C104.955 37.9224 107.149 40.0344 108.815 42.697C110.083 44.7227 110.827 46.9287 111.135 49.2831C111.445 51.6491 111.164 53.9652 110.464 56.2388C110.156 57.2454 109.765 58.2249 109.296 59.1671C109.196 59.3641 109.101 59.5634 108.99 59.7892C109.113 59.8999 109.226 60.0106 109.351 60.1052C111.947 62.1076 113.951 64.5931 115.396 67.5292C116.146 69.0352 116.67 70.6435 116.951 72.3021C117.234 74.0178 117.228 75.7285 116.747 77.4165C116.385 78.6845 115.777 79.8141 114.844 80.7566C113.721 81.8911 112.35 82.5326 110.783 82.7756C109.118 83.034 107.513 82.7623 105.942 82.226C105.675 82.1363 105.411 82.0428 105.149 81.952ZM44.3419 70.8504C44.2849 70.9048 44.2312 70.9627 44.1812 71.0236C42.4543 73.5485 41.1154 76.2587 40.2814 79.2069C39.7937 80.9304 39.5244 82.6837 39.6053 84.4818C39.6496 85.4609 39.8142 86.4123 40.2104 87.3133C40.4471 87.8529 40.4066 88.3571 40.1351 88.8829C38.7817 91.5018 37.9216 94.2607 37.7598 97.2222C37.6909 98.4556 37.7663 99.6928 37.9843 100.909C38.4587 103.552 39.5803 105.905 41.2418 108.008C42.7907 109.969 44.6778 111.55 46.7837 112.878C49.2332 114.42 51.8722 115.543 54.6293 116.404C56.6615 117.03 58.7357 117.51 60.8362 117.843C61.7955 117.998 62.7604 118.119 63.7263 118.23C64.7538 118.344 65.7873 118.363 66.8209 118.379C68.7672 118.41 70.7119 118.366 72.6515 118.21C74.4894 118.071 76.3191 117.839 78.1336 117.516C80.0256 117.17 81.9021 116.784 83.7309 116.162C86.5971 115.186 89.3487 113.971 91.9367 112.398C94.5824 110.788 96.9843 108.878 99.0558 106.569C100.401 105.07 101.555 103.439 102.457 101.634C103.419 99.7133 104.044 97.6938 104.189 95.5464C104.379 92.7144 103.718 90.0866 102.196 87.6824C102.045 87.4428 101.889 87.2059 101.724 86.9757C101.478 86.632 101.351 86.2562 101.408 85.8345C101.454 85.4947 101.495 85.1504 101.588 84.8222C102.067 83.1381 102.284 81.4157 102.359 79.6751C102.409 78.3599 102.342 77.043 102.159 75.7396C101.971 74.3504 101.654 72.9945 101.13 71.6933C100.789 70.846 100.369 70.0385 99.7541 69.3483C99.6584 69.2508 99.5576 69.1585 99.4521 69.0716C99.2432 69.1751 99.0575 69.2559 98.8818 69.355C97.4847 70.1459 95.9934 70.7226 94.4821 71.2445C92.8694 71.8012 91.2002 72.13 89.5066 72.3292C88.5645 72.4399 87.613 72.5213 86.6664 72.6198C84.669 72.8356 82.651 72.7672 80.6729 72.4167C78.2051 71.9739 75.8603 71.1437 73.6275 70.0125C71.4595 68.9133 69.5453 67.4605 67.8162 65.7581C67.6467 65.5921 67.4998 65.394 67.2554 65.26C67.1529 65.3646 67.0553 65.4626 66.96 65.5616C66.6087 65.9258 66.2723 66.3055 65.9071 66.653C64.2999 68.1739 62.4412 69.3096 60.3968 70.1453C58.2061 71.0413 55.9272 71.5605 53.5675 71.7586C51.0804 71.9668 48.5761 71.8057 46.1364 71.2804C45.5451 71.146 44.9565 70.996 44.3419 70.8504ZM97.8765 26.9481C97.7884 26.9022 97.7701 26.8845 97.7524 26.885C97.4692 26.8933 97.1855 26.9005 96.9023 26.9155C95.2408 27.0002 93.576 26.8415 91.9606 26.4445C89.3005 25.7986 86.6814 25.0282 84.0811 24.1836C81.6931 23.4088 79.3068 22.6279 76.8816 21.9737C73.9018 21.1701 70.8864 20.5779 67.7858 20.5226C66.5493 20.4939 65.3126 20.565 64.0877 20.7351C61.171 21.1552 58.4233 22.0922 55.8302 23.488C52.4757 25.295 49.5563 27.6388 47.1045 30.5605C45.2851 32.7283 43.9019 35.127 43.1266 37.861C42.6544 39.5386 42.4303 41.2762 42.4616 43.0186C42.4649 43.261 42.4937 43.5029 42.5092 43.7453C42.5547 44.4321 42.2953 44.9717 41.7101 45.3392C41.4859 45.477 41.2524 45.5991 41.0112 45.7045C40.1599 46.0824 39.3439 46.535 38.5728 47.0571C37.1824 47.998 35.9864 49.1392 35.0775 50.5588C33.7935 52.5645 33.287 54.7423 33.6583 57.1083C33.8709 58.4306 34.3394 59.699 35.0376 60.8424C36.207 62.7894 37.8047 64.3219 39.6962 65.555C42.9315 67.6636 46.5127 68.7019 50.3482 68.9106C51.8267 68.9926 53.3096 68.9197 54.7729 68.6931C56.6665 68.3992 58.4903 67.88 60.2172 67.0449C62.3885 65.9933 64.2439 64.5594 65.6189 62.5509C65.7167 62.3976 65.828 62.2533 65.9514 62.1198C66.1165 61.9425 66.3009 61.7842 66.5011 61.6477C66.8841 61.4058 67.3086 61.3665 67.7204 61.5624C67.9154 61.6549 68.0878 61.8115 68.2457 61.9648C68.6957 62.402 69.1175 62.868 69.5758 63.2931C73.8048 67.217 78.8584 69.179 84.5755 69.5304C87.7183 69.7129 90.8682 69.3259 93.8731 68.3881C95.6657 67.8054 97.3827 67.0119 98.9877 66.0243C101.638 64.4044 103.871 62.3561 105.594 59.7704C107.125 57.4691 108.063 54.9554 108.265 52.1881C108.394 50.3867 108.155 48.5779 107.564 46.8711C106.685 44.2843 105.063 42.2056 103.039 40.439C100.878 38.5506 98.3249 37.395 95.5257 36.7801C95.3505 36.7414 95.1688 36.7331 94.9798 36.7098C94.8645 36.846 94.7581 36.9666 94.6589 37.0901C93.8005 38.1416 92.9664 39.2114 92.0803 40.2381C89.5864 43.1232 86.7468 45.6137 83.507 47.631C78.5586 50.7115 73.2212 52.8334 67.4954 53.9547C66.5826 54.1335 65.6549 54.2818 64.7283 54.3305C63.0014 54.4224 61.2879 54.2387 59.6021 53.8463C58.5308 53.5972 57.5105 53.2153 56.5795 52.6148C55.7067 52.0514 54.8992 51.4083 54.2059 50.6357C51.8927 48.0566 51.1257 45.0924 52.0546 41.7363C52.4757 40.2143 53.245 38.8628 54.2358 37.6363C55.3242 36.298 56.6209 35.1432 58.0764 34.216C61.6625 31.9053 65.6178 30.8167 69.859 30.6966C71.2816 30.6568 72.6931 30.7996 74.0913 31.053C75.3476 31.2793 76.5746 31.6457 77.749 32.1455C77.993 32.2441 78.226 32.3682 78.4439 32.5158C78.7027 32.6991 78.8915 32.9647 78.9796 33.2691C79.0677 33.5735 79.0498 33.8987 78.9288 34.1916C78.6728 34.8298 78.0515 35.1879 77.3682 35.0722C77.15 35.0299 76.9375 34.9619 76.7353 34.8696C75.3305 34.2608 73.8597 33.9033 72.344 33.7196C70.7041 33.5209 69.0681 33.5751 67.435 33.8037C65.0841 34.1357 62.8579 34.8414 60.7725 35.9782C59.3033 36.7796 57.9766 37.7691 56.8605 39.0221C56.0043 39.9851 55.3237 41.0544 54.9208 42.2875C54.5936 43.2499 54.5016 44.2765 54.6526 45.2816C54.8394 46.4959 55.3675 47.5508 56.1666 48.4745C56.9425 49.3755 57.8896 50.0601 58.9326 50.6257C59.878 51.1382 60.8856 51.3945 61.9529 51.4476C63.0457 51.4996 64.1409 51.4647 65.2282 51.343C66.8188 51.163 68.3922 50.8552 69.9332 50.4226C73.5499 49.4275 77.033 47.9999 80.3071 46.171C82.4128 44.9931 84.3916 43.6022 86.2125 42.0202C88.1173 40.3692 89.8037 38.5141 91.3898 36.561C93.7567 33.6454 95.8321 30.5328 97.7075 27.2824C97.7674 27.1783 97.8161 27.0699 97.8776 26.9481H97.8765ZM102.063 67.5253C102.135 67.6315 102.198 67.7339 102.271 67.828C102.969 68.7329 103.482 69.7385 103.897 70.7978C104.647 72.7161 105.026 74.7157 105.192 76.7607C105.218 77.0828 105.238 77.406 105.256 77.7292C105.274 78.0707 105.286 78.4127 105.3 78.7559C105.755 79.0675 106.249 79.2468 106.741 79.43C107.717 79.7941 108.722 80.0105 109.77 79.9651C111.738 79.8799 113.136 78.8461 113.801 77.0822C114.031 76.4551 114.167 75.7969 114.202 75.1297C114.299 73.5916 114.044 72.1034 113.544 70.6578C112.459 67.522 110.596 64.9202 108.064 62.7883C107.866 62.6223 107.672 62.4408 107.399 62.3251C106.858 62.9571 106.346 63.6041 105.779 64.2068C105.212 64.8095 104.615 65.3879 103.993 65.9391C103.371 66.4903 102.718 66.9907 102.065 67.5253H102.063ZM41.4734 69.8226C40.8987 69.5376 40.3678 69.2908 39.853 69.0135C39.3381 68.7362 38.8261 68.4423 38.3323 68.128C37.8219 67.7998 37.3248 67.4478 36.841 67.082C36.3749 66.7294 35.9332 66.3453 35.4965 65.9878C35.2311 66.0188 35.0532 66.1616 34.8664 66.2762C33.9054 66.865 33.0974 67.6277 32.3908 68.4971C30.9773 70.2321 30.0108 72.2864 29.5756 74.4805C29.2951 75.8591 29.237 77.2477 29.5445 78.6385C29.7213 79.4377 30.0123 80.1882 30.5243 80.8374C31.0364 81.4866 31.6815 81.9133 32.5 82.0384C33.0426 82.1204 33.5962 82.0921 34.1277 81.9554C35.1324 81.7019 35.9897 81.1805 36.7939 80.5507C36.9561 80.4269 37.0637 80.2449 37.0937 80.0432C37.1425 79.7665 37.2123 79.4897 37.2804 79.213C38.0486 76.0999 39.352 73.2169 41.0489 70.5039L41.4734 69.8226Z" fill="#E67C4F"/>
<path d="M65.385 99.6673C64.454 99.6873 63.5168 99.5395 62.5974 99.2744C61.893 99.0802 61.2291 98.7616 60.6373 98.3335C60.4066 98.1697 60.1985 97.9764 60.0182 97.7585C59.5893 97.2156 59.6187 96.49 60.0581 95.9686C60.2636 95.7283 60.5426 95.5622 60.852 95.496C61.1614 95.4298 61.484 95.4671 61.77 95.6023C61.8815 95.6507 61.9861 95.7138 62.0809 95.7899C62.7388 96.3527 63.5346 96.5824 64.3636 96.697C65.3124 96.8276 66.2628 96.8115 67.1978 96.5647C67.7104 96.4297 68.1953 96.2326 68.6226 95.9094C68.9551 95.6571 69.3386 95.5403 69.7648 95.6072C70.8177 95.7733 71.3392 96.9787 70.7119 97.8415C70.5498 98.048 70.3576 98.229 70.1416 98.3784C69.5652 98.8029 68.9146 99.0829 68.2313 99.286C67.3247 99.5533 66.4668 99.6684 65.385 99.6673Z" fill="#E67C4F"/>
<path d="M80.4512 86.1239C81.9979 86.1604 83.4726 86.461 84.852 87.1683C85.3621 87.42 85.8255 87.7569 86.2219 88.1645C86.5927 88.5569 86.7528 89.0179 86.6099 89.5586C86.5588 89.7654 86.4617 89.9581 86.3259 90.1224C86.1901 90.2867 86.019 90.4183 85.8253 90.5075C85.6315 90.5967 85.4202 90.6412 85.2069 90.6377C84.9936 90.6342 84.7839 90.5828 84.5932 90.4873C84.4479 90.4158 84.3132 90.3245 84.1931 90.2161C83.7469 89.8121 83.2177 89.5641 82.6541 89.3859C81.5081 89.0278 80.2911 88.9597 79.1122 89.1878C78.6524 89.2701 78.2125 89.4391 77.816 89.6859C77.6295 89.8061 77.4276 89.9007 77.2158 89.967C76.9315 90.0487 76.6285 90.038 76.3506 89.9364C76.0728 89.8349 75.8345 89.6477 75.6702 89.402C75.3083 88.8729 75.3199 88.1988 75.7334 87.7101C75.9062 87.5125 76.1067 87.3409 76.3286 87.2004C77.069 86.7172 77.8919 86.4349 78.7603 86.3027C79.3212 86.2147 79.8881 86.1809 80.4512 86.1239Z" fill="#E67C4F"/>
<path d="M52.6348 84.2687C53.8884 84.3008 55.0971 84.5134 56.262 84.9661C56.927 85.2245 57.5482 85.5627 58.0908 86.0287C58.2789 86.1827 58.4465 86.3602 58.5896 86.5567C58.7711 86.8164 58.859 87.13 58.8389 87.4461C58.8187 87.7622 58.6918 88.0621 58.4787 88.2967C58.2625 88.5423 57.9684 88.7063 57.6456 88.7614C57.3229 88.8165 56.991 88.7594 56.7053 88.5995C56.581 88.5317 56.465 88.4498 56.3595 88.3554C55.9455 87.9807 55.4562 87.7466 54.9347 87.5678C53.7786 87.1749 52.5932 87.1251 51.3962 87.3088C50.8718 87.38 50.3713 87.5722 49.9342 87.87C49.6704 88.0629 49.3507 88.1646 49.0237 88.1595C48.4457 88.1495 48.0073 87.8949 47.7491 87.3775C47.4814 86.839 47.5446 86.3171 47.912 85.8405C48.1265 85.5638 48.4185 85.3762 48.7195 85.2074C49.3532 84.8425 50.0479 84.5956 50.77 84.4785C51.3862 84.3828 52.0124 84.3363 52.6348 84.2687Z" fill="#E67C4F"/>
</svg>
