<svg width="145" height="145" viewBox="0 0 145 145" fill="none" xmlns="http://www.w3.org/2000/svg">
<rect x="1.55497" y="1.55497" width="140.984" height="140.984" rx="19.178" fill="#D6E499" stroke="#E67C4F" stroke-width="3.10994"/>
<mask id="path-2-inside-1_98_9059" fill="white">
<path d="M35.7078 69.5095C35.7078 69.3266 35.7176 69.1654 35.7078 69.0019C35.5931 67.3052 35.756 65.6291 36.1094 63.9713C36.7679 60.879 38.0551 58.0574 39.8275 55.4509C42.3244 51.7798 45.4569 48.7396 49.0695 46.1813C52.3707 43.8467 55.9477 42.0754 59.8574 40.9993C62.9832 40.136 66.2277 39.7823 69.466 39.9519C72.119 40.089 74.7323 40.5095 77.3193 41.1055C80.13 41.7536 82.8834 42.6106 85.6367 43.4762C88.2076 44.285 90.7745 45.1081 93.3558 45.8813C95.0193 46.3787 96.6948 46.8238 98.4036 47.1433C99.7439 47.3879 101.112 47.443 102.468 47.3068C103.588 47.2012 104.705 47.0773 105.801 46.7985C106.235 46.684 106.691 46.6895 107.121 46.8146C107.981 47.0664 108.445 47.8999 108.153 48.7482C107.987 49.2369 107.773 49.7075 107.513 50.153C105.812 53.0159 104.161 55.9098 102.3 58.674C102.234 58.7704 102.179 58.8731 102.093 59.0142C102.315 59.0847 102.511 59.1524 102.709 59.2092C106.38 60.2687 109.631 62.0658 112.407 64.7032C113.156 65.4157 113.833 66.1946 114.492 66.9885C115.473 68.1724 116.222 69.4918 116.853 70.8851C116.967 71.1409 117.09 71.395 117.21 71.6497C117.906 73.1267 118.287 74.6927 118.529 76.2988C118.739 77.699 118.747 79.1066 118.635 80.5114C118.514 82.012 118.181 83.4741 117.726 84.9104C116.822 87.7647 115.388 90.3316 113.491 92.6376C109.756 97.1756 105.092 100.359 99.5015 102.186C98.0674 102.659 96.5944 102.918 95.1042 103.104C93.8715 103.259 92.6376 103.398 91.4021 103.534C90.6099 103.622 89.8172 103.719 89.0222 103.759C88.2036 103.802 87.3799 103.82 86.5614 103.781C84.6111 103.687 82.6883 103.4 80.8132 102.845C78.1958 102.069 75.6742 101.073 73.3505 99.6132C71.5632 98.4862 69.9049 97.1665 68.4054 95.6777C68.2551 95.5291 68.1071 95.3783 67.9551 95.232C67.9176 95.203 67.8768 95.1785 67.8335 95.1591C67.7188 95.1253 67.6649 95.2165 67.6092 95.2842C65.4364 97.8471 62.7209 99.6379 59.6234 100.879C57.399 101.764 55.0637 102.34 52.6827 102.59C49.0831 102.987 45.4411 102.713 41.9413 101.783C40.8061 101.488 39.683 101.165 38.604 100.7C35.8507 99.5157 33.2809 98.0358 31.0731 95.9777C30.0038 94.991 29.0309 93.9046 28.1677 92.7333C28.0989 92.6387 28.0323 92.5418 27.9727 92.4408C26.8306 90.51 25.9272 88.4869 25.579 86.2458C25.053 82.8684 25.6759 79.7124 27.4105 76.7755C28.9111 74.2349 30.9979 72.2772 33.5017 70.7526C34.2021 70.3264 34.93 69.9466 35.7078 69.5095ZM103.255 50.6532C103.045 50.6532 102.882 50.6383 102.723 50.6532C100.695 50.8706 98.6973 50.6888 96.7177 50.227C93.8858 49.5668 91.0963 48.7557 88.3246 47.8787C85.4422 46.9672 82.5662 46.0339 79.6631 45.1827C76.5312 44.2649 73.3453 43.5955 70.0781 43.362C67.9161 43.2077 65.7645 43.2645 63.6255 43.6081C60.4483 44.1186 57.4494 45.1701 54.6198 46.6907C50.7135 48.7901 47.3091 51.5142 44.4606 54.9237C42.9623 56.7169 41.6963 58.6522 40.7745 60.8033C39.7002 63.3128 39.1111 65.9245 39.1042 68.6617C39.1042 69.2009 39.1111 69.7413 39.138 70.2793C39.177 71.0589 38.8598 71.6439 38.2105 72.0524C37.973 72.2009 37.7143 72.3151 37.4648 72.4453C36.7587 72.8141 36.0336 73.1508 35.3505 73.5581C33.3882 74.726 31.7212 76.2202 30.4977 78.1665C28.7098 81.0104 28.2859 84.0489 29.265 87.2697C29.8845 89.3072 31.0036 91.0515 32.4451 92.5997C33.8642 94.1249 35.5111 95.3565 37.3346 96.3551C41.0309 98.3805 45.0101 99.323 49.2038 99.4033C50.7998 99.4321 52.3946 99.3016 53.9647 99.0138C56.2638 98.5962 58.463 97.8821 60.5165 96.7509C62.6217 95.5917 64.4314 94.0945 65.8081 92.1047C65.9388 91.9098 66.081 91.7229 66.2337 91.5448C66.3862 91.3669 66.5556 91.2041 66.7396 91.059C67.385 90.5703 68.2419 90.6001 68.7892 91.1737C68.9194 91.3091 69.0651 91.4307 69.1832 91.5752C69.6421 92.1419 70.1956 92.6169 70.732 93.1091C71.6805 93.9847 72.6971 94.7835 73.7721 95.4981C78.3329 98.5262 83.3813 99.9769 88.8243 100.144C90.443 100.186 92.0624 100.092 93.6655 99.8639C95.434 99.6326 97.1767 99.235 98.8705 98.6765C100.826 98.016 102.702 97.139 104.464 96.062C106.442 94.8574 108.24 93.4412 109.812 91.7467C112.484 88.8672 114.37 85.5752 115.05 81.6512C115.479 79.2403 115.338 76.7625 114.637 74.4162C113.687 71.2069 111.766 68.6336 109.307 66.4539C106.837 64.2644 103.915 62.9096 100.707 62.1708C100.438 62.1088 100.162 62.0732 99.8732 62.0228C99.6397 62.3205 99.4234 62.5964 99.2089 62.8723C97.8713 64.5971 96.4768 66.2738 94.9642 67.8507C91.6678 71.3 87.8402 74.1991 83.6268 76.4376C79.2794 78.7498 74.7249 80.5143 69.9289 81.646C68.5127 81.9804 67.0855 82.2741 65.6383 82.4015C63.1091 82.6257 60.5603 82.3843 58.1183 81.689C57.1694 81.4193 56.2653 81.0117 55.4349 80.4793C54.4191 79.8426 53.4945 79.0707 52.6867 78.1848C50.0596 75.2657 49.1619 71.8946 50.1388 68.0738C50.616 66.2061 51.5498 64.557 52.7636 63.0644C54.0485 61.4841 55.5743 60.1752 57.2819 59.0773C60.5561 56.9744 64.1521 55.7652 67.9947 55.2782C69.9982 55.022 72.0255 55.0096 74.032 55.2415C76.023 55.471 77.9537 55.9333 79.8077 56.6985C80.1133 56.818 80.4065 56.9673 80.683 57.1442C81.0125 57.3657 81.2517 57.6979 81.3572 58.0807C81.4628 58.4634 81.4277 58.8713 81.2582 59.2304C81.0888 59.5894 80.7963 59.8759 80.4337 60.0377C80.0712 60.1996 79.6627 60.2262 79.2822 60.1126C79.0807 60.0497 78.8837 59.973 78.6926 59.8832C76.8897 59.0962 74.9939 58.6746 73.0448 58.5157C71.383 58.3762 69.7108 58.4235 68.0595 58.6568C65.344 59.0457 62.7588 59.8488 60.3433 61.1635C58.6225 62.1013 57.0634 63.2583 55.7544 64.7296C54.7942 65.8092 54.0175 67.004 53.5552 68.3812C52.6994 70.9309 53.0745 73.2833 54.734 75.4103C55.4928 76.3854 56.4318 77.1575 57.4873 77.789C58.233 78.2353 58.9953 78.6495 59.8511 78.8525C60.5814 79.0252 61.3261 79.1304 62.0756 79.1669C63.6548 79.2477 65.2144 79.0521 66.7695 78.8347C68.1863 78.6357 69.5773 78.2973 70.9568 77.917C75.233 76.7365 79.3461 75.0297 83.2017 72.8359C87.5067 70.3849 91.2128 67.2111 94.4193 63.4425C97.682 59.6073 100.534 55.4876 103.03 51.1178C103.109 50.9836 103.168 50.8373 103.255 50.6532Z"/>
</mask>
<path d="M35.7078 69.5095C35.7078 69.3266 35.7176 69.1654 35.7078 69.0019C35.5931 67.3052 35.756 65.6291 36.1094 63.9713C36.7679 60.879 38.0551 58.0574 39.8275 55.4509C42.3244 51.7798 45.4569 48.7396 49.0695 46.1813C52.3707 43.8467 55.9477 42.0754 59.8574 40.9993C62.9832 40.136 66.2277 39.7823 69.466 39.9519C72.119 40.089 74.7323 40.5095 77.3193 41.1055C80.13 41.7536 82.8834 42.6106 85.6367 43.4762C88.2076 44.285 90.7745 45.1081 93.3558 45.8813C95.0193 46.3787 96.6948 46.8238 98.4036 47.1433C99.7439 47.3879 101.112 47.443 102.468 47.3068C103.588 47.2012 104.705 47.0773 105.801 46.7985C106.235 46.684 106.691 46.6895 107.121 46.8146C107.981 47.0664 108.445 47.8999 108.153 48.7482C107.987 49.2369 107.773 49.7075 107.513 50.153C105.812 53.0159 104.161 55.9098 102.3 58.674C102.234 58.7704 102.179 58.8731 102.093 59.0142C102.315 59.0847 102.511 59.1524 102.709 59.2092C106.38 60.2687 109.631 62.0658 112.407 64.7032C113.156 65.4157 113.833 66.1946 114.492 66.9885C115.473 68.1724 116.222 69.4918 116.853 70.8851C116.967 71.1409 117.09 71.395 117.21 71.6497C117.906 73.1267 118.287 74.6927 118.529 76.2988C118.739 77.699 118.747 79.1066 118.635 80.5114C118.514 82.012 118.181 83.4741 117.726 84.9104C116.822 87.7647 115.388 90.3316 113.491 92.6376C109.756 97.1756 105.092 100.359 99.5015 102.186C98.0674 102.659 96.5944 102.918 95.1042 103.104C93.8715 103.259 92.6376 103.398 91.4021 103.534C90.6099 103.622 89.8172 103.719 89.0222 103.759C88.2036 103.802 87.3799 103.82 86.5614 103.781C84.6111 103.687 82.6883 103.4 80.8132 102.845C78.1958 102.069 75.6742 101.073 73.3505 99.6132C71.5632 98.4862 69.9049 97.1665 68.4054 95.6777C68.2551 95.5291 68.1071 95.3783 67.9551 95.232C67.9176 95.203 67.8768 95.1785 67.8335 95.1591C67.7188 95.1253 67.6649 95.2165 67.6092 95.2842C65.4364 97.8471 62.7209 99.6379 59.6234 100.879C57.399 101.764 55.0637 102.34 52.6827 102.59C49.0831 102.987 45.4411 102.713 41.9413 101.783C40.8061 101.488 39.683 101.165 38.604 100.7C35.8507 99.5157 33.2809 98.0358 31.0731 95.9777C30.0038 94.991 29.0309 93.9046 28.1677 92.7333C28.0989 92.6387 28.0323 92.5418 27.9727 92.4408C26.8306 90.51 25.9272 88.4869 25.579 86.2458C25.053 82.8684 25.6759 79.7124 27.4105 76.7755C28.9111 74.2349 30.9979 72.2772 33.5017 70.7526C34.2021 70.3264 34.93 69.9466 35.7078 69.5095ZM103.255 50.6532C103.045 50.6532 102.882 50.6383 102.723 50.6532C100.695 50.8706 98.6973 50.6888 96.7177 50.227C93.8858 49.5668 91.0963 48.7557 88.3246 47.8787C85.4422 46.9672 82.5662 46.0339 79.6631 45.1827C76.5312 44.2649 73.3453 43.5955 70.0781 43.362C67.9161 43.2077 65.7645 43.2645 63.6255 43.6081C60.4483 44.1186 57.4494 45.1701 54.6198 46.6907C50.7135 48.7901 47.3091 51.5142 44.4606 54.9237C42.9623 56.7169 41.6963 58.6522 40.7745 60.8033C39.7002 63.3128 39.1111 65.9245 39.1042 68.6617C39.1042 69.2009 39.1111 69.7413 39.138 70.2793C39.177 71.0589 38.8598 71.6439 38.2105 72.0524C37.973 72.2009 37.7143 72.3151 37.4648 72.4453C36.7587 72.8141 36.0336 73.1508 35.3505 73.5581C33.3882 74.726 31.7212 76.2202 30.4977 78.1665C28.7098 81.0104 28.2859 84.0489 29.265 87.2697C29.8845 89.3072 31.0036 91.0515 32.4451 92.5997C33.8642 94.1249 35.5111 95.3565 37.3346 96.3551C41.0309 98.3805 45.0101 99.323 49.2038 99.4033C50.7998 99.4321 52.3946 99.3016 53.9647 99.0138C56.2638 98.5962 58.463 97.8821 60.5165 96.7509C62.6217 95.5917 64.4314 94.0945 65.8081 92.1047C65.9388 91.9098 66.081 91.7229 66.2337 91.5448C66.3862 91.3669 66.5556 91.2041 66.7396 91.059C67.385 90.5703 68.2419 90.6001 68.7892 91.1737C68.9194 91.3091 69.0651 91.4307 69.1832 91.5752C69.6421 92.1419 70.1956 92.6169 70.732 93.1091C71.6805 93.9847 72.6971 94.7835 73.7721 95.4981C78.3329 98.5262 83.3813 99.9769 88.8243 100.144C90.443 100.186 92.0624 100.092 93.6655 99.8639C95.434 99.6326 97.1767 99.235 98.8705 98.6765C100.826 98.016 102.702 97.139 104.464 96.062C106.442 94.8574 108.24 93.4412 109.812 91.7467C112.484 88.8672 114.37 85.5752 115.05 81.6512C115.479 79.2403 115.338 76.7625 114.637 74.4162C113.687 71.2069 111.766 68.6336 109.307 66.4539C106.837 64.2644 103.915 62.9096 100.707 62.1708C100.438 62.1088 100.162 62.0732 99.8732 62.0228C99.6397 62.3205 99.4234 62.5964 99.2089 62.8723C97.8713 64.5971 96.4768 66.2738 94.9642 67.8507C91.6678 71.3 87.8402 74.1991 83.6268 76.4376C79.2794 78.7498 74.7249 80.5143 69.9289 81.646C68.5127 81.9804 67.0855 82.2741 65.6383 82.4015C63.1091 82.6257 60.5603 82.3843 58.1183 81.689C57.1694 81.4193 56.2653 81.0117 55.4349 80.4793C54.4191 79.8426 53.4945 79.0707 52.6867 78.1848C50.0596 75.2657 49.1619 71.8946 50.1388 68.0738C50.616 66.2061 51.5498 64.557 52.7636 63.0644C54.0485 61.4841 55.5743 60.1752 57.2819 59.0773C60.5561 56.9744 64.1521 55.7652 67.9947 55.2782C69.9982 55.022 72.0255 55.0096 74.032 55.2415C76.023 55.471 77.9537 55.9333 79.8077 56.6985C80.1133 56.818 80.4065 56.9673 80.683 57.1442C81.0125 57.3657 81.2517 57.6979 81.3572 58.0807C81.4628 58.4634 81.4277 58.8713 81.2582 59.2304C81.0888 59.5894 80.7963 59.8759 80.4337 60.0377C80.0712 60.1996 79.6627 60.2262 79.2822 60.1126C79.0807 60.0497 78.8837 59.973 78.6926 59.8832C76.8897 59.0962 74.9939 58.6746 73.0448 58.5157C71.383 58.3762 69.7108 58.4235 68.0595 58.6568C65.344 59.0457 62.7588 59.8488 60.3433 61.1635C58.6225 62.1013 57.0634 63.2583 55.7544 64.7296C54.7942 65.8092 54.0175 67.004 53.5552 68.3812C52.6994 70.9309 53.0745 73.2833 54.734 75.4103C55.4928 76.3854 56.4318 77.1575 57.4873 77.789C58.233 78.2353 58.9953 78.6495 59.8511 78.8525C60.5814 79.0252 61.3261 79.1304 62.0756 79.1669C63.6548 79.2477 65.2144 79.0521 66.7695 78.8347C68.1863 78.6357 69.5773 78.2973 70.9568 77.917C75.233 76.7365 79.3461 75.0297 83.2017 72.8359C87.5067 70.3849 91.2128 67.2111 94.4193 63.4425C97.682 59.6073 100.534 55.4876 103.03 51.1178C103.109 50.9836 103.168 50.8373 103.255 50.6532Z" fill="#482C1C" stroke="#E67C4F" stroke-width="6.21988" mask="url(#path-2-inside-1_98_9059)"/>
</svg>
