<svg width="35" height="35" viewBox="0 0 35 35" fill="none" xmlns="http://www.w3.org/2000/svg">
<path fill-rule="evenodd" clip-rule="evenodd" d="M11.2293 4.4378C9.68161 4.66732 8.2199 5.29441 6.98703 6.2578C6.22249 6.88796 5.53696 7.60826 4.94537 8.40301C3.20412 10.8574 2.52599 14.1503 3.16037 17.0918C3.97849 20.8966 7.12995 24.8486 11.8418 27.9811C14.0206 29.4307 16.577 30.6251 17.5002 30.6251C18.4233 30.6251 20.9885 29.4263 23.1585 27.9811C26.7635 25.5793 29.4045 22.7778 30.8629 19.8043C31.8341 17.8238 32.2016 16.0155 32.0368 14.0205C31.9041 12.4163 31.576 11.2234 30.8833 9.82926C30.3145 8.68447 29.8318 8.01364 28.9058 7.08322C27.5612 5.73426 26.0927 4.9103 24.3674 4.53989C23.5099 4.35614 22.0429 4.35759 21.1781 4.5428C20.0377 4.7878 19.0883 5.20634 18.0397 5.92822L17.5002 6.30009L16.9606 5.92822C15.4789 4.90884 14.1066 4.44655 12.4252 4.4028C12.0262 4.38987 11.6268 4.40156 11.2293 4.4378Z" fill="#E67C4F"/>
</svg>
