<svg width="35" height="35" viewBox="0 0 35 35" fill="none" xmlns="http://www.w3.org/2000/svg">
<path fill-rule="evenodd" clip-rule="evenodd" d="M11.1783 4.43765C10.6198 4.51494 9.91684 4.70015 9.33059 4.92765C7.74246 5.54015 6.23746 6.68494 5.17288 8.09077C3.26684 10.6049 2.51871 13.9124 3.15017 17.0362C3.47246 18.6345 4.34892 20.4895 5.50392 22.0208C7.04975 24.0683 9.30579 26.0851 12.1627 27.9708C14.162 29.292 15.9718 30.3143 16.5931 30.4762C17.0437 30.5929 17.9566 30.5929 18.4073 30.4762C19.0285 30.3143 20.8383 29.292 22.8377 27.9708C26.1568 25.7789 28.6623 23.412 30.1833 21.0291C30.6368 20.3189 31.2712 19.0049 31.522 18.2583C32.0829 16.534 32.2151 14.6989 31.907 12.912C31.2523 9.08244 28.6725 5.91931 25.2862 4.79056C24.3645 4.48285 23.8687 4.40702 22.8085 4.40702C21.0206 4.40994 19.6483 4.83577 18.1564 5.85223L17.5002 6.29848L16.8439 5.85223C15.8996 5.19372 14.8282 4.73972 13.6983 4.51931C13.1135 4.40556 11.7325 4.36035 11.1783 4.43765ZM13.2141 7.40244C14.2773 7.62119 15.2106 8.14181 16.1979 9.06785C16.806 9.6366 17.0277 9.75181 17.5045 9.7489C17.9829 9.74744 18.1958 9.63515 18.8025 9.06785C19.7898 8.14181 20.7231 7.62119 21.7862 7.40244C23.7389 6.99848 25.8112 7.82098 27.2783 9.58119C28.1622 10.6444 28.761 11.9152 29.0182 13.2738C29.2753 14.6324 29.1825 16.034 28.7483 17.3468C27.6298 20.6835 24.2304 23.9545 18.4627 27.2431C17.9173 27.5551 17.6475 27.6762 17.5002 27.6762C17.3529 27.6762 17.0831 27.5551 16.5377 27.2431C10.7583 23.9414 7.3385 20.6529 6.25059 17.3497C5.8823 16.2332 5.75952 15.0503 5.89065 13.8819C6.02179 12.7135 6.40374 11.5873 7.01038 10.5801C8.43663 8.1841 10.8968 6.9241 13.2141 7.40244Z" fill="#E67C4F"/>
</svg>
