<svg width="35" height="35" viewBox="0 0 35 35" fill="none" xmlns="http://www.w3.org/2000/svg">
<path fill-rule="evenodd" clip-rule="evenodd" d="M11.1783 4.43771C10.6198 4.515 9.91684 4.70021 9.33059 4.92771C7.74246 5.54021 6.23746 6.685 5.17288 8.09083C3.26684 10.605 2.51871 13.9125 3.15017 17.0362C3.47246 18.6346 4.34892 20.4896 5.50392 22.0208C7.04975 24.0683 9.30579 26.0852 12.1627 27.9708C14.162 29.2921 15.9718 30.3144 16.5931 30.4762C17.0437 30.5929 17.9566 30.5929 18.4073 30.4762C19.0285 30.3144 20.8383 29.2921 22.8377 27.9708C26.1568 25.779 28.6623 23.4121 30.1833 21.0292C30.6368 20.319 31.2712 19.005 31.522 18.2583C32.0829 16.534 32.2151 14.699 31.907 12.9121C31.2523 9.0825 28.6725 5.91937 25.2862 4.79062C24.3645 4.48292 23.8687 4.40708 22.8085 4.40708C21.0206 4.41 19.6483 4.83583 18.1564 5.85229L17.5002 6.29854L16.8439 5.85229C15.8996 5.19378 14.8282 4.73978 13.6983 4.51937C13.1135 4.40562 11.7325 4.36041 11.1783 4.43771ZM13.2141 7.4025C14.2773 7.62125 15.2106 8.14187 16.1979 9.06791C16.806 9.63666 17.0277 9.75187 17.5045 9.74896C17.9829 9.7475 18.1958 9.63521 18.8025 9.06791C19.7898 8.14187 20.7231 7.62125 21.7862 7.4025C23.7389 6.99854 25.8112 7.82104 27.2783 9.58125C28.1622 10.6445 28.761 11.9153 29.0182 13.2738C29.2753 14.6324 29.1825 16.0341 28.7483 17.3469C27.6298 20.6835 24.2304 23.9546 18.4627 27.2431C17.9173 27.5552 17.6475 27.6762 17.5002 27.6762C17.3529 27.6762 17.0831 27.5552 16.5377 27.2431C10.7583 23.9415 7.3385 20.6529 6.25059 17.3498C5.8823 16.2333 5.75952 15.0503 5.89065 13.882C6.02179 12.7136 6.40374 11.5873 7.01038 10.5802C8.43663 8.18416 10.8968 6.92417 13.2141 7.4025Z" fill="#E67C4F"/>
</svg>
