<svg width="163" height="69" viewBox="0 0 163 69" fill="none" xmlns="http://www.w3.org/2000/svg">
<path d="M85.2875 12.7206C85.6905 14.885 85.3521 16.956 84.4389 18.9436C83.8444 20.2383 83.0422 21.3969 82.1341 22.4886C80.7407 24.154 79.1022 25.5967 77.275 26.7671C76.009 27.5834 74.7131 28.3511 73.4261 29.1332C72.472 29.7131 71.5272 30.3074 70.6199 30.9588C70.0503 31.3674 69.5063 31.8048 69.0198 32.3124C68.9919 32.3416 68.9594 32.3669 68.9354 32.397C68.8908 32.4563 68.83 32.5014 68.7603 32.5268C68.6907 32.5523 68.6152 32.557 68.5429 32.5404C68.2779 32.4981 68.0112 32.4625 67.7441 32.4312C66.7546 32.3153 65.7629 32.262 64.7671 32.3344C64.6886 32.3403 64.6092 32.3344 64.5396 32.3344C64.4801 32.2439 64.5371 32.1939 64.5776 32.1466C65.0143 31.6352 65.4346 31.1073 65.895 30.6179C66.8263 29.6281 67.7783 28.6578 68.7223 27.682C69.8102 26.5598 70.8571 25.4025 71.7774 24.1365C73.2776 22.0728 74.4418 19.839 75.1613 17.3823C75.6352 15.7636 75.8364 14.1122 75.6879 12.4288C75.5372 10.6496 74.982 8.92862 74.065 7.39781C73.9683 7.23623 73.8662 7.07761 73.7637 6.91984C73.6611 6.76207 73.5565 6.60894 73.4312 6.42114C73.5417 6.35473 73.6075 6.30905 73.6784 6.27352C74.9718 5.63058 76.3369 5.33323 77.7788 5.46435C79.4317 5.61493 80.9074 6.22149 82.1775 7.29376C83.8693 8.72259 84.8837 10.5524 85.2875 12.7206Z" fill="#FFC2C2"/>
<path d="M80.3934 51.731C81.0652 52.8731 81.4206 54.0997 81.4062 55.4241C81.394 56.4337 81.156 57.3981 80.7424 58.3177C80.2285 59.4598 79.498 60.4538 78.6232 61.345C77.6645 62.3221 76.5775 63.1304 75.4035 63.8258C73.7038 64.8325 71.8872 65.56 69.9862 66.0803C68.715 66.4239 67.4208 66.6755 66.1136 66.8332C65.0587 66.9643 63.997 66.9935 63.0885 67.0269C60.3536 67.0087 57.8196 66.6742 55.3599 65.8565C53.8733 65.3625 52.4605 64.7145 51.1544 63.8431C50.9194 63.6866 50.6763 63.5424 50.4413 63.3859C49.3165 62.6421 48.319 61.7209 47.4874 60.6581C46.5662 59.4775 46.027 58.124 45.6936 56.677C45.4282 55.5239 45.3678 54.3548 45.4687 53.1818C45.583 51.8469 45.8531 50.5441 46.4063 49.3132C46.5114 49.0802 46.6021 48.8408 46.6962 48.6026C47.0313 47.752 47.0895 46.8722 46.9367 45.9801C46.8279 45.3435 46.7004 44.7086 46.5511 44.0805C46.2714 42.9258 46.1999 41.7302 46.3401 40.5503C46.4721 39.4505 46.6823 38.3694 47.0553 37.3238C47.3465 36.5087 47.7364 35.741 48.1672 34.994C48.3833 34.6192 48.6673 34.2931 48.9779 33.9928C49.0661 33.9101 49.1628 33.837 49.2665 33.7749C51.0722 32.6549 52.6048 31.2408 53.8382 29.5062C54.9628 27.9255 55.7224 26.1854 56.0747 24.2739C56.3675 22.6769 56.2895 21.0337 55.8469 19.4718C55.8365 19.4327 55.824 19.3943 55.8093 19.3567C55.6405 18.943 55.6485 18.5277 55.7283 18.0878C55.8312 17.5193 55.8756 16.9398 55.9418 16.3649C56.1161 14.8532 56.2739 13.3393 56.6592 11.861C57.055 10.3362 57.6432 8.90014 58.556 7.60623C59.2311 6.64986 60.0481 5.84027 61.0376 5.21003C62.323 4.39156 63.7303 4.01426 65.2482 4.04556C67.3441 4.08785 69.1468 4.86826 70.6837 6.27256C72.3665 7.81095 73.3422 9.73257 73.6937 11.9807C73.9515 13.6359 73.7781 15.2593 73.3109 16.8552C72.6497 19.1165 71.5686 21.1675 70.179 23.0604C69.2439 24.3335 68.1712 25.4849 67.0728 26.6134C66.0314 27.6844 64.9663 28.733 63.9814 29.8581C63.475 30.4355 62.9716 31.0141 62.5466 31.6566C62.3394 31.9709 62.1445 32.2945 61.9647 32.6253C61.8797 32.7932 61.8155 32.9709 61.7736 33.1544C61.5744 33.9183 62.3124 34.5317 62.8707 34.4657C63.1374 34.4348 63.4037 34.4001 63.67 34.3658C64.737 34.2282 65.8154 34.201 66.888 34.2846C68.1539 34.3828 69.3907 34.6184 70.5883 35.0409C72.6337 35.7634 74.3984 36.9042 75.7694 38.6101C76.9718 40.106 77.6797 41.8105 77.8932 43.7235C78.0344 44.9848 77.9563 46.2611 77.6624 47.4957C77.632 47.6268 77.5949 47.7567 77.5717 47.8891C77.5147 48.2135 77.5826 48.5079 77.8126 48.7498C78.0426 48.9918 78.2768 49.2379 78.522 49.4655C79.2474 50.1389 79.8896 50.8757 80.3934 51.731ZM74.4781 47.6771C74.7153 47.2609 74.8237 46.8058 74.8199 46.239C74.8178 46.206 74.8199 46.0846 74.8031 45.9649C74.7296 45.4032 74.5351 44.8935 74.1102 44.5026C73.6198 44.0517 73.0514 43.949 72.4298 44.185C72.1665 44.2906 71.9357 44.4639 71.7606 44.6875C71.2491 45.3093 71.1166 46.0322 71.2145 46.8092C71.2728 47.2707 71.4365 47.6936 71.7399 48.0553C72.3708 48.8073 73.4278 48.859 74.1169 48.1598C74.2576 48.0152 74.3791 47.853 74.4781 47.6771ZM72.053 52.9704C72.0349 52.7128 72.0167 52.2411 71.9635 51.7737C71.9203 51.3441 71.8145 50.9231 71.6496 50.5242C71.5264 50.2353 71.2981 50.0932 71.0044 50.0357C70.8246 50.001 70.6588 50.0623 70.4934 50.1173C70.2896 50.185 70.09 50.2683 69.8832 50.3237C68.8768 50.5923 67.8859 50.476 66.9044 50.1854C66.596 50.0941 66.2883 49.9985 65.9799 49.9046C65.5157 49.7637 65.1595 49.9354 64.8891 50.3039C64.756 50.4888 64.6428 50.6873 64.5515 50.896C64.2498 51.569 64.14 52.2881 64.094 53.0165C64.0531 53.6352 64.0785 54.2566 64.17 54.87C64.2772 55.5793 64.4544 56.2688 64.7561 56.921C65.0009 57.4506 65.3115 57.9362 65.744 58.3351C66.328 58.8748 67.0234 59.1235 67.8083 59.0901C68.7877 59.0478 69.6313 58.6671 70.333 57.981C70.8221 57.5022 71.1525 56.9193 71.4158 56.2933C71.8344 55.3006 71.9939 54.2533 72.053 52.9704ZM62.5365 46.5131C62.5356 46.1158 62.4553 45.7227 62.3002 45.3571C62.1828 45.0844 62.0085 44.8401 61.7892 44.6405C61.5255 44.3965 61.1857 44.2514 60.8275 44.2298C60.4692 44.2083 60.1146 44.3115 59.8236 44.5221C59.4825 44.7656 59.223 45.107 59.0792 45.5013C58.8958 45.9957 58.8447 46.5296 58.9311 47.0499C58.9965 47.4817 59.1552 47.8802 59.4442 48.2156C59.8531 48.6906 60.3675 48.8996 60.9891 48.7832C61.4626 48.6948 61.8153 48.414 62.0808 48.0189C62.3897 47.5587 62.5129 47.0414 62.5365 46.5131Z" fill="#FFC2C2"/>
<path d="M45.6526 35.5624C45.6982 35.6495 45.6278 35.7138 45.5982 35.7802C45.0893 36.9189 44.7737 38.113 44.5656 39.3388C44.4547 40.0031 44.382 40.6732 44.3479 41.3458C44.2909 42.4173 44.439 43.4684 44.6703 44.5114C44.7872 45.0368 44.9007 45.5634 45.0024 46.0917C45.049 46.3297 45.0772 46.571 45.0868 46.8133C45.0969 47.0959 45.08 47.3805 44.9809 47.6508C44.8652 47.9664 44.7564 48.2853 44.6218 48.5928C44.0538 49.888 43.7461 51.2475 43.5887 52.6471C43.466 53.7367 43.4575 54.8267 43.6065 55.9121C43.8508 57.692 44.3804 59.3776 45.3281 60.9164C45.391 61.0184 45.4526 61.1216 45.5252 61.2417C45.1645 61.7458 44.7368 62.1981 44.2538 62.586C43.2697 63.3951 42.1692 64.011 41.0113 64.527C39.2618 65.3066 37.4354 65.8446 35.5677 66.2456C34.49 66.4766 33.4041 66.6567 32.3101 66.7862C31.6168 66.8708 30.9196 66.9211 30.2238 66.9778C28.8017 67.0941 27.3767 67.0945 25.9525 67.045C25.2693 67.0214 24.5857 66.9533 23.9063 66.8682C22.5331 66.6982 21.173 66.4346 19.8355 66.0794C17.775 65.5295 15.798 64.7728 13.9548 63.6861C12.8732 63.0487 11.8677 62.3093 10.965 61.4333C9.72231 60.2261 8.74796 58.8366 8.14242 57.2035C7.64008 55.8481 7.42592 54.4025 7.51367 52.9593C7.62338 51.0021 8.18884 49.1778 9.08006 47.4465C9.25982 47.0971 9.29822 46.7617 9.1404 46.4022C8.87202 45.7893 8.76062 45.143 8.73361 44.4776C8.68846 43.3356 8.8505 42.2218 9.14968 41.1233C9.69826 39.1011 10.6076 37.2484 11.7866 35.5239C11.8017 35.5049 11.8182 35.4871 11.836 35.4706C11.9529 35.4131 12.0516 35.4706 12.1538 35.4968C13.725 35.9256 15.3498 36.125 16.9778 36.089C19.0835 36.0365 21.1094 35.6212 23.0303 34.7354C24.5271 34.0447 25.8441 33.1116 26.9226 31.8532C26.9648 31.8042 27.0159 31.7619 27.0674 31.7111C27.2239 31.775 27.3071 31.9023 27.4092 32.0034C28.1348 32.7248 28.9239 33.3791 29.7668 33.9584C30.8139 34.6688 31.9456 35.245 33.1355 35.6736C34.0216 35.9955 34.9154 36.2747 35.8437 36.4468C36.8882 36.6413 37.9515 36.7154 39.0128 36.6676C39.5757 36.6423 40.1365 36.5733 40.6978 36.5179C41.2324 36.465 41.7675 36.4138 42.3013 36.3441C43.3254 36.2057 44.3336 35.9669 45.3113 35.6313C45.4125 35.5971 45.5159 35.57 45.6189 35.5417C45.6278 35.5395 45.6404 35.5543 45.6526 35.5624ZM38.6111 48.5222C39.2402 48.7975 39.95 48.3225 39.9407 47.6043C39.9344 47.5705 39.9247 47.5041 39.9108 47.4385C39.8627 47.2042 39.7289 47.0227 39.5567 46.8645C39.155 46.4944 38.6879 46.2334 38.1811 46.0422C37.021 45.6044 35.8281 45.5143 34.6124 45.7275C34.08 45.8137 33.5705 46.0068 33.1144 46.2952C32.9664 46.3876 32.8313 46.4992 32.7126 46.6272C32.4278 46.947 32.4042 47.3924 32.632 47.7519C32.7397 47.9244 32.9006 48.0569 33.0902 48.1293C33.2799 48.2018 33.4879 48.2102 33.6828 48.1533C33.811 48.1144 33.933 48.0574 34.0452 47.9841C34.3296 47.8033 34.6476 47.6822 34.9799 47.628C35.761 47.4935 36.532 47.5299 37.289 47.7714C37.6629 47.8907 38.0114 48.0586 38.3085 48.3251C38.3985 48.4062 38.5006 48.4727 38.6111 48.5222ZM29.3752 53.3755C29.4852 53.2204 29.544 53.0346 29.5434 52.8442C29.5427 52.6539 29.4825 52.4686 29.3714 52.3142C29.141 51.9873 28.8228 51.8574 28.4253 51.9149C28.2325 51.9428 28.0708 52.0367 27.9189 52.1497C27.689 52.3189 27.4303 52.4276 27.1594 52.5105C26.504 52.7114 25.8344 52.7275 25.1643 52.6374C24.6157 52.5638 24.0861 52.4136 23.6477 52.0401C23.5747 51.9808 23.4935 51.9323 23.4067 51.8963C23.2147 51.8112 23 51.792 22.796 51.8418C22.592 51.8916 22.4102 52.0076 22.2788 52.1717C22.1451 52.3345 22.0706 52.5379 22.0674 52.7487C22.0642 52.9595 22.1324 53.1651 22.261 53.3319C22.3699 53.4684 22.4961 53.59 22.6366 53.6936C23.0358 53.9921 23.4866 54.2141 23.9662 54.3484C24.5844 54.5358 25.2279 54.625 25.8736 54.6127C26.4923 54.6242 27.1091 54.5396 27.702 54.3619C28.1696 54.2253 28.6127 54.0328 29.0034 53.7384C29.1445 53.6365 29.2698 53.5142 29.3752 53.3755ZM20.1427 47.2845C20.7676 47.5696 21.4871 47.1048 21.4854 46.384C21.4795 46.179 21.4053 45.982 21.2744 45.8244C21.1799 45.7101 21.0757 45.6043 20.963 45.508C20.6092 45.2174 20.21 44.9873 19.7815 44.827C18.5712 44.3583 17.3264 44.2771 16.0583 44.5136C15.6087 44.5986 15.1765 44.7583 14.7793 44.986C14.5797 45.0994 14.386 45.2225 14.2438 45.409C13.9999 45.7263 13.9577 46.0739 14.135 46.4322C14.3037 46.7765 14.5953 46.947 14.9789 46.9538C15.1959 46.9571 15.408 46.8896 15.5832 46.7613C15.8733 46.5628 16.2057 46.435 16.5537 46.3878C17.3475 46.2647 18.1336 46.2977 18.9004 46.5595C19.246 46.6775 19.5692 46.8357 19.846 47.0828C19.9348 47.163 20.0348 47.23 20.1427 47.2816V47.2845Z" fill="#F8FCE1"/>
<path d="M9.9624 34.7437C9.88645 34.8706 9.82357 34.9869 9.75352 35.0969C9.12545 36.0857 8.57954 37.1247 8.1213 38.2032C7.66886 39.255 7.32183 40.3493 7.08534 41.4699C7.05073 41.6688 6.9391 41.846 6.77477 41.9627C6.24265 42.362 5.67973 42.7004 5.0227 42.84C4.2758 42.999 3.57658 42.9085 2.98496 42.3747C2.71726 42.1269 2.502 41.8277 2.35199 41.4949C2.16138 41.078 2.03612 40.6342 1.98065 40.179C1.87431 39.3965 1.92157 38.6169 2.07897 37.8479C2.36864 36.388 3.00947 35.0209 3.94581 33.8655C4.43193 33.2658 4.9881 32.7404 5.65652 32.3428C5.73712 32.295 5.82067 32.2519 5.90507 32.21C5.93879 32.2006 5.97348 32.1952 6.00845 32.1939C6.29497 32.4291 6.58783 32.6846 6.89672 32.9193C7.21784 33.163 7.54741 33.3969 7.88584 33.6156C8.21287 33.8271 8.55172 34.0216 8.89437 34.2077C9.23702 34.3939 9.58895 34.558 9.9624 34.7437Z" fill="#D6E499"/>
<path d="M53.8028 19.4688C54.1906 20.5922 54.3496 21.7821 54.2703 22.9682C54.1412 24.8577 53.5002 26.5635 52.4507 28.1252C51.3114 29.8171 49.8467 31.1584 48.1128 32.2218C47.0482 32.8795 45.9091 33.4076 44.7196 33.7949C42.7268 34.4201 40.6374 34.6781 38.5528 34.5562C34.7609 34.3215 31.4096 33.014 28.6055 30.4004C28.3012 30.1166 28.0215 29.8083 27.7227 29.5155C27.6214 29.4083 27.5032 29.3184 27.3729 29.2495C27.083 29.1141 26.791 29.1547 26.5289 29.3341C26.3985 29.4285 26.2796 29.5381 26.1749 29.6606C26.07 29.7836 25.9725 29.9127 25.8829 30.0472C25.1166 31.1373 24.119 31.9638 22.9649 32.6076C21.6466 33.3427 20.2296 33.7801 18.7413 34.0059C17.7969 34.1489 16.8404 34.1957 15.8866 34.1455C13.3281 34.0119 10.9397 33.3177 8.78256 31.9037C7.55207 31.0975 6.5102 30.0976 5.73755 28.8328C5.21092 27.9708 4.86616 27.0415 4.74843 26.0365C4.61407 24.9327 4.78821 23.8132 5.25143 22.8028C5.80001 21.5956 6.64397 20.6367 7.69427 19.847C8.29876 19.3961 8.95083 19.0131 9.63876 18.7049C9.79807 18.6345 9.95306 18.5548 10.1029 18.466C10.5093 18.2194 10.6903 17.8522 10.6557 17.3776C10.6452 17.2296 10.6283 17.0815 10.6253 16.9339C10.601 15.774 10.7468 14.6168 11.0579 13.4993C11.5689 11.6805 12.4816 10.0786 13.6872 8.63497C15.3203 6.6774 17.2665 5.10856 19.5047 3.90052C21.2116 2.97926 23.0214 2.35832 24.9419 2.07915C25.7805 1.96165 26.6273 1.91369 27.4737 1.93576C29.4212 1.97594 31.3171 2.33844 33.1928 2.83333C34.8951 3.28211 36.5687 3.83284 38.2401 4.37722C39.9525 4.93386 41.6784 5.44314 43.428 5.87119C44.5257 6.14173 45.6573 6.24848 46.7861 6.18801C46.9709 6.17828 47.1583 6.13894 47.368 6.19097C47.339 6.26724 47.3061 6.34193 47.2692 6.41473C45.8062 8.98393 44.1314 11.4059 42.2055 13.6477C40.4281 15.7204 38.3781 17.4639 36.0176 18.8352C34.6427 19.6282 33.2078 20.3116 31.726 20.8791C30.2449 21.4522 28.73 21.9238 27.172 22.2271C25.9415 22.4661 24.7005 22.6036 23.4443 22.5109C22.8231 22.4653 22.2264 22.3219 21.6677 22.0309C20.9449 21.6552 20.2891 21.1938 19.749 20.5779C19.2088 19.962 18.8396 19.2485 18.7109 18.4253C18.6083 17.7565 18.667 17.0728 18.8822 16.4314C19.1531 15.5973 19.6127 14.8748 20.1904 14.2251C20.9428 13.3821 21.8361 12.7206 22.8261 12.1851C24.2861 11.3945 25.8487 10.9242 27.4919 10.7262C29.125 10.5295 30.7411 10.6255 32.3198 11.1069C32.6789 11.216 33.0253 11.3657 33.3789 11.4939C33.5029 11.545 33.6309 11.5853 33.7617 11.6145C33.9754 11.6546 34.1964 11.6197 34.3875 11.5156C34.5786 11.4116 34.7281 11.2447 34.8108 11.0431C34.8935 10.8415 34.9044 10.6175 34.8417 10.4088C34.779 10.2001 34.6464 10.0194 34.4664 9.89715C34.3076 9.79699 34.1397 9.71202 33.9651 9.64336C33.2096 9.32337 32.421 9.08872 31.6138 8.94375C30.6854 8.77455 29.7503 8.67811 28.8068 8.70434C25.9934 8.78175 23.3696 9.50589 20.9904 11.0422C20.0122 11.6647 19.1426 12.4441 18.4164 13.3491C17.6682 14.289 17.1243 15.3308 16.8761 16.5156C16.501 18.3086 16.8761 19.9417 17.9505 21.4103C18.6117 22.3159 19.4557 23.0177 20.4402 23.5519C21.0609 23.8882 21.7357 24.0705 22.4235 24.205C23.3628 24.3886 24.3135 24.4833 25.2693 24.4406C25.8059 24.4123 26.3401 24.3483 26.8682 24.249C30.6238 23.5743 34.1263 22.2094 37.4004 20.2539C39.7293 18.8627 41.7624 17.1116 43.533 15.0567C44.104 14.3943 44.6416 13.7032 45.1939 13.0264C45.2783 12.9232 45.3627 12.8187 45.4497 12.7075C45.5813 12.7239 45.7029 12.729 45.8181 12.7548C47.6748 13.1647 49.3665 13.9333 50.8016 15.1904C52.1444 16.3646 53.22 17.7469 53.8028 19.4688Z" fill="#D6E499"/>
<path d="M87.2983 13.1237C87.5667 15.4175 87.1717 17.6039 86.2138 19.6969C85.5201 21.2158 84.5837 22.5731 83.511 23.8459C81.8818 25.7772 79.9613 27.3681 77.8329 28.7102C76.8324 29.3417 75.8133 29.944 74.7997 30.5544C73.6819 31.2278 72.5704 31.9105 71.5205 32.6875C71.3694 32.7996 71.2251 32.9202 71.0791 33.0394C71.0609 33.0542 71.0567 33.086 71.0318 33.141C71.3563 33.2679 71.658 33.3795 71.956 33.5013C73.6954 34.2132 75.2419 35.2187 76.5458 36.5798C78.2816 38.391 79.3476 40.5387 79.744 43.0227C79.9858 44.5581 79.9238 46.083 79.6132 47.6015C79.6001 47.6662 79.5892 47.7318 79.5744 47.813C79.6748 47.9077 79.7702 47.9999 79.8698 48.0896C80.8201 48.9597 81.6269 49.9436 82.24 51.0822C82.8096 52.125 83.1656 53.2713 83.287 54.4538C83.4764 56.3378 83.0583 58.0915 82.1831 59.7525C81.5104 61.0283 80.6171 62.1339 79.5697 63.1178C78.0245 64.5699 76.2534 65.6802 74.3338 66.5588C72.4311 67.4297 70.444 68.0367 68.3911 68.4351C67.2572 68.659 66.1101 68.8095 64.957 68.8856C63.5216 68.9817 62.081 68.9726 60.6469 68.8585C59.3747 68.7549 58.1114 68.5614 56.8664 68.2795C54.3649 67.7105 52.0292 66.7525 49.8915 65.3228C49.2652 64.9036 48.6348 64.49 48.0618 63.9997C47.682 63.6761 47.33 63.3229 46.9646 62.9867C46.9072 62.9338 46.8452 62.8852 46.7848 62.8344C46.7461 62.8573 46.7097 62.8841 46.6764 62.9143C45.7379 63.9972 44.5927 64.8144 43.3537 65.5089C42.0122 66.2614 40.5931 66.832 39.131 67.299C37.3887 67.849 35.6058 68.26 33.7988 68.5282C32.4958 68.7257 31.1876 68.8581 29.8723 68.9376C28.757 69.0053 27.6426 68.993 26.5268 68.9998C25.5563 69.0053 24.5975 68.9017 23.6371 68.7769C22.6505 68.65 21.6711 68.4838 20.6997 68.2718C18.4463 67.7795 16.2689 67.0663 14.2054 66.0216C12.4053 65.11 10.7591 63.9824 9.34128 62.5345C7.99559 61.1607 6.95667 59.5893 6.29796 57.7742C5.88865 56.6458 5.6493 55.4626 5.58777 54.2635C5.48354 52.2958 5.8148 50.3987 6.49376 48.5587C6.67985 48.0541 6.8976 47.5605 7.11323 47.0677C7.18623 46.8985 7.22421 46.7437 7.16809 46.5639C6.9571 45.8787 6.8727 45.1681 6.79463 44.46C6.78318 44.4035 6.76709 44.348 6.74653 44.2942C6.62668 44.2997 6.53554 44.3597 6.44228 44.4008C5.71648 44.7142 4.96282 44.8796 4.16781 44.8356C3.03352 44.7734 2.1001 44.2984 1.35109 43.4546C0.756941 42.7854 0.406276 41.9906 0.201616 41.1248C-0.0435543 40.0876 -0.0515715 39.0441 0.104561 37.9947C0.38138 36.1315 1.09537 34.4514 2.21953 32.9455C2.84448 32.108 3.58041 31.3847 4.45982 30.8146C4.51 30.7789 4.55831 30.7406 4.60456 30.6999C4.59869 30.6668 4.58833 30.6346 4.57375 30.6043C4.05514 29.9394 3.70447 29.1814 3.38883 28.4082C2.90683 27.245 2.70586 25.9841 2.80228 24.7282C2.92254 23.1581 3.46901 21.7416 4.39019 20.4688C5.20672 19.3407 6.22538 18.433 7.41157 17.7126C7.81287 17.469 8.2281 17.2474 8.66105 17.0024C8.67351 16.9184 8.68028 16.8336 8.68131 16.7487C8.6279 15.6436 8.73421 14.5366 8.99695 13.4621C9.08134 13.1237 9.17671 12.7853 9.28769 12.4541C9.85821 10.7495 10.73 9.20814 11.8546 7.81314C14.0637 5.07263 16.7618 2.9594 19.9777 1.52507C21.6479 0.774117 23.4257 0.291778 25.2457 0.0958064C26.48 -0.0361644 27.7139 -0.0238987 28.9486 0.084385C30.9517 0.259923 32.9017 0.705747 34.8221 1.28143C36.5333 1.79408 38.2317 2.34861 39.9353 2.88623C41.4088 3.35151 42.8942 3.77449 44.404 4.10442C45.0486 4.24131 45.7079 4.29603 46.3662 4.26727C47.1996 4.24428 48.0285 4.13787 48.8407 3.94961C49.0246 3.90965 49.2136 3.89937 49.4007 3.91915C50.0459 3.97795 50.3995 4.53205 50.1721 5.13904C50.0633 5.42889 49.9293 5.70858 49.7716 5.97485C48.8095 7.5953 47.8773 9.23182 46.8228 10.7969C46.7917 10.8494 46.7636 10.9036 46.7384 10.9593C47.1009 11.1048 47.4689 11.1754 47.8145 11.3087C48.1521 11.439 48.4947 11.5625 48.8272 11.708C49.1711 11.8594 49.5113 12.0231 49.84 12.202C50.1687 12.3809 50.494 12.5755 50.8105 12.7819C51.1139 12.9807 51.4093 13.1935 51.6942 13.4164C51.9895 13.6495 52.2752 13.8961 52.5499 14.1532C52.8154 14.4007 53.0631 14.6672 53.315 14.929C53.5669 15.1908 53.7754 15.5123 54.0653 15.7923C54.1281 15.5613 54.1336 15.3596 54.1497 15.1599C54.2855 13.6677 54.5429 12.1991 54.9641 10.7584C55.4337 9.15611 56.1186 7.65621 57.1162 6.30901C58.0488 5.04725 59.1788 4.00798 60.56 3.25253C62.239 2.34406 64.1511 1.96085 66.0495 2.15235C67.6214 2.30559 69.1346 2.8302 70.4651 3.68313C70.9419 3.98662 71.395 4.32599 71.8205 4.69829C71.9011 4.76808 71.9846 4.83407 72.0665 4.90174C72.2201 4.9047 72.3248 4.81165 72.4395 4.7482C73.3934 4.21829 74.4275 3.8485 75.5006 3.65352C77.0159 3.37725 78.576 3.48321 80.0402 3.96188C82.4004 4.72028 84.2212 6.1855 85.5644 8.25812C86.5248 9.74067 87.0924 11.3704 87.2983 13.1237ZM84.439 18.9448C85.3521 16.9568 85.6906 14.8842 85.2876 12.7219C84.8846 10.5596 83.8693 8.72382 82.1784 7.29668C80.9083 6.22441 79.4326 5.61785 77.7797 5.46727C76.3374 5.33615 74.9727 5.6335 73.6793 6.27644C73.6084 6.31197 73.5426 6.35765 73.432 6.42406C73.5586 6.61186 73.6629 6.76626 73.7646 6.92276C73.8663 7.07926 73.9692 7.23915 74.0658 7.40073C74.9828 8.93129 75.5379 10.652 75.6888 12.4308C75.8361 14.1143 75.636 15.7656 75.1622 17.3844C74.4427 19.8411 73.2784 22.0749 71.7783 24.1386C70.858 25.4046 69.811 26.5619 68.7232 27.6841C67.7771 28.6599 66.8243 29.6298 65.8959 30.62C65.4355 31.1094 65.0152 31.6351 64.5785 32.1486C64.5363 32.196 64.481 32.2459 64.5405 32.3364C64.6101 32.3364 64.6895 32.3415 64.7679 32.3364C65.7638 32.2624 66.7555 32.3174 67.745 32.4333C68.0121 32.4646 68.2788 32.4984 68.5438 32.5424C68.6161 32.5591 68.6916 32.5544 68.7612 32.5289C68.8308 32.5035 68.8916 32.4584 68.9363 32.399C68.9616 32.3682 68.9941 32.3428 69.0207 32.3144C69.5072 31.8069 70.0511 31.3695 70.6208 30.9609C71.5285 30.3095 72.4729 29.7152 73.427 29.1353C74.714 28.3532 76.0108 27.5855 77.2759 26.7691C79.1031 25.5988 80.7416 24.1561 82.135 22.4907C83.0422 21.3981 83.8444 20.2383 84.439 18.9448ZM81.4049 55.4254C81.4206 54.1002 81.0652 52.8723 80.3922 51.7323C79.8883 50.8771 79.2461 50.1402 78.5199 49.4702C78.273 49.2427 78.0422 48.9982 77.8105 48.7545C77.5788 48.5109 77.5126 48.2182 77.5696 47.8938C77.5928 47.7614 77.6299 47.6315 77.6603 47.5004C77.9542 46.2658 78.0323 44.9895 77.8911 43.7282C77.6742 41.8175 76.9663 40.113 75.7673 38.6148C74.3963 36.9089 72.6315 35.7681 70.5862 35.0457C69.3886 34.6227 68.1522 34.3875 66.8859 34.2894C65.8133 34.2057 64.7349 34.2329 63.6678 34.3706C63.4016 34.4048 63.1353 34.4395 62.8686 34.4704C62.3112 34.536 61.5731 33.9205 61.7715 33.1591C61.8134 32.9756 61.8776 32.7979 61.9626 32.63C62.1424 32.2992 62.3373 31.9756 62.5445 31.6614C62.9665 31.0189 63.4729 30.4402 63.9793 29.8628C64.9642 28.7377 66.0292 27.6891 67.0707 26.6181C68.1678 25.4883 69.2418 24.337 70.1769 23.0651C71.5665 21.1722 72.6476 19.1212 73.3088 16.8599C73.7751 15.264 73.9494 13.6406 73.6916 11.9854C73.3409 9.73729 72.3644 7.81568 70.6816 6.27729C69.1447 4.87298 67.342 4.09384 65.246 4.05028C63.7269 4.01898 62.3209 4.39628 61.0355 5.21475C60.046 5.845 59.2295 6.65289 58.5539 7.61095C57.6411 8.90359 57.0529 10.3409 56.6571 11.8657C56.2726 13.3441 56.1148 14.8579 55.9397 16.3697C55.8734 16.9445 55.8291 17.524 55.7262 18.0925C55.6464 18.5307 55.6418 18.9461 55.8072 19.3614C55.8219 19.399 55.8344 19.4375 55.8448 19.4765C56.2874 21.0384 56.3654 22.6816 56.0726 24.2786C55.7224 26.1901 54.9628 27.9302 53.8361 29.5109C52.6027 31.2452 51.0701 32.6596 49.2644 33.7797C49.1607 33.8418 49.064 33.9148 48.9758 33.9975C48.6652 34.2978 48.3812 34.6239 48.1651 34.9987C47.7343 35.7457 47.3444 36.5134 47.0532 37.3285C46.6802 38.3741 46.47 39.4553 46.338 40.555C46.1978 41.735 46.2693 42.9305 46.549 44.0852C46.6983 44.7134 46.8258 45.3483 46.9346 45.9849C47.0874 46.8769 47.0292 47.7567 46.6941 48.6073C46.6 48.8455 46.5093 49.0849 46.4042 49.318C45.851 50.5488 45.5809 51.8516 45.4666 53.1866C45.3657 54.3595 45.4244 55.5286 45.6915 56.6817C46.0249 58.1287 46.5641 59.4823 47.4853 60.6628C48.3169 61.7256 49.3144 62.6468 50.4392 63.3906C50.6742 63.5471 50.9173 63.6914 51.1523 63.8479C52.4605 64.7205 53.8712 65.3672 55.3578 65.8613C57.8175 66.6789 60.3515 67.0135 63.0864 67.0317C63.9949 66.9982 65.0549 66.9691 66.1115 66.8379C67.4187 66.6802 68.7129 66.4286 69.984 66.085C71.8851 65.5643 73.7017 64.8372 75.4014 63.8305C76.5754 63.1351 77.6624 62.3268 78.6211 61.3497C79.4959 60.4585 80.2247 59.4666 80.7403 58.3224C81.1547 57.3982 81.3927 56.4338 81.4049 55.4241V55.4254ZM54.2716 22.9695C54.3509 21.7834 54.1919 20.5935 53.8041 19.4701C53.2213 17.7482 52.1457 16.3642 50.8029 15.1883C49.3682 13.9312 47.6756 13.1626 45.8194 12.7527C45.7029 12.7269 45.5826 12.7219 45.451 12.7054C45.3619 12.8166 45.2792 12.9211 45.1952 13.0243C44.6429 13.7011 44.1053 14.3939 43.5343 15.0546C41.762 17.1095 39.7306 18.8615 37.4017 20.2518C34.1284 22.2073 30.6272 23.5722 26.8695 24.2469C26.3413 24.3462 25.8072 24.4102 25.2706 24.4385C24.3148 24.4808 23.3641 24.3865 22.4248 24.2029C21.7374 24.0684 21.0626 23.8861 20.4415 23.5498C19.4578 23.0173 18.6139 22.3139 17.9518 21.4082C16.8783 19.938 16.5023 18.3065 16.8774 16.5135C17.1255 15.3291 17.6695 14.2869 18.4177 13.347C19.1439 12.442 20.0135 11.6626 20.9917 11.0401C23.3709 9.5038 25.9947 8.77965 28.8081 8.70225C29.7516 8.67602 30.6876 8.7712 31.6151 8.94166C32.4223 9.08663 33.2109 9.32128 33.9664 9.64127C34.141 9.70993 34.3089 9.7949 34.4677 9.89506C34.6465 10.0174 34.7781 10.1975 34.8404 10.4053C34.9028 10.6131 34.8921 10.8361 34.8103 11.037C34.7284 11.2379 34.5802 11.4046 34.3906 11.5092C34.2009 11.6139 33.9811 11.6501 33.768 11.612C33.6372 11.5828 33.5092 11.5424 33.3853 11.4914C33.0317 11.3645 32.6852 11.2135 32.3261 11.1044C30.7458 10.6234 29.1313 10.5274 27.4982 10.7237C25.8551 10.9216 24.2912 11.392 22.8324 12.1826C21.8437 12.7181 20.9491 13.3796 20.1967 14.2226C19.6173 14.8723 19.1578 15.5948 18.8886 16.4289C18.6734 17.0703 18.6147 17.754 18.7173 18.4228C18.8439 19.246 19.2101 19.9549 19.7553 20.5754C20.3005 21.1959 20.9512 21.6527 21.6741 22.0283C22.2328 22.3194 22.8295 22.4627 23.4506 22.5084C24.7068 22.6011 25.9479 22.4636 27.1784 22.2246C28.7397 21.9213 30.2512 21.4497 31.7324 20.8766C33.2141 20.3091 34.6491 19.6257 36.0239 18.8327C38.3845 17.4614 40.4345 15.7162 42.2118 13.6452C44.1378 11.4034 45.8126 8.98015 47.2756 6.41222C47.3124 6.33942 47.3454 6.26473 47.3744 6.18846C47.1634 6.13643 46.9773 6.17577 46.7924 6.1855C45.6636 6.24597 44.5321 6.13922 43.4343 5.86868C41.6848 5.44062 39.9589 4.93135 38.2465 4.37471C36.5733 3.83033 34.9015 3.2796 33.1992 2.83082C31.3235 2.33593 29.4275 1.97343 27.4801 1.93325C26.6336 1.91118 25.7868 1.95914 24.9482 2.07664C23.0278 2.35581 21.2179 2.97675 19.511 3.898C17.2745 5.10605 15.3266 6.67489 13.6936 8.63246C12.488 10.0774 11.5752 11.6779 11.0642 13.4968C10.7531 14.6143 10.6074 15.7715 10.6317 16.9314C10.6347 17.0794 10.6515 17.2275 10.6621 17.3751C10.6967 17.8497 10.5157 18.2168 10.1093 18.4634C9.95941 18.5522 9.80441 18.632 9.64511 18.7024C8.95718 19.0106 8.30511 19.3936 7.70063 19.8445C6.65158 20.6342 5.80425 21.5931 5.25778 22.8003C4.79456 23.8107 4.62042 24.9302 4.75478 26.034C4.87251 27.039 5.21896 27.9683 5.7439 28.8303C6.51655 30.0951 7.55842 31.095 8.78891 31.9012C10.9461 33.314 13.3345 34.0081 15.8929 34.143C16.8468 34.1932 17.8032 34.1464 18.7476 34.0034C20.236 33.7775 21.653 33.3402 22.9712 32.605C24.1254 31.9613 25.1233 31.1348 25.8892 30.0447C25.9789 29.9102 26.0764 29.7811 26.1812 29.6581C26.286 29.5356 26.4048 29.426 26.5353 29.3316C26.7956 29.1531 27.0877 29.1125 27.3792 29.247C27.5096 29.3159 27.6277 29.4058 27.7291 29.513C28.0278 29.8036 28.3076 30.1141 28.6118 30.3979C31.4159 33.0115 34.7673 34.319 38.5592 34.5537C40.6438 34.6756 42.7332 34.4176 44.726 33.7924C45.9154 33.4051 47.0545 32.877 48.1191 32.2193C49.8531 31.1559 51.319 29.8142 52.4571 28.1227C53.5002 26.5644 54.1412 24.8577 54.2703 22.9682L54.2716 22.9695ZM45.5982 35.7795C45.6278 35.7131 45.6982 35.6488 45.6527 35.5617C45.6404 35.5537 45.6278 35.5389 45.6193 35.541C45.5164 35.5693 45.413 35.5964 45.3117 35.6306C44.3326 35.9661 43.323 36.2044 42.2975 36.3421C41.765 36.4119 41.2299 36.4631 40.694 36.5159C40.1327 36.5714 39.5719 36.6403 39.009 36.6657C37.9477 36.7134 36.8845 36.6393 35.8399 36.4449C34.9116 36.2727 34.0161 35.9936 33.1317 35.6717C31.9418 35.2431 30.8101 34.6669 29.763 33.9565C28.9201 33.3772 28.131 32.7229 27.4054 32.0014C27.3033 31.9004 27.2202 31.773 27.0636 31.7092C27.0121 31.7599 26.9615 31.8022 26.9189 31.8513C25.8403 33.1097 24.5233 34.0428 23.0265 34.7335C21.1057 35.6218 19.0797 36.0354 16.9741 36.087C15.346 36.1231 13.7213 35.9236 12.15 35.4949C12.0479 35.4674 11.9491 35.4103 11.8322 35.4686C11.8145 35.4851 11.798 35.5029 11.7829 35.5219C10.6038 37.2464 9.69659 39.0991 9.14591 41.1214C8.84672 42.2211 8.68468 43.334 8.72983 44.4756C8.75642 45.141 8.86824 45.7869 9.13662 46.4002C9.29444 46.7598 9.25604 47.0952 9.07628 47.4446C8.18632 49.1758 7.6196 51.0002 7.50989 52.9573C7.42214 54.4005 7.63631 55.8462 8.13864 57.2015C8.74418 58.8347 9.71853 60.2242 10.9613 61.4314C11.8639 62.3074 12.8695 63.0467 13.951 63.6842C15.7942 64.7708 17.7712 65.5284 19.8317 66.0774C21.1696 66.4335 22.5301 66.6979 23.9038 66.8688C24.5832 66.9534 25.2668 67.0219 25.95 67.0456C27.3742 67.0951 28.7992 67.0947 30.2213 66.9784C30.9171 66.9217 31.6138 66.8697 32.3075 66.7868C33.4013 66.6559 34.4872 66.4757 35.5652 66.2462C37.4346 65.8452 39.2609 65.3072 41.0088 64.5276C42.1667 64.0116 43.2672 63.3957 44.2513 62.5865C44.7342 62.1986 45.162 61.7464 45.5227 61.2423C45.4501 61.1222 45.3885 61.019 45.3256 60.917C44.3779 59.3782 43.8487 57.6926 43.604 55.9127C43.455 54.8273 43.4634 53.7373 43.5862 52.6477C43.7436 51.248 44.0504 49.8886 44.6192 48.5934C44.7538 48.2859 44.8627 47.967 44.9783 47.6514C45.0775 47.3811 45.0944 47.0965 45.0843 46.8139C45.0747 46.5715 45.0465 46.3303 44.9999 46.0923C44.8982 45.564 44.7847 45.0374 44.6678 44.512C44.4365 43.4689 44.288 42.4178 44.3454 41.3464C44.3795 40.6738 44.4522 40.0036 44.5631 39.3394C44.7737 38.1131 45.0893 36.919 45.5982 35.7795ZM9.75356 35.096C9.82361 34.986 9.88648 34.8718 9.96244 34.7428C9.58899 34.5571 9.23663 34.393 8.89567 34.2081C8.55471 34.0233 8.21418 33.8275 7.88714 33.616C7.54956 33.3973 7.21915 33.1634 6.89802 32.9197C6.58913 32.685 6.29628 32.4295 6.00975 32.1943C5.97478 32.1956 5.94009 32.201 5.90637 32.2104C5.82197 32.2527 5.73757 32.295 5.65782 32.3432C4.9894 32.7387 4.43408 33.264 3.94711 33.866C3.01077 35.0213 2.36994 36.3884 2.08027 37.8483C1.92287 38.6173 1.87561 39.3969 1.98195 40.1794C2.03742 40.6346 2.16268 41.0784 2.35329 41.4953C2.5033 41.8281 2.71856 42.1273 2.98626 42.3751C3.57703 42.9089 4.2771 42.9994 5.024 42.8404C5.68103 42.7008 6.24395 42.3624 6.77607 41.9631C6.9404 41.8464 7.05203 41.6692 7.08664 41.4703C7.32313 40.3497 7.67016 39.2555 8.12261 38.2037C8.58041 37.125 9.12586 36.0859 9.75352 35.0969L9.75356 35.096Z" fill="#E67C4F"/>
<path d="M74.8199 46.237C74.8237 46.8059 74.7153 47.2611 74.4781 47.6752C74.3789 47.8503 74.2575 48.0118 74.1169 48.1557C73.4269 48.8544 72.3707 48.8033 71.7399 48.0512C71.4365 47.6895 71.2728 47.2666 71.2145 46.8051C71.1166 46.0281 71.2491 45.3052 71.7606 44.6834C71.9357 44.4598 72.1665 44.2865 72.4298 44.1809C73.0514 43.9449 73.6198 44.0477 74.1101 44.4986C74.5351 44.8894 74.7296 45.3991 74.803 45.9608C74.8186 46.0826 74.8178 46.204 74.8199 46.237Z" fill="#E67C4F"/>
<path d="M71.9635 51.7737C72.0167 52.239 72.0349 52.7128 72.053 52.9704C71.9939 54.2533 71.8344 55.3007 71.4158 56.2951C71.1525 56.9211 70.8221 57.504 70.333 57.9828C69.6313 58.6702 68.7877 59.0504 67.8083 59.0919C67.0234 59.1253 66.328 58.8766 65.744 58.3368C65.3115 57.9376 65.0009 57.4524 64.7561 56.9228C64.4544 56.2706 64.2772 55.5811 64.17 54.8718C64.0785 54.2584 64.0531 53.637 64.0941 53.0183C64.1401 52.2899 64.2498 51.5708 64.5515 50.8978C64.6428 50.6891 64.756 50.4906 64.8891 50.3057C65.1595 49.9372 65.517 49.7655 65.9799 49.9064C66.2884 50.0003 66.596 50.0959 66.9044 50.1872C67.886 50.4778 68.8768 50.5941 69.8832 50.3255C70.09 50.2701 70.2896 50.1868 70.4934 50.1191C70.6588 50.0641 70.8246 50.0028 71.0044 50.0375C71.2998 50.095 71.5264 50.2371 71.6496 50.526C71.8144 50.9244 71.9201 51.3447 71.9635 51.7737Z" fill="#E67C4F"/>
<path d="M62.3002 45.3571C62.4553 45.7227 62.5356 46.1158 62.5365 46.5131C62.5129 47.0414 62.3897 47.5587 62.0808 48.0189C61.8153 48.414 61.4626 48.6957 60.9891 48.7832C60.3675 48.8996 59.8531 48.6906 59.4442 48.2156C59.1552 47.8802 58.9965 47.4817 58.9311 47.0499C58.8447 46.5296 58.8958 45.9957 59.0792 45.5013C59.223 45.107 59.4825 44.7656 59.8236 44.5221C60.1146 44.3115 60.4692 44.2083 60.8275 44.2298C61.1857 44.2514 61.5255 44.3965 61.7892 44.6405C62.0085 44.8401 62.1828 45.0844 62.3002 45.3571Z" fill="#E67C4F"/>
<path d="M39.9407 47.6043C39.95 48.3234 39.2402 48.7975 38.6111 48.5222C38.5006 48.473 38.3985 48.4069 38.3085 48.3261C38.0131 48.0596 37.6629 47.8917 37.289 47.7724C36.532 47.5309 35.761 47.4945 34.9799 47.629C34.6475 47.6832 34.3296 47.8044 34.0452 47.9852C33.933 48.0585 33.811 48.1154 33.6827 48.1544C33.4879 48.2112 33.2798 48.2028 33.0902 48.1303C32.9006 48.0579 32.7397 47.9254 32.632 47.7529C32.4041 47.3934 32.4278 46.9493 32.7126 46.6282C32.8313 46.5003 32.9664 46.3886 33.1143 46.2962C33.5705 46.0078 34.08 45.8147 34.6124 45.7285C35.8281 45.517 37.021 45.6055 38.1811 46.0432C38.6874 46.2344 39.155 46.4954 39.5567 46.8655C39.7289 47.0237 39.8626 47.2039 39.9107 47.4395C39.9247 47.5042 39.9344 47.5705 39.9407 47.6043Z" fill="#E67C4F"/>
<path d="M29.3714 52.3136C29.4826 52.468 29.5427 52.6533 29.5434 52.8436C29.5441 53.034 29.4852 53.2198 29.3752 53.3749C29.2699 53.5139 29.1446 53.6362 29.0034 53.7384C28.6127 54.0345 28.1696 54.2253 27.702 54.3619C27.1091 54.5396 26.4923 54.6242 25.8736 54.6127C25.2279 54.625 24.5844 54.5358 23.9662 54.3484C23.4862 54.2141 23.0352 53.9922 22.6358 53.6934C22.4953 53.5899 22.369 53.4683 22.2602 53.3317C22.1316 53.1649 22.0633 52.9593 22.0666 52.7485C22.0698 52.5377 22.1443 52.3343 22.2779 52.1715C22.4094 52.0074 22.5912 51.8914 22.7952 51.8416C22.9992 51.7918 23.2139 51.811 23.4059 51.8961C23.4927 51.9321 23.5739 51.9806 23.6468 52.04C24.0853 52.4134 24.614 52.5636 25.1634 52.6372C25.8335 52.7269 26.5032 52.7108 27.1585 52.5103C27.4303 52.4257 27.689 52.3204 27.9181 52.1495C28.07 52.0366 28.2316 51.9427 28.4245 51.9147C28.8216 51.8568 29.141 51.9867 29.3714 52.3136Z" fill="#E67C4F"/>
<path d="M21.4854 46.3811C21.4854 47.1001 20.7681 47.5654 20.1427 47.2816C20.0333 47.2303 19.9319 47.1634 19.8418 47.0828C19.565 46.8358 19.2417 46.6776 18.8961 46.5596C18.1294 46.2977 17.3432 46.2635 16.5495 46.3878C16.2014 46.435 15.8691 46.5629 15.5789 46.7613C15.4037 46.8896 15.1916 46.9572 14.9747 46.9538C14.5915 46.947 14.2995 46.7766 14.1307 46.4323C13.9535 46.074 13.9957 45.7263 14.2396 45.4091C14.3818 45.2242 14.5772 45.1011 14.7751 44.9861C15.1722 44.7583 15.6045 44.5986 16.0541 44.5136C17.32 44.2793 18.567 44.3584 19.7772 44.827C20.2058 44.9873 20.605 45.2174 20.9588 45.508C21.072 45.6027 21.1769 45.707 21.2723 45.8198C21.4042 45.9776 21.4793 46.1753 21.4854 46.3811Z" fill="#E67C4F"/>
<path d="M96.0437 18.2377C95.557 17.8109 95.1109 17.4857 95.1109 16.7743C95.1109 14.6807 100.626 14.3149 102.147 14.3149C106.081 14.3149 109.204 16.1035 109.204 20.4532C109.204 21.5101 108.859 22.5467 108.271 23.4207C106.304 26.3476 102.654 26.0631 99.5516 26.0631C99.1461 27.2623 99.7747 30.1282 97.7875 30.1282C95.6381 30.1282 95.5164 25.0265 95.5164 23.4817C95.5164 21.7134 95.7192 19.9654 96.0437 18.2377ZM99.4705 21.754C100.201 21.9167 100.951 21.9573 101.701 21.9573C102.857 21.9573 104.986 22.0996 104.986 20.4126C104.986 17.6076 101.174 18.2377 99.3286 18.441C99.3691 19.5386 99.4097 20.6565 99.4705 21.754Z" fill="#E67C4F"/>
<path d="M114.765 28.055C114.765 28.9696 114.339 29.8233 113.305 29.8233C111.541 29.8233 110.892 26.9371 110.892 25.5753C110.892 24.2541 111.115 21.5305 112.9 21.5305C114.076 21.5305 114.502 22.3638 114.644 23.3801C114.765 24.2541 114.684 25.2704 114.765 28.055ZM114.664 18.1158C114.664 18.9898 113.954 19.7621 113.062 19.7621C112.17 19.7621 111.46 18.9694 111.46 18.0954C111.46 17.2621 112.17 16.5304 113.021 16.5304C113.934 16.5304 114.664 17.1808 114.664 18.1158Z" fill="#E67C4F"/>
<path d="M121.176 28.4818C121.095 30.1892 121.277 33.7258 118.763 33.7258C117.181 33.7258 116.674 32.2421 116.674 30.9412C116.674 27.6688 117.263 24.3151 117.263 20.9817C117.263 20.4532 117.1 19.9247 117.1 19.4166C117.1 17.567 122.129 16.754 123.548 16.754C127.219 16.754 129.834 19.5995 129.834 23.2581C129.834 28.4412 124.907 28.1566 121.176 28.4818ZM120.466 20.9207L120.933 23.5224C121.987 23.5834 123.082 23.685 124.137 23.685C124.907 23.685 125.232 23.3191 125.232 22.5671C125.232 20.9004 123.913 20.6768 122.575 20.6768C121.865 20.6768 121.156 20.7784 120.466 20.9207Z" fill="#E67C4F"/>
<path d="M136.404 28.4818C136.323 30.1892 136.505 33.7258 133.991 33.7258C132.409 33.7258 131.902 32.2421 131.902 30.9412C131.902 27.6688 132.49 24.3151 132.49 20.9817C132.49 20.4532 132.328 19.9247 132.328 19.4166C132.328 17.567 137.357 16.754 138.776 16.754C142.447 16.754 145.062 19.5995 145.062 23.2581C145.062 28.4412 140.135 28.1566 136.404 28.4818ZM135.694 20.9207L136.161 23.5224C137.215 23.5834 138.31 23.685 139.364 23.685C140.135 23.685 140.459 23.3191 140.459 22.5671C140.459 20.9004 139.141 20.6768 137.803 20.6768C137.093 20.6768 136.384 20.7784 135.694 20.9207Z" fill="#E67C4F"/>
<path d="M151.003 28.055C151.003 28.9696 150.577 29.8233 149.543 29.8233C147.779 29.8233 147.13 26.9371 147.13 25.5753C147.13 24.2541 147.353 21.5305 149.138 21.5305C150.314 21.5305 150.74 22.3638 150.881 23.3801C151.003 24.2541 150.922 25.2704 151.003 28.055ZM150.902 18.1158C150.902 18.9898 150.192 19.7621 149.3 19.7621C148.408 19.7621 147.698 18.9694 147.698 18.0954C147.698 17.2621 148.408 16.5304 149.259 16.5304C150.172 16.5304 150.902 17.1808 150.902 18.1158Z" fill="#E67C4F"/>
<path d="M156.258 18.8272C157.15 18.3597 157.576 17.9735 158.651 17.9735C163.416 17.9735 162.99 22.8516 162.99 26.4493C162.99 27.5468 162.706 29.2135 161.287 29.2135C160.07 29.2135 159.361 28.2989 159.239 26.8354C159.056 24.6403 159.523 20.7784 158.489 20.7784C157.576 20.7784 156.725 22.5671 156.725 23.3598C156.725 24.3964 156.988 25.4533 156.988 26.4899C156.988 27.7908 156.765 29.4981 155.062 29.4981C152.75 29.4981 152.953 26.3273 152.953 24.7622C152.953 23.563 152.953 19.254 153.399 18.4003C153.642 17.9328 154.129 17.6076 154.676 17.6076C155.548 17.6076 155.832 18.2174 156.258 18.8272Z" fill="#E67C4F"/>
<path d="M114.039 42.9016C113.553 42.4747 113.107 42.1495 113.107 41.4381C113.107 39.3446 118.622 38.9787 120.143 38.9787C124.077 38.9787 127.199 40.7674 127.199 45.1171C127.199 46.174 126.855 47.2106 126.267 48.0846C124.3 51.0115 120.65 50.7269 117.547 50.7269C117.142 51.9261 117.77 54.792 115.783 54.792C113.634 54.792 113.512 49.6903 113.512 48.1456C113.512 46.3772 113.715 44.6292 114.039 42.9016ZM117.466 46.4179C118.196 46.5805 118.946 46.6211 119.697 46.6211C120.853 46.6211 122.982 46.7634 122.982 45.0764C122.982 42.2715 119.17 42.9016 117.324 43.1048C117.365 44.2024 117.405 45.3203 117.466 46.4179Z" fill="#E67C4F"/>
<path d="M137.567 49.1415C137.83 47.9423 138.033 45.5642 139.675 45.5642C140.264 45.5642 140.75 45.9097 140.994 46.4382C141.582 47.7797 141.561 49.4058 142.332 51.0724C142.514 51.479 142.656 51.9058 142.656 52.3733C142.656 53.5115 141.886 54.5481 140.689 54.5481C139.31 54.5481 138.824 53.6335 138.195 52.6375C136.593 53.105 135.762 53.9993 133.896 53.9993C130.936 53.9993 128.787 51.8042 128.787 48.857C128.787 44.9138 131.625 41.6617 135.681 41.6617C137.039 41.6617 139.899 42.0072 139.899 43.8365C139.899 46.8651 133.085 43.9788 133.085 49.3244C133.085 50.1171 133.389 50.544 134.201 50.544C134.951 50.544 136.837 49.5074 137.567 49.1415Z" fill="#E67C4F"/>
<path d="M146.509 54.6904C145.861 54.6904 145.313 54.2432 145.029 53.6945C144.36 52.4139 144.015 46.9667 144.015 45.361C144.015 43.8365 144.096 39.243 146.246 39.243C148.537 39.243 148.192 43.0032 148.192 44.5886C148.192 47.3732 148.03 50.2188 147.929 53.0034C147.888 53.918 147.523 54.6904 146.509 54.6904Z" fill="#E67C4F"/>
<path d="M156.467 44.8731C156.933 44.8528 157.4 44.8325 157.866 44.8325C162.53 44.8325 162.469 47.5561 162.469 50.8082C162.469 54.0197 158.92 54.6294 156.406 54.6294C154.399 54.6294 149.917 54.7107 149.917 51.8245C149.917 50.5033 151.195 49.4871 152.452 49.4871C154.115 49.4871 155.757 49.8936 157.42 49.8936C157.825 49.8936 158.231 49.8732 158.637 49.8123C158.697 49.4871 158.799 49.1618 158.799 48.8366C158.799 48.0643 156.224 48.3895 155.595 48.3895C152.269 48.3895 149.998 47.8407 149.998 44.0398C149.998 40.7064 153.223 39.2226 156.142 39.2226C157.724 39.2226 161.78 39.7511 161.78 41.8853C161.78 43.1455 160.847 43.552 159.732 43.552C158.677 43.552 157.643 43.3487 156.589 43.3487C152.594 43.3487 152.939 45.0357 156.467 44.8731Z" fill="#E67C4F"/>
<path d="M101.299 44.1313C102.353 44.596 103.487 44.7581 104.624 44.8657C104.966 43.8863 104.384 41.7701 105.451 41.2947C106.207 40.958 106.856 41.4695 107.17 42.1841C107.512 42.9657 107.546 44.4986 107.622 45.399C108.578 45.6404 110.127 45.7781 110.577 46.8054C110.9 47.5423 110.541 48.4225 109.83 48.7394C109.074 49.0761 107.668 48.9013 106.835 48.8188C106.123 50.4701 105.252 51.8187 103.54 52.5813C101.317 53.5716 98.535 53.289 97.4292 50.7655C96.705 49.113 96.8339 47.5877 97.1015 45.8938C95.9451 45.0744 94.9497 44.0764 94.3625 42.7365C93.1099 39.8781 94.2892 36.4438 97.1133 35.1861C99.4482 34.1463 102.275 34.8357 103.381 37.3591C104.526 39.9719 102.597 42.0588 101.299 44.1313ZM98.408 42.7498C98.8545 42.0706 100.656 39.6934 100.324 38.9341C99.9812 38.1525 99.1131 38.1121 98.446 38.4092C97.2674 38.9341 96.9268 40.3402 97.4357 41.5014C97.651 41.9927 98.0121 42.3923 98.408 42.7498ZM103.608 48.3076L100.197 47.3176C100.091 47.9252 100.221 48.8282 100.476 49.4088C100.74 50.0118 101.819 49.7448 102.264 49.5467C102.82 49.2991 103.329 48.8853 103.608 48.3076Z" fill="#D6E499"/>
</svg>
