<svg width="50" height="50" viewBox="0 0 50 50" fill="none" xmlns="http://www.w3.org/2000/svg">
<path fill-rule="evenodd" clip-rule="evenodd" d="M23.9916 15.7854C23.7609 15.8811 23.538 15.9947 23.325 16.125C23.1229 16.2479 20.1958 19.1125 16.8208 22.4875C11.852 27.4562 10.6416 28.7104 10.4604 29.0708C10.1508 29.6748 10.0444 30.3625 10.157 31.0317C10.2696 31.701 10.5952 32.316 11.0854 32.7854C11.8312 33.4833 12.7416 33.7583 13.7333 33.5854C14.7937 33.4 14.7479 33.4417 20.0625 28.1396L25 23.2146L29.9375 28.1396C33.7624 31.9542 34.9708 33.1125 35.2999 33.2771C36.5833 33.9208 38.0937 33.6729 39.0354 32.6646C39.7354 31.9167 40.0125 30.9896 39.8333 29.9979C39.6395 28.9292 39.7812 29.0896 33.0958 22.4125C26.0062 15.3312 26.4729 15.7229 25.0833 15.6896C24.5708 15.6771 24.1854 15.7104 23.9916 15.7854Z" fill="#482C1C"/>
</svg>
