<svg width="35" height="35" viewBox="0 0 35 35" fill="none" xmlns="http://www.w3.org/2000/svg">
<path fill-rule="evenodd" clip-rule="evenodd" d="M16.625 2.98083C13.6952 3.31187 11.1883 5.50958 10.4431 8.4C10.0917 9.76062 10.1835 11.4844 10.675 12.7633C11.046 13.7231 11.6116 14.5956 12.3362 15.3262C13.0607 16.0568 13.9286 16.6296 14.8852 17.0085C16.4762 17.6356 18.5237 17.6356 20.1148 17.0085C22.0719 16.2385 23.6585 14.6154 24.3527 12.67C24.9317 11.0483 24.9112 9.14667 24.3002 7.59354C23.4398 5.40458 21.5512 3.72458 19.3083 3.15291C18.4312 2.93688 17.5226 2.87861 16.625 2.98083ZM18.7542 6.00979C19.4509 6.22851 20.084 6.61351 20.5988 7.13156C21.1135 7.64962 21.4945 8.28516 21.7087 8.98333C21.9056 9.61625 21.9056 10.8004 21.7087 11.4333C21.4931 12.1367 21.1084 12.7764 20.5882 13.2966C20.0681 13.8167 19.4283 14.2015 18.725 14.4171C18.0921 14.614 16.9079 14.614 16.275 14.4171C15.4146 14.1487 14.7394 13.6952 14.1152 12.966C13.7409 12.5153 13.4607 11.9942 13.2912 11.4333C13.0944 10.8004 13.0944 9.61625 13.2912 8.98333C13.7885 7.38791 15.1273 6.18187 16.7285 5.89021C17.2039 5.80271 18.2962 5.86687 18.7542 6.00979ZM16.5667 18.9933C12.3637 19.2762 8.70478 20.7404 6.31165 23.0956C4.51353 24.8646 3.93894 26.8654 4.7454 28.5527C5.57811 30.2969 7.99311 31.376 12.0458 31.815C13.7623 32.0002 14.8881 32.0483 17.5 32.0483C20.1119 32.0483 21.2377 32.0002 22.9542 31.815C27.0069 31.376 29.4219 30.2969 30.2546 28.5527C30.7737 27.4662 30.7344 26.2952 30.1364 25.0542C28.7146 22.101 24.2462 19.5956 19.4833 19.0808C18.8664 19.0137 17.0625 18.9598 16.5667 18.9933ZM19.0458 21.9581C20.3146 22.1083 20.9562 22.241 22.0792 22.5881C24.376 23.2954 26.4527 24.6517 27.3554 26.0327C27.7987 26.7123 27.8089 27.1381 27.3904 27.5246C26.5694 28.2815 24.5204 28.7948 21.2625 29.0602C20.0025 29.1637 14.9975 29.1637 13.7375 29.0602C10.4796 28.7948 8.43061 28.2815 7.60957 27.5246C7.19103 27.1381 7.20124 26.7123 7.64457 26.0327C8.84186 24.201 11.9044 22.5677 15.05 22.0821C16.4937 21.859 17.8456 21.8167 19.0458 21.9581Z" fill="#E67C4F"/>
</svg>
