<svg width="42" height="42" viewBox="0 0 42 42" fill="none" xmlns="http://www.w3.org/2000/svg">
<path fill-rule="evenodd" clip-rule="evenodd" d="M18.2083 0.116043C15.8604 0.405626 13.8813 0.999376 11.6667 2.07438C5.5125 5.06396 1.25208 10.864 0.19375 17.6973C-0.0645833 19.3619 -0.0645833 22.1994 0.19375 23.864C1.25208 30.6973 5.5125 36.4973 11.6667 39.4869C14.0063 40.6223 16.1458 41.2369 18.6583 41.4931C20.0604 41.6348 22.8729 41.5535 24.1667 41.3327C33.1521 39.7973 39.9979 32.8535 41.3896 23.864C41.5354 22.9202 41.5708 22.3327 41.5708 20.7806C41.5708 19.2285 41.5354 18.641 41.3896 17.6973C40.3333 10.866 36.0708 5.06188 29.9167 2.07438C27.7572 1.00178 25.4232 0.324432 23.025 0.0743765C21.9375 -0.0402069 19.2896 -0.0193736 18.2083 0.116043ZM23.1667 4.28688C29.7688 5.22229 35.1958 10.0723 36.9104 16.5723C37.3125 18.089 37.4083 18.9056 37.4083 20.7806C37.4083 22.6556 37.3125 23.4723 36.9104 24.989C36.1197 28.0073 34.4987 30.7436 32.2314 32.8871C29.9641 35.0307 27.1413 36.4958 24.0833 37.116C22.1333 37.5098 19.7375 37.541 17.8688 37.1931C16.9354 37.0202 16.875 36.9994 16.875 36.8452C16.875 36.739 18.0667 30.964 18.2521 30.1681C18.2958 29.9827 18.3083 29.9806 18.4833 30.1077C19.9188 31.1494 20.9042 31.4869 22.7083 31.5494C24.525 31.6119 25.8667 31.3265 27.4125 30.5515C29.8292 29.341 31.4438 27.7015 32.3229 25.564C33.0248 23.9238 33.346 22.146 33.2625 20.364C33.1229 17.0765 31.9146 14.2723 29.6688 12.0306C28.685 11.0126 27.5272 10.1787 26.25 9.56813C24.3083 8.62021 23.1479 8.36396 20.7917 8.36396C18.4354 8.36396 17.275 8.62021 15.3333 9.56813C14.0063 10.214 13.0292 10.9181 11.9125 12.0306C10.5827 13.3221 9.58485 14.916 9.00417 16.6765C8 19.616 8.07708 22.7181 9.22292 25.4681C9.54583 26.2452 9.76875 26.5077 10.3375 26.7848C10.725 26.9765 10.8729 27.0035 11.3625 26.9765C12.4542 26.914 13.2083 26.1806 13.2771 25.116C13.3042 24.6702 13.2604 24.4473 12.9708 23.6035C12.5354 22.3348 12.425 21.6119 12.4833 20.4056C12.5542 18.9765 12.9625 17.6306 13.7229 16.339C14.1083 15.6806 15.5313 14.2702 16.3313 13.7515C17.825 12.7827 19.6313 12.3494 21.5396 12.5015C23.5667 12.664 25.1896 13.4494 26.75 15.0223C27.6729 15.9556 28.1333 16.6744 28.5979 17.9056C29.5333 20.3994 29.1708 23.439 27.7292 25.216C27.0625 26.0348 25.6229 26.916 24.4188 27.2452C22.0667 27.8848 20.3854 26.9265 19.9188 24.6785C19.6875 23.5598 19.7313 23.0702 20.2896 20.489C20.8458 17.9077 20.8979 17.3765 20.6458 16.8119C20.2979 16.0348 19.6354 15.6181 18.75 15.6181C17.8542 15.6181 17.2354 16.0181 16.8896 16.8223C16.8 17.0285 15.8729 21.266 14.8313 26.239C13.7896 31.2119 12.9063 35.314 12.8708 35.3535C12.7833 35.4494 11.5625 34.7035 10.6083 33.9702C8.33138 32.2067 6.54914 29.8843 5.43468 27.2286C4.32021 24.573 3.91139 21.6743 4.24792 18.814C5.08125 11.6931 10.4542 5.87229 17.5146 4.44313C19.3762 4.07197 21.2874 4.01914 23.1667 4.28688Z" fill="#E67C4F"/>
</svg>
