<svg width="83" height="64" viewBox="0 0 83 64" fill="none" xmlns="http://www.w3.org/2000/svg">
<mask id="path-1-inside-1_87_27825" fill="white">
<path d="M13.7964 17.0717C13.851 16.9164 13.9073 16.7825 13.9478 16.6408C14.3562 15.1663 14.9942 13.7921 15.7883 12.4903C17.2691 10.0616 19.2029 8.05022 21.4845 6.36608C24.6985 3.99419 28.2639 2.34738 32.0931 1.25271C35.5913 0.255078 39.1557 -0.182148 42.7954 0.0699486C45.706 0.268955 48.5656 0.935963 51.2639 2.0453C53.475 2.95255 55.5681 4.08855 57.5864 5.36567C59.7791 6.7538 61.8608 8.30206 63.9399 9.85762C65.8812 11.3106 67.8147 12.7746 69.7753 14.2004C71.0391 15.1185 72.3287 15.9958 73.684 16.7765C74.7488 17.3837 75.8937 17.8383 77.085 18.1268C78.0679 18.3713 79.0524 18.5989 80.0665 18.6892C80.4683 18.7211 80.8538 18.8618 81.1816 19.0962C81.8369 19.5664 81.9819 20.4121 81.4816 21.0454C81.1952 21.4107 80.8727 21.7462 80.5189 22.0468C78.2218 23.97 75.9577 25.9343 73.5536 27.7259C73.4694 27.7882 73.3915 27.8588 73.2769 27.9531C73.4443 28.0791 73.5902 28.1949 73.7412 28.3021C76.5417 30.2958 78.7657 32.7906 80.3357 35.8569C80.7592 36.685 81.102 37.5482 81.4248 38.4185C81.9045 39.7159 82.1466 41.059 82.2669 42.4298C82.288 42.6812 82.3164 42.9335 82.3423 43.1854C82.4926 44.6466 82.3495 46.0896 82.0762 47.5252C81.8365 48.7761 81.4242 49.9736 80.91 51.1325C80.3604 52.3704 79.6411 53.512 78.8268 54.5957C77.2085 56.749 75.226 58.5005 72.9288 59.8925C68.4048 62.631 63.4975 63.9427 58.2068 63.8277C56.8487 63.8009 55.5209 63.5823 54.2005 63.2958C53.1081 63.0593 52.019 62.8103 50.9297 62.5574C50.2312 62.3952 49.5294 62.2412 48.8424 62.0387C48.1349 61.8308 47.4304 61.6003 46.7472 61.3232C45.1196 60.6624 43.5729 59.8457 42.1467 58.8154C40.1561 57.3768 38.3129 55.7788 36.7754 53.8474C35.5942 52.3579 34.5799 50.7432 33.7509 49.0324C33.6677 48.8615 33.587 48.6893 33.5016 48.5199C33.4784 48.4841 33.451 48.4511 33.4201 48.4218C33.3328 48.3589 33.2598 48.4202 33.1924 48.4611C30.5839 49.9889 27.745 50.6995 24.7456 50.8298C22.5935 50.918 20.4395 50.7106 18.3439 50.2131C15.1699 49.477 12.16 48.1588 9.46665 46.3253C8.59094 45.7366 7.73383 45.1277 6.95646 44.4116C4.97238 42.5853 3.23219 40.563 1.97161 38.1578C1.35807 37.0014 0.856123 35.7892 0.472568 34.5377C0.442354 34.4368 0.414771 34.3347 0.394228 34.2312C0.000372354 32.2518 -0.163393 30.2651 0.209154 28.2589C0.769513 25.2352 2.23916 22.7418 4.58712 20.766C6.61826 19.0567 8.97328 18.017 11.5532 17.4692C12.2748 17.3162 13.0059 17.2109 13.7964 17.0717ZM76.7555 21.2021C76.5772 21.1395 76.4434 21.0783 76.3041 21.0435C74.518 20.6236 72.8763 19.8736 71.3336 18.8915C69.1265 17.4869 67.0005 15.9668 64.9092 14.396C62.7341 12.763 60.571 11.1134 58.3605 9.52538C55.9755 7.81264 53.4707 6.29467 50.7669 5.12247C48.9777 4.34698 47.1343 3.75376 45.2162 3.40775C42.367 2.89393 39.5079 2.89244 36.6527 3.3397C32.7109 3.95729 29.009 5.25475 25.5745 7.29978C23.7681 8.37522 22.1165 9.64067 20.6928 11.1918C19.0327 13.0018 17.7541 15.0431 16.9322 17.3646C16.7715 17.8223 16.6162 18.283 16.4787 18.7478C16.2794 19.4211 15.8357 19.8232 15.1628 19.9763C14.9169 20.0316 14.6633 20.0514 14.4127 20.0876C13.7033 20.1901 12.9875 20.2598 12.2861 20.4019C10.2723 20.8082 8.41182 21.5797 6.79302 22.8671C4.42747 24.7482 3.16184 27.201 3.03283 30.2269C2.9513 32.1411 3.38125 33.9555 4.14334 35.6994C4.89327 37.4171 5.92406 38.9535 7.17425 40.3448C9.70813 43.1661 12.8049 45.1523 16.3408 46.4707C17.687 46.9709 19.0797 47.3356 20.4983 47.5594C22.5744 47.8903 24.6541 47.9397 26.7345 47.5917C28.867 47.2352 30.8496 46.5039 32.6114 45.2252C32.7804 45.0988 32.9568 44.9824 33.1396 44.8768C33.3221 44.7712 33.5144 44.6836 33.7139 44.6152C34.4073 44.3927 35.1259 44.6735 35.4194 45.3236C35.4896 45.4773 35.577 45.624 35.6342 45.7819C35.8548 46.3998 36.1831 46.968 36.4916 47.5456C37.0358 48.5716 37.6605 49.5528 38.36 50.4799C41.3288 54.41 45.1817 57.1464 49.7521 58.9112C51.1138 59.429 52.5164 59.8321 53.9453 60.1164C55.5154 60.4472 57.1132 60.6292 58.7175 60.6601C60.5748 60.6825 62.4287 60.4974 64.2448 60.1082C66.2828 59.6753 68.2315 59.0092 70.0713 58.0396C73.1978 56.3918 75.7801 54.1596 77.5274 51.0314C78.6102 49.1128 79.2286 46.9673 79.3332 44.7667C79.4836 41.7592 78.6201 39.0022 77.1825 36.4189C75.7385 33.824 73.6621 31.8028 71.1595 30.2194C70.9491 30.0865 70.7255 29.974 70.4957 29.8452C70.2087 30.0283 69.9429 30.198 69.6786 30.3683C68.0289 31.4336 66.3453 32.4412 64.5913 33.3288C60.7648 35.2741 56.6514 36.5939 52.4075 37.238C48.0278 37.9048 43.6357 38.0448 39.2272 37.5757C37.9254 37.4374 36.6264 37.2612 35.3599 36.9379C33.1461 36.3743 31.0545 35.4095 29.1888 34.0913C28.4638 33.5795 27.8179 32.9639 27.2717 32.2644C26.5992 31.4211 26.0445 30.4903 25.6229 29.4975C24.263 26.2364 24.506 23.1072 26.4743 20.1551C27.4362 18.7119 28.7205 17.5905 30.1957 16.6853C31.7575 15.7269 33.443 15.0707 35.2198 14.6478C38.626 13.8388 42.039 13.8844 45.446 14.6166C47.2231 14.9963 48.9476 15.5902 50.5817 16.3852C52.2034 17.1735 53.7045 18.1416 55.0501 19.3438C55.274 19.5364 55.4783 19.7505 55.6603 19.9831C55.874 20.2693 55.978 20.6226 55.9535 20.979C55.9289 21.3354 55.7775 21.6711 55.5267 21.9254C55.2758 22.1797 54.9421 22.3356 54.5861 22.365C54.2301 22.3943 53.8754 22.2951 53.5863 22.0853C53.434 21.9717 53.2896 21.8479 53.1542 21.7147C51.8584 20.5092 50.3748 19.5862 48.7677 18.8702C47.3986 18.2564 45.965 17.7981 44.4938 17.5038C42.0728 17.0244 39.6389 16.9354 37.1965 17.3313C35.4562 17.6144 33.7879 18.1317 32.2381 18.9905C31.1012 19.6206 30.0857 20.4033 29.2827 21.4345C27.7961 23.3437 27.4133 25.4524 28.1878 27.7526C28.5413 28.8066 29.1082 29.7419 29.8159 30.5927C30.3158 31.1938 30.8395 31.7726 31.5054 32.2001C32.0739 32.5643 32.6746 32.8756 33.3 33.1301C34.6163 33.6695 35.9986 33.9684 37.3834 34.2475C38.6454 34.5009 39.9271 34.6283 41.2115 34.7167C45.1932 34.9894 49.1935 34.7668 53.1204 34.054C57.5054 33.2568 61.5975 31.6675 65.4428 29.4244C69.3557 27.1415 73.0048 24.4947 76.4266 21.5296C76.5333 21.4391 76.627 21.3325 76.7555 21.2021Z"/>
</mask>
<path d="M13.7964 17.0717C13.851 16.9164 13.9073 16.7825 13.9478 16.6408C14.3562 15.1663 14.9942 13.7921 15.7883 12.4903C17.2691 10.0616 19.2029 8.05022 21.4845 6.36608C24.6985 3.99419 28.2639 2.34738 32.0931 1.25271C35.5913 0.255078 39.1557 -0.182148 42.7954 0.0699486C45.706 0.268955 48.5656 0.935963 51.2639 2.0453C53.475 2.95255 55.5681 4.08855 57.5864 5.36567C59.7791 6.7538 61.8608 8.30206 63.9399 9.85762C65.8812 11.3106 67.8147 12.7746 69.7753 14.2004C71.0391 15.1185 72.3287 15.9958 73.684 16.7765C74.7488 17.3837 75.8937 17.8383 77.085 18.1268C78.0679 18.3713 79.0524 18.5989 80.0665 18.6892C80.4683 18.7211 80.8538 18.8618 81.1816 19.0962C81.8369 19.5664 81.9819 20.4121 81.4816 21.0454C81.1952 21.4107 80.8727 21.7462 80.5189 22.0468C78.2218 23.97 75.9577 25.9343 73.5536 27.7259C73.4694 27.7882 73.3915 27.8588 73.2769 27.9531C73.4443 28.0791 73.5902 28.1949 73.7412 28.3021C76.5417 30.2958 78.7657 32.7906 80.3357 35.8569C80.7592 36.685 81.102 37.5482 81.4248 38.4185C81.9045 39.7159 82.1466 41.059 82.2669 42.4298C82.288 42.6812 82.3164 42.9335 82.3423 43.1854C82.4926 44.6466 82.3495 46.0896 82.0762 47.5252C81.8365 48.7761 81.4242 49.9736 80.91 51.1325C80.3604 52.3704 79.6411 53.512 78.8268 54.5957C77.2085 56.749 75.226 58.5005 72.9288 59.8925C68.4048 62.631 63.4975 63.9427 58.2068 63.8277C56.8487 63.8009 55.5209 63.5823 54.2005 63.2958C53.1081 63.0593 52.019 62.8103 50.9297 62.5574C50.2312 62.3952 49.5294 62.2412 48.8424 62.0387C48.1349 61.8308 47.4304 61.6003 46.7472 61.3232C45.1196 60.6624 43.5729 59.8457 42.1467 58.8154C40.1561 57.3768 38.3129 55.7788 36.7754 53.8474C35.5942 52.3579 34.5799 50.7432 33.7509 49.0324C33.6677 48.8615 33.587 48.6893 33.5016 48.5199C33.4784 48.4841 33.451 48.4511 33.4201 48.4218C33.3328 48.3589 33.2598 48.4202 33.1924 48.4611C30.5839 49.9889 27.745 50.6995 24.7456 50.8298C22.5935 50.918 20.4395 50.7106 18.3439 50.2131C15.1699 49.477 12.16 48.1588 9.46665 46.3253C8.59094 45.7366 7.73383 45.1277 6.95646 44.4116C4.97238 42.5853 3.23219 40.563 1.97161 38.1578C1.35807 37.0014 0.856123 35.7892 0.472568 34.5377C0.442354 34.4368 0.414771 34.3347 0.394228 34.2312C0.000372354 32.2518 -0.163393 30.2651 0.209154 28.2589C0.769513 25.2352 2.23916 22.7418 4.58712 20.766C6.61826 19.0567 8.97328 18.017 11.5532 17.4692C12.2748 17.3162 13.0059 17.2109 13.7964 17.0717ZM76.7555 21.2021C76.5772 21.1395 76.4434 21.0783 76.3041 21.0435C74.518 20.6236 72.8763 19.8736 71.3336 18.8915C69.1265 17.4869 67.0005 15.9668 64.9092 14.396C62.7341 12.763 60.571 11.1134 58.3605 9.52538C55.9755 7.81264 53.4707 6.29467 50.7669 5.12247C48.9777 4.34698 47.1343 3.75376 45.2162 3.40775C42.367 2.89393 39.5079 2.89244 36.6527 3.3397C32.7109 3.95729 29.009 5.25475 25.5745 7.29978C23.7681 8.37522 22.1165 9.64067 20.6928 11.1918C19.0327 13.0018 17.7541 15.0431 16.9322 17.3646C16.7715 17.8223 16.6162 18.283 16.4787 18.7478C16.2794 19.4211 15.8357 19.8232 15.1628 19.9763C14.9169 20.0316 14.6633 20.0514 14.4127 20.0876C13.7033 20.1901 12.9875 20.2598 12.2861 20.4019C10.2723 20.8082 8.41182 21.5797 6.79302 22.8671C4.42747 24.7482 3.16184 27.201 3.03283 30.2269C2.9513 32.1411 3.38125 33.9555 4.14334 35.6994C4.89327 37.4171 5.92406 38.9535 7.17425 40.3448C9.70813 43.1661 12.8049 45.1523 16.3408 46.4707C17.687 46.9709 19.0797 47.3356 20.4983 47.5594C22.5744 47.8903 24.6541 47.9397 26.7345 47.5917C28.867 47.2352 30.8496 46.5039 32.6114 45.2252C32.7804 45.0988 32.9568 44.9824 33.1396 44.8768C33.3221 44.7712 33.5144 44.6836 33.7139 44.6152C34.4073 44.3927 35.1259 44.6735 35.4194 45.3236C35.4896 45.4773 35.577 45.624 35.6342 45.7819C35.8548 46.3998 36.1831 46.968 36.4916 47.5456C37.0358 48.5716 37.6605 49.5528 38.36 50.4799C41.3288 54.41 45.1817 57.1464 49.7521 58.9112C51.1138 59.429 52.5164 59.8321 53.9453 60.1164C55.5154 60.4472 57.1132 60.6292 58.7175 60.6601C60.5748 60.6825 62.4287 60.4974 64.2448 60.1082C66.2828 59.6753 68.2315 59.0092 70.0713 58.0396C73.1978 56.3918 75.7801 54.1596 77.5274 51.0314C78.6102 49.1128 79.2286 46.9673 79.3332 44.7667C79.4836 41.7592 78.6201 39.0022 77.1825 36.4189C75.7385 33.824 73.6621 31.8028 71.1595 30.2194C70.9491 30.0865 70.7255 29.974 70.4957 29.8452C70.2087 30.0283 69.9429 30.198 69.6786 30.3683C68.0289 31.4336 66.3453 32.4412 64.5913 33.3288C60.7648 35.2741 56.6514 36.5939 52.4075 37.238C48.0278 37.9048 43.6357 38.0448 39.2272 37.5757C37.9254 37.4374 36.6264 37.2612 35.3599 36.9379C33.1461 36.3743 31.0545 35.4095 29.1888 34.0913C28.4638 33.5795 27.8179 32.9639 27.2717 32.2644C26.5992 31.4211 26.0445 30.4903 25.6229 29.4975C24.263 26.2364 24.506 23.1072 26.4743 20.1551C27.4362 18.7119 28.7205 17.5905 30.1957 16.6853C31.7575 15.7269 33.443 15.0707 35.2198 14.6478C38.626 13.8388 42.039 13.8844 45.446 14.6166C47.2231 14.9963 48.9476 15.5902 50.5817 16.3852C52.2034 17.1735 53.7045 18.1416 55.0501 19.3438C55.274 19.5364 55.4783 19.7505 55.6603 19.9831C55.874 20.2693 55.978 20.6226 55.9535 20.979C55.9289 21.3354 55.7775 21.6711 55.5267 21.9254C55.2758 22.1797 54.9421 22.3356 54.5861 22.365C54.2301 22.3943 53.8754 22.2951 53.5863 22.0853C53.434 21.9717 53.2896 21.8479 53.1542 21.7147C51.8584 20.5092 50.3748 19.5862 48.7677 18.8702C47.3986 18.2564 45.965 17.7981 44.4938 17.5038C42.0728 17.0244 39.6389 16.9354 37.1965 17.3313C35.4562 17.6144 33.7879 18.1317 32.2381 18.9905C31.1012 19.6206 30.0857 20.4033 29.2827 21.4345C27.7961 23.3437 27.4133 25.4524 28.1878 27.7526C28.5413 28.8066 29.1082 29.7419 29.8159 30.5927C30.3158 31.1938 30.8395 31.7726 31.5054 32.2001C32.0739 32.5643 32.6746 32.8756 33.3 33.1301C34.6163 33.6695 35.9986 33.9684 37.3834 34.2475C38.6454 34.5009 39.9271 34.6283 41.2115 34.7167C45.1932 34.9894 49.1935 34.7668 53.1204 34.054C57.5054 33.2568 61.5975 31.6675 65.4428 29.4244C69.3557 27.1415 73.0048 24.4947 76.4266 21.5296C76.5333 21.4391 76.627 21.3325 76.7555 21.2021Z" fill="#847267" stroke="#847267" stroke-width="5.59594" mask="url(#path-1-inside-1_87_27825)"/>
</svg>
