<svg width="38" height="38" viewBox="0 0 38 38" fill="none" xmlns="http://www.w3.org/2000/svg">
<path fill-rule="evenodd" clip-rule="evenodd" d="M9.16927 0.0815274C4.98385 0.554444 1.39219 3.70444 0.340104 7.82319C0.229859 8.29578 0.147082 8.77436 0.0921875 9.25653C-0.0307292 10.3628 -0.0307292 27.1169 0.0921875 28.2232C0.347857 30.5694 1.39689 32.7579 3.06571 34.4268C4.73453 36.0956 6.9231 37.1446 9.26927 37.4003C10.3755 37.5232 27.1297 37.5232 28.2359 37.4003C30.3554 37.1624 32.351 36.2806 33.9539 34.8737C35.5568 33.4667 36.6899 31.6023 37.2005 29.5315C37.4755 28.4399 37.5026 27.4399 37.5026 18.7399C37.5026 9.83778 37.4776 9.05028 37.1672 7.82319C36.5589 5.42736 34.9505 3.15236 32.9193 1.80861C31.3464 0.771111 29.9943 0.271111 28.2359 0.0794442C27.2609 -0.0288891 10.1172 -0.0247226 9.16927 0.0815274ZM28.8776 4.39403C30.9422 5.08569 32.4651 6.62319 33.0984 8.65653L33.2943 9.28153V28.1982L33.0984 28.8232C32.7904 29.8279 32.2408 30.7419 31.4977 31.485C30.7546 32.2281 29.8407 32.7777 28.8359 33.0857L28.2109 33.2815H9.29427L8.66927 33.0857C7.66452 32.7777 6.75059 32.2281 6.00749 31.485C5.26439 30.7419 4.71478 29.8279 4.40677 28.8232L4.21094 28.1982V9.28153L4.40677 8.65653C5.11927 6.37528 7.06094 4.62736 9.31719 4.24194C9.53385 4.20444 13.8922 4.17944 19.0026 4.18569L28.2943 4.19819L28.8776 4.39403ZM27.1818 7.53778C26.4193 7.92319 26.0422 8.61694 26.1005 9.53153C26.1137 9.85235 26.2064 10.1649 26.3705 10.4409C26.5345 10.7169 26.7646 10.9478 27.0401 11.1128C27.4068 11.3399 27.5172 11.3649 28.1276 11.3649C28.738 11.3649 28.8484 11.3399 29.2151 11.1128C29.4672 10.9565 29.7193 10.7044 29.8755 10.4524C30.1026 10.0857 30.1276 9.97528 30.1276 9.36486C30.1276 8.75444 30.1026 8.64403 29.8755 8.27736C29.5026 7.67528 28.9714 7.37528 28.2193 7.33986C27.7089 7.31694 27.5651 7.34403 27.1818 7.53778ZM17.4151 10.5336C16.1405 10.7469 14.9328 11.2528 13.8867 12.0116C12.8405 12.7703 11.9846 13.7612 11.3859 14.9065C10.9515 15.7063 10.6649 16.5779 10.5401 17.4794C10.3901 18.313 10.3901 19.1667 10.5401 20.0003C11.0026 23.0607 13.1776 25.6357 16.1589 26.6503C16.7734 26.8586 18.0859 27.0732 18.7526 27.0732C19.4193 27.0732 20.7318 26.8586 21.3464 26.6503C23.3964 25.9524 25.1609 24.4461 26.1193 22.5732C26.5537 21.7734 26.8403 20.9018 26.9651 20.0003C27.1151 19.1667 27.1151 18.313 26.9651 17.4794C26.7666 16.189 26.2666 14.9636 25.5057 13.9027C24.7448 12.8417 23.7445 11.9751 22.5859 11.3732C21.7862 10.9387 20.9146 10.6522 20.013 10.5274C19.1528 10.3836 18.2746 10.3857 17.4151 10.5336ZM19.7776 14.6982C20.5276 14.8919 21.0818 15.219 21.6776 15.8149C22.2943 16.4294 22.6109 16.9836 22.7943 17.7586C23.0296 18.7471 22.9048 19.7872 22.4422 20.6919C22.1651 21.2399 21.2443 22.1565 20.6901 22.4378C20.0901 22.7438 19.4261 22.9033 18.7526 22.9033C18.0791 22.9033 17.4151 22.7438 16.8151 22.4378C16.2547 22.1544 15.338 21.2378 15.0547 20.6774C14.7487 20.0774 14.5892 19.4134 14.5892 18.7399C14.5892 18.0663 14.7487 17.4024 15.0547 16.8024C15.3401 16.2399 16.2547 15.3253 16.8172 15.0419C17.7322 14.5806 18.7812 14.4588 19.7776 14.6982Z" fill="#E67C4F"/>
</svg>
