<svg width="67" height="101" viewBox="0 0 67 101" fill="none" xmlns="http://www.w3.org/2000/svg">
<path d="M43.2528 4.2485C43.4462 4.14469 43.6248 4.05127 43.8006 3.95402C45.4755 3.03508 47.2588 2.43192 49.156 2.20574C51.5601 1.92273 53.9039 2.21065 56.1567 3.1072C60.3693 4.78336 63.2412 7.81281 65.0091 11.9267C65.7104 13.5581 66.1049 15.2703 66.2692 17.041C66.5662 20.2458 65.986 23.2933 64.6903 26.2233C63.6729 28.524 62.2704 30.5771 60.6651 32.5029C58.066 35.6214 54.9569 38.145 51.5157 40.2719C49.7538 41.3602 47.9688 42.4108 46.1943 43.4789C44.8191 44.3071 43.4736 45.1791 42.1861 46.1379C41.9927 46.2821 41.8086 46.4384 41.6261 46.5843C41.7297 46.7875 41.9094 46.7886 42.0557 46.8421C43.3366 47.3109 44.5759 47.8654 45.751 48.5593C49.3965 50.7146 52.1244 53.6774 53.728 57.6181C54.7689 60.1772 55.1645 62.8449 54.9952 65.5947C54.9431 66.5664 54.8093 67.5321 54.5953 68.4815C54.5772 68.5591 54.5712 68.6394 54.5547 68.7514C54.7081 68.8973 54.8659 69.0519 55.0292 69.1999C56.2387 70.2872 57.2885 71.5389 58.1476 72.9183C59.1946 74.6158 59.8795 76.4438 60.132 78.4238C60.4114 80.619 60.1183 82.748 59.3486 84.8159C58.6188 86.7773 57.5171 88.5168 56.1518 90.0952C54.586 91.9041 52.7616 93.4142 50.7509 94.7041C47.9633 96.4923 44.9572 97.7991 41.7883 98.7508C37.2625 100.099 32.546 100.698 27.8259 100.526C24.2363 100.384 20.7162 99.831 17.2865 98.735C14.5931 97.877 12.032 96.6504 9.67666 95.0904C8.55901 94.3506 7.4441 93.6076 6.44424 92.7083C5.24879 91.6321 4.14812 90.4684 3.22496 89.15C2.16922 87.6421 1.42139 85.9873 0.882284 84.233C0.160938 81.903 -0.121958 79.46 0.0478785 77.0273C0.212239 74.6081 0.682858 72.2507 1.66409 70.014C1.76983 69.7725 1.86351 69.5261 1.97364 69.2868C2.4333 68.2919 2.50288 67.2561 2.28811 66.1956C2.11553 65.3422 1.92433 64.4927 1.73696 63.642C1.32829 61.7998 1.19354 59.9076 1.33701 58.0262C1.50137 55.8753 1.83995 53.7648 2.47548 51.7018C3.1773 49.4258 4.13224 47.2612 5.4274 45.255C6.19033 44.0807 7.08775 42.999 8.10154 42.0316C8.52559 41.6235 8.93594 41.2023 9.35013 40.7838C9.73364 40.3942 10.1281 40.0118 10.4974 39.6075C11.7323 38.2559 12.651 36.7218 13.1995 34.9686C13.6728 33.4568 14.0032 31.914 14.2804 30.358C14.6042 28.5414 14.7768 26.7068 14.9252 24.8684C15.1006 22.6874 15.3301 20.5114 15.7618 18.3632C16.1048 16.6548 16.5288 14.966 17.0816 13.3117C17.5019 12.06 18.0678 10.869 18.6102 9.67091C19.3487 8.04294 20.3252 6.53319 21.5079 5.19093C23.2994 3.15527 25.4432 1.62607 28.0275 0.758487C29.9381 0.108655 31.9657 -0.127695 33.9752 0.0651837C37.367 0.389709 40.3129 1.71731 42.8682 3.94419C42.987 4.04526 43.1163 4.13978 43.2528 4.2485ZM28.7666 97.6407C30.4328 97.664 32.099 97.5872 33.756 97.4107C35.9786 97.174 38.1776 96.7537 40.3304 96.1541C43.1383 95.3636 45.8223 94.278 48.3331 92.7837C50.3876 91.561 52.2624 90.1176 53.8447 88.3169C55.1596 86.8226 56.2005 85.17 56.8032 83.2627C57.5653 80.8528 57.488 78.474 56.5243 76.1297C55.7535 74.2552 54.5416 72.6981 53.0552 71.3416C52.6805 70.999 52.3244 70.6417 51.9748 70.2735C51.5228 69.7976 51.4045 69.2764 51.5678 68.6542C51.8024 67.7517 51.9617 66.8315 52.0438 65.9028C52.2389 63.7355 52.034 61.608 51.3365 59.5451C50.2331 56.284 48.2082 53.708 45.3725 51.7657C42.2567 49.6312 38.7652 48.6112 35.0232 48.3861C33.2964 48.2823 31.5717 48.3369 29.8563 48.609C29.6353 48.6411 29.4127 48.6617 29.1895 48.6707C28.3414 48.7166 27.3958 47.8075 27.6133 46.7853C27.6783 46.4463 27.7958 46.1195 27.9618 45.8167C28.4351 44.9884 28.9452 44.1853 29.5435 43.4384C30.7115 41.9797 31.9793 40.6111 33.2816 39.2721C34.626 37.8904 35.9815 36.5196 37.3089 35.1199C38.9903 33.3509 40.5107 31.4523 41.8015 29.3768C43.2095 27.1095 44.3408 24.716 45.0919 22.1509C45.5679 20.5561 45.818 18.9027 45.8349 17.2388C45.8573 15.2058 45.4601 13.1899 44.6679 11.3165C43.4407 8.42526 41.499 6.1432 38.7706 4.5621C36.3135 3.14162 33.6634 2.6215 30.849 3.04437C28.6197 3.37872 26.6754 4.3381 24.9825 5.81485C24.3382 6.37648 23.7771 7.01352 23.2167 7.65874C22.345 8.66564 21.6624 9.78946 21.1068 10.9859C20.7496 11.7568 20.4379 12.5507 20.1464 13.3494C18.7724 17.1104 18.1401 21.0189 17.8366 24.9924C17.7577 26.0223 17.6761 27.0532 17.5556 28.0792C17.3235 30.0708 16.9689 32.0463 16.4938 33.9944C16.1996 35.1964 15.8363 36.3759 15.34 37.5118C14.6321 39.1284 13.6076 40.5319 12.3974 41.806C11.7547 42.4824 11.0929 43.1407 10.4437 43.8116C9.5397 44.7464 8.68776 45.7238 7.95361 46.8006C6.58942 48.798 5.67668 50.9987 5.03951 53.3173C4.53527 55.1354 4.27387 57.0119 4.26208 58.8982C4.25441 60.2602 4.34426 61.6091 4.6171 62.946C4.82803 63.9775 5.04389 65.009 5.21263 66.0481C5.41315 67.2845 5.36494 68.5132 4.92007 69.7031C4.76393 70.1205 4.60888 70.539 4.42699 70.9449C3.58108 72.8145 3.15922 74.7912 2.98445 76.8192C2.83105 78.6046 2.9209 80.384 3.33618 82.1356C3.67915 83.5796 4.14922 84.9766 4.86638 86.2878C5.8257 88.0361 7.14715 89.4827 8.64667 90.7825C9.55394 91.5703 10.5675 92.2084 11.5701 92.8651C13.5879 94.1856 15.7564 95.1838 18.0453 95.929C21.5243 97.0632 25.109 97.579 28.7666 97.6407ZM31.7744 45.4288C31.9935 45.508 32.2198 45.4605 32.4406 45.4561C33.6804 45.4315 34.9197 45.4135 36.154 45.5621C36.7183 45.6304 37.2832 45.6981 37.8448 45.7844C38.0639 45.8183 38.2447 45.8041 38.3926 45.626C38.4573 45.5484 38.5367 45.4834 38.6079 45.4107C39.3399 44.6783 40.1344 44.0107 40.9824 43.4155C42.4709 42.3529 44.0252 41.3941 45.5905 40.4494C47.4324 39.3371 49.2875 38.2428 51.0955 37.0769C53.9806 35.2193 56.5391 32.9793 58.7109 30.3077C59.9825 28.7425 61.104 27.0843 61.9433 25.2448C63.2828 22.3083 63.7764 19.2526 63.2034 16.0565C62.6665 13.0517 61.3341 10.4473 59.1004 8.35314C56.4586 5.87768 53.3127 4.75004 49.6771 5.07784C48.2225 5.20896 46.8577 5.65696 45.5582 6.31256C45.4568 6.36392 45.3242 6.39779 45.3149 6.57809C45.4245 6.74199 45.5511 6.92774 45.676 7.11077C47.3744 9.61081 48.3605 12.3736 48.6591 15.3719C48.8826 17.6294 48.6739 19.8634 48.1222 22.0646C47.3618 25.0984 46.0863 27.9104 44.4734 30.5826C43.0835 32.8837 41.4311 34.9882 39.5875 36.9408C38.0694 38.5487 36.5096 40.1178 34.9695 41.7055C33.9521 42.755 32.9682 43.8362 32.0461 44.9693C31.9354 45.1059 31.7711 45.2173 31.7744 45.4288Z" fill="#F8FCE1"/>
<path d="M43.1739 76.3379C43.1191 78.2533 42.8791 79.9289 42.2074 81.5221C41.7856 82.5219 41.2459 83.4457 40.4324 84.1822C39.3542 85.1574 38.0908 85.6961 36.6241 85.718C35.2818 85.7382 34.1784 85.2126 33.2865 84.2292C32.565 83.4337 32.0894 82.4946 31.7591 81.486C31.1614 79.6701 30.9743 77.7449 31.2112 75.8483C31.3114 75.019 31.4709 74.2093 31.8089 73.4412C31.9563 73.1083 32.1364 72.7908 32.3464 72.4933C32.7518 71.9202 33.3167 71.7131 34.0026 71.8961C34.414 72.0054 34.8244 72.125 35.2254 72.2676C36.4543 72.7047 37.7232 72.8058 39.009 72.6949C39.4473 72.6566 39.8801 72.5113 40.3113 72.4009C40.5069 72.3507 40.6948 72.2622 40.8849 72.1966C41.7105 71.9169 42.3143 72.1966 42.6348 73.0128C42.8589 73.5821 42.9778 74.1798 43.0479 74.783C43.1186 75.3659 43.1448 75.9532 43.1739 76.3379Z" fill="#F8FCE1"/>
<path d="M47.3618 66.4759C47.3519 67.3467 47.1542 68.0816 46.7296 68.747C46.4184 69.2354 46.0086 69.6157 45.459 69.8359C44.6088 70.1768 43.828 70.0391 43.1098 69.4993C42.7053 69.1886 42.3923 68.7749 42.2036 68.3018C41.7051 67.1157 41.7489 65.929 42.2584 64.7648C42.4737 64.2797 42.8196 63.8636 43.2577 63.5628C44.24 62.8728 45.4492 62.9618 46.3192 63.7988C46.9312 64.3878 47.2215 65.1303 47.3317 65.953C47.358 66.1541 47.3552 66.3579 47.3618 66.4759Z" fill="#F8FCE1"/>
<path d="M23.2759 66.8873C23.306 65.8394 23.535 64.9554 24.2017 64.2277C24.5223 63.8781 24.8954 63.6093 25.3523 63.4672C26.2015 63.205 26.9548 63.3956 27.6248 63.9524C27.9533 64.2266 28.2131 64.5734 28.3836 64.9653C28.9638 66.2721 28.9112 67.5637 28.2406 68.8208C27.9278 69.4081 27.4643 69.8534 26.8299 70.1003C26.0492 70.4046 25.3112 70.3003 24.6335 69.8271C23.8314 69.271 23.4682 68.4515 23.3224 67.5194C23.2863 67.2834 23.2863 67.0386 23.2759 66.8873Z" fill="#F8FCE1"/>
</svg>
