<svg width="117" height="88" viewBox="0 0 117 88" fill="none" xmlns="http://www.w3.org/2000/svg">
<mask id="path-1-inside-1_89_28336" fill="white">
<path d="M9.20628 48.9098C9.15376 48.6808 9.11971 48.4762 9.06058 48.2744C8.43 46.1834 8.15288 44.0385 8.11941 41.862C8.0562 37.8021 8.85765 33.9007 10.3283 30.1293C12.4003 24.8172 15.4489 20.1126 19.2368 15.8734C22.699 12.0036 26.6683 8.75967 31.2536 6.29054C34.9185 4.31278 38.8784 2.93888 42.9807 2.22172C46.3409 1.63192 49.7329 1.40819 53.1423 1.41175C56.8467 1.41645 60.5392 1.69897 64.2342 1.99226C67.6845 2.26682 71.1339 2.56048 74.587 2.78756C76.812 2.93266 79.0371 3.00898 81.2679 2.91849C83.0159 2.84008 84.7442 2.51633 86.402 1.95673C87.7748 1.50293 89.1365 1.02747 90.4294 0.363738C90.9386 0.096057 91.5111 -0.0278879 92.0854 0.00520188C93.2347 0.073475 94.0541 0.98375 93.9329 2.12935C93.8656 2.78857 93.732 3.43932 93.534 4.0717C92.2267 8.14351 90.9907 12.2398 89.4541 16.2342C89.3999 16.3736 89.3597 16.5181 89.2932 16.7193C89.5913 16.7439 89.8556 16.7724 90.1196 16.7867C95.0191 17.0593 99.6047 18.3758 103.836 20.8807C104.978 21.5574 106.05 22.3381 107.103 23.1427C108.67 24.3432 109.986 25.7798 111.176 27.3428C111.393 27.6302 111.619 27.913 111.843 28.1974C113.138 29.8466 114.064 31.6974 114.828 33.6384C115.492 35.331 115.907 37.0906 116.17 38.8813C116.449 40.7943 116.451 42.7203 116.294 44.6488C115.982 48.4812 114.923 52.106 113.211 55.5367C109.837 62.2895 104.914 67.6122 98.4397 71.5049C96.7802 72.5074 95.0108 73.2554 93.1987 73.9158C91.7 74.4627 90.1957 74.992 88.688 75.5168C87.7215 75.8533 86.757 76.2022 85.7735 76.4813C84.761 76.7694 83.735 77.0281 82.6992 77.2142C80.2311 77.6569 77.7419 77.8497 75.2353 77.6928C71.7363 77.4732 68.2938 76.949 64.9662 75.7892C62.4054 74.8914 59.9508 73.7154 57.6465 72.2821C57.4158 72.1393 57.1872 71.9929 56.955 71.8534C56.8997 71.8279 56.8416 71.809 56.7818 71.7971C56.6285 71.7877 56.5872 71.9173 56.537 72.018C54.5526 75.8498 51.6675 78.8708 48.1463 81.3137C45.616 83.0601 42.8579 84.4511 39.9493 85.4475C35.5573 86.9776 30.9197 87.6801 26.2716 87.5194C24.766 87.4761 23.2674 87.3942 21.7835 87.1223C17.9969 86.4298 14.3554 85.3148 11.001 83.3721C9.37933 82.4439 7.84976 81.3632 6.43308 80.1448C6.31975 80.0461 6.20864 79.9438 6.10499 79.8346C4.12125 77.7455 2.40971 75.4723 1.33066 72.7668C-0.297106 68.69 -0.423113 64.5606 0.905314 60.3865C2.05454 56.7757 4.10486 53.7261 6.80148 51.099C7.55588 50.3645 8.35808 49.6802 9.20628 48.9098ZM88.3476 5.91986C88.0848 5.98012 87.8766 6.0082 87.682 6.07248C85.2061 6.92657 82.653 7.27235 80.0426 7.26247C76.3082 7.24879 72.5836 7.03408 68.8624 6.7317C64.9927 6.41801 61.1246 6.07521 57.2464 5.84284C53.0625 5.59286 48.8824 5.66927 44.7255 6.31476C41.975 6.74209 39.298 7.4307 36.719 8.47469C32.8884 10.0256 29.4363 12.2024 26.3307 14.9181C22.0434 18.6672 18.5637 23.0542 15.9765 28.1397C14.6157 30.8143 13.5864 33.6002 13.0499 36.5574C12.4253 40.0071 12.4374 43.4454 13.2144 46.8738C13.3692 47.5488 13.5329 48.2232 13.721 48.889C13.9936 49.8536 13.7644 50.677 13.0688 51.3746C12.8142 51.6287 12.5231 51.8459 12.2482 52.0805C11.4701 52.7448 10.6592 53.3744 9.92089 54.0803C7.79969 56.1054 6.14196 58.4543 5.16898 61.2417C3.74711 65.3148 4.08852 69.2399 6.23858 72.9906C7.59882 75.3633 9.50033 77.2256 11.7491 78.7499C13.9632 80.2518 16.3782 81.3208 18.9474 82.0475C24.1557 83.522 29.4072 83.5597 34.6797 82.4566C36.6858 82.0346 38.6448 81.4135 40.5276 80.6027C43.2856 79.4201 45.8336 77.895 48.0795 75.8897C50.3819 73.8343 52.2176 71.4409 53.3698 68.5549C53.4776 68.2735 53.6018 67.9987 53.7419 67.732C53.8817 67.4654 54.0471 67.2131 54.2358 66.9786C54.9033 66.1816 55.9846 65.973 56.8342 66.534C57.0361 66.6661 57.2534 66.7765 57.4428 66.9235C58.1798 67.5012 59.009 67.9369 59.8217 68.399C61.2603 69.2228 62.7621 69.9311 64.3129 70.5171C70.891 72.9986 77.6268 73.3656 84.4882 72.0131C86.5265 71.6005 88.5266 71.0182 90.4679 70.2725C92.6152 69.4754 94.6826 68.4776 96.6425 67.2924C98.9014 65.9041 100.998 64.268 102.894 62.4143C105.024 60.3388 106.868 58.0499 108.35 55.4775C110.868 51.1062 112.284 46.4441 112.01 41.3368C111.855 38.1959 110.966 35.1349 109.416 32.399C107.305 28.6542 104.162 25.9845 100.458 23.9617C96.7382 21.9299 92.6917 21.0725 88.4644 21.0683C88.1091 21.0681 87.7536 21.1028 87.3779 21.1224C87.1711 21.5621 86.9796 21.9695 86.7902 22.3765C85.6108 24.9195 84.3465 27.4185 82.9056 29.8265C79.7693 35.0904 75.81 39.8179 71.1782 43.8293C66.3999 47.9714 61.2051 51.4872 55.5265 54.2804C53.8496 55.1054 52.1475 55.8827 50.3724 56.4574C47.2709 57.4641 44.011 57.8933 40.7546 57.7239C39.4894 57.6586 38.2407 57.4078 37.0484 56.9797C35.5941 56.4743 34.2153 55.7734 32.9498 54.8963C28.8235 51.9963 26.7322 48.0341 26.8584 42.9709C26.9198 40.496 27.6154 38.1637 28.7064 35.947C29.8613 33.6 31.3956 31.5236 33.218 29.6592C36.713 26.0872 40.8673 23.5415 45.5376 21.8291C47.9721 20.9332 50.5061 20.336 53.0844 20.0504C55.6425 19.7662 58.1921 19.7908 60.7324 20.2165C61.1493 20.2784 61.5592 20.3811 61.956 20.5232C62.4321 20.7059 62.8269 21.0531 63.0688 21.502C63.3108 21.9508 63.3839 22.4714 63.2748 22.9695C63.1658 23.4676 62.8818 23.9101 62.4745 24.2168C62.0671 24.5235 61.5634 24.674 61.0545 24.6411C60.7842 24.6201 60.5156 24.5807 60.2506 24.5231C57.7679 24.0554 55.2738 24.0717 52.7884 24.4322C50.6681 24.7346 48.5885 25.2737 46.5884 26.0397C43.3009 27.3058 40.2952 29.0531 37.6489 31.392C35.764 33.0599 34.1444 34.9556 32.9282 37.1731C32.036 38.8 31.4067 40.5185 31.2233 42.3752C30.8837 45.8125 32.0285 48.6495 34.7162 50.8357C35.946 51.8385 37.343 52.5355 38.8454 53.0231C39.907 53.3677 40.9801 53.6674 42.1097 53.6759C43.0734 53.6824 44.0357 53.6004 44.9844 53.431C46.9844 53.079 48.8805 52.3865 50.7647 51.6681C52.4811 51.0123 54.1252 50.1894 55.7429 49.3174C60.7569 46.6125 65.4157 43.2956 69.6125 39.4428C74.2978 35.1391 78.0262 30.1026 80.9583 24.4648C83.9418 18.7277 86.3295 12.7523 88.2002 6.56584C88.2601 6.37526 88.292 6.17521 88.3476 5.91986Z"/>
</mask>
<path d="M9.20628 48.9098C9.15376 48.6808 9.11971 48.4762 9.06058 48.2744C8.43 46.1834 8.15288 44.0385 8.11941 41.862C8.0562 37.8021 8.85765 33.9007 10.3283 30.1293C12.4003 24.8172 15.4489 20.1126 19.2368 15.8734C22.699 12.0036 26.6683 8.75967 31.2536 6.29054C34.9185 4.31278 38.8784 2.93888 42.9807 2.22172C46.3409 1.63192 49.7329 1.40819 53.1423 1.41175C56.8467 1.41645 60.5392 1.69897 64.2342 1.99226C67.6845 2.26682 71.1339 2.56048 74.587 2.78756C76.812 2.93266 79.0371 3.00898 81.2679 2.91849C83.0159 2.84008 84.7442 2.51633 86.402 1.95673C87.7748 1.50293 89.1365 1.02747 90.4294 0.363738C90.9386 0.096057 91.5111 -0.0278879 92.0854 0.00520188C93.2347 0.073475 94.0541 0.98375 93.9329 2.12935C93.8656 2.78857 93.732 3.43932 93.534 4.0717C92.2267 8.14351 90.9907 12.2398 89.4541 16.2342C89.3999 16.3736 89.3597 16.5181 89.2932 16.7193C89.5913 16.7439 89.8556 16.7724 90.1196 16.7867C95.0191 17.0593 99.6047 18.3758 103.836 20.8807C104.978 21.5574 106.05 22.3381 107.103 23.1427C108.67 24.3432 109.986 25.7798 111.176 27.3428C111.393 27.6302 111.619 27.913 111.843 28.1974C113.138 29.8466 114.064 31.6974 114.828 33.6384C115.492 35.331 115.907 37.0906 116.17 38.8813C116.449 40.7943 116.451 42.7203 116.294 44.6488C115.982 48.4812 114.923 52.106 113.211 55.5367C109.837 62.2895 104.914 67.6122 98.4397 71.5049C96.7802 72.5074 95.0108 73.2554 93.1987 73.9158C91.7 74.4627 90.1957 74.992 88.688 75.5168C87.7215 75.8533 86.757 76.2022 85.7735 76.4813C84.761 76.7694 83.735 77.0281 82.6992 77.2142C80.2311 77.6569 77.7419 77.8497 75.2353 77.6928C71.7363 77.4732 68.2938 76.949 64.9662 75.7892C62.4054 74.8914 59.9508 73.7154 57.6465 72.2821C57.4158 72.1393 57.1872 71.9929 56.955 71.8534C56.8997 71.8279 56.8416 71.809 56.7818 71.7971C56.6285 71.7877 56.5872 71.9173 56.537 72.018C54.5526 75.8498 51.6675 78.8708 48.1463 81.3137C45.616 83.0601 42.8579 84.4511 39.9493 85.4475C35.5573 86.9776 30.9197 87.6801 26.2716 87.5194C24.766 87.4761 23.2674 87.3942 21.7835 87.1223C17.9969 86.4298 14.3554 85.3148 11.001 83.3721C9.37933 82.4439 7.84976 81.3632 6.43308 80.1448C6.31975 80.0461 6.20864 79.9438 6.10499 79.8346C4.12125 77.7455 2.40971 75.4723 1.33066 72.7668C-0.297106 68.69 -0.423113 64.5606 0.905314 60.3865C2.05454 56.7757 4.10486 53.7261 6.80148 51.099C7.55588 50.3645 8.35808 49.6802 9.20628 48.9098ZM88.3476 5.91986C88.0848 5.98012 87.8766 6.0082 87.682 6.07248C85.2061 6.92657 82.653 7.27235 80.0426 7.26247C76.3082 7.24879 72.5836 7.03408 68.8624 6.7317C64.9927 6.41801 61.1246 6.07521 57.2464 5.84284C53.0625 5.59286 48.8824 5.66927 44.7255 6.31476C41.975 6.74209 39.298 7.4307 36.719 8.47469C32.8884 10.0256 29.4363 12.2024 26.3307 14.9181C22.0434 18.6672 18.5637 23.0542 15.9765 28.1397C14.6157 30.8143 13.5864 33.6002 13.0499 36.5574C12.4253 40.0071 12.4374 43.4454 13.2144 46.8738C13.3692 47.5488 13.5329 48.2232 13.721 48.889C13.9936 49.8536 13.7644 50.677 13.0688 51.3746C12.8142 51.6287 12.5231 51.8459 12.2482 52.0805C11.4701 52.7448 10.6592 53.3744 9.92089 54.0803C7.79969 56.1054 6.14196 58.4543 5.16898 61.2417C3.74711 65.3148 4.08852 69.2399 6.23858 72.9906C7.59882 75.3633 9.50033 77.2256 11.7491 78.7499C13.9632 80.2518 16.3782 81.3208 18.9474 82.0475C24.1557 83.522 29.4072 83.5597 34.6797 82.4566C36.6858 82.0346 38.6448 81.4135 40.5276 80.6027C43.2856 79.4201 45.8336 77.895 48.0795 75.8897C50.3819 73.8343 52.2176 71.4409 53.3698 68.5549C53.4776 68.2735 53.6018 67.9987 53.7419 67.732C53.8817 67.4654 54.0471 67.2131 54.2358 66.9786C54.9033 66.1816 55.9846 65.973 56.8342 66.534C57.0361 66.6661 57.2534 66.7765 57.4428 66.9235C58.1798 67.5012 59.009 67.9369 59.8217 68.399C61.2603 69.2228 62.7621 69.9311 64.3129 70.5171C70.891 72.9986 77.6268 73.3656 84.4882 72.0131C86.5265 71.6005 88.5266 71.0182 90.4679 70.2725C92.6152 69.4754 94.6826 68.4776 96.6425 67.2924C98.9014 65.9041 100.998 64.268 102.894 62.4143C105.024 60.3388 106.868 58.0499 108.35 55.4775C110.868 51.1062 112.284 46.4441 112.01 41.3368C111.855 38.1959 110.966 35.1349 109.416 32.399C107.305 28.6542 104.162 25.9845 100.458 23.9617C96.7382 21.9299 92.6917 21.0725 88.4644 21.0683C88.1091 21.0681 87.7536 21.1028 87.3779 21.1224C87.1711 21.5621 86.9796 21.9695 86.7902 22.3765C85.6108 24.9195 84.3465 27.4185 82.9056 29.8265C79.7693 35.0904 75.81 39.8179 71.1782 43.8293C66.3999 47.9714 61.2051 51.4872 55.5265 54.2804C53.8496 55.1054 52.1475 55.8827 50.3724 56.4574C47.2709 57.4641 44.011 57.8933 40.7546 57.7239C39.4894 57.6586 38.2407 57.4078 37.0484 56.9797C35.5941 56.4743 34.2153 55.7734 32.9498 54.8963C28.8235 51.9963 26.7322 48.0341 26.8584 42.9709C26.9198 40.496 27.6154 38.1637 28.7064 35.947C29.8613 33.6 31.3956 31.5236 33.218 29.6592C36.713 26.0872 40.8673 23.5415 45.5376 21.8291C47.9721 20.9332 50.5061 20.336 53.0844 20.0504C55.6425 19.7662 58.1921 19.7908 60.7324 20.2165C61.1493 20.2784 61.5592 20.3811 61.956 20.5232C62.4321 20.7059 62.8269 21.0531 63.0688 21.502C63.3108 21.9508 63.3839 22.4714 63.2748 22.9695C63.1658 23.4676 62.8818 23.9101 62.4745 24.2168C62.0671 24.5235 61.5634 24.674 61.0545 24.6411C60.7842 24.6201 60.5156 24.5807 60.2506 24.5231C57.7679 24.0554 55.2738 24.0717 52.7884 24.4322C50.6681 24.7346 48.5885 25.2737 46.5884 26.0397C43.3009 27.3058 40.2952 29.0531 37.6489 31.392C35.764 33.0599 34.1444 34.9556 32.9282 37.1731C32.036 38.8 31.4067 40.5185 31.2233 42.3752C30.8837 45.8125 32.0285 48.6495 34.7162 50.8357C35.946 51.8385 37.343 52.5355 38.8454 53.0231C39.907 53.3677 40.9801 53.6674 42.1097 53.6759C43.0734 53.6824 44.0357 53.6004 44.9844 53.431C46.9844 53.079 48.8805 52.3865 50.7647 51.6681C52.4811 51.0123 54.1252 50.1894 55.7429 49.3174C60.7569 46.6125 65.4157 43.2956 69.6125 39.4428C74.2978 35.1391 78.0262 30.1026 80.9583 24.4648C83.9418 18.7277 86.3295 12.7523 88.2002 6.56584C88.2601 6.37526 88.292 6.17521 88.3476 5.91986Z" fill="#F8FCE1" stroke="#F8FCE1" stroke-width="7.9879" mask="url(#path-1-inside-1_89_28336)"/>
</svg>
