<svg width="38" height="38" viewBox="0 0 38 38" fill="none" xmlns="http://www.w3.org/2000/svg">
<path fill-rule="evenodd" clip-rule="evenodd" d="M1.3896 0.11676C0.652105 0.345926 2.11507e-05 1.23134 2.11507e-05 2.00218C2.11507e-05 2.76676 -0.0645618 2.67301 6.94377 12.023L13.7563 21.1105C13.7959 21.1626 11.5063 23.8438 8.08544 27.7563C1.78335 34.9605 2.01044 34.6626 2.10835 35.623C2.16931 36.1643 2.43983 36.6601 2.86195 37.0044C3.28407 37.3486 3.82422 37.5138 4.36669 37.4647C5.23336 37.3668 5.10419 37.4959 10.9209 30.848C14.9146 26.2834 16.3792 24.6626 16.4479 24.7293C16.5 24.7813 18.6042 27.5668 21.125 30.923C25.3979 36.6084 25.7375 37.0355 26.1229 37.2313L26.5375 37.4418H35.9625L36.3771 37.2293C36.7822 37.0173 37.1049 36.676 37.294 36.2597C37.4831 35.8434 37.5277 35.3759 37.4209 34.9313C37.325 34.498 36.8084 33.7834 30.5625 25.4522C28.2914 22.4189 26.0184 19.387 23.7438 16.3563C23.7042 16.3043 25.9917 13.623 29.4125 9.71259C35.4604 2.80009 35.4167 2.85634 35.4167 2.06676C35.4167 0.883426 34.3021 -0.124907 33.1459 0.0125931C32.2479 0.118843 32.4104 -0.0436569 26.5792 6.61884C22.5854 11.1834 21.1209 12.8043 21.0521 12.7376C19.4831 10.6805 17.9241 8.61594 16.375 6.54384C12.1042 0.86051 11.7625 0.431343 11.3771 0.23551L10.9625 0.0250932L6.3771 0.00842676C2.5021 -0.00615657 1.72919 0.012593 1.3896 0.11676ZM20.3125 18.7334L31.25 33.3168H28.125L17.1875 18.7334L6.25002 4.15009H9.37502L20.3125 18.7334Z" fill="#E67C4F"/>
</svg>
