<svg width="30" height="38" viewBox="0 0 30 38" fill="none" xmlns="http://www.w3.org/2000/svg">
<path fill-rule="evenodd" clip-rule="evenodd" d="M18.04 0.112579C17.5921 0.250079 17.0192 0.766745 16.815 1.21675C16.688 1.498 16.6713 2.65216 16.6338 14.898L16.5921 28.273L16.3963 28.8563C15.7025 30.9209 14.165 32.4459 12.1338 33.0772C11.2296 33.3584 9.53795 33.3584 8.63379 33.0772C7.62904 32.7691 6.71511 32.2195 5.97201 31.4764C5.22891 30.7333 4.6793 29.8194 4.37129 28.8147C4.09004 27.9105 4.09004 26.2188 4.37129 25.3147C5.15462 22.798 7.34629 21.0188 9.87337 20.848C10.9588 20.7751 11.388 20.6292 11.8338 20.1834C12.2171 19.8022 12.4671 19.2272 12.4671 18.7313C12.4671 17.8688 11.815 17.0042 10.9817 16.7605C10.1734 16.5251 8.16087 16.7834 6.77962 17.3001C5.20592 17.8944 3.79703 18.8562 2.67036 20.1054C1.5437 21.3545 0.731872 22.8548 0.302536 24.4813C-0.199547 26.4251 -0.0682966 28.8876 0.633787 30.7147C1.16383 32.0857 1.9718 33.3322 3.00688 34.3759C4.04196 35.4196 5.28177 36.2379 6.64837 36.7792C8.92129 37.6751 11.8463 37.6751 14.1192 36.7792C15.6821 36.1629 17.0759 35.1833 18.1851 33.9215C19.2944 32.6597 20.0873 31.152 20.4984 29.523C20.7692 28.4397 20.8005 27.4209 20.8005 19.3938V11.3834L21.1963 11.7126C23.2484 13.4251 26.64 14.698 27.8296 14.2001C28.8213 13.7855 29.3775 12.5584 29.0088 11.5938C28.8442 11.1647 28.39 10.6147 28.0567 10.4438C27.7211 10.3127 27.3773 10.2035 27.0275 10.1167C25.4734 9.70424 24.3567 9.0605 23.2546 7.94175C21.7713 6.4355 20.9484 4.6355 20.8317 2.648C20.765 1.498 20.6255 1.06883 20.1692 0.614662C19.588 0.0334118 18.8567 -0.139505 18.04 0.112579Z" fill="#E67C4F"/>
</svg>
