<svg width="91" height="104" viewBox="0 0 91 104" fill="none" xmlns="http://www.w3.org/2000/svg">
<path d="M78.7151 64.329C78.4685 65.5875 78.2279 66.8145 77.9763 68.0974C78.0506 68.2192 78.1526 68.3924 78.2595 68.5634C79.2992 70.2287 80.029 72.0191 80.3992 73.9474C80.6826 75.3993 80.7618 76.8835 80.6348 78.3572C80.3416 81.6779 79.1667 84.6831 77.385 87.4703C75.7895 89.9658 73.8055 92.1193 71.5317 94.0082C70.7846 94.6292 69.9982 95.2025 69.224 95.7903C68.595 96.2679 67.9688 96.7511 67.3215 97.2027C65.5852 98.4142 63.6999 99.3468 61.737 100.127C59.3423 101.08 56.8745 101.787 54.3557 102.329C52.4918 102.73 50.6142 103.038 48.7229 103.253C47.5591 103.387 46.3815 103.453 45.2105 103.549C43.0248 103.727 40.8324 103.649 38.6467 103.64C38.1219 103.64 37.5937 103.563 37.0733 103.505C34.0491 103.164 31.0598 102.64 28.1343 101.789C25.2846 100.959 22.5409 99.8736 19.9594 98.3998C17.5326 97.0162 15.327 95.347 13.4494 93.2666C11.1079 90.6731 9.50024 87.6989 8.78146 84.2653C8.3636 82.2662 8.29765 80.2517 8.52431 78.2261C8.81027 75.668 9.55012 73.2389 10.6302 70.9089C10.6433 70.8707 10.6597 70.8337 10.679 70.7982C10.8901 70.4872 10.8924 70.1618 10.7782 69.8137C10.4795 68.9038 10.3903 67.9552 10.2711 67.0121C10.2562 66.892 10.2412 66.7719 10.2157 66.6535C10.2085 66.6197 10.1675 66.5931 10.1187 66.5367C9.94692 66.6064 9.76348 66.6778 9.58226 66.7547C8.52154 67.2047 7.41815 67.4189 6.26378 67.3547C4.55355 67.2578 3.14868 66.5361 2.02313 65.2654C1.14474 64.2731 0.620476 63.0981 0.312347 61.8196C-0.0678259 60.2429 -0.0794622 58.6539 0.16161 57.0572C0.580576 54.28 1.64517 51.7723 3.32381 49.5242C4.27701 48.2474 5.39869 47.1444 6.74426 46.2799C6.81132 46.2368 6.87228 46.1836 6.96593 46.1139C6.88779 45.991 6.81797 45.8742 6.74426 45.7619C5.48791 43.8868 4.59844 41.8656 4.31193 39.6109C3.84863 35.9636 4.92154 32.7736 7.2386 29.9687C8.66674 28.2408 10.4357 26.9386 12.4136 25.9053C12.6103 25.8018 12.8076 25.6983 13.0038 25.5942C13.0216 25.5812 13.0379 25.5664 13.0526 25.55C13.1512 25.338 13.0919 25.1138 13.0853 24.8952C13.0127 22.4551 13.4411 20.1057 14.325 17.8305C15.1732 15.6574 16.3524 13.6281 17.8208 11.8145C21.3011 7.48873 25.5795 4.19848 30.7112 2.04279C33.0665 1.04924 35.5558 0.408445 38.0986 0.141144C39.9601 -0.0547769 41.8205 -0.035404 43.6826 0.129524C46.7029 0.396839 49.6434 1.06651 52.5385 1.93321C55.1177 2.70804 57.6792 3.53821 60.249 4.34458C62.4524 5.03529 64.673 5.6629 66.9297 6.15879C67.9218 6.36843 68.9365 6.45155 69.9495 6.40618C71.2075 6.3608 72.4533 6.22022 73.6803 5.92357C73.9382 5.86889 74.2032 5.85451 74.4656 5.88096C75.4692 5.95955 76.0117 6.80466 75.6515 7.74276C75.4941 8.15931 75.3012 8.56165 75.0752 8.9454C73.6121 11.3955 72.1973 13.8761 70.5956 16.2421C70.5656 16.292 70.5385 16.3438 70.5147 16.397C70.548 16.5631 70.6904 16.5498 70.8007 16.5802C72.5619 17.061 74.2512 17.7734 75.8244 18.6988C78.5205 20.2994 80.7146 22.4114 82.381 25.074C83.649 27.0996 84.3927 29.3057 84.7009 31.66C85.0107 34.026 84.7302 36.3422 84.0303 38.6158C83.7222 39.6224 83.3313 40.6018 82.8615 41.5441C82.7623 41.7411 82.6664 41.9403 82.5556 42.1661C82.6792 42.2768 82.7922 42.3875 82.9169 42.4822C85.5133 44.4845 87.5167 46.9701 88.9615 49.9061C89.7117 51.4122 90.2357 53.0204 90.5165 54.6791C90.7997 56.3947 90.7936 58.1055 90.3131 59.7935C89.9507 61.0614 89.3433 62.191 88.4095 63.1335C87.2867 64.2681 85.9156 64.9095 84.3489 65.1525C82.6836 65.411 81.0792 65.1392 79.5081 64.6029C79.2404 64.5133 78.9772 64.4197 78.7151 64.329ZM17.9078 53.2274C17.8508 53.2818 17.7971 53.3396 17.7471 53.4006C16.0203 55.9254 14.6814 58.6357 13.8473 61.5839C13.3596 63.3073 13.0903 65.0606 13.1712 66.8588C13.2155 67.8378 13.3801 68.7892 13.7764 69.6902C14.013 70.2298 13.9725 70.734 13.701 71.2598C12.3477 73.8787 11.4876 76.6377 11.3257 79.5992C11.2568 80.8326 11.3322 82.0697 11.5502 83.2857C12.0246 85.929 13.1462 88.2822 14.8077 90.3848C16.3567 92.3456 18.2437 93.9268 20.3496 95.2551C22.7991 96.7965 25.4382 97.92 28.1952 98.7806C30.2275 99.4065 32.3017 99.8874 34.4022 100.22C35.3615 100.375 36.3263 100.496 37.2922 100.607C38.3197 100.721 39.3533 100.74 40.3868 100.756C42.3331 100.787 44.2778 100.743 46.2174 100.587C48.0554 100.448 49.885 100.216 51.6995 99.8925C53.5915 99.5466 55.468 99.1614 57.2968 98.5387C60.1631 97.563 62.9146 96.3476 65.5027 94.7753C68.1484 93.1648 70.5502 91.2553 72.6218 88.9464C73.9668 87.4471 75.1206 85.8155 76.0234 84.0113C76.9849 82.0902 77.61 80.0707 77.7547 77.9233C77.9453 75.0913 77.2836 72.4636 75.7624 70.0594C75.6111 69.8197 75.4548 69.5829 75.2902 69.3526C75.0436 69.0089 74.9167 68.6331 74.9743 68.2114C75.0203 67.8716 75.0613 67.5274 75.1544 67.1992C75.6327 65.515 75.8499 63.7927 75.9253 62.0521C75.9746 60.7369 75.9075 59.4199 75.7247 58.1165C75.5374 56.7274 75.2204 55.3714 74.6961 54.0703C74.3547 53.2229 73.9346 52.4155 73.32 51.7253C73.2243 51.6278 73.1235 51.5354 73.018 51.4486C72.8091 51.5521 72.6234 51.6329 72.4478 51.7319C71.0506 52.5228 69.5593 53.0995 68.048 53.6214C66.4354 54.1782 64.7661 54.5069 63.0725 54.7062C62.1304 54.8169 61.1789 54.8982 60.2323 54.9967C58.2349 55.2125 56.2169 55.1441 54.2388 54.7936C51.771 54.3509 49.4262 53.5207 47.1934 52.3894C45.0254 51.2903 43.1112 49.8375 41.3822 48.1351C41.2126 47.969 41.0657 47.7709 40.8213 47.637C40.7188 47.7416 40.6213 47.8395 40.5259 47.9386C40.1746 48.3028 39.8382 48.6824 39.473 49.03C37.8658 50.5509 36.0071 51.6866 33.9627 52.5223C31.772 53.4183 29.4931 53.9374 27.1334 54.1356C24.6463 54.3438 22.1421 54.1827 19.7023 53.6574C19.111 53.5229 18.5224 53.3729 17.9078 53.2274ZM71.4425 9.32507C71.3543 9.27913 71.3361 9.26142 71.3183 9.26198C71.0351 9.27028 70.7514 9.27747 70.4682 9.29241C68.8068 9.37713 67.1419 9.21845 65.5265 8.82143C62.8664 8.17556 60.2473 7.40516 57.647 6.56059C55.259 5.78577 52.8727 5.00485 50.4476 4.35068C47.4677 3.54707 44.4524 2.95488 41.3517 2.89953C40.1152 2.87088 38.8785 2.94195 37.6536 3.11206C34.7369 3.53212 31.9892 4.46911 29.3962 5.86491C26.0417 7.67192 23.1222 10.0158 20.6705 12.9374C18.8511 15.1053 17.4678 17.5039 16.6925 20.238C16.2203 21.9156 15.9962 23.6532 16.0275 25.3955C16.0308 25.638 16.0596 25.8798 16.0751 26.1222C16.1206 26.8091 15.8612 27.3487 15.276 27.7162C15.0518 27.854 14.8183 27.9761 14.5772 28.0814C13.7259 28.4593 12.9098 28.912 12.1387 29.4341C10.7483 30.3749 9.55233 31.5161 8.64347 32.9357C7.35941 34.9414 6.85288 37.1192 7.22419 39.4852C7.43677 40.8076 7.90529 42.0759 8.60356 43.2193C9.7729 45.1664 11.3706 46.6989 13.2621 47.932C16.4974 50.0406 20.0786 51.0789 23.9141 51.2875C25.3926 51.3695 26.8755 51.2966 28.3388 51.07C30.2324 50.7761 32.0563 50.257 33.7831 49.4218C35.9544 48.3703 37.8099 46.9363 39.1848 44.9278C39.2826 44.7746 39.3939 44.6303 39.5173 44.4967C39.6825 44.3195 39.8669 44.1611 40.0671 44.0246C40.45 43.7828 40.8745 43.7435 41.2863 43.9394C41.4814 44.0318 41.6537 44.1884 41.8116 44.3417C42.2617 44.779 42.6834 45.245 43.1417 45.67C47.3707 49.594 52.4244 51.5559 58.1414 51.9074C61.2842 52.0898 64.4342 51.7028 67.439 50.7651C69.2317 50.1824 70.9486 49.3889 72.5536 48.4013C75.2037 46.7813 77.4366 44.733 79.1595 42.1473C80.6913 39.8461 81.6284 37.3323 81.8307 34.5651C81.9596 32.7636 81.7211 30.9548 81.1297 29.2481C80.2513 26.6613 78.6292 24.5825 76.6053 22.8159C74.4439 20.9276 71.8908 19.772 69.0916 19.1571C68.9165 19.1183 68.7347 19.11 68.5457 19.0868C68.4304 19.2229 68.324 19.3436 68.2248 19.467C67.3664 20.5186 66.5323 21.5884 65.6462 22.615C63.1523 25.5001 60.3127 27.9907 57.0729 30.008C52.1245 33.0885 46.7872 35.2104 41.0613 36.3317C40.1485 36.5104 39.2208 36.6588 38.2942 36.7075C36.5674 36.7994 34.8538 36.6156 33.168 36.2232C32.0967 35.9742 31.0765 35.5923 30.1454 34.9918C29.2726 34.4284 28.4651 33.7853 27.7718 33.0127C25.4587 30.4336 24.6917 27.4693 25.6205 24.1132C26.0417 22.5912 26.8109 21.2397 27.8018 20.0133C28.8901 18.675 30.1868 17.5201 31.6423 16.5929C35.2284 14.2823 39.1837 13.1937 43.4249 13.0736C44.8475 13.0337 46.259 13.1765 47.6572 13.43C48.9136 13.6562 50.1405 14.0227 51.3149 14.5225C51.559 14.6211 51.7919 14.7452 52.0098 14.8928C52.2686 15.0761 52.4574 15.3417 52.5455 15.6461C52.6336 15.9504 52.6157 16.2757 52.4947 16.5686C52.2387 17.2067 51.6175 17.5648 50.9341 17.4491C50.7159 17.4069 50.5035 17.3389 50.3013 17.2466C48.8964 16.6378 47.4256 16.2803 45.9099 16.0965C44.27 15.8978 42.6341 15.9521 41.0009 16.1806C38.65 16.5127 36.4238 17.2183 34.3384 18.3551C32.8693 19.1565 31.5425 20.1461 30.4264 21.3991C29.5702 22.3621 28.8896 23.4314 28.4867 24.6644C28.1595 25.6269 28.0676 26.6535 28.2185 27.6586C28.4053 28.8729 28.9334 29.9277 29.7326 30.8514C30.5084 31.7525 31.4555 32.4371 32.4985 33.0027C33.444 33.5152 34.4515 33.7714 35.5188 33.8246C36.6116 33.8766 37.7069 33.8416 38.7941 33.72C40.3847 33.54 41.9581 33.2322 43.4991 32.7996C47.1158 31.8044 50.599 30.3769 53.873 28.548C55.9787 27.3701 57.9576 25.9791 59.7784 24.3971C61.6832 22.7462 63.3696 20.891 64.9557 18.9379C67.3226 16.0223 69.398 12.9098 71.2734 9.65935C71.3333 9.5553 71.382 9.44682 71.4436 9.32507H71.4425ZM75.6293 49.9022C75.7014 50.0085 75.7635 50.1109 75.8366 50.205C76.5349 51.1099 77.0481 52.1155 77.4626 53.1748C78.213 55.093 78.5915 57.0926 78.7577 59.1376C78.7838 59.4597 78.8037 59.783 78.8215 60.1062C78.8398 60.4476 78.852 60.7897 78.8664 61.1328C79.3208 61.4444 79.8151 61.6237 80.3073 61.8069C81.2826 62.1711 82.2879 62.3875 83.3359 62.3421C85.3038 62.2569 86.702 61.223 87.3665 59.4592C87.5972 58.832 87.7325 58.1738 87.7677 57.5066C87.8653 55.9686 87.6098 54.4804 87.1099 53.0348C86.0254 49.8989 84.1622 47.2972 81.6296 45.1653C81.4317 44.9992 81.2383 44.8177 80.9645 44.702C80.4236 45.3341 79.9116 45.9811 79.3446 46.5838C78.7777 47.1865 78.1808 47.7648 77.559 48.3161C76.9372 48.8673 76.2844 49.3676 75.6305 49.9022H75.6293ZM15.0394 52.1996C14.4647 51.9146 13.9337 51.6677 13.4189 51.3905C12.9041 51.1132 12.392 50.8193 11.8982 50.5049C11.3878 50.1767 10.8907 49.8248 10.4069 49.4589C9.94082 49.1064 9.49913 48.7223 9.06243 48.3648C8.79698 48.3958 8.61908 48.5385 8.43232 48.6531C7.47136 49.242 6.66335 50.0046 5.95676 50.8741C4.54325 52.6091 3.57668 54.6634 3.14148 56.8574C2.86106 58.2361 2.80287 59.6247 3.11045 61.0155C3.28723 61.8147 3.57818 62.5651 4.09025 63.2143C4.60232 63.8635 5.2474 64.2902 6.06593 64.4153C6.60855 64.4973 7.16216 64.4691 7.69358 64.3323C8.69833 64.0788 9.55566 63.5575 10.3598 62.9277C10.522 62.8039 10.6296 62.6218 10.6596 62.4201C10.7084 62.1434 10.7782 61.8667 10.8464 61.59C11.6145 58.4768 12.9179 55.5939 14.6148 52.8809L15.0394 52.1996Z" fill="#F8FCE1"/>
<path d="M38.9509 82.0443C38.0199 82.0642 37.0828 81.9165 36.1634 81.6513C35.4589 81.4572 34.7951 81.1385 34.2032 80.7105C33.9725 80.5467 33.7644 80.3534 33.5842 80.1355C33.1552 79.5925 33.1846 78.8669 33.6241 78.3456C33.8295 78.1053 34.1085 77.9392 34.4179 77.873C34.7273 77.8068 35.0499 77.8441 35.3359 77.9792C35.4475 78.0277 35.552 78.0908 35.6468 78.1668C36.3047 78.7297 37.1005 78.9594 37.9296 79.0739C38.8783 79.2046 39.8288 79.1885 40.7637 78.9417C41.2763 78.8066 41.7612 78.6096 42.1885 78.2864C42.521 78.034 42.9045 77.9172 43.3307 77.9842C44.3836 78.1502 44.9051 79.3556 44.2778 80.2185C44.1157 80.425 43.9235 80.606 43.7075 80.7553C43.1312 81.1798 42.4805 81.4598 41.7972 81.663C40.8906 81.9303 40.0327 82.0454 38.9509 82.0443Z" fill="#F8FCE1"/>
<path d="M54.0171 68.5009C55.5638 68.5374 57.0385 68.8379 58.4179 69.5452C58.9281 69.7969 59.3914 70.1338 59.7879 70.5414C60.1586 70.9338 60.3188 71.3948 60.1758 71.9356C60.1247 72.1424 60.0277 72.3351 59.8918 72.4994C59.756 72.6636 59.5849 72.7953 59.3912 72.8845C59.1975 72.9737 58.9861 73.0182 58.7728 73.0147C58.5595 73.0112 58.3498 72.9598 58.1591 72.8642C58.0138 72.7928 57.8791 72.7015 57.759 72.5931C57.3128 72.189 56.7836 71.9411 56.22 71.7629C55.0741 71.4048 53.857 71.3367 52.6782 71.5648C52.2183 71.647 51.7784 71.8161 51.3819 72.0629C51.1954 72.1831 50.9935 72.2776 50.7817 72.344C50.4974 72.4257 50.1944 72.415 49.9166 72.3134C49.6387 72.2118 49.4004 72.0247 49.2361 71.7789C48.8742 71.2498 48.8859 70.5757 49.2993 70.087C49.4722 69.8895 49.6726 69.7178 49.8945 69.5773C50.6349 69.0942 51.4578 68.8119 52.3263 68.6796C52.8871 68.5916 53.454 68.5579 54.0171 68.5009Z" fill="#F8FCE1"/>
<path d="M26.2007 66.6457C27.4543 66.6778 28.663 66.8903 29.8279 67.343C30.4929 67.6015 31.1142 67.9397 31.6567 68.4057C31.8448 68.5597 32.0124 68.7371 32.1555 68.9336C32.337 69.1934 32.4249 69.5069 32.4048 69.823C32.3847 70.1391 32.2577 70.439 32.0446 70.6737C31.8284 70.9193 31.5343 71.0833 31.2116 71.1384C30.8888 71.1935 30.5569 71.1363 30.2712 70.9764C30.1469 70.9086 30.0309 70.8267 29.9254 70.7324C29.5114 70.3577 29.0221 70.1236 28.5006 69.9448C27.3446 69.5518 26.1591 69.502 24.9621 69.6858C24.4378 69.757 23.9372 69.9491 23.5002 70.247C23.2363 70.4399 22.9166 70.5415 22.5896 70.5364C22.0116 70.5265 21.5732 70.2719 21.315 69.7544C21.0473 69.2159 21.1105 68.694 21.4779 68.2175C21.6924 67.9408 21.9844 67.7531 22.2854 67.5843C22.9191 67.2195 23.6138 66.9725 24.3359 66.8555C24.9521 66.7597 25.5784 66.7132 26.2007 66.6457Z" fill="#F8FCE1"/>
</svg>
