<svg width="94" height="64" viewBox="0 0 94 64" fill="none" xmlns="http://www.w3.org/2000/svg">
<mask id="path-1-inside-1_114_9374" fill="white">
<path d="M10.3099 29.5989C10.3099 29.4159 10.3196 29.2547 10.3099 29.0913C10.1952 27.3945 10.3581 25.7184 10.7114 24.0607C11.3699 20.9683 12.6571 18.1467 14.4296 15.5403C16.9265 11.8691 20.059 8.829 23.6716 6.27069C26.9727 3.93609 30.5498 2.16478 34.4595 1.08869C37.5852 0.225383 40.8297 -0.128295 44.0681 0.0412711C46.721 0.178364 49.3344 0.598824 51.9214 1.19481C54.7321 1.84299 57.4854 2.69996 60.2388 3.56554C62.8097 4.37433 65.3766 5.19746 67.9578 5.97069C69.6213 6.46801 71.2968 6.91314 73.0056 7.23264C74.3459 7.4773 75.714 7.53233 77.0697 7.39611C78.1905 7.29057 79.3067 7.16667 80.4035 6.8879C80.8366 6.77335 81.2926 6.7789 81.7228 6.90396C82.5832 7.15577 83.0467 7.98923 82.7553 8.8376C82.5895 9.32623 82.3749 9.79687 82.1146 10.2424C80.4138 13.1053 78.763 15.9991 76.9016 18.7634C76.8362 18.8597 76.7806 18.9624 76.6951 19.1035C76.9171 19.1741 77.1127 19.2418 77.3106 19.2986C80.9817 20.358 84.2329 22.1551 87.0086 24.7926C87.7578 25.505 88.4352 26.284 89.0943 27.0779C90.0752 28.2618 90.8237 29.5811 91.4547 30.9744C91.5694 31.2302 91.6922 31.4844 91.812 31.739C92.5078 33.2161 92.8893 34.782 93.1313 36.3882C93.3407 37.7883 93.3493 39.196 93.2369 40.6008C93.1164 42.1013 92.7826 43.5635 92.3277 44.9998C91.4237 47.8541 89.9897 50.421 88.0933 52.7269C84.3576 57.2649 79.6943 60.4479 74.1035 62.2758C72.6695 62.7479 71.1964 63.0077 69.7062 63.1936C68.4735 63.3479 67.2397 63.4879 66.0041 63.6238C65.212 63.711 64.4192 63.8079 63.6242 63.8487C62.8057 63.8911 61.982 63.9089 61.1634 63.8699C59.2131 63.7764 57.2904 63.4896 55.4152 62.9343C52.7979 62.1588 50.2763 61.1619 47.9526 59.7026C46.1652 58.5756 44.5069 57.2558 43.0075 55.767C42.8572 55.6185 42.7092 55.4676 42.5572 55.3213C42.5197 55.2923 42.4788 55.2679 42.4356 55.2485C42.3208 55.2147 42.2669 55.3059 42.2113 55.3736C40.0384 57.9364 37.323 59.7273 34.2255 60.9686C32.0011 61.8538 29.6657 62.4295 27.2848 62.6796C23.6851 63.0766 20.0431 62.8028 16.5433 61.872C15.4081 61.5772 14.285 61.2542 13.206 60.7896C10.4527 59.6051 7.88294 58.1252 5.67511 56.067C4.6058 55.0803 3.63296 53.994 2.76976 52.8227C2.70093 52.7281 2.63439 52.6311 2.57474 52.5302C1.43268 50.5994 0.52924 48.5763 0.181058 46.3352C-0.344944 42.9577 0.277998 39.8017 2.0126 36.8648C3.51317 34.3243 5.59996 32.3666 8.10378 30.8419C8.80416 30.4157 9.53207 30.036 10.3099 29.5989ZM77.8567 10.7426C77.6467 10.7426 77.4838 10.7277 77.3249 10.7426C75.2972 10.96 73.2993 10.7781 71.3198 10.3164C68.4879 9.65615 65.6984 8.84506 62.9267 7.96801C60.0443 7.05654 57.1682 6.12327 54.2652 5.27203C51.1332 4.35426 47.9474 3.68485 44.6801 3.45139C42.5182 3.29709 40.3666 3.35388 38.2276 3.69747C35.0503 4.20798 32.0515 5.25941 29.2219 6.78006C25.3156 8.87947 21.9112 11.6036 19.0626 15.0131C17.5643 16.8062 16.2984 18.7416 15.3766 20.8926C14.3022 23.4022 13.7131 26.0138 13.7062 28.7511C13.7062 29.2903 13.7131 29.8306 13.7401 30.3687C13.7791 31.1482 13.4619 31.7333 12.8126 32.1417C12.5751 32.2903 12.3164 32.4044 12.0669 32.5346C11.3607 32.9035 10.6357 33.2402 9.95253 33.6474C7.9902 34.8153 6.32329 36.3096 5.09978 38.2558C3.31183 41.0998 2.88793 44.1382 3.86708 47.3591C4.48658 49.3965 5.6057 51.1409 7.04718 52.6891C8.4663 54.2143 10.1131 55.4458 11.9366 56.4445C15.633 58.4699 19.6121 59.4123 23.8058 59.4927C25.4018 59.5214 26.9967 59.3909 28.5668 59.1032C30.8658 58.6856 33.0651 57.9714 35.1186 56.8403C37.2237 55.681 39.0335 54.1839 40.4101 52.194C40.5409 51.9992 40.683 51.8123 40.8358 51.6342C40.9883 51.4562 41.1577 51.2935 41.3417 51.1483C41.987 50.6596 42.844 50.6894 43.3912 51.263C43.5214 51.3984 43.6671 51.52 43.7853 51.6646C44.2442 52.2313 44.7977 52.7063 45.334 53.1984C46.2826 54.074 47.2991 54.8729 48.3742 55.5875C52.9349 58.6156 57.9833 60.0663 63.4263 60.2338C65.0451 60.2752 66.6645 60.1814 68.2676 59.9533C70.036 59.7219 71.7787 59.3244 73.4725 58.7659C75.4285 58.1053 77.3046 57.2284 79.0658 56.1514C81.0436 54.9468 82.8419 53.5305 84.4142 51.8361C87.0861 48.9566 88.9721 45.6646 89.6524 41.7405C90.0812 39.3297 89.9396 36.8519 89.2388 34.5056C88.2889 31.2962 86.3679 28.723 83.9088 26.5433C81.4389 24.3538 78.5169 22.9989 75.3092 22.2601C75.0396 22.1982 74.7637 22.1626 74.4752 22.1121C74.2417 22.4098 74.0255 22.6857 73.811 22.9616C72.4733 24.6865 71.0789 26.3632 69.5662 27.94C66.2699 31.3894 62.4422 34.2884 58.2288 36.527C53.8814 38.8392 49.3269 40.6036 44.531 41.7354C43.1147 42.0698 41.6876 42.3635 40.2404 42.4908C37.7112 42.7151 35.1624 42.4736 32.7203 41.7784C31.7715 41.5086 30.8674 41.101 30.037 40.5686C29.0211 39.9319 28.0966 39.1601 27.2888 38.2742C24.6616 35.3551 23.7639 31.984 24.7408 28.1631C25.218 26.2955 26.1519 24.6463 27.3656 23.1538C28.6505 21.5735 30.1763 20.2645 31.884 19.1666C35.1582 17.0638 38.7541 15.8546 42.5968 15.3676C44.6003 15.1113 46.6275 15.099 48.634 15.3309C50.625 15.5603 52.5558 16.0227 54.4097 16.7879C54.7154 16.9074 55.0086 17.0566 55.285 17.2335C55.6146 17.455 55.8538 17.7873 55.9593 18.17C56.0648 18.5528 56.0297 18.9607 55.8603 19.3197C55.6908 19.6788 55.3983 19.9652 55.0358 20.1271C54.6733 20.2889 54.2647 20.3155 53.8843 20.202C53.6827 20.139 53.4857 20.0624 53.2946 19.9725C51.4917 19.1855 49.596 18.7639 47.6468 18.6051C45.985 18.4656 44.3128 18.5129 42.6616 18.7462C39.9461 19.1351 37.3608 19.9381 34.9453 21.2528C33.2245 22.1907 31.6654 23.3477 30.3565 24.819C29.3962 25.8985 28.6196 27.0934 28.1572 28.4706C27.3014 31.0203 27.6765 33.3727 29.336 35.4996C30.0949 36.4748 31.0339 37.2469 32.0893 37.8784C32.835 38.3247 33.5974 38.7388 34.4532 38.9419C35.1835 39.1145 35.9281 39.2197 36.6777 39.2562C38.2568 39.3371 39.8165 39.1415 41.3715 38.9241C42.7883 38.725 44.1793 38.3866 45.5589 38.0063C49.835 36.8258 53.9481 35.1191 57.8038 32.9253C62.1087 30.4742 65.8148 27.3004 69.0213 23.5318C72.284 19.6966 75.136 15.577 77.6324 11.2072C77.711 11.073 77.77 10.9267 77.8567 10.7426Z"/>
</mask>
<path d="M10.3099 29.5989C10.3099 29.4159 10.3196 29.2547 10.3099 29.0913C10.1952 27.3945 10.3581 25.7184 10.7114 24.0607C11.3699 20.9683 12.6571 18.1467 14.4296 15.5403C16.9265 11.8691 20.059 8.829 23.6716 6.27069C26.9727 3.93609 30.5498 2.16478 34.4595 1.08869C37.5852 0.225383 40.8297 -0.128295 44.0681 0.0412711C46.721 0.178364 49.3344 0.598824 51.9214 1.19481C54.7321 1.84299 57.4854 2.69996 60.2388 3.56554C62.8097 4.37433 65.3766 5.19746 67.9578 5.97069C69.6213 6.46801 71.2968 6.91314 73.0056 7.23264C74.3459 7.4773 75.714 7.53233 77.0697 7.39611C78.1905 7.29057 79.3067 7.16667 80.4035 6.8879C80.8366 6.77335 81.2926 6.7789 81.7228 6.90396C82.5832 7.15577 83.0467 7.98923 82.7553 8.8376C82.5895 9.32623 82.3749 9.79687 82.1146 10.2424C80.4138 13.1053 78.763 15.9991 76.9016 18.7634C76.8362 18.8597 76.7806 18.9624 76.6951 19.1035C76.9171 19.1741 77.1127 19.2418 77.3106 19.2986C80.9817 20.358 84.2329 22.1551 87.0086 24.7926C87.7578 25.505 88.4352 26.284 89.0943 27.0779C90.0752 28.2618 90.8237 29.5811 91.4547 30.9744C91.5694 31.2302 91.6922 31.4844 91.812 31.739C92.5078 33.2161 92.8893 34.782 93.1313 36.3882C93.3407 37.7883 93.3493 39.196 93.2369 40.6008C93.1164 42.1013 92.7826 43.5635 92.3277 44.9998C91.4237 47.8541 89.9897 50.421 88.0933 52.7269C84.3576 57.2649 79.6943 60.4479 74.1035 62.2758C72.6695 62.7479 71.1964 63.0077 69.7062 63.1936C68.4735 63.3479 67.2397 63.4879 66.0041 63.6238C65.212 63.711 64.4192 63.8079 63.6242 63.8487C62.8057 63.8911 61.982 63.9089 61.1634 63.8699C59.2131 63.7764 57.2904 63.4896 55.4152 62.9343C52.7979 62.1588 50.2763 61.1619 47.9526 59.7026C46.1652 58.5756 44.5069 57.2558 43.0075 55.767C42.8572 55.6185 42.7092 55.4676 42.5572 55.3213C42.5197 55.2923 42.4788 55.2679 42.4356 55.2485C42.3208 55.2147 42.2669 55.3059 42.2113 55.3736C40.0384 57.9364 37.323 59.7273 34.2255 60.9686C32.0011 61.8538 29.6657 62.4295 27.2848 62.6796C23.6851 63.0766 20.0431 62.8028 16.5433 61.872C15.4081 61.5772 14.285 61.2542 13.206 60.7896C10.4527 59.6051 7.88294 58.1252 5.67511 56.067C4.6058 55.0803 3.63296 53.994 2.76976 52.8227C2.70093 52.7281 2.63439 52.6311 2.57474 52.5302C1.43268 50.5994 0.52924 48.5763 0.181058 46.3352C-0.344944 42.9577 0.277998 39.8017 2.0126 36.8648C3.51317 34.3243 5.59996 32.3666 8.10378 30.8419C8.80416 30.4157 9.53207 30.036 10.3099 29.5989ZM77.8567 10.7426C77.6467 10.7426 77.4838 10.7277 77.3249 10.7426C75.2972 10.96 73.2993 10.7781 71.3198 10.3164C68.4879 9.65615 65.6984 8.84506 62.9267 7.96801C60.0443 7.05654 57.1682 6.12327 54.2652 5.27203C51.1332 4.35426 47.9474 3.68485 44.6801 3.45139C42.5182 3.29709 40.3666 3.35388 38.2276 3.69747C35.0503 4.20798 32.0515 5.25941 29.2219 6.78006C25.3156 8.87947 21.9112 11.6036 19.0626 15.0131C17.5643 16.8062 16.2984 18.7416 15.3766 20.8926C14.3022 23.4022 13.7131 26.0138 13.7062 28.7511C13.7062 29.2903 13.7131 29.8306 13.7401 30.3687C13.7791 31.1482 13.4619 31.7333 12.8126 32.1417C12.5751 32.2903 12.3164 32.4044 12.0669 32.5346C11.3607 32.9035 10.6357 33.2402 9.95253 33.6474C7.9902 34.8153 6.32329 36.3096 5.09978 38.2558C3.31183 41.0998 2.88793 44.1382 3.86708 47.3591C4.48658 49.3965 5.6057 51.1409 7.04718 52.6891C8.4663 54.2143 10.1131 55.4458 11.9366 56.4445C15.633 58.4699 19.6121 59.4123 23.8058 59.4927C25.4018 59.5214 26.9967 59.3909 28.5668 59.1032C30.8658 58.6856 33.0651 57.9714 35.1186 56.8403C37.2237 55.681 39.0335 54.1839 40.4101 52.194C40.5409 51.9992 40.683 51.8123 40.8358 51.6342C40.9883 51.4562 41.1577 51.2935 41.3417 51.1483C41.987 50.6596 42.844 50.6894 43.3912 51.263C43.5214 51.3984 43.6671 51.52 43.7853 51.6646C44.2442 52.2313 44.7977 52.7063 45.334 53.1984C46.2826 54.074 47.2991 54.8729 48.3742 55.5875C52.9349 58.6156 57.9833 60.0663 63.4263 60.2338C65.0451 60.2752 66.6645 60.1814 68.2676 59.9533C70.036 59.7219 71.7787 59.3244 73.4725 58.7659C75.4285 58.1053 77.3046 57.2284 79.0658 56.1514C81.0436 54.9468 82.8419 53.5305 84.4142 51.8361C87.0861 48.9566 88.9721 45.6646 89.6524 41.7405C90.0812 39.3297 89.9396 36.8519 89.2388 34.5056C88.2889 31.2962 86.3679 28.723 83.9088 26.5433C81.4389 24.3538 78.5169 22.9989 75.3092 22.2601C75.0396 22.1982 74.7637 22.1626 74.4752 22.1121C74.2417 22.4098 74.0255 22.6857 73.811 22.9616C72.4733 24.6865 71.0789 26.3632 69.5662 27.94C66.2699 31.3894 62.4422 34.2884 58.2288 36.527C53.8814 38.8392 49.3269 40.6036 44.531 41.7354C43.1147 42.0698 41.6876 42.3635 40.2404 42.4908C37.7112 42.7151 35.1624 42.4736 32.7203 41.7784C31.7715 41.5086 30.8674 41.101 30.037 40.5686C29.0211 39.9319 28.0966 39.1601 27.2888 38.2742C24.6616 35.3551 23.7639 31.984 24.7408 28.1631C25.218 26.2955 26.1519 24.6463 27.3656 23.1538C28.6505 21.5735 30.1763 20.2645 31.884 19.1666C35.1582 17.0638 38.7541 15.8546 42.5968 15.3676C44.6003 15.1113 46.6275 15.099 48.634 15.3309C50.625 15.5603 52.5558 16.0227 54.4097 16.7879C54.7154 16.9074 55.0086 17.0566 55.285 17.2335C55.6146 17.455 55.8538 17.7873 55.9593 18.17C56.0648 18.5528 56.0297 18.9607 55.8603 19.3197C55.6908 19.6788 55.3983 19.9652 55.0358 20.1271C54.6733 20.2889 54.2647 20.3155 53.8843 20.202C53.6827 20.139 53.4857 20.0624 53.2946 19.9725C51.4917 19.1855 49.596 18.7639 47.6468 18.6051C45.985 18.4656 44.3128 18.5129 42.6616 18.7462C39.9461 19.1351 37.3608 19.9381 34.9453 21.2528C33.2245 22.1907 31.6654 23.3477 30.3565 24.819C29.3962 25.8985 28.6196 27.0934 28.1572 28.4706C27.3014 31.0203 27.6765 33.3727 29.336 35.4996C30.0949 36.4748 31.0339 37.2469 32.0893 37.8784C32.835 38.3247 33.5974 38.7388 34.4532 38.9419C35.1835 39.1145 35.9281 39.2197 36.6777 39.2562C38.2568 39.3371 39.8165 39.1415 41.3715 38.9241C42.7883 38.725 44.1793 38.3866 45.5589 38.0063C49.835 36.8258 53.9481 35.1191 57.8038 32.9253C62.1087 30.4742 65.8148 27.3004 69.0213 23.5318C72.284 19.6966 75.136 15.577 77.6324 11.2072C77.711 11.073 77.77 10.9267 77.8567 10.7426Z" fill="#F8FCE1" stroke="#F8FCE1" stroke-width="6.21988" mask="url(#path-1-inside-1_114_9374)"/>
</svg>
