<svg width="145" height="145" viewBox="0 0 145 145" fill="none" xmlns="http://www.w3.org/2000/svg">
<rect x="1.55497" y="1.55497" width="140.984" height="140.984" rx="19.178" fill="#FFC2C2" stroke="#E67C4F" stroke-width="3.10994"/>
<path d="M82.1268 28.6093C82.3202 28.5055 82.4988 28.4121 82.6747 28.3149C84.3495 27.3959 86.1328 26.7928 88.0301 26.5666C90.4341 26.2836 92.7779 26.5715 95.0307 27.468C99.2433 29.1442 102.115 32.1736 103.883 36.2876C104.584 37.9189 104.979 39.6312 105.143 41.4019C105.44 44.6067 104.86 47.6542 103.564 50.5842C102.547 52.8848 101.144 54.9379 99.5391 56.8638C96.94 59.9823 93.8309 62.5058 90.3897 64.6327C88.6278 65.721 86.8428 66.7716 85.0683 67.8397C83.6931 68.668 82.3476 69.5399 81.0601 70.4987C80.8667 70.643 80.6826 70.7992 80.5002 70.9451C80.6037 71.1483 80.7834 71.1494 80.9297 71.203C82.2106 71.6717 83.4499 72.2263 84.6251 72.9201C88.2706 75.0754 90.9984 78.0382 92.602 81.979C93.643 84.538 94.0385 87.2058 93.8692 89.9555C93.8171 90.9272 93.6833 91.8929 93.4693 92.8423C93.4512 92.9199 93.4452 93.0002 93.4288 93.1122C93.5822 93.2581 93.7399 93.4127 93.9032 93.5608C95.1127 94.648 96.1625 95.8998 97.0217 97.2792C98.0686 98.9766 98.7535 100.805 99.0061 102.785C99.2855 104.98 98.9924 107.109 98.2226 109.177C97.4928 111.138 96.3911 112.878 95.0258 114.456C93.46 116.265 91.6356 117.775 89.6249 119.065C86.8373 120.853 83.8312 122.16 80.6623 123.112C76.1366 124.459 71.42 125.059 66.6999 124.887C63.1103 124.745 59.5902 124.192 56.1606 123.096C53.4671 122.238 50.9061 121.011 48.5507 119.451C47.433 118.711 46.3181 117.968 45.3183 117.069C44.1228 115.993 43.0221 114.829 42.099 113.511C41.0432 112.003 40.2954 110.348 39.7563 108.594C39.035 106.264 38.7521 103.821 38.9219 101.388C39.0863 98.969 39.5569 96.6115 40.5381 94.3748C40.6439 94.1333 40.7375 93.8869 40.8477 93.6476C41.3073 92.6528 41.3769 91.6169 41.1621 90.5565C40.9896 89.7031 40.7984 88.8535 40.611 88.0029C40.2023 86.1606 40.0676 84.2684 40.211 82.3871C40.3754 80.2361 40.714 78.1256 41.3495 76.0627C42.0513 73.7866 43.0063 71.622 44.3014 69.6159C45.0643 68.4416 45.9618 67.3598 46.9756 66.3925C47.3996 65.9843 47.81 65.5631 48.2242 65.1446C48.6077 64.7551 49.0021 64.3727 49.3714 63.9684C50.6063 62.6167 51.5251 61.0826 52.0735 59.3294C52.5468 57.8177 52.8772 56.2748 53.1544 54.7189C53.4782 52.9023 53.6508 51.0677 53.7993 49.2292C53.9746 47.0483 54.2041 44.8722 54.6359 42.724C54.9788 41.0156 55.4029 39.3269 55.9557 37.6725C56.3759 36.4209 56.9418 35.2299 57.4842 34.0317C58.2227 32.4038 59.1992 30.894 60.3819 29.5518C62.1734 27.5161 64.3172 25.9869 66.9015 25.1193C68.8122 24.4695 70.8398 24.2331 72.8492 24.426C76.241 24.7505 79.1869 26.0782 81.7422 28.305C81.8611 28.4061 81.9904 28.5006 82.1268 28.6093ZM67.6406 122.002C69.3069 122.025 70.973 121.948 72.63 121.772C74.8526 121.535 77.0516 121.114 79.2045 120.515C82.0123 119.724 84.6963 118.639 87.2072 117.145C89.2617 115.922 91.1365 114.478 92.7187 112.678C94.0336 111.183 95.0745 109.531 95.6772 107.624C96.4393 105.214 96.362 102.835 95.3983 100.491C94.6275 98.6161 93.4156 97.059 91.9292 95.7024C91.5545 95.3599 91.1984 95.0026 90.8488 94.6343C90.3968 94.1585 90.2785 93.6373 90.4418 93.015C90.6764 92.1126 90.8357 91.1923 90.9179 90.2636C91.1129 88.0963 90.908 85.9689 90.2106 83.9059C89.1072 80.6448 87.0822 78.0688 84.2465 76.1266C81.1308 73.992 77.6392 72.972 73.8973 72.7469C72.1704 72.6431 70.4457 72.6978 68.7303 72.9698C68.5093 73.0019 68.2867 73.0225 68.0636 73.0316C67.2155 73.0775 66.2698 72.1684 66.4873 71.1462C66.5523 70.8072 66.6699 70.4804 66.8358 70.1775C67.3091 69.3493 67.8192 68.5461 68.4175 67.7993C69.5855 66.3406 70.8533 64.972 72.1556 63.6329C73.5 62.2512 74.8555 60.8805 76.183 59.4807C77.8644 57.7117 79.3847 55.8132 80.6755 53.7376C82.0835 51.4703 83.2148 49.0768 83.966 46.5118C84.442 44.9169 84.692 43.2635 84.7089 41.5996C84.7313 39.5666 84.3341 37.5507 83.5419 35.6773C82.3147 32.7861 80.3731 30.504 77.6447 28.9229C75.1875 27.5025 72.5374 26.9823 69.723 27.4052C67.4938 27.7396 65.5494 28.6989 63.8565 30.1757C63.2122 30.7373 62.6512 31.3744 62.0907 32.0196C61.219 33.0265 60.5364 34.1503 59.9809 35.3468C59.6236 36.1177 59.3119 36.9115 59.0204 37.7102C57.6464 41.4712 57.0142 45.3797 56.7106 49.3533C56.6317 50.3831 56.5501 51.414 56.4296 52.4401C56.1975 54.4316 55.843 56.4071 55.3678 58.3553C55.0736 59.5572 54.7104 60.7368 54.214 61.8726C53.5062 63.4892 52.4816 64.8928 51.2714 66.1668C50.6287 66.8432 49.9669 67.5015 49.3177 68.1724C48.4137 69.1072 47.5618 70.0846 46.8276 71.1615C45.4634 73.1589 44.5507 75.3595 43.9135 77.6782C43.4093 79.4963 43.1479 81.3727 43.1361 83.259C43.1284 84.621 43.2183 85.97 43.4911 87.3069C43.7021 88.3383 43.9179 89.3698 44.0867 90.409C44.2872 91.6453 44.239 92.874 43.7941 94.064C43.638 94.4814 43.4829 94.8999 43.301 95.3058C42.4551 97.1754 42.0332 99.152 41.8585 101.18C41.7051 102.965 41.7949 104.745 42.2102 106.496C42.5532 107.94 43.0232 109.337 43.7404 110.649C44.6997 112.397 46.0212 113.844 47.5207 115.143C48.428 115.931 49.4415 116.569 50.4441 117.226C52.4619 118.546 54.6304 119.545 56.9194 120.29C60.3983 121.424 63.983 121.94 67.6406 122.002ZM70.6484 69.7896C70.8675 69.8688 71.0938 69.8213 71.3146 69.8169C72.5544 69.7923 73.7937 69.7743 75.028 69.9229C75.5924 69.9912 76.1572 70.0589 76.7188 70.1453C76.9379 70.1791 77.1187 70.1649 77.2666 69.9868C77.3313 69.9092 77.4107 69.8442 77.482 69.7716C78.214 69.0391 79.0084 68.3715 79.8564 67.7763C81.345 66.7137 82.8993 65.7549 84.4645 64.8103C86.3065 63.6979 88.1615 62.6036 89.9695 61.4377C92.8546 59.5802 95.4131 57.3402 97.5849 54.6686C98.8565 53.1033 99.978 51.4452 100.817 49.6057C102.157 46.6691 102.65 43.6134 102.077 40.4174C101.54 37.4125 100.208 34.8081 97.9744 32.714C95.3326 30.2385 92.1867 29.1109 88.5511 29.4387C87.0965 29.5698 85.7318 30.0178 84.4322 30.6734C84.3309 30.7248 84.1983 30.7586 84.189 30.9389C84.2985 31.1028 84.4251 31.2886 84.55 31.4716C86.2484 33.9717 87.2346 36.7345 87.5331 39.7328C87.7567 41.9903 87.5479 44.2242 86.9962 46.4254C86.2358 49.4592 84.9604 52.2713 83.3474 54.9434C81.9575 57.2446 80.3051 59.3491 78.4615 61.3017C76.9434 62.9096 75.3836 64.4786 73.8436 66.0663C72.8262 67.1158 71.8422 68.197 70.9201 69.3301C70.8095 69.4667 70.6451 69.5782 70.6484 69.7896Z" fill="#E67C4F"/>
<path d="M82.0479 100.699C81.9931 102.614 81.7532 104.29 81.0815 105.883C80.6596 106.883 80.12 107.807 79.3064 108.543C78.2282 109.518 76.9648 110.057 75.4981 110.079C74.1559 110.099 73.0525 109.573 72.1605 108.59C71.439 107.795 70.9634 106.855 70.6331 105.847C70.0355 104.031 69.8484 102.106 70.0852 100.209C70.1855 99.3798 70.3449 98.5702 70.6829 97.802C70.8304 97.4692 71.0104 97.1517 71.2204 96.8541C71.6258 96.281 72.1907 96.074 72.8766 96.257C73.2881 96.3662 73.6984 96.4859 74.0994 96.6285C75.3283 97.0656 76.5972 97.1666 77.883 97.0557C78.3213 97.0175 78.7541 96.8721 79.1853 96.7618C79.3809 96.7115 79.5688 96.623 79.7589 96.5575C80.5846 96.2777 81.1883 96.5575 81.5088 97.3737C81.7329 97.943 81.8518 98.5407 81.9219 99.1438C81.9926 99.7268 82.0189 100.314 82.0479 100.699Z" fill="#E67C4F"/>
<path d="M86.2358 90.8367C86.226 91.7076 86.0282 92.4424 85.6036 93.1078C85.2924 93.5963 84.8826 93.9765 84.3331 94.1967C83.4828 94.5376 82.7021 94.3999 81.9838 93.8602C81.5793 93.5494 81.2663 93.1357 81.0776 92.6626C80.5791 91.4765 80.6229 90.2898 81.1324 89.1256C81.3477 88.6405 81.6936 88.2245 82.1317 87.9237C83.1141 87.2336 84.3232 87.3227 85.1932 88.1597C85.8052 88.7486 86.0956 89.4911 86.2057 90.3139C86.232 90.5149 86.2292 90.7187 86.2358 90.8367Z" fill="#E67C4F"/>
<path d="M62.1499 91.2481C62.18 90.2003 62.409 89.3163 63.0758 88.5885C63.3963 88.2389 63.7694 87.9701 64.2263 87.8281C65.0755 87.5658 65.8288 87.7565 66.4988 88.3132C66.8273 88.5874 67.0871 88.9342 67.2576 89.3261C67.8378 90.633 67.7852 91.9245 67.1147 93.1816C66.8018 93.7689 66.3383 94.2142 65.7039 94.4611C64.9232 94.7655 64.1852 94.6611 63.5075 94.188C62.7054 93.6318 62.3422 92.8123 62.1964 91.8802C62.1603 91.6442 62.1603 91.3995 62.1499 91.2481Z" fill="#E67C4F"/>
</svg>
