<svg width="35" height="35" viewBox="0 0 35 35" fill="none" xmlns="http://www.w3.org/2000/svg">
<path fill-rule="evenodd" clip-rule="evenodd" d="M14.35 2.95312C11.2962 3.23312 8.6727 4.44792 6.56104 6.56104C4.65645 8.46562 3.48687 10.7712 3.05229 13.4823C2.91812 14.3165 2.91812 16.3085 3.05229 17.1427C3.48687 19.8537 4.65645 22.1594 6.56104 24.064C8.45833 25.9627 10.78 27.1396 13.4823 27.5727C14.3165 27.7069 16.3085 27.7069 17.1427 27.5727C19.1315 27.2594 21.0185 26.482 22.6508 25.3035L22.9877 25.0629L25.7717 27.8352C28.2712 30.3275 28.5833 30.6192 28.8415 30.7038C30.0256 31.0975 31.096 30.0475 30.7125 28.8677C30.6162 28.5731 30.4369 28.3806 27.8367 25.7717L25.0629 22.9877L25.3035 22.6508C26.482 21.0185 27.2594 19.1315 27.5727 17.1427C27.7069 16.3085 27.7069 14.3165 27.5727 13.4823C27.1396 10.78 25.9627 8.45833 24.0639 6.56104C22.2035 4.68258 19.7862 3.45502 17.1719 3.06104C16.6017 2.97354 14.8575 2.90646 14.35 2.95312ZM16.9181 5.97187C20.9067 6.69666 23.9137 9.71104 24.6604 13.7375C24.7946 14.4594 24.7946 16.1656 24.6604 16.8875C23.9108 20.9285 20.9285 23.9108 16.8875 24.6604C16.1656 24.7946 14.4594 24.7946 13.7375 24.6604C10.0858 23.9823 7.22166 21.4229 6.21395 17.939C5.73574 16.2808 5.72034 14.5234 6.16942 12.8572C6.61851 11.1909 7.51495 9.67928 8.76166 8.48604C10.2074 7.09101 12.0592 6.19167 14.0496 5.91792C14.7467 5.81875 16.2225 5.84646 16.9181 5.97187Z" fill="#E67C4F"/>
</svg>
