<svg width="42" height="42" viewBox="0 0 42 42" fill="none" xmlns="http://www.w3.org/2000/svg">
<path fill-rule="evenodd" clip-rule="evenodd" d="M18.9031 0.0838709C14.9989 0.427621 11.1468 1.9672 7.90307 4.47762C6.99266 5.18387 5.18016 6.99637 4.47391 7.90679C0.723908 12.7526 -0.744842 18.7297 0.357241 24.6693C0.961408 27.9318 2.35516 31.0026 4.47391 33.7401C5.18016 34.6505 6.99266 36.463 7.90307 37.1693C12.9885 41.1047 19.2635 42.5151 25.4864 41.1172C30.6677 39.9526 35.3864 36.6505 38.2885 32.1568C39.9677 29.5589 40.9614 26.8922 41.4572 23.6568C41.6614 22.3214 41.6614 19.3255 41.4572 17.9901C40.8635 14.1193 39.5072 10.9318 37.1656 7.90679C36.4593 6.99637 34.6468 5.18387 33.7364 4.47762C29.4302 1.14637 24.2489 -0.389046 18.9031 0.0838709ZM22.5531 4.24429C25.761 4.60296 28.8011 5.8651 31.3197 7.88387C32.0572 8.4797 33.4593 9.90887 33.9989 10.6151C36.2439 13.5463 37.4686 17.1313 37.4864 20.8235C37.4687 24.6445 36.1546 28.3464 33.7593 31.3235C33.1635 32.061 31.7343 33.463 31.0281 34.0026C29.5145 35.1471 27.8261 36.0398 26.0281 36.6464C25.0302 36.9714 23.5218 37.3235 23.1156 37.3235H22.9031V24.9901H24.0552C25.5052 24.9901 25.9156 24.8818 26.4385 24.3589C26.8197 23.9776 27.0697 23.4005 27.0697 22.9068C27.0697 22.413 26.8197 21.836 26.4385 21.4547C25.9156 20.9318 25.5052 20.8235 24.0552 20.8235H22.9031L22.9072 18.5526C22.9114 16.111 22.9385 15.913 23.3552 15.3672C23.5278 15.1632 23.7326 14.9887 23.9614 14.8505C24.3156 14.6443 24.4489 14.6193 25.4802 14.5714C26.7614 14.513 27.0885 14.4005 27.5677 13.8547C27.9427 13.4276 28.0697 13.0839 28.0697 12.4901C28.0697 11.8964 27.9427 11.5526 27.5677 11.1255C27.0385 10.5214 26.7864 10.4485 25.2781 10.4505C24.151 10.4547 23.8406 10.4839 23.2739 10.6443C21.2781 11.2068 19.6156 12.8464 18.9947 14.863C18.7989 15.5005 18.7885 15.6526 18.7552 18.1776L18.7218 20.8235H17.5781C16.1385 20.8235 15.7239 20.9339 15.2072 21.4485C15.0079 21.6355 14.8491 21.8614 14.7405 22.1122C14.6319 22.3631 14.5759 22.6335 14.5759 22.9068C14.5759 23.1801 14.6319 23.4505 14.7405 23.7013C14.8491 23.9522 15.0079 24.1781 15.2072 24.3651C15.7239 24.8818 16.1385 24.9901 17.5843 24.9901H18.7364V37.3235H18.5239C17.6364 37.3235 15.0885 36.5505 13.5885 35.8235C11.9769 35.0692 10.5085 34.0407 9.24891 32.7839C7.82497 31.4345 6.66304 29.8332 5.82183 28.061C3.06974 22.363 3.76557 15.688 7.64057 10.6151C8.18016 9.90887 9.58224 8.4797 10.3197 7.88387C12.815 5.89081 15.816 4.63198 18.9864 4.24845C20.173 4.14602 21.3662 4.14463 22.5531 4.24429Z" fill="#E67C4F"/>
</svg>
