<svg role="img" xmlns="http://www.w3.org/2000/svg" width="187" height="128" viewBox="0 0 187 128" version="1.1">
	<path d="M 68.215 1.940 C 50.564 6.986, 33.141 20.922, 25.412 36.174 C 22.602 41.720, 20 51.030, 20 55.542 C 20 58.183, 19.241 59.155, 15.063 61.862 C 0.879 71.053, -4.074 87.528, 3.058 101.799 C 13.813 123.322, 46.890 132.580, 71.500 120.956 C 74.800 119.397, 79.137 116.617, 81.138 114.778 L 84.776 111.435 88.638 114.705 C 94.123 119.348, 104.671 124.699, 112.124 126.619 C 117.050 127.888, 121.002 128.125, 129.500 127.662 C 148.043 126.650, 159.103 122.423, 170.283 112.076 C 177.768 105.149, 181.711 99.379, 184.587 91.149 L 186.881 84.584 187.256 90.042 L 187.630 95.500 187.784 89 C 188.354 64.980, 179.715 49.065, 161.708 40.962 L 154.366 37.658 160.183 28.117 C 166.059 18.479, 166.985 15.727, 164.801 14.377 C 164.142 13.970, 158.629 13.590, 152.551 13.534 C 142.257 13.440, 140.484 13.107, 126.668 8.682 C 118.511 6.069, 108.161 3.049, 103.668 1.972 C 93.049 -0.574, 77.056 -0.588, 68.215 1.940 M 77 7.691 C 67.389 9.300, 53.939 15.836, 46.062 22.727 C 34.642 32.717, 28 45.531, 28 57.575 L 28 62.939 22.250 66.580 C 19.087 68.582, 15.428 71.183, 14.118 72.360 C 11.003 75.157, 7.022 83.678, 7.010 87.572 C 6.984 95.807, 13.846 106.481, 22.382 111.484 C 40.982 122.384, 65.424 120.039, 78.742 106.076 C 81.404 103.284, 84.033 101, 84.583 101 C 85.134 101, 87.815 103.025, 90.542 105.499 C 116.476 129.034, 160.125 122.563, 175.647 92.883 C 178.119 88.154, 178.464 86.406, 178.481 78.500 C 178.504 67.743, 176.434 62.592, 169.171 55.329 C 164.811 50.969, 154.312 45.002, 151 45.001 C 150.175 45.001, 146.185 48.625, 142.134 53.055 C 132.752 63.313, 123.864 70.045, 112.451 75.538 C 94.291 84.277, 77.265 87.355, 65.500 84.026 C 56.685 81.531, 48 70.757, 48 62.315 C 48 56.878, 51.349 49.511, 56.109 44.478 C 67.556 32.374, 86.660 27.156, 103.483 31.537 C 110.498 33.365, 112 34.443, 112 37.654 C 112 40.977, 109.928 41.469, 104.094 39.531 C 94.561 36.365, 80.357 37.710, 70.636 42.700 C 66.163 44.995, 58.844 52.168, 57.352 55.718 C 53.870 64.004, 57.416 71.687, 66.950 76.512 C 76.366 81.277, 103.306 73.684, 122 60.995 C 129.788 55.709, 140.494 44.073, 148.258 32.454 L 154.911 22.500 148.516 21.838 C 141.653 21.129, 137.633 20.085, 117.642 13.823 C 98.947 7.968, 86.535 6.095, 77 7.691 M 0.343 88.500 C 0.346 92.900, 0.522 94.576, 0.733 92.224 C 0.945 89.872, 0.942 86.272, 0.727 84.224 C 0.512 82.176, 0.339 84.100, 0.343 88.500" stroke="none" fill="#F8FCE1" fill-rule="evenodd"/>
</svg>
