<svg role="img" xmlns="http://www.w3.org/2000/svg" width="123" height="213" viewBox="0 0 123 213" version="1.1">
	<path d="M 50.131 1.474 C 28.773 6.333, 11.876 21.613, 3.695 43.465 C 1.043 50.550, 0.677 52.828, 0.594 62.727 C 0.503 73.637, 0.576 74.030, 3.189 76.644 C 6.483 79.938, 11.222 80.222, 14.143 77.301 C 15.915 75.530, 16.206 73.809, 16.412 63.884 C 16.600 54.813, 17.097 51.410, 18.854 47.136 C 29.378 21.549, 57.410 9.050, 79.681 20.015 C 88.794 24.501, 96.014 32.063, 100.895 42.237 C 108.294 57.657, 109.040 72.516, 102.987 83.872 C 96.979 95.146, 79.840 111.270, 62.979 121.513 L 57 125.145 57 166.500 L 57 207.855 59.635 209.927 C 63.130 212.677, 66.546 212.545, 69.545 209.545 L 72 207.091 72 170.726 L 72 134.361 80.392 128.660 C 85.008 125.525, 92.906 119.080, 97.943 114.338 C 112.897 100.261, 119.965 88.739, 122.555 74.215 C 124.031 65.934, 124.433 52.190, 123 59 L 122.263 62.500 122.132 59.410 C 121.868 53.232, 117.965 40.739, 113.791 32.713 C 108.954 23.414, 99.463 13.044, 91.620 8.491 C 78.932 1.124, 63.294 -1.520, 50.131 1.474 M 0.320 63 C 0.320 66.575, 0.502 68.037, 0.723 66.250 C 0.945 64.463, 0.945 61.538, 0.723 59.750 C 0.502 57.962, 0.320 59.425, 0.320 63" stroke="none" fill="#E67C4F" fill-rule="evenodd"/>
</svg>
