<svg role="img" xmlns="http://www.w3.org/2000/svg" width="133" height="202" viewBox="0 0 133 202" version="1.1">
	<path d="M 54.324 1.638 C 40.594 6.503, 32.009 23.598, 29.053 51.964 C 27.217 69.579, 25.697 73.406, 16.858 82.680 C 5.408 94.694, 0.398 110.776, 2.966 127.279 C 4.199 135.209, 4.148 136.045, 2.041 142.378 C 0.223 147.840, -0.126 150.792, 0.155 158.317 C 0.455 166.347, 0.930 168.425, 3.793 174.236 C 7.669 182.104, 14.195 188.278, 24.178 193.524 C 34.667 199.036, 44.310 201.147, 59 201.147 C 73.902 201.147, 83.390 199.044, 95.500 193.056 C 105.849 187.940, 112.759 181.779, 117.063 173.833 C 120.112 168.205, 120.491 166.665, 120.474 160 C 120.452 151.796, 118.629 147.064, 113.037 140.695 C 110.294 137.570, 110.088 136.776, 110.104 129.368 C 110.128 118.444, 107.379 111.298, 100.298 103.874 C 97.342 100.775, 92.691 97.179, 89.962 95.884 C 87.233 94.588, 85 93.220, 85 92.843 C 85 92.466, 90.481 88.860, 97.180 84.829 C 113.226 75.173, 123.082 65.668, 128.573 54.552 C 132.319 46.969, 132.499 46.164, 132.484 37.052 C 132.467 26.386, 130.812 21.645, 124.552 14.332 C 116.742 5.207, 102.404 1.534, 91.250 5.800 C 87.944 7.065, 85.770 7.436, 85.379 6.805 C 85.038 6.253, 82.001 4.496, 78.630 2.901 C 73.594 0.519, 71.251 0.016, 65.500 0.080 C 61.650 0.123, 56.621 0.824, 54.324 1.638 M 59.994 6.879 C 50.592 9.948, 44.154 16.917, 40.645 27.826 C 37.461 37.723, 37.304 38.515, 36.031 51.120 C 34.064 70.600, 31.650 76.955, 22.382 87.053 C 10.346 100.170, 7.153 111.191, 10.216 129.052 C 11.332 135.565, 11.255 136.644, 9.267 142.321 C 5.294 153.666, 5.417 162.864, 9.653 171.237 C 13.827 179.487, 24.725 187.507, 37.422 191.671 C 44.379 193.953, 47.235 194.325, 58 194.354 C 72.502 194.394, 80.729 192.713, 91.580 187.494 C 108.889 179.169, 117.636 164.637, 112.597 152.578 C 111.826 150.732, 109.463 147.303, 107.347 144.960 L 103.500 140.699 103.447 131.100 C 103.388 120.317, 102.096 116.263, 96.563 109.511 C 89.951 101.442, 75.198 96.067, 63.126 97.329 C 56.938 97.976, 55 97.107, 55 93.684 C 55 91.157, 60.492 83.830, 67.507 77 C 84.177 60.769, 91.894 45.727, 90.765 31.666 C 89.969 21.739, 84.393 13.282, 75.735 8.865 C 71.342 6.624, 63.720 5.662, 59.994 6.879 M 97.699 11.019 C 91.914 12.058, 91.612 12.927, 94.725 19.575 C 97.141 24.734, 97.491 26.664, 97.428 34.500 C 97.305 49.916, 92.020 60.377, 74.994 78.910 L 64.944 89.849 70.421 90.533 C 75.630 91.184, 76.108 91.048, 80.199 87.758 C 82.564 85.855, 89.225 81.439, 95 77.944 C 108.347 69.869, 118.763 59.794, 122.978 50.884 C 132.689 30.358, 118.101 7.355, 97.699 11.019 M 48.073 128.635 C 45.449 131.970, 45.418 136.418, 48 139 C 52.134 143.134, 58 139.908, 58 133.500 C 58 129.589, 55.163 126, 52.073 126 C 51.012 126, 49.212 127.186, 48.073 128.635 M 84.444 129.108 C 81.755 134.308, 84.119 140, 88.967 140 C 92.593 140, 95 137.137, 95 132.826 C 95 125.929, 87.461 123.273, 84.444 129.108 M 65.313 143.760 C 62.106 145.868, 61 155.929, 63.176 163.193 C 65.946 172.439, 75.226 174.695, 81.650 167.685 C 85.621 163.352, 87.712 155.020, 86.392 148.789 L 85.484 144.500 78.492 144.492 C 74.646 144.488, 70.375 144.146, 69 143.732 C 67.625 143.319, 65.966 143.331, 65.313 143.760" stroke="none" fill="#F8FCE1" fill-rule="evenodd"/>
</svg>
