<svg role="img" xmlns="http://www.w3.org/2000/svg" width="182" height="208" viewBox="0 0 182 208" version="1.1">
	<path d="M 64.942 2.287 C 44.057 9.407, 26.161 29.599, 25.946 46.285 C 25.895 50.186, 25.543 50.724, 21.224 53.500 C 15.501 57.179, 10.433 63.682, 8.917 69.292 C 7.447 74.730, 8.289 82.686, 10.868 87.742 L 12.907 91.739 8.561 96.275 C 3.118 101.955, -0 109.918, 0 118.136 C 0 129.621, 5.152 135.432, 14.708 134.727 C 19.735 134.356, 19.938 134.441, 20.538 137.175 C 20.916 138.896, 20.365 142.459, 19.133 146.254 C 14.899 159.293, 15.490 168.366, 21.285 179.334 C 27.383 190.874, 42.089 200.566, 60.500 205.179 C 67.785 207.004, 72.167 207.423, 83.500 207.378 C 98.857 207.318, 106.189 206.264, 118.926 202.285 C 134.761 197.338, 150.821 184.224, 157.413 170.858 C 162.325 160.897, 163.108 152.891, 159.989 144.500 C 158.762 141.200, 157.701 136.700, 157.629 134.500 L 157.500 130.500 162 130.805 C 164.475 130.973, 167.972 130.838, 169.771 130.506 C 174.121 129.702, 179.673 124.693, 180.631 120.708 L 181.402 117.500 182.069 121 C 182.579 123.675, 182.768 122.805, 182.868 117.309 C 182.941 113.354, 182.550 109.840, 182 109.500 C 181.450 109.160, 181 108.080, 181 107.101 C 181 103.844, 174.928 93.110, 170.522 88.576 L 166.177 84.105 168.173 77.803 C 173.589 60.702, 165.268 42.970, 148.218 35.282 C 145.073 33.863, 142.386 32.619, 142.247 32.516 C 142.108 32.412, 144.246 28.582, 146.997 24.004 C 149.749 19.426, 152 15.104, 152 14.399 C 152 12.095, 149.622 11.514, 141.500 11.835 C 134.558 12.108, 131.913 11.659, 121.500 8.436 C 98.010 1.164, 92.484 -0.002, 81.639 0.026 C 73.816 0.046, 70.002 0.562, 64.942 2.287 M 73.500 6.960 C 65.660 8.655, 58.399 12.051, 51.529 17.238 C 39.636 26.215, 33.280 36.885, 32.747 48.766 C 32.510 54.052, 32.248 54.611, 29.134 56.482 C 23.099 60.110, 17.125 66.090, 15.935 69.697 C 10.353 86.611, 28.975 103.043, 52.329 101.812 C 62.577 101.271, 70.030 98.073, 76.117 91.605 C 78.500 89.072, 80.946 87, 81.551 87 C 82.156 87, 83.729 88.147, 85.046 89.549 C 92.925 97.936, 105.628 103, 118.787 103 C 132.952 103, 142.456 99.443, 151.819 90.640 C 165.640 77.644, 166.786 60.713, 154.697 48.133 C 150.670 43.942, 142.194 39.030, 138.954 39.010 C 138.103 39.004, 134.593 42.143, 131.153 45.985 C 119.936 58.514, 103.758 67.948, 86.377 72.095 C 71.131 75.733, 59.771 73.018, 53.619 64.266 C 44.118 50.748, 54.689 32.918, 75.500 27.359 C 89.207 23.698, 107.674 27.473, 105.374 33.467 C 104.659 35.332, 103.463 35.290, 92.548 33.017 C 80.483 30.503, 63.378 37.567, 58.449 47.099 C 55.269 53.247, 57.803 61.080, 64.241 65.005 C 71.273 69.293, 86.936 66.633, 104 58.253 C 111.968 54.340, 114.965 52.129, 122.586 44.544 C 127.583 39.570, 134.012 31.900, 136.871 27.500 L 142.070 19.500 136.285 18.798 C 133.103 18.412, 127.575 17.232, 124 16.175 C 120.425 15.118, 111.988 12.632, 105.252 10.650 C 92.258 6.828, 80.457 5.456, 73.500 6.960 M 157.378 94.935 L 152.255 99.898 154.623 104.699 C 155.926 107.340, 157.286 112.349, 157.647 115.832 C 158.358 122.709, 159.676 124, 165.983 124 C 170.199 124, 171.908 123.079, 173.537 119.928 C 176.815 113.590, 173.878 102.655, 166.770 94.731 L 162.500 89.971 157.378 94.935 M 78.528 98.971 C 71.938 105.849, 56.157 110.107, 43.810 108.339 C 39.736 107.755, 36.012 107.670, 35.398 108.145 C 34.792 108.615, 32.767 112.261, 30.898 116.249 C 27.753 122.961, 27.491 124.281, 27.376 134 C 27.285 141.781, 26.784 145.536, 25.444 148.500 C 24.211 151.227, 23.614 155.045, 23.568 160.500 C 23.510 167.316, 23.914 169.342, 26.294 174.190 C 29.455 180.626, 37.053 188.101, 44.588 192.188 C 47.314 193.667, 53.584 196.112, 58.522 197.622 C 66.599 200.092, 69.055 200.374, 83 200.433 C 102.167 200.516, 110.406 198.831, 124.799 191.886 C 132.950 187.953, 136.513 185.517, 141.881 180.208 C 151.168 171.023, 154.510 164.069, 154.472 154 C 154.449 147.822, 153.980 145.650, 151.812 141.678 C 149.643 137.702, 149.341 136.300, 150.090 133.685 C 152.214 126.282, 150.710 109.992, 147.503 105.654 C 146.187 103.873, 145.910 103.899, 139.757 106.360 C 131.070 109.835, 117.154 111.472, 108.849 109.995 C 100.993 108.598, 93.158 105.114, 86.408 100.019 L 81.253 96.126 78.528 98.971 M 12.541 102.223 C 4.009 112.191, 4.475 128, 13.301 128 C 17.853 128, 20.433 125.848, 21.912 120.819 C 22.610 118.443, 24.512 113.858, 26.137 110.629 C 27.762 107.401, 28.959 104.673, 28.796 104.569 C 22.049 100.244, 18.101 98, 17.240 98 C 16.644 98, 14.529 99.900, 12.541 102.223 M 0.336 118 C 0.336 122.125, 0.513 123.813, 0.728 121.750 C 0.944 119.688, 0.944 116.313, 0.728 114.250 C 0.513 112.188, 0.336 113.875, 0.336 118 M 44.750 134.572 C 43.213 135.406, 42 136.916, 42 137.997 C 42 140.411, 45.068 142.202, 47.054 140.946 C 49.283 139.535, 55.776 139.833, 58.986 141.493 C 62.610 143.367, 65 142.513, 65 139.344 C 65 134.343, 51.177 131.085, 44.750 134.572 M 100.166 138.597 C 98.737 139.597, 98.001 140.997, 98.193 142.347 C 98.440 144.082, 99.082 144.445, 101.500 144.218 C 108.703 143.540, 113.024 143.775, 114.406 144.922 C 116.916 147.005, 120.500 145.875, 120.500 143 C 120.500 141.143, 119.600 140.051, 117 138.752 C 112.510 136.509, 103.268 136.423, 100.166 138.597 M 67.011 156.487 C 63.913 160.219, 69.707 164.344, 77.937 164.267 C 84.249 164.207, 87.391 163.006, 88.975 160.047 C 89.735 158.626, 89.610 157.753, 88.484 156.626 C 87.153 155.296, 86.557 155.287, 83.518 156.557 C 79.130 158.390, 76.240 158.373, 72.636 156.494 C 69.075 154.637, 68.547 154.636, 67.011 156.487" stroke="none" fill="#F8FCE1" fill-rule="evenodd"/>
</svg>
