<svg width="160" height="160" viewBox="0 0 160 160" fill="none" xmlns="http://www.w3.org/2000/svg">
  <rect x="3" y="3" width="154" height="154" rx="15" fill="#F7B9B7" stroke="#E67C4F" stroke-width="6"/>
  <circle cx="80" cy="80" r="42" stroke="#E67C4F" stroke-width="9"/>
  <path d="M75 104c5-11 7-22 9-33 1-7-2-12-8-12-8 0-13 7-13 15 0 5 2 8 3 10l-8 30c-2 7-2 14-1 20 5-6 9-13 11-20l4-16c4 5 10 8 18 8 20 0 33-17 33-39 0-19-16-34-39-34-29 0-44 20-44 40 0 11 5 20 13 24l5-15c-3-3-4-6-4-10 0-13 10-25 28-25 15 0 24 9 24 22 0 15-8 26-18 26-6 0-10-5-8-11l4-18c1-6-2-11-8-11-7 0-12 7-12 17 0 6 2 10 2 10l-11 46Z" fill="#E67C4F"/>
</svg>
