<svg width="191" height="194" viewBox="0 0 191 194" fill="none" xmlns="http://www.w3.org/2000/svg">
<path d="M166.125 87.0161C166.084 86.5973 166.185 86.2166 166.672 86.1694C166.843 86.1528 166.988 86.2164 167.111 86.3339C167.731 86.9466 168.018 86.9705 168.712 87.369C168.922 87.4867 169.081 87.7042 169.105 87.9435C169.167 88.5844 168.433 88.8454 167.929 88.8943C166.741 89.0095 165.233 89.1126 164.042 89.2022C163.751 89.2218 163.445 89.1825 163.189 89.0347C162.933 88.887 162.737 88.6387 162.708 88.3396C162.603 87.2627 163.95 87.1839 164.676 87.1134C165.01 87.0811 165.665 87.078 165.99 87.0465C166.032 87.0423 166.083 87.0288 166.125 87.0161ZM169.398 92.614C169.46 94.5191 168.641 95.2244 166.796 95.2843C165.208 95.3359 163.021 94.6509 162.959 92.7458C162.9 90.935 164.448 89.9312 166.105 89.8774C167.795 89.8225 169.339 90.8118 169.398 92.614ZM166.758 94.1172C167.341 94.0982 167.843 93.9531 167.823 93.318C167.788 92.2367 166.796 91.5817 165.774 91.6149C165.019 91.6394 164.428 91.9593 164.456 92.8003C164.489 93.8387 165.934 94.144 166.758 94.1172ZM169.338 99.0809C169.245 100.985 168.372 101.621 166.528 101.532C164.941 101.455 162.817 100.595 162.909 98.6911C162.997 96.8815 164.622 96.0063 166.277 96.0867C167.966 96.1688 169.425 97.2799 169.338 99.0809ZM166.585 100.366C167.168 100.394 167.68 100.29 167.711 99.6552C167.763 98.5746 166.828 97.8414 165.807 97.7918C165.052 97.7551 164.438 98.0261 164.397 98.8665C164.346 99.9043 165.761 100.325 166.585 100.366ZM168.157 107.45C168.126 107.679 167.946 107.854 167.725 107.824C167.649 107.814 167.577 107.77 167.514 107.718C166.925 107.144 166.322 106.603 165.702 106.069C165.228 105.667 164.701 105.335 164.18 105.022C163.731 104.753 163.174 104.513 162.782 104.148C162.667 104.037 162.6 103.89 162.623 103.719C162.661 103.439 162.914 103.3 163.161 103.333C164.097 103.46 168.278 106.556 168.157 107.45ZM167.086 105.06C166.414 104.969 165.83 104.414 165.936 103.631C166.028 102.959 166.734 102.543 167.321 102.623C168.75 102.816 168.643 105.271 167.086 105.06ZM166.732 103.834C166.651 104.43 167.305 104.276 167.362 103.98C167.421 103.676 166.787 103.426 166.732 103.834ZM163.721 105.463C164.087 105.512 164.433 105.776 164.642 106.09C164.757 106.261 164.756 106.59 164.727 106.803C164.659 107.305 163.961 107.722 163.519 107.662C162.983 107.589 162.408 107.035 162.491 106.422C162.582 105.75 163.117 105.381 163.721 105.463ZM163.563 106.247C163.419 106.227 163.247 106.282 163.222 106.461C163.203 106.605 163.381 106.759 163.5 106.776C163.747 106.809 163.963 106.301 163.563 106.247ZM160.78 113.347C160.94 112.741 161.275 112.181 161.737 111.743C162.484 111.035 163.363 111.134 164.293 111.38C166.152 111.872 166.912 113.165 166.42 115.024C165.472 118.61 159.865 116.808 160.78 113.347ZM164.72 114.637C165.003 113.566 164.654 113.003 163.592 112.722C162.762 112.503 162.472 112.995 162.279 113.725C161.866 115.286 164.285 116.28 164.72 114.637ZM163.617 119.977C163.603 120.335 163.606 120.908 163.494 121.233C163.335 121.696 162.799 122.147 162.287 121.971C161.451 121.684 161.833 120.889 162.026 120.329C162.302 119.525 161.675 119.473 161.08 119.304C160.798 119.226 160.516 119.147 160.24 119.052C159.769 118.89 159.332 118.34 159.508 117.829C159.831 116.887 160.94 117.332 161.574 117.549C162.272 117.789 164.705 118.399 164.334 119.479C164.177 119.933 163.894 119.781 163.617 119.977ZM158.166 125.645C158.31 125.044 158.409 124.396 158.652 123.827C159.144 122.674 160.407 122.317 161.513 122.789C162.879 123.372 163.151 125.009 162.619 126.257C162.494 126.549 162.325 126.813 162.116 127.041C162.346 127.289 162.56 127.576 162.408 127.932C162.223 128.366 161.783 128.412 161.389 128.243C160.852 128.014 160.357 127.663 159.804 127.427C159.117 127.134 158.399 126.893 157.704 126.597C156.796 126.209 155.884 125.83 155.854 124.697C155.842 124.243 155.887 123.787 156.069 123.36C156.315 122.784 157.275 121.606 158.002 121.916C158.317 122.051 158.471 122.434 158.333 122.758C158.121 123.255 157.6 123.602 157.37 124.139C156.983 125.048 157.344 125.295 158.166 125.645ZM160.556 126.497C160.65 126.341 160.74 126.174 160.814 126.001C161.003 125.558 161.225 124.449 160.648 124.203C160.387 124.092 160.112 124.124 159.991 124.408C159.765 124.937 159.681 125.638 159.542 126.205C159.883 126.303 160.209 126.414 160.556 126.497ZM156.132 131.009C156.528 131.345 157.375 131.891 157.05 132.506C156.933 132.726 156.708 132.84 156.462 132.826C155.845 132.781 155.242 132.452 154.467 132.41C154.279 132.398 154.091 132.367 153.917 132.274C153.492 132.049 153.258 131.556 153.495 131.108C153.769 130.592 154.206 130.591 154.703 130.553C154.846 129.861 154.677 129.373 155.047 128.675C155.634 127.568 156.879 127.198 157.979 127.78C159.451 128.56 160.102 130.266 159.298 131.783C159.029 132.292 158.333 133.293 157.65 132.931C156.52 132.332 158.948 130.354 156.953 129.296C156.657 129.14 156.437 129.169 156.276 129.472C156.128 129.753 156.141 130.664 156.132 131.009ZM155.95 136.084C155.911 136.508 155.95 136.748 155.703 137.13C154.609 138.826 152.976 137.557 151.699 136.732C151.309 136.481 150.783 135.998 151.109 135.493C151.388 135.06 151.876 135.017 152.423 135.309C153.244 135.747 154.508 136.798 154.745 136.43C154.955 136.105 154.516 135.393 154.234 135.211C153.866 134.974 153.431 134.825 153.063 134.588C152.601 134.29 152.046 133.819 152.438 133.213C152.968 132.391 154.047 133.189 154.603 133.548C155.028 133.823 156.558 134.81 156.758 135.164C156.868 135.358 156.872 135.606 156.746 135.8C156.546 136.111 156.264 136.072 155.95 136.084ZM149.672 138.446C149.358 138.221 149.169 137.865 149.423 137.509C149.857 136.901 151.009 137.385 151.477 137.719C151.932 138.043 152.814 138.788 152.375 139.403C152.086 139.809 151.694 139.751 151.31 139.551C150.979 139.378 150.65 139.101 149.672 138.446ZM153.115 140.849C152.815 140.635 152.724 140.201 152.943 139.893C153.162 139.586 153.61 139.535 153.91 139.75C154.197 139.954 154.274 140.378 154.064 140.672C153.84 140.987 153.437 141.079 153.115 140.849ZM150.944 144.964C150.539 145.465 149.604 145.913 149.023 145.443C148.702 145.185 148.669 144.584 148.922 144.27C149.138 144.002 149.545 143.989 149.772 143.709C150.22 143.154 149.825 142.03 149.317 141.62C148.876 141.264 148.331 141.42 147.997 141.834C147.711 142.188 147.572 142.661 147.281 143.022C146.99 143.383 146.487 143.54 146.1 143.227C145.385 142.65 146.268 141.255 146.694 140.728C147.692 139.492 149.465 139.278 150.701 140.276C152.277 141.549 152.125 143.501 150.944 144.964ZM144.802 151.533C144.341 151.983 143.359 152.317 142.837 151.783C142.55 151.488 142.587 150.887 142.876 150.605C143.122 150.365 143.528 150.401 143.786 150.149C144.297 149.651 144.038 148.488 143.582 148.021C143.186 147.615 142.626 147.706 142.245 148.078C141.92 148.395 141.726 148.848 141.394 149.172C141.062 149.496 140.545 149.593 140.197 149.236C139.555 148.579 140.597 147.298 141.083 146.825C142.22 145.715 144.005 145.713 145.114 146.85C146.529 148.3 146.148 150.22 144.802 151.533ZM136.916 150.834C137.4 150.437 137.999 150.178 138.63 150.094C139.65 149.957 140.305 150.552 140.915 151.296C142.135 152.783 141.994 154.276 140.507 155.496C137.639 157.848 134.148 153.105 136.916 150.834ZM139.355 154.186C140.211 153.484 140.258 152.823 139.561 151.974C139.016 151.31 138.494 151.539 137.909 152.018C136.661 153.042 138.041 155.265 139.355 154.186ZM134.885 155.731C135.281 155.595 135.72 155.325 136.036 155.785C136.337 156.224 135.897 156.599 135.634 156.914C135.948 157.553 136.68 158.727 135.901 159.262C135.094 159.815 134.511 158.601 134.147 158.07C134.062 158.098 133.981 158.132 133.91 158.181C133.436 158.506 132.508 159.445 131.954 158.638C131.395 157.823 132.679 157.099 133.224 156.725C133.202 156.678 133.185 156.637 133.156 156.595C132.665 155.88 132.255 156.421 131.767 156.756C131.271 157.096 130.721 157.296 130.309 156.695C129.764 155.902 130.686 155.332 131.238 154.953C132.782 153.894 133.817 154.402 134.885 155.731ZM129.782 159.094C130.188 158.992 130.649 158.762 130.924 159.247C131.185 159.711 130.714 160.046 130.425 160.338C130.682 161.001 131.309 162.235 130.487 162.699C129.634 163.18 129.159 161.92 128.843 161.36C128.755 161.379 128.672 161.407 128.597 161.449C128.096 161.732 127.09 162.586 126.609 161.734C126.123 160.874 127.465 160.264 128.04 159.939C128.022 159.89 128.009 159.848 127.984 159.804C127.557 159.048 127.102 159.552 126.586 159.843C126.063 160.139 125.497 160.291 125.139 159.655C124.666 158.818 125.633 158.331 126.216 158.001C127.846 157.081 128.833 157.677 129.782 159.094ZM121.533 160.435C122.103 160.176 122.749 160.081 123.38 160.163C124.401 160.293 124.88 161.038 125.277 161.913C126.072 163.665 125.551 165.071 123.799 165.866C120.422 167.399 118.272 161.915 121.533 160.435ZM123.024 164.303C124.033 163.845 124.248 163.219 123.794 162.219C123.439 161.437 122.875 161.523 122.187 161.836C120.717 162.503 121.476 165.006 123.024 164.303ZM118.395 166.7C118.105 167.012 117.99 167.227 117.561 167.379C115.66 168.055 115.139 166.053 114.63 164.621C114.475 164.184 114.352 163.48 114.919 163.279C115.404 163.106 115.817 163.37 116.072 163.935C116.456 164.783 116.816 166.386 117.229 166.24C117.593 166.11 117.679 165.277 117.567 164.962C117.421 164.549 117.166 164.166 117.019 163.753C116.835 163.236 116.682 162.524 117.362 162.283C118.284 161.955 118.652 163.246 118.874 163.869C119.043 164.346 119.653 166.061 119.596 166.464C119.565 166.685 119.417 166.883 119.198 166.961C118.85 167.085 118.651 166.882 118.395 166.7ZM108.217 166.954C108.392 166.913 108.6 166.935 108.784 166.893C109.378 166.755 109.906 166.447 110.491 166.31C110.876 166.221 111.354 166.154 111.473 166.664C111.525 166.89 111.392 167.115 111.211 167.245C110.887 167.479 109.134 168.054 108.699 168.155C108.281 168.253 107.639 168.296 107.514 167.761C107.409 167.309 107.84 167.042 108.217 166.954ZM103.378 169.273C103.795 169.218 104.179 169.307 104.243 169.792C104.265 169.962 104.206 170.108 104.093 170.236C103.501 170.876 103.487 171.164 103.112 171.871C103.001 172.084 102.789 172.251 102.551 172.282C101.912 172.365 101.627 171.641 101.561 171.138C101.406 169.955 101.253 168.451 101.124 167.264C101.095 166.974 101.124 166.667 101.263 166.406C101.402 166.145 101.644 165.941 101.942 165.902C103.014 165.761 103.138 167.105 103.233 167.828C103.276 168.16 103.301 168.815 103.343 169.139C103.349 169.181 103.364 169.231 103.378 169.273ZM97.8554 172.715C95.9527 172.829 95.2251 172.03 95.1143 170.187C95.019 168.602 95.6434 166.397 97.5462 166.282C99.3546 166.174 100.401 167.694 100.5 169.348C100.602 171.036 99.6552 172.607 97.8554 172.715ZM96.28 170.117C96.315 170.7 96.4739 171.198 97.1082 171.16C98.1881 171.095 98.8156 170.085 98.7543 169.066C98.7089 168.311 98.3729 167.729 97.5329 167.78C96.4959 167.842 96.2305 169.295 96.28 170.117ZM91.3364 172.806C89.4311 172.751 88.7778 171.89 88.8319 170.044C88.8784 168.457 89.6971 166.316 91.6025 166.372C93.4134 166.425 94.3197 168.032 94.2712 169.688C94.2216 171.379 93.1388 172.859 91.3364 172.806ZM89.9991 170.079C89.982 170.662 90.0959 171.172 90.731 171.191C91.8124 171.223 92.5274 170.273 92.5574 169.252C92.5795 168.496 92.2968 167.887 91.4557 167.862C90.4172 167.832 90.0233 169.255 89.9991 170.079ZM82.8835 171.722C82.6536 171.692 82.4772 171.514 82.5054 171.293C82.5152 171.216 82.5591 171.144 82.6103 171.081C83.1794 170.487 83.7155 169.88 84.2453 169.255C84.6437 168.778 84.9709 168.248 85.28 167.725C85.5452 167.274 85.7809 166.716 86.1429 166.321C86.2529 166.205 86.4 166.137 86.5703 166.159C86.8514 166.194 86.9924 166.446 86.9609 166.693C86.8415 167.63 83.7779 171.836 82.8835 171.722ZM85.2643 170.632C85.3501 169.959 85.9011 169.371 86.6847 169.471C87.3576 169.557 87.7786 170.26 87.7037 170.847C87.5213 172.278 85.0656 172.19 85.2643 170.632ZM86.4878 170.268C85.8916 170.192 86.0509 170.844 86.3468 170.899C86.6512 170.956 86.8967 170.32 86.4878 170.268ZM84.8359 167.27C84.7892 167.637 84.5285 167.984 84.216 168.196C84.0453 168.312 83.7162 168.314 83.5033 168.286C83.0007 168.222 82.5786 167.528 82.635 167.085C82.7034 166.549 83.2533 165.969 83.8666 166.048C84.5394 166.133 84.913 166.666 84.8359 167.27ZM84.0503 167.118C84.0688 166.974 84.0128 166.802 83.8339 166.779C83.6891 166.761 83.5364 166.94 83.5212 167.06C83.4897 167.307 83.9993 167.519 84.0503 167.118ZM76.9399 164.333C77.5456 164.494 78.105 164.829 78.5418 165.292C79.2492 166.04 79.1487 166.919 78.9016 167.849C78.4074 169.707 77.1132 170.465 75.2545 169.971C71.6697 169.018 73.4796 163.413 76.9399 164.333ZM75.6442 168.271C76.7146 168.556 77.278 168.208 77.5604 167.146C77.781 166.316 77.2896 166.025 76.5594 165.831C74.9993 165.416 74.0012 167.834 75.6442 168.271ZM70.2682 167.126C69.9101 167.107 69.3372 167.104 69.0137 166.988C68.5527 166.824 68.1077 166.282 68.2894 165.773C68.5864 164.94 69.3768 165.331 69.9348 165.53C70.7354 165.816 70.7946 165.189 70.9699 164.596C71.0518 164.315 71.1337 164.034 71.2317 163.759C71.399 163.29 71.9539 162.859 72.4634 163.041C73.4015 163.375 72.944 164.479 72.7191 165.11C72.471 165.805 71.834 168.231 70.7584 167.847C70.3055 167.686 70.4607 167.404 70.2682 167.126ZM64.6643 161.556C65.2621 161.715 65.9081 161.829 66.471 162.084C67.6126 162.602 67.941 163.873 67.4442 164.968C66.8304 166.32 65.1869 166.555 63.9515 165.995C63.6622 165.863 63.402 165.689 63.1788 165.474C62.9259 165.699 62.634 165.906 62.2822 165.746C61.8521 165.551 61.8163 165.111 61.9937 164.72C62.235 164.188 62.5971 163.702 62.8455 163.154C63.1542 162.474 63.4117 161.761 63.7239 161.073C64.1319 160.174 64.5322 159.271 65.6656 159.267C66.1189 159.265 66.5745 159.321 66.9967 159.513C67.5675 159.772 68.7228 160.758 68.3964 161.477C68.2545 161.79 67.868 161.935 67.5474 161.79C67.0548 161.566 66.7198 161.037 66.1881 160.796C65.2889 160.388 65.0333 160.743 64.6643 161.556ZM63.7584 163.927C63.9119 164.025 64.0768 164.119 64.2489 164.197C64.6867 164.395 65.7911 164.642 66.0502 164.071C66.1672 163.813 66.1415 163.537 65.86 163.41C65.3362 163.172 64.6369 163.071 64.074 162.92C63.9676 163.258 63.8491 163.581 63.7584 163.927ZM59.3483 159.365C59.0005 159.75 58.4286 160.58 57.8243 160.236C57.608 160.113 57.5012 159.884 57.5222 159.639C57.5864 159.023 57.9339 158.431 57.999 157.657C58.0169 157.47 58.0539 157.284 58.1517 157.112C58.3897 156.694 58.89 156.475 59.3302 156.726C59.8375 157.015 59.8252 157.453 59.8482 157.95C60.5353 158.114 61.0282 157.96 61.7145 158.352C62.8037 158.972 63.1354 160.228 62.5191 161.31C61.6944 162.757 59.9698 163.356 58.4778 162.506C57.978 162.221 56.9984 161.495 57.3809 160.823C58.0143 159.712 59.9173 162.199 61.0353 160.237C61.201 159.946 61.1784 159.726 60.88 159.556C60.604 159.399 59.6934 159.384 59.3483 159.365ZM54.2843 159.029C53.8611 158.977 53.6201 159.009 53.2454 158.751C51.5843 157.605 52.9026 156.011 53.7654 154.76C54.0286 154.378 54.5273 153.867 55.0221 154.208C55.4462 154.501 55.4742 154.989 55.1657 155.528C54.7029 156.335 53.6142 157.566 53.9747 157.814C54.2927 158.034 55.0186 157.616 55.2087 157.341C55.4573 156.98 55.6188 156.549 55.8674 156.189C56.1794 155.736 56.6666 155.196 57.2603 155.606C58.0662 156.161 57.2351 157.215 56.8597 157.76C56.5722 158.177 55.5388 159.675 55.1786 159.865C54.9816 159.969 54.734 159.965 54.5431 159.833C54.2392 159.624 54.2865 159.344 54.2843 159.029ZM52.1268 152.64C52.3668 152.337 52.7321 152.167 53.0753 152.439C53.6607 152.903 53.1186 154.029 52.7612 154.48C52.4145 154.917 51.6258 155.76 51.0337 155.291C50.6434 154.982 50.7208 154.594 50.9404 154.22C51.1294 153.899 51.423 153.583 52.1268 152.64ZM49.5522 155.957C49.7815 155.668 50.2197 155.599 50.5158 155.834C50.8118 156.068 50.8393 156.517 50.61 156.807C50.3913 157.083 49.9638 157.138 49.6812 156.914C49.3784 156.674 49.3068 156.267 49.5522 155.957ZM45.5559 153.593C45.0751 153.165 44.6734 152.209 45.1704 151.651C45.4446 151.343 46.0464 151.339 46.3477 151.608C46.6041 151.836 46.5972 152.244 46.8664 152.484C47.3985 152.958 48.5405 152.619 48.9746 152.131C49.3516 151.708 49.2225 151.156 48.8251 150.802C48.4853 150.499 48.0199 150.338 47.6737 150.029C47.3276 149.721 47.1948 149.211 47.5262 148.84C48.1374 148.154 49.4874 149.104 49.9939 149.555C51.1798 150.612 51.3067 152.392 50.2499 153.578C48.9019 155.091 46.9598 154.844 45.5559 153.593ZM39.2798 147.111C38.8556 146.627 38.5751 145.629 39.1372 145.137C39.4473 144.865 40.0451 144.935 40.3109 145.239C40.5371 145.497 40.4798 145.901 40.7173 146.173C41.1867 146.709 42.3619 146.513 42.853 146.083C43.2794 145.71 43.2195 145.146 42.8688 144.746C42.5691 144.403 42.1272 144.185 41.8218 143.836C41.5164 143.487 41.4477 142.966 41.8224 142.638C42.5137 142.033 43.736 143.142 44.1828 143.652C45.229 144.848 45.1349 146.63 43.9397 147.677C42.415 149.011 40.5183 148.526 39.2798 147.111ZM40.4199 139.261C40.7874 139.769 41.0087 140.382 41.0545 141.017C41.1297 142.044 40.4956 142.661 39.7165 143.225C38.1583 144.352 36.6767 144.121 35.5492 142.563C33.3748 139.558 38.321 136.36 40.4199 139.261ZM36.9261 141.492C37.5754 142.39 38.2317 142.477 39.1221 141.832C39.8177 141.329 39.6208 140.793 39.1779 140.181C38.2316 138.873 35.9295 140.115 36.9261 141.492ZM35.6524 136.919C35.7621 137.324 36.0026 137.78 35.5225 138.064C35.0645 138.336 34.7195 137.872 34.4221 137.589C33.7639 137.859 32.544 138.512 32.0625 137.699C31.5635 136.857 32.8135 136.356 33.3675 136.028C33.3459 135.941 33.3169 135.858 33.2731 135.784C32.9799 135.289 32.1047 134.301 32.9468 133.802C33.7962 133.299 34.4339 134.627 34.771 135.196C34.8197 135.177 34.861 135.163 34.9053 135.137C35.6514 134.694 35.1384 134.25 34.8364 133.74C34.53 133.223 34.3667 132.661 34.9945 132.289C35.8219 131.799 36.3291 132.756 36.6705 133.332C37.6247 134.942 37.0494 135.942 35.6524 136.919ZM32.6362 131.613C32.7115 132.025 32.9128 132.5 32.4104 132.743C31.9312 132.975 31.6265 132.484 31.354 132.177C30.6753 132.391 29.4048 132.939 28.9934 132.089C28.5669 131.208 29.8547 130.813 30.4343 130.533C30.4201 130.444 30.3981 130.36 30.3607 130.282C30.1101 129.765 29.3211 128.706 30.2022 128.28C31.091 127.849 31.6147 129.227 31.9027 129.822C31.9528 129.807 31.9952 129.796 32.0416 129.774C32.8222 129.396 32.3484 128.91 32.0903 128.377C31.8285 127.836 31.713 127.262 32.3699 126.944C33.2355 126.525 33.6605 127.521 33.9522 128.124C34.7677 129.809 34.1103 130.757 32.6362 131.613ZM31.8202 123.297C32.0427 123.883 32.0965 124.533 31.9754 125.158C31.7804 126.169 31.0073 126.6 30.1082 126.941C28.31 127.624 26.9399 127.014 26.2574 125.216C24.9412 121.748 30.5498 119.95 31.8202 123.297ZM27.8657 124.541C28.2587 125.577 28.8697 125.831 29.8972 125.441C30.7 125.137 30.6495 124.568 30.3814 123.862C29.8086 122.353 27.2624 122.952 27.8657 124.541ZM25.7652 119.792C25.4702 119.485 25.2632 119.357 25.1363 118.92C24.5733 116.982 26.6025 116.581 28.0619 116.157C28.5072 116.027 29.2168 115.946 29.3845 116.523C29.5282 117.018 29.241 117.415 28.6618 117.636C27.7928 117.969 26.1711 118.235 26.2933 118.655C26.4011 119.026 27.2273 119.162 27.5488 119.069C27.9694 118.946 28.367 118.715 28.7875 118.592C29.3152 118.439 30.0341 118.329 30.2354 119.021C30.5084 119.961 29.1982 120.252 28.5633 120.437C28.0769 120.578 26.3288 121.086 25.9298 121.005C25.7114 120.961 25.522 120.802 25.4574 120.579C25.3543 120.225 25.5682 120.037 25.7652 119.792ZM26.122 109.622C26.1532 109.799 26.1197 110.006 26.1524 110.192C26.258 110.792 26.5367 111.336 26.6407 111.928C26.7091 112.317 26.7501 112.798 26.2342 112.889C26.0059 112.929 25.7887 112.784 25.6684 112.596C25.4523 112.259 24.9734 110.478 24.8961 110.038C24.8218 109.615 24.8133 108.971 25.3545 108.876C25.8111 108.796 26.0551 109.241 26.122 109.622ZM24.0662 104.673C24.0991 105.093 23.9909 105.472 23.503 105.51C23.3318 105.523 23.1888 105.457 23.0675 105.337C22.4588 104.713 22.1723 104.684 21.4855 104.273C21.2779 104.151 21.1229 103.931 21.1041 103.691C21.0538 103.049 21.7924 102.802 22.2974 102.762C23.4873 102.669 24.9972 102.594 26.189 102.526C26.4807 102.512 26.7857 102.557 27.0388 102.71C27.2919 102.862 27.4839 103.114 27.5073 103.414C27.5918 104.492 26.2438 104.546 25.5162 104.603C25.1824 104.629 24.5271 104.62 24.2018 104.646C24.159 104.649 24.1084 104.662 24.0662 104.673ZM20.9116 98.9858C20.894 97.0797 21.7292 96.3937 23.5751 96.3766C25.1635 96.362 27.3341 97.0975 27.3517 99.0036C27.3685 100.815 25.7975 101.783 24.1404 101.798C22.449 101.814 20.9283 100.789 20.9116 98.9858ZM23.5859 97.5443C23.0021 97.5497 22.4967 97.6832 22.5026 98.3185C22.5125 99.4003 23.4891 100.078 24.5108 100.069C25.2664 100.062 25.8646 99.7558 25.8568 98.9144C25.8472 97.8755 24.4101 97.5367 23.5859 97.5443ZM21.1245 92.5165C21.2626 90.6154 22.151 89.9999 23.9922 90.1337C25.5765 90.2488 27.6798 91.1592 27.5416 93.0604C27.4103 94.8673 25.7655 95.7034 24.1127 95.5832C22.4257 95.4606 20.9938 94.3149 21.1245 92.5165ZM23.9076 91.2983C23.3253 91.256 22.8107 91.3477 22.7646 91.9815C22.6862 93.0605 23.6041 93.8159 24.6232 93.89C25.3768 93.9447 25.998 93.6886 26.059 92.8493C26.1343 91.8131 24.7297 91.3581 23.9076 91.2983ZM22.4889 84.1934C22.5249 83.9644 22.7082 83.7933 22.9288 83.828C23.0051 83.84 23.0761 83.8859 23.1373 83.9389C23.7145 84.5251 24.3054 85.0786 24.9147 85.6263C25.3802 86.0384 25.9 86.3808 26.414 86.7049C26.857 86.9831 27.4085 87.2349 27.7931 87.6082C27.9057 87.7215 27.9692 87.8706 27.9425 88.0402C27.8986 88.3201 27.6429 88.4538 27.3969 88.4151C26.4639 88.2685 22.349 85.0841 22.4889 84.1934ZM23.5094 86.6049C24.1795 86.7102 24.7508 87.278 24.6282 88.0583C24.5229 88.7284 23.8081 89.1289 23.2228 89.037C21.7978 88.8131 21.9571 86.361 23.5094 86.6049ZM23.837 87.8384C23.9303 87.2447 23.2738 87.3849 23.2102 87.6791C23.1453 87.9818 23.7731 88.2456 23.837 87.8384ZM26.8815 86.2742C26.5168 86.2169 26.1769 85.9462 25.9749 85.6277C25.8631 85.4537 25.8714 85.1247 25.9047 84.9126C25.9833 84.4122 26.6896 84.0104 27.1307 84.0797C27.6651 84.1636 28.2279 84.7301 28.132 85.3408C28.0267 86.0109 27.4837 86.3689 26.8815 86.2742ZM27.0563 85.4934C27.2005 85.5161 27.3737 85.465 27.4017 85.2869C27.4243 85.1427 27.2492 84.9848 27.1305 84.9662C26.8845 84.9275 26.6577 85.4308 27.0563 85.4934ZM29.9984 78.4556C29.825 79.0579 29.4783 79.6103 29.0069 80.0375C28.2447 80.7294 27.3675 80.6109 26.4434 80.3448C24.5951 79.8126 23.8642 78.5032 24.3964 76.6549C25.4227 73.0905 30.9891 75.0149 29.9984 78.4556ZM26.088 77.0794C25.7815 78.1438 26.1176 78.7142 27.1738 79.0183C27.9989 79.2558 28.2994 78.7705 28.5085 78.0444C28.9551 76.4932 26.5583 75.4457 26.088 77.0794ZM27.3 71.7715C27.3213 71.4135 27.3299 70.8406 27.448 70.5181C27.6163 70.0586 28.1616 69.6182 28.6695 69.8041C29.5 70.1082 29.1021 70.8952 28.8984 71.4515C28.6061 72.2497 29.2317 72.3142 29.8241 72.4945C30.1041 72.5788 30.3841 72.663 30.6583 72.7634C31.1259 72.9346 31.5523 73.4931 31.3664 74.0011C31.0239 74.9363 29.9238 74.4695 29.2949 74.2393C28.6015 73.9854 26.1815 73.3278 26.5741 72.2555C26.7395 71.804 27.0201 71.9616 27.3 71.7715ZM32.8971 66.2135C32.7365 66.8105 32.6197 67.456 32.3618 68.0179C31.8389 69.1572 30.5664 69.4801 29.4739 68.9787C28.1239 68.3591 27.8962 66.7146 28.4621 65.4817C28.5946 65.1929 28.7703 64.9335 28.9858 64.7111C28.7621 64.4573 28.5564 64.1645 28.7176 63.8134C28.9146 63.3842 29.3553 63.3503 29.7455 63.5293C30.2761 63.7729 30.7608 64.1371 31.3071 64.3878C31.986 64.6994 32.6978 64.9599 33.3845 65.2751C34.2819 65.687 35.1829 66.0911 35.1823 67.2245C35.1821 67.6779 35.1242 68.1332 34.9308 68.5546C34.6694 69.1242 33.6781 70.2753 32.9602 69.9458C32.6481 69.8026 32.5045 69.4155 32.6514 69.0955C32.877 68.6039 33.4076 68.2711 33.6512 67.7405C34.0631 66.8431 33.7087 66.586 32.8971 66.2135ZM30.5306 65.2974C30.432 65.4505 30.3376 65.615 30.2588 65.7867C30.0582 66.2237 29.8069 67.3271 30.3765 67.5885C30.6341 67.7067 30.9099 67.6821 31.0388 67.4012C31.2788 66.8784 31.3822 66.1795 31.5364 65.6173C31.1985 65.5094 30.8756 65.3896 30.5306 65.2974ZM35.0639 60.9058C34.6769 60.5603 33.8432 59.9933 34.1839 59.387C34.3059 59.17 34.5341 59.0618 34.7792 59.0814C35.3952 59.1419 35.9898 59.4859 36.7634 59.5464C36.951 59.5631 37.1377 59.599 37.3098 59.6958C37.729 59.9313 37.9509 60.4303 37.7027 60.8719C37.4167 61.381 36.9789 61.3713 36.4817 61.3973C36.3216 62.0853 36.4785 62.5773 36.0915 63.266C35.4774 64.3588 34.2231 64.698 33.1377 64.0881C31.6856 63.2721 31.0768 61.5511 31.9181 60.054C32.1999 59.5525 32.9202 58.5686 33.5939 58.9472C34.7092 59.5739 32.233 61.4917 34.2016 62.5979C34.4936 62.762 34.7138 62.738 34.8821 62.4386C35.0377 62.1617 35.0472 61.251 35.0639 60.9058ZM35.3324 55.8657C35.3779 55.4418 35.3423 55.2013 35.595 54.8228C36.7153 53.1446 38.3291 54.4387 39.5931 55.2826C39.9787 55.54 40.4975 56.0309 40.1638 56.5308C39.8778 56.9592 39.3896 56.9946 38.8468 56.6942C38.0327 56.2436 36.7855 55.1736 36.5423 55.5378C36.3278 55.8592 36.756 56.5786 37.0345 56.7645C37.3987 57.0077 37.832 57.1627 38.1962 57.4059C38.6533 57.711 39.2007 58.19 38.8002 58.7898C38.2568 59.6039 37.1904 58.7888 36.6405 58.4217C36.2192 58.1405 34.7053 57.1298 34.5102 56.7725C34.4032 56.5771 34.4034 56.3295 34.5321 56.1366C34.7371 55.8296 35.018 55.8726 35.3324 55.8657ZM41.681 53.6099C41.9882 53.8443 42.1655 54.2064 41.8999 54.5545C41.4467 55.1484 40.3108 54.6272 39.8534 54.2782C39.4097 53.9397 38.5523 53.1667 39.0107 52.566C39.3128 52.1701 39.702 52.2403 40.0798 52.4529C40.4045 52.6359 40.725 52.9236 41.681 53.6099ZM38.317 51.0971C38.6105 51.321 38.6876 51.7579 38.4585 52.0582C38.2293 52.3586 37.7808 52.3943 37.4873 52.1704C37.2074 51.9568 37.1439 51.5304 37.3627 51.2437C37.5971 50.9365 38.003 50.8575 38.317 51.0971ZM40.5689 47.069C40.9856 46.578 41.9316 46.1533 42.5012 46.6367C42.8154 46.9034 42.8342 47.5049 42.573 47.8126C42.3508 48.0745 41.9429 48.0774 41.7095 48.3523C41.2484 48.8957 41.6153 50.0292 42.1128 50.4514C42.5449 50.8181 43.0937 50.6757 43.4382 50.2699C43.7326 49.9229 43.8831 49.4537 44.1831 49.1002C44.4831 48.7467 44.989 48.6017 45.3687 48.924C46.0692 49.5184 45.152 50.891 44.7131 51.4082C43.6853 52.6193 41.9082 52.7891 40.6971 51.7613C39.1522 50.4501 39.3522 48.5027 40.5689 47.069ZM46.8408 40.6372C47.312 40.1982 48.301 39.8869 48.8103 40.4334C49.0913 40.7349 49.0397 41.3346 48.7445 41.6097C48.4932 41.8438 48.0877 41.7991 47.8239 42.0449C47.3025 42.5308 47.5346 43.6993 47.9795 44.1768C48.3658 44.5914 48.9274 44.514 49.3169 44.1511C49.6498 43.8409 49.854 43.3924 50.1932 43.0763C50.5324 42.7603 51.0518 42.6753 51.3913 43.0397C52.0176 43.7118 50.9466 44.968 50.4503 45.4304C49.2882 46.5133 47.5034 46.4746 46.4205 45.3124C45.0392 43.8299 45.4651 41.9191 46.8408 40.6372ZM54.7116 41.5198C54.2176 41.9055 53.6126 42.1491 52.9801 42.2181C51.9569 42.3307 51.3164 41.7196 50.7246 40.9617C49.541 39.4457 49.7182 37.9565 51.2342 36.7729C54.1579 34.4902 57.5338 39.3164 54.7116 41.5198ZM52.3542 38.1098C51.4812 38.7914 51.4184 39.4505 52.0947 40.3167C52.6231 40.9935 53.1514 40.7772 53.747 40.3122C55.0193 39.3188 53.6942 37.0635 52.3542 38.1098ZM56.867 36.6719C56.4676 36.7977 56.0213 37.0562 55.7178 36.5878C55.4283 36.141 55.8784 35.7778 56.1492 35.4693C55.8528 34.8224 55.1515 33.6296 55.9442 33.116C56.7656 32.5837 57.3164 33.8127 57.6666 34.3531C57.7526 34.3281 57.834 34.2958 57.9061 34.2491C58.3889 33.9363 59.3416 33.0223 59.8738 33.8437C60.4108 34.6724 59.1085 35.3627 58.5537 35.7222C58.5745 35.7701 58.5906 35.8108 58.6186 35.8541C59.0902 36.5819 59.5139 36.0515 60.0111 35.7294C60.5155 35.4025 61.0705 35.2169 61.4674 35.8294C61.9903 36.6364 61.0543 37.1815 60.4923 37.5457C58.9214 38.5635 57.8996 38.0286 56.867 36.6719ZM62.0441 33.4464C61.6357 33.5387 61.1694 33.7593 60.9058 33.2674C60.6543 32.7982 61.1329 32.4735 61.4283 32.1885C61.1865 31.5193 60.5864 30.2725 61.4189 29.8263C62.2816 29.3639 62.7287 30.6342 63.0329 31.2018C63.1208 31.184 63.2046 31.1585 63.2802 31.118C63.7873 30.8462 64.8124 30.0142 65.2748 30.877C65.7413 31.7472 64.3863 32.3273 63.8036 32.6397C63.8204 32.6891 63.8331 32.731 63.8574 32.7764C64.2671 33.5408 64.7333 33.0474 65.2555 32.7675C65.7852 32.4835 66.3536 32.3445 66.6984 32.9877C67.1527 33.8353 66.1748 34.301 65.5846 34.6174C63.9348 35.5017 62.9607 34.884 62.0441 33.4464ZM70.3209 32.2907C69.7444 32.5365 69.0971 32.6165 68.4682 32.5207C67.4504 32.3666 66.9884 31.6115 66.6112 30.7269C65.8568 28.9577 66.4106 27.5641 68.1798 26.8097C71.5918 25.3548 73.6145 30.8863 70.3209 32.2907ZM68.9188 28.3895C67.8999 28.8239 67.6699 29.4447 68.101 30.4557C68.4378 31.2455 69.0039 31.1721 69.6989 30.8758C71.1838 30.2426 70.4826 27.7226 68.9188 28.3895ZM73.5972 26.1001C73.8938 25.7939 74.0138 25.5824 74.4458 25.4395C76.3615 24.8058 76.8375 26.8188 77.3148 28.2617C77.4604 28.7019 77.5674 29.4081 76.9968 29.5969C76.5077 29.7587 76.101 29.4862 75.858 28.9155C75.4934 28.0593 75.1685 26.4485 74.7527 26.586C74.3859 26.7074 74.2808 27.538 74.386 27.8559C74.5235 28.2716 74.7697 28.6605 74.9073 29.0762C75.0799 29.5979 75.2167 30.3124 74.532 30.5389C73.6026 30.8463 73.2635 29.5476 73.0558 28.92C72.8967 28.439 72.3251 26.7108 72.3911 26.3091C72.4269 26.0893 72.5794 25.8941 72.7995 25.8213C73.1501 25.7053 73.3451 25.9122 73.5972 26.1001ZM83.7778 26.0861C83.6014 26.1235 83.394 26.0973 83.2092 26.1364C82.6128 26.2629 82.0791 26.5604 81.4911 26.685C81.1047 26.767 80.6255 26.8247 80.5168 26.3123C80.4687 26.0855 80.6059 25.8633 80.7897 25.7366C81.1188 25.5088 82.8825 24.9681 83.3193 24.8755C83.7393 24.7865 84.3822 24.7555 84.4962 25.2931C84.5923 25.7466 84.1558 26.0059 83.7778 26.0861ZM88.6776 23.8792C88.2593 23.9239 87.8775 23.8266 87.8255 23.3399C87.8073 23.1692 87.8695 23.0243 87.9857 22.8997C88.5923 22.2735 88.6134 21.9863 89.005 21.2882C89.1207 21.0772 89.3366 20.9159 89.5756 20.8904C90.2159 20.8219 90.4841 21.5531 90.5379 22.0569C90.6648 23.2436 90.7828 24.7508 90.8841 25.9402C90.9066 26.2314 90.8702 26.5375 90.725 26.7949C90.5798 27.0522 90.3334 27.2512 90.0346 27.2832C88.9589 27.3982 88.8668 26.0523 88.7892 25.3266C88.7536 24.9936 88.744 24.3384 88.7093 24.014C88.7047 23.9713 88.6907 23.921 88.6776 23.8792ZM94.3076 20.5794C96.2128 20.5178 96.918 21.3368 96.9777 23.1819C97.0291 24.7695 96.3439 26.9566 94.4388 27.0183C92.628 27.0769 91.6243 25.5287 91.5707 23.8724C91.516 22.1818 92.5055 20.6378 94.3076 20.5794ZM95.8106 23.2197C95.7917 22.6361 95.6466 22.134 95.0115 22.1545C93.9302 22.1895 93.2751 23.1815 93.3081 24.2027C93.3326 24.9579 93.6524 25.5489 94.4934 25.5217C95.5318 25.4881 95.8372 24.0435 95.8106 23.2197ZM100.83 20.67C102.733 20.7793 103.362 21.6583 103.256 23.5013C103.165 25.0872 102.286 27.204 100.383 27.0946C98.5745 26.9907 97.7137 25.3587 97.8087 23.7043C97.9058 22.0156 99.0297 20.5665 100.83 20.67ZM102.09 23.4343C102.124 22.8514 102.024 22.3383 101.39 22.3018C100.31 22.2397 99.5682 23.169 99.5096 24.1891C99.4662 24.9434 99.7317 25.5607 100.572 25.609C101.609 25.6686 102.043 24.2572 102.09 23.4343ZM109.219 21.9603C109.449 21.9948 109.621 22.1771 109.588 22.3978C109.576 22.4743 109.531 22.5456 109.478 22.6071C108.895 23.1879 108.346 23.7823 107.802 24.395C107.393 24.863 107.053 25.385 106.732 25.901C106.457 26.3458 106.209 26.8988 105.838 27.2858C105.725 27.399 105.577 27.4635 105.407 27.4379C105.127 27.3956 104.991 27.1408 105.028 26.8946C105.169 25.9607 108.328 21.8259 109.219 21.9603ZM106.814 22.9958C106.713 23.6665 106.149 24.2414 105.368 24.1237C104.697 24.0226 104.292 23.3103 104.381 22.7245C104.595 21.2981 107.049 21.4421 106.814 22.9958ZM105.583 23.3312C106.177 23.4208 106.033 22.7651 105.738 22.7034C105.435 22.6403 105.175 23.2698 105.583 23.3312ZM107.166 26.3658C107.221 26.0007 107.49 25.6591 107.807 25.4551C107.98 25.3423 108.309 25.3485 108.522 25.3805C109.022 25.456 109.429 26.1598 109.362 26.6013C109.282 27.1362 108.719 27.7026 108.107 27.6104C107.437 27.5094 107.075 26.9686 107.166 26.3658ZM107.948 26.5358C107.926 26.6801 107.978 26.8529 108.157 26.8798C108.301 26.9016 108.458 26.7255 108.476 26.6066C108.513 26.3604 108.008 26.1367 107.948 26.5358ZM114.994 29.4705C114.393 29.2943 113.842 28.9451 113.417 28.4716C112.729 27.7063 112.851 26.8296 113.121 25.9068C113.662 24.061 114.975 23.3361 116.821 23.8768C120.38 24.9195 118.43 30.477 114.994 29.4705ZM116.388 25.5664C115.325 25.255 114.754 25.5886 114.445 26.6433C114.203 27.4673 114.687 27.7701 115.412 27.9825C116.961 28.4363 118.02 26.0443 116.388 25.5664ZM121.739 26.8504C122.097 26.8781 122.669 26.8968 122.99 27.0205C123.446 27.1969 123.877 27.7499 123.682 28.2545C123.363 29.0794 122.584 28.6677 122.031 28.4543C121.238 28.1479 121.163 28.7723 120.972 29.3614C120.883 29.6399 120.793 29.9184 120.688 30.1907C120.509 30.6553 119.943 31.0718 119.438 30.8768C118.509 30.5179 118.995 29.4263 119.237 28.8016C119.503 28.1127 120.203 25.7047 121.268 26.1161C121.717 26.2894 121.554 26.5672 121.739 26.8504ZM127.197 32.5534C126.603 32.3811 125.96 32.2517 125.403 31.983C124.274 31.4379 123.976 30.1594 124.499 29.0769C125.145 27.7392 126.793 27.5436 128.015 28.1334C128.301 28.2716 128.557 28.4523 128.775 28.6721C129.033 28.4534 129.33 28.2535 129.678 28.4215C130.103 28.6268 130.129 29.0681 129.942 29.4547C129.688 29.9805 129.315 30.458 129.053 30.9992C128.728 31.6719 128.454 32.3785 128.126 33.0589C127.696 33.9481 127.275 34.8411 126.141 34.8184C125.688 34.8093 125.234 34.7426 124.817 34.541C124.252 34.2685 123.121 33.255 123.464 32.5436C123.613 32.2343 124.003 32.0983 124.32 32.2514C124.807 32.4866 125.13 33.0236 125.655 33.2775C126.545 33.7068 126.809 33.3575 127.197 32.5534ZM128.159 30.2052C128.008 30.1036 127.845 30.006 127.675 29.9239C127.242 29.7148 126.144 29.442 125.871 30.0064C125.748 30.2616 125.767 30.5378 126.046 30.6722C126.564 30.9223 127.26 31.0394 127.82 31.2045C127.934 30.8688 128.06 30.5483 128.159 30.2052ZM132.46 34.8722C132.817 34.4958 133.409 33.6795 134.004 34.0383C134.218 34.1667 134.319 34.3981 134.292 34.6425C134.213 35.2564 133.851 35.8404 133.768 36.6119C133.745 36.7989 133.704 36.9843 133.602 37.1535C133.354 37.5654 132.848 37.7723 132.414 37.5109C131.914 37.2098 131.937 36.7724 131.926 36.2747C131.243 36.094 130.747 36.236 130.07 35.8285C128.996 35.1819 128.695 33.918 129.337 32.8514C130.196 31.4244 131.935 30.8676 133.406 31.7534C133.899 32.0502 134.86 32.7998 134.462 33.4618C133.802 34.5578 131.959 32.025 130.794 33.9596C130.622 34.2464 130.639 34.4674 130.933 34.6445C131.205 34.8084 132.115 34.8452 132.46 34.8722ZM137.529 35.3516C137.951 35.4158 138.192 35.3908 138.559 35.6599C140.187 36.8531 138.823 38.4083 137.924 39.6339C137.65 40.0078 137.136 40.5045 136.652 40.1491C136.236 39.8444 136.222 39.3551 136.546 38.8261C137.033 38.0326 138.156 36.8338 137.803 36.5749C137.492 36.3464 136.754 36.7425 136.556 37.0125C136.297 37.3656 136.123 37.7917 135.864 38.1448C135.539 38.588 135.037 39.1138 134.455 38.6873C133.666 38.1085 134.527 37.0791 134.918 36.5459C135.217 36.1374 136.294 34.6694 136.659 34.4903C136.859 34.392 137.107 34.4031 137.294 34.5401C137.591 34.7585 137.536 35.0373 137.529 35.3516ZM139.507 41.7816C139.261 42.0796 138.892 42.2428 138.554 41.964C137.978 41.4884 138.543 40.3733 138.909 39.9297C139.264 39.4993 140.07 38.6722 140.652 39.1533C141.036 39.4704 140.951 39.8566 140.724 40.2259C140.529 40.5435 140.229 40.8526 139.507 41.7816ZM142.147 38.5165C141.912 38.8013 141.472 38.8615 141.181 38.621C140.89 38.3805 140.871 37.9309 141.106 37.6462C141.33 37.3747 141.759 37.3277 142.037 37.5573C142.335 37.8033 142.398 38.212 142.147 38.5165ZM146.103 40.9922C146.573 41.4324 146.951 42.398 146.441 42.9432C146.159 43.2441 145.557 43.2335 145.263 42.9576C145.012 42.7229 145.029 42.3153 144.766 42.0688C144.246 41.5817 143.096 41.8928 142.65 42.3691C142.262 42.7828 142.378 43.3379 142.766 43.7017C143.098 44.0128 143.56 44.186 143.898 44.5029C144.237 44.8198 144.357 45.3322 144.016 45.6957C143.388 46.3663 142.062 45.3832 141.567 44.9196C140.408 43.8339 140.325 42.0506 141.41 40.8912C142.796 39.4121 144.731 39.7069 146.103 40.9922ZM152.215 47.6413C152.627 48.1367 152.881 49.142 152.306 49.6192C151.989 49.8825 151.394 49.7968 151.136 49.4864C150.916 49.2222 150.984 48.8199 150.754 48.5425C150.298 47.9942 149.118 48.1593 148.616 48.5762C148.18 48.9382 148.226 49.5034 148.566 49.9129C148.857 50.263 149.293 50.4924 149.589 50.8491C149.885 51.2058 149.94 51.7292 149.557 52.0474C148.85 52.6343 147.657 51.4933 147.224 50.9715C146.209 49.7495 146.35 47.9699 147.572 46.955C149.13 45.6605 151.014 46.1947 152.215 47.6413ZM150.879 55.4527C150.523 54.9366 150.316 54.3182 150.285 53.6828C150.233 52.6547 150.881 52.0516 151.672 51.5057C153.256 50.414 154.732 50.6791 155.824 52.2626C157.929 55.3164 152.911 58.4004 150.879 55.4527ZM154.423 53.3014C153.794 52.3895 153.14 52.2878 152.235 52.9117C151.528 53.399 151.713 53.9392 152.142 54.5612C153.058 55.8902 155.388 54.7011 154.423 53.3014ZM155.592 57.903C155.492 57.4965 155.262 57.0347 155.748 56.7614C156.213 56.5007 156.547 56.9728 156.837 57.2625C157.502 57.0075 158.736 56.3829 159.199 57.2063C159.678 58.0597 158.417 58.5319 157.856 58.8473C157.875 58.9347 157.902 59.018 157.944 59.0929C158.226 59.5944 159.078 60.6029 158.225 61.0822C157.364 61.5658 156.757 60.2227 156.433 59.6462C156.384 59.664 156.343 59.6775 156.298 59.7027C155.542 60.1275 156.044 60.5838 156.334 61.1003C156.629 61.6243 156.779 62.1899 156.143 62.5473C155.304 63.0183 154.819 62.0499 154.491 61.466C153.575 59.834 154.173 58.8479 155.592 57.903ZM158.485 63.2763C158.419 62.8628 158.228 62.3834 158.736 62.1518C159.22 61.9308 159.514 62.4292 159.78 62.7422C160.463 62.5436 161.745 62.0244 162.137 62.8837C162.544 63.7742 161.248 64.1392 160.662 64.4065C160.674 64.4953 160.694 64.5806 160.73 64.6587C160.968 65.1821 161.733 66.2582 160.843 66.6646C159.944 67.0745 159.452 65.6852 159.177 65.0838C159.127 65.0973 159.084 65.1074 159.038 65.1287C158.249 65.4888 158.711 65.9855 158.957 66.5245C159.207 67.0713 159.309 67.6474 158.645 67.9504C157.77 68.3496 157.368 67.344 157.09 66.7347C156.313 65.0318 156.992 64.0992 158.485 63.2763ZM159.112 71.6098C158.903 71.0188 158.864 70.3678 158.999 69.7462C159.217 68.7401 160 68.3268 160.907 68.0062C162.72 67.3652 164.076 68.006 164.717 69.8193C165.953 73.3164 160.305 74.9855 159.112 71.6098ZM163.094 70.457C162.725 69.4127 162.119 69.1439 161.083 69.5102C160.274 69.7964 160.311 70.3661 160.563 71.0784C161.101 72.6003 163.66 72.0598 163.094 70.457ZM165.083 75.2708C165.37 75.5861 165.574 75.7192 165.689 76.1593C166.201 78.1111 164.162 78.4594 162.692 78.8448C162.243 78.9624 161.532 79.0247 161.379 78.4433C161.249 77.9449 161.546 77.5563 162.131 77.3496C163.008 77.0397 164.637 76.817 164.526 76.3934C164.428 76.0197 163.605 75.8625 163.281 75.9474C162.858 76.0584 162.454 76.2796 162.031 76.3907C161.499 76.5301 160.777 76.6216 160.594 75.924C160.346 74.9771 161.664 74.7205 162.303 74.5528C162.793 74.4243 164.554 73.9627 164.951 74.0539C165.168 74.1035 165.353 74.268 165.412 74.4923C165.505 74.8494 165.287 75.031 165.083 75.2708ZM164.094 82.8706C164.061 82.6933 164.092 82.4866 164.057 82.3009C163.945 81.7016 163.661 81.1608 163.55 80.57C163.478 80.1817 163.432 79.7012 163.947 79.605C164.175 79.5625 164.393 79.705 164.516 79.8919C164.735 80.2264 165.233 82.0027 165.315 82.4416C165.394 82.8636 165.409 83.5071 164.869 83.608C164.413 83.6931 164.165 83.2504 164.094 82.8706Z" fill="#847267" stroke="#847267" stroke-width="3.21984"/>
</svg>
