<svg width="238" height="479" viewBox="0 0 238 479" fill="none" xmlns="http://www.w3.org/2000/svg">
<path d="M205.738 20.2086C206.658 19.7148 207.508 19.2705 208.344 18.8079C216.311 14.4368 224.793 11.5678 233.818 10.4919C245.253 9.14577 256.402 10.5153 267.118 14.7798C287.155 22.7528 300.816 37.1628 309.225 56.7313C312.561 64.4911 314.438 72.6356 315.219 81.0581C316.632 96.3023 313.872 110.798 307.709 124.735C302.869 135.678 296.198 145.444 288.562 154.605C276.199 169.439 261.41 181.442 245.042 191.559C236.661 196.736 228.171 201.733 219.73 206.814C213.189 210.753 206.788 214.901 200.664 219.462C199.744 220.148 198.869 220.891 198.001 221.585C198.493 222.552 199.348 222.557 200.044 222.811C206.137 225.041 212.032 227.679 217.621 230.979C234.962 241.231 247.937 255.324 255.565 274.069C260.516 286.241 262.398 298.931 261.593 312.011C261.345 316.633 260.708 321.226 259.69 325.742C259.604 326.111 259.576 326.493 259.498 327.026C260.227 327.72 260.978 328.455 261.754 329.16C267.507 334.331 272.501 340.285 276.588 346.847C281.568 354.921 284.825 363.616 286.027 373.034C287.356 383.476 285.962 393.603 282.3 403.439C278.829 412.769 273.588 421.043 267.094 428.551C259.646 437.155 250.968 444.338 241.404 450.474C228.145 458.98 213.845 465.196 198.772 469.723C177.245 476.134 154.81 478.986 132.358 478.166C115.283 477.493 98.5396 474.861 82.226 469.647C69.4141 465.566 57.2321 459.732 46.0285 452.311C40.7122 448.793 35.4089 445.258 30.653 440.981C24.9666 435.861 19.7312 430.326 15.34 424.055C10.3182 416.883 6.76103 409.011 4.19671 400.667C0.765526 389.583 -0.58011 377.963 0.227741 366.392C1.00955 354.885 3.24811 343.671 7.91548 333.032C8.41844 331.883 8.86408 330.711 9.38789 329.573C11.5743 324.841 11.9053 319.913 10.8837 314.869C10.0628 310.81 9.15335 306.769 8.26209 302.723C6.31821 293.96 5.67723 284.959 6.3597 276.01C7.14151 265.779 8.75201 255.74 11.775 245.927C15.1133 235.101 19.6556 224.805 25.8162 215.262C29.4452 209.676 33.7139 204.531 38.5362 199.93C40.5532 197.988 42.5051 195.985 44.4753 193.994C46.2995 192.141 48.1758 190.322 49.9323 188.399C55.8062 181.97 60.1765 174.672 62.7851 166.333C65.0367 159.142 66.6081 151.804 67.9268 144.402C69.4669 135.762 70.2878 127.035 70.9941 118.29C71.828 107.916 72.9199 97.5652 74.9735 87.347C76.6048 79.2208 78.6219 71.1881 81.2513 63.3191C83.2501 57.3654 85.9422 51.7001 88.5221 46.0011C92.0348 38.2574 96.6797 31.0761 102.305 24.6914C110.827 15.0085 121.024 7.73465 133.317 3.60786C142.405 0.516835 152.05 -0.607399 161.608 0.310056C177.742 1.85371 191.754 8.16864 203.909 18.7611C204.474 19.2419 205.089 19.6915 205.738 20.2086ZM136.832 464.442C144.758 464.553 152.684 464.188 160.565 463.348C171.137 462.222 181.597 460.223 191.838 457.371C205.193 453.611 217.96 448.447 229.904 441.339C239.676 435.523 248.594 428.657 256.12 420.092C262.375 412.984 267.326 405.123 270.193 396.051C273.818 384.588 273.45 373.273 268.866 362.122C265.2 353.206 259.435 345.799 252.365 339.347C250.582 337.717 248.888 336.018 247.226 334.266C245.076 332.003 244.513 329.523 245.29 326.564C246.406 322.271 247.163 317.894 247.554 313.476C248.482 303.167 247.507 293.048 244.19 283.235C238.941 267.723 229.309 255.47 215.821 246.231C201 236.078 184.392 231.226 166.593 230.156C158.379 229.662 150.175 229.922 142.016 231.216C140.964 231.368 139.906 231.466 138.844 231.509C134.81 231.728 130.312 227.403 131.347 222.541C131.656 220.929 132.215 219.374 133.004 217.934C135.256 213.994 137.682 210.174 140.528 206.621C146.084 199.683 152.114 193.173 158.309 186.803C164.704 180.231 171.151 173.711 177.465 167.053C185.463 158.638 192.695 149.608 198.835 139.735C205.532 128.95 210.914 117.565 214.486 105.364C216.751 97.7779 217.94 89.9134 218.02 81.9988C218.127 72.3284 216.238 62.7396 212.469 53.8285C206.632 40.076 197.396 29.221 184.418 21.7003C172.73 14.9436 160.125 12.4695 146.738 14.481C136.134 16.0714 126.885 20.6348 118.833 27.6592C115.768 30.3307 113.099 33.3608 110.434 36.4299C106.287 41.2194 103.04 46.565 100.398 52.2562C98.6986 55.9231 97.2158 59.699 95.8294 63.4984C89.2935 81.3881 86.2862 99.9795 84.8424 118.88C84.4672 123.779 84.0789 128.683 83.5055 133.563C82.4018 143.036 80.7152 152.433 78.4551 161.7C77.0557 167.417 75.3279 173.027 72.9668 178.43C69.5999 186.12 64.7266 192.796 58.9699 198.856C55.9131 202.074 52.765 205.205 49.6769 208.396C45.377 212.843 41.3246 217.492 37.8325 222.614C31.3436 232.115 27.0019 242.583 23.9712 253.612C21.5727 262.26 20.3293 271.185 20.2732 280.158C20.2367 286.636 20.6641 293.053 21.9619 299.412C22.9652 304.318 23.992 309.225 24.7946 314.168C25.7484 320.048 25.5191 325.893 23.403 331.553C22.6603 333.538 21.9228 335.529 21.0576 337.46C17.0339 346.353 15.0273 355.755 14.196 365.402C13.4663 373.894 13.8937 382.358 15.869 390.69C17.5004 397.558 19.7364 404.203 23.1476 410.44C27.7108 418.756 33.9965 425.638 41.1291 431.82C45.4447 435.568 50.2658 438.603 55.0348 441.727C64.6328 448.008 74.9474 452.756 85.8353 456.3C102.384 461.695 119.435 464.149 136.832 464.442ZM151.139 216.089C152.182 216.465 153.258 216.239 154.308 216.218C160.206 216.102 166.101 216.016 171.972 216.723C174.656 217.047 177.343 217.37 180.014 217.78C181.057 217.941 181.916 217.874 182.62 217.027C182.928 216.658 183.305 216.348 183.644 216.003C187.126 212.519 190.905 209.343 194.939 206.512C202.019 201.458 209.413 196.897 216.858 192.404C225.619 187.113 234.443 181.907 243.043 176.362C256.766 167.526 268.937 156.871 279.267 144.163C285.315 136.718 290.65 128.831 294.642 120.081C301.014 106.112 303.362 91.5778 300.636 76.3751C298.082 62.0821 291.744 49.6939 281.12 39.7329C268.553 27.958 253.59 22.5942 236.296 24.1535C229.377 24.7772 222.886 26.9081 216.704 30.0266C216.222 30.2709 215.591 30.432 215.547 31.2896C216.068 32.0692 216.67 32.9528 217.264 33.8234C225.343 45.7152 230.034 58.857 231.454 73.1189C232.517 83.8569 231.525 94.4831 228.9 104.953C225.283 119.384 219.216 132.76 211.544 145.47C204.933 156.416 197.073 166.427 188.304 175.715C181.083 183.363 173.663 190.826 166.338 198.378C161.498 203.37 156.818 208.513 152.432 213.903C151.906 214.553 151.124 215.083 151.139 216.089Z" fill="#E67C4F"/>
<path d="M205.363 363.112C205.102 372.223 203.961 380.194 200.766 387.772C198.759 392.527 196.192 396.922 192.322 400.425C187.194 405.064 181.184 407.626 174.208 407.73C167.823 407.826 162.575 405.326 158.332 400.648C154.9 396.865 152.638 392.397 151.067 387.6C148.224 378.963 147.334 369.805 148.461 360.784C148.937 356.839 149.696 352.988 151.304 349.334C152.005 347.75 152.861 346.24 153.86 344.825C155.789 342.099 158.476 341.114 161.738 341.984C163.695 342.504 165.647 343.073 167.555 343.752C173.4 345.831 179.436 346.311 185.552 345.784C187.637 345.602 189.696 344.911 191.746 344.386C192.677 344.147 193.571 343.726 194.475 343.414C198.402 342.083 201.274 343.414 202.799 347.296C203.864 350.004 204.43 352.847 204.764 355.716C205.1 358.489 205.225 361.283 205.363 363.112Z" fill="#E67C4F"/>
<path d="M225.283 316.202C225.236 320.345 224.296 323.84 222.276 327.005C220.796 329.328 218.846 331.137 216.233 332.185C212.188 333.806 208.474 333.151 205.058 330.584C203.134 329.105 201.645 327.138 200.748 324.887C198.376 319.245 198.585 313.601 201.008 308.063C202.032 305.756 203.678 303.777 205.762 302.346C210.434 299.064 216.186 299.487 220.324 303.468C223.235 306.27 224.616 309.802 225.14 313.715C225.265 314.672 225.252 315.641 225.283 316.202Z" fill="#E67C4F"/>
<path d="M110.715 318.159C110.858 313.175 111.948 308.97 115.119 305.508C116.644 303.845 118.418 302.567 120.592 301.891C124.631 300.644 128.214 301.551 131.402 304.199C132.964 305.503 134.2 307.153 135.011 309.017C137.771 315.233 137.52 321.376 134.331 327.356C132.843 330.15 130.638 332.268 127.62 333.442C123.907 334.89 120.396 334.393 117.173 332.143C113.357 329.497 111.63 325.599 110.936 321.166C110.764 320.043 110.764 318.879 110.715 318.159Z" fill="#E67C4F"/>
</svg>
