<svg width="255" height="261" viewBox="0 0 255 261" fill="none" xmlns="http://www.w3.org/2000/svg">
<path d="M205.626 64.3018C205.257 63.8281 205.087 63.2919 205.638 62.8624C205.831 62.7117 206.054 62.6781 206.293 62.7251C207.509 62.9892 207.873 62.7986 209.014 62.7478C209.357 62.7291 209.715 62.8696 209.926 63.1402C210.492 63.8652 209.807 64.7409 209.237 65.1856C207.893 66.233 206.154 67.511 204.788 68.5295C204.452 68.776 204.053 68.9624 203.632 68.9801C203.21 68.9978 202.783 68.8489 202.52 68.5106C201.57 67.2926 203.133 66.1675 203.955 65.527C204.332 65.2331 205.119 64.728 205.486 64.4417C205.535 64.404 205.585 64.3491 205.626 64.3018ZM213.853 68.5506C215.383 70.8003 214.935 72.2765 212.756 73.7587C210.881 75.034 207.721 75.8795 206.19 73.6298C204.736 71.4916 205.835 69.0982 207.791 67.7677C209.787 66.4096 212.405 66.4225 213.853 68.5506ZM211.818 72.3805C212.508 71.9117 213.002 71.3529 212.492 70.603C211.623 69.3262 209.927 69.2945 208.721 70.1148C207.829 70.7215 207.361 71.5588 208.036 72.5519C208.871 73.7781 210.846 73.0423 211.818 72.3805ZM218.725 76.4209C220.062 78.7905 219.492 80.2241 217.197 81.5191C215.222 82.6335 212.002 83.212 210.665 80.8424C209.394 78.5901 210.689 76.297 212.75 75.1345C214.852 73.9478 217.46 74.1793 218.725 76.4209ZM216.378 80.0674C217.104 79.6579 217.643 79.1424 217.197 78.3525C216.438 77.0075 214.75 76.8342 213.48 77.551C212.541 78.0811 212.004 78.8763 212.595 79.9224C213.323 81.214 215.353 80.6457 216.378 80.0674ZM223.672 87.4139C223.809 87.7149 223.726 88.063 223.436 88.1955C223.336 88.2414 223.215 88.2426 223.1 88.2277C221.952 87.9847 220.812 87.7914 219.655 87.6195C218.777 87.4956 217.888 87.4976 217.021 87.5167C216.274 87.5346 215.419 87.6693 214.667 87.5279C214.444 87.4817 214.251 87.3544 214.149 87.1314C213.981 86.7636 214.18 86.4031 214.503 86.2553C215.73 85.6947 223.137 86.2435 223.672 87.4139ZM220.557 85.3474C219.677 85.75 218.549 85.5242 218.08 84.4987C217.678 83.6181 218.213 82.5783 218.982 82.2266C220.855 81.3705 222.597 84.4148 220.557 85.3474ZM219.195 84.1372C219.552 84.9175 220.223 84.2334 220.067 83.833C219.906 83.4216 218.951 83.6022 219.195 84.1372ZM216.804 88.3976C217.283 88.1785 217.901 88.2329 218.392 88.453C218.662 88.5721 218.912 88.9702 219.039 89.2489C219.34 89.9065 218.815 90.9413 218.236 91.2063C217.534 91.5273 216.417 91.2965 216.05 90.4939C215.648 89.6133 216.012 88.7595 216.804 88.3976ZM217.211 89.4649C217.021 89.5515 216.855 89.7486 216.962 89.9827C217.049 90.1722 217.382 90.2222 217.538 90.1509C217.861 90.0031 217.735 89.2253 217.211 89.4649ZM219.263 100.157C218.993 99.3039 218.968 98.3732 219.19 97.4928C219.549 96.0678 220.685 95.5149 221.994 95.1003C224.611 94.271 226.515 95.2491 227.344 97.8663C228.944 102.914 220.807 105.029 219.263 100.157ZM224.998 98.6996C224.521 97.1924 223.67 96.7804 222.175 97.2543C221.006 97.6245 221.033 98.4389 221.359 99.4671C222.055 101.664 225.731 101.013 224.998 98.6996ZM227.744 106.031C227.998 106.475 228.435 107.167 228.545 107.644C228.702 108.325 228.394 109.277 227.642 109.451C226.412 109.735 226.274 108.484 226.083 107.66C225.81 106.478 225.011 106.889 224.163 107.136C223.762 107.254 223.362 107.371 222.956 107.465C222.263 107.626 221.318 107.291 221.144 106.538C220.823 105.153 222.502 104.853 223.434 104.637C224.461 104.4 227.867 103.297 228.234 104.886C228.389 105.554 227.93 105.585 227.744 106.031ZM225.458 117.001C225.175 116.165 224.8 115.307 224.66 114.435C224.375 112.669 225.627 111.275 227.321 111.002C229.415 110.664 230.991 112.433 231.3 114.345C231.372 114.793 231.369 115.24 231.291 115.675C231.757 115.798 232.234 115.982 232.322 116.527C232.429 117.192 231.934 117.583 231.329 117.68C230.506 117.813 229.642 117.766 228.795 117.903C227.742 118.072 226.691 118.329 225.626 118.501C224.234 118.725 222.845 118.962 221.945 117.617C221.585 117.079 221.292 116.493 221.187 115.84C221.044 114.957 221.305 112.804 222.419 112.624C222.903 112.546 223.38 112.891 223.46 113.387C223.583 114.15 223.218 114.966 223.351 115.789C223.576 117.18 224.2 117.204 225.458 117.001ZM228.993 116.207C228.988 115.947 228.969 115.677 228.926 115.411C228.817 114.733 228.239 113.225 227.355 113.367C226.956 113.432 226.649 113.68 226.719 114.116C226.85 114.926 227.282 115.837 227.546 116.627C228.032 116.486 228.51 116.372 228.993 116.207ZM227.092 125.024C227.825 125.128 229.264 125.142 229.34 126.132C229.367 126.486 229.181 126.795 228.875 126.966C228.095 127.382 227.116 127.444 226.15 127.985C225.913 128.113 225.663 128.218 225.382 128.24C224.698 128.292 224.039 127.875 223.984 127.154C223.921 126.322 224.449 125.987 225.019 125.563C224.664 124.619 224.089 124.159 224.003 123.034C223.867 121.25 225.089 119.854 226.861 119.72C229.232 119.539 231.317 121.101 231.503 123.546C231.565 124.365 231.489 126.104 230.389 126.187C228.568 126.326 229.991 122.087 226.777 122.332C226.3 122.368 226.057 122.571 226.095 123.06C226.129 123.512 226.839 124.601 227.092 125.024ZM230.739 131.288C231.015 131.83 231.246 132.09 231.239 132.74C231.21 135.62 228.271 135.333 226.102 135.311C225.44 135.304 224.437 135.122 224.446 134.264C224.453 133.529 225.009 133.106 225.892 133.041C227.217 132.944 229.542 133.25 229.549 132.624C229.554 132.073 228.481 131.547 228.003 131.542C227.378 131.536 226.739 131.689 226.114 131.683C225.33 131.675 224.302 131.53 224.312 130.5C224.326 129.103 226.237 129.245 227.18 129.254C227.904 129.262 230.502 129.288 231.014 129.563C231.294 129.713 231.487 130.009 231.484 130.34C231.479 130.867 231.109 131.035 230.739 131.288ZM224.962 138.923C224.411 138.892 223.912 138.606 223.947 137.982C224.007 136.917 225.767 136.624 226.587 136.67C227.382 136.715 229.014 136.942 228.953 138.019C228.913 138.729 228.397 138.958 227.78 139.009C227.25 139.052 226.641 138.969 224.962 138.923ZM230.949 139.2C230.423 139.17 229.982 138.716 230.013 138.177C230.043 137.639 230.544 137.238 231.071 137.267C231.572 137.296 231.989 137.749 231.96 138.263C231.928 138.813 231.512 139.232 230.949 139.2ZM231.464 145.822C231.357 146.735 230.569 147.988 229.51 147.864C228.926 147.796 228.428 147.097 228.494 146.524C228.551 146.037 229.033 145.711 229.093 145.2C229.211 144.189 227.878 143.133 226.953 143.025C226.149 142.932 225.61 143.535 225.522 144.29C225.447 144.935 225.639 145.612 225.563 146.269C225.486 146.926 225 147.499 224.294 147.417C222.991 147.265 222.994 144.908 223.106 143.947C223.369 141.694 225.346 140.086 227.598 140.349C230.471 140.684 231.774 143.156 231.464 145.822ZM229.057 158.432C228.843 159.326 227.913 160.477 226.876 160.229C226.303 160.093 225.891 159.339 226.025 158.779C226.139 158.302 226.656 158.035 226.776 157.534C227.012 156.545 225.814 155.338 224.908 155.122C224.121 154.934 223.514 155.469 223.337 156.208C223.187 156.84 223.298 157.535 223.144 158.178C222.99 158.822 222.44 159.333 221.748 159.168C220.473 158.863 220.754 156.524 220.979 155.582C221.506 153.377 223.659 152.013 225.865 152.54C228.678 153.212 229.68 155.821 229.057 158.432ZM219.006 163.597C219.287 162.748 219.814 161.98 220.511 161.398C221.637 160.455 222.882 160.674 224.185 161.107C226.79 161.972 227.757 163.881 226.892 166.487C225.224 171.512 217.395 168.448 219.006 163.597ZM224.504 165.785C225.002 164.284 224.556 163.451 223.067 162.957C221.903 162.571 221.447 163.246 221.107 164.269C220.381 166.456 223.739 168.088 224.504 165.785ZM220.286 171.055C220.66 170.589 220.985 169.928 221.717 170.243C222.415 170.544 222.169 171.332 222.092 171.913C222.957 172.445 224.736 173.304 224.203 174.542C223.651 175.826 222.022 174.805 221.178 174.441C221.096 174.539 221.025 174.642 220.976 174.755C220.652 175.509 220.247 177.35 218.963 176.797C217.668 176.24 218.666 174.388 219.039 173.521C218.976 173.48 218.925 173.445 218.857 173.416C217.72 172.927 217.638 173.892 217.304 174.669C216.965 175.457 216.454 176.118 215.497 175.706C214.236 175.163 214.914 173.774 215.291 172.896C216.347 170.441 217.984 170.265 220.286 171.055ZM216.689 179.003C217.102 178.571 217.483 177.941 218.184 178.319C218.854 178.679 218.54 179.442 218.413 180.014C219.229 180.62 220.926 181.63 220.287 182.818C219.625 184.048 218.092 182.889 217.282 182.454C217.192 182.544 217.112 182.641 217.054 182.749C216.665 183.472 216.101 185.27 214.871 184.608C213.63 183.94 214.784 182.182 215.231 181.351C215.172 181.305 215.124 181.265 215.059 181.23C213.969 180.644 213.804 181.599 213.403 182.343C212.997 183.099 212.43 183.713 211.512 183.219C210.304 182.569 211.1 181.244 211.553 180.402C212.818 178.049 214.465 178.016 216.689 179.003ZM207.755 186.909C208.246 186.161 208.953 185.555 209.776 185.172C211.108 184.552 212.254 185.085 213.401 185.839C215.695 187.347 216.137 189.441 214.629 191.736C211.72 196.16 204.947 191.18 207.755 186.909ZM212.503 190.441C213.371 189.119 213.154 188.2 211.843 187.338C210.819 186.665 210.204 187.199 209.612 188.1C208.346 190.026 211.17 192.468 212.503 190.441ZM208.741 196.861C208.63 197.46 208.654 197.806 208.252 198.317C206.473 200.581 204.319 198.561 202.613 197.221C202.093 196.812 201.408 196.056 201.939 195.382C202.393 194.803 203.092 194.807 203.831 195.294C204.94 196.025 206.597 197.686 206.983 197.194C207.324 196.761 206.794 195.69 206.418 195.394C205.926 195.008 205.327 194.74 204.835 194.353C204.219 193.869 203.492 193.127 204.129 192.317C204.992 191.218 206.42 192.496 207.162 193.079C207.73 193.526 209.773 195.132 210.011 195.662C210.142 195.951 210.115 196.304 209.91 196.564C209.584 196.978 209.189 196.886 208.741 196.861ZM196.65 204.925C196.831 204.741 197.099 204.61 197.288 204.418C197.9 203.799 198.302 203.025 198.905 202.414C199.301 202.013 199.827 201.568 200.359 202.093C200.595 202.326 200.606 202.698 200.486 202.994C200.273 203.524 198.596 205.554 198.148 206.007C197.717 206.443 196.975 206.985 196.417 206.434C195.946 205.969 196.263 205.317 196.65 204.925ZM192.577 211.411C193.039 211.027 193.57 210.841 194.016 211.378C194.173 211.567 194.213 211.788 194.174 212.028C193.947 213.252 194.149 213.61 194.235 214.75C194.265 215.092 194.135 215.454 193.871 215.673C193.164 216.261 192.268 215.603 191.806 215.047C190.717 213.737 189.386 212.038 188.325 210.704C188.069 210.376 187.87 209.983 187.839 209.563C187.809 209.142 187.944 208.711 188.274 208.437C189.462 207.45 190.635 208.977 191.301 209.778C191.606 210.146 192.135 210.917 192.433 211.276C192.472 211.323 192.529 211.371 192.577 211.411ZM188.534 219.774C186.325 221.362 184.838 220.952 183.3 218.812C181.976 216.971 181.049 213.834 183.259 212.246C185.359 210.736 187.78 211.774 189.16 213.694C190.57 215.655 190.624 218.272 188.534 219.774ZM184.653 217.84C185.14 218.516 185.711 218.996 186.447 218.467C187.701 217.566 187.689 215.869 186.838 214.684C186.209 213.809 185.359 213.362 184.384 214.063C183.18 214.929 183.966 216.884 184.653 217.84ZM180.735 224.853C178.393 226.237 176.948 225.696 175.607 223.427C174.454 221.475 173.811 218.268 176.153 216.883C178.379 215.567 180.698 216.816 181.901 218.853C183.13 220.931 182.951 223.543 180.735 224.853ZM177.042 222.579C177.466 223.297 177.993 223.826 178.773 223.364C180.103 222.578 180.242 220.887 179.5 219.631C178.951 218.703 178.145 218.183 177.111 218.794C175.835 219.548 176.444 221.566 177.042 222.579ZM169.706 229.985C169.406 230.125 169.058 230.044 168.923 229.755C168.876 229.655 168.874 229.534 168.888 229.42C169.122 228.269 169.307 227.128 169.47 225.97C169.587 225.09 169.579 224.202 169.553 223.335C169.53 222.589 169.388 221.735 169.524 220.982C169.569 220.758 169.694 220.564 169.917 220.461C170.283 220.29 170.645 220.486 170.795 220.808C171.365 222.03 170.873 229.441 169.706 229.985ZM171.749 226.855C171.34 225.977 171.557 224.848 172.579 224.372C173.457 223.962 174.5 224.49 174.858 225.256C175.728 227.122 172.697 228.887 171.749 226.855ZM172.949 225.484C172.171 225.846 172.861 226.512 173.26 226.353C173.67 226.189 173.482 225.235 172.949 225.484ZM168.671 223.124C168.893 223.602 168.844 224.22 168.627 224.713C168.51 224.984 168.114 225.237 167.836 225.366C167.181 225.672 166.142 225.156 165.873 224.578C165.546 223.878 165.769 222.76 166.569 222.387C167.446 221.978 168.303 222.336 168.671 223.124ZM167.606 223.54C167.518 223.351 167.32 223.186 167.087 223.295C166.898 223.383 166.85 223.716 166.923 223.872C167.073 224.194 167.85 224.062 167.606 223.54ZM156.902 225.596C157.755 225.329 158.686 225.308 159.566 225.533C160.99 225.897 161.538 227.035 161.948 228.345C162.769 230.965 161.784 232.866 159.164 233.686C154.111 235.267 152.024 227.123 156.902 225.596ZM158.339 231.337C159.848 230.865 160.262 230.016 159.794 228.518C159.428 227.349 158.613 227.372 157.584 227.695C155.385 228.383 156.023 232.062 158.339 231.337ZM150.977 234.051C150.531 234.302 149.836 234.734 149.358 234.842C148.676 234.994 147.727 234.68 147.558 233.926C147.281 232.695 148.533 232.565 149.359 232.379C150.543 232.114 150.137 231.313 149.896 230.463C149.781 230.062 149.666 229.66 149.574 229.254C149.419 228.56 149.76 227.617 150.513 227.448C151.901 227.137 152.19 228.818 152.399 229.751C152.63 230.779 153.709 234.192 152.119 234.549C151.449 234.699 151.421 234.241 150.977 234.051ZM139.969 231.6C140.811 231.335 141.678 230.98 142.552 230.86C144.324 230.615 145.689 231.899 145.924 233.599C146.214 235.699 144.409 237.235 142.491 237.5C142.042 237.562 141.595 237.549 141.162 237.461C141.028 237.925 140.833 238.397 140.287 238.472C139.619 238.564 139.24 238.06 139.156 237.453C139.042 236.627 139.109 235.764 138.991 234.915C138.846 233.858 138.613 232.802 138.466 231.733C138.273 230.337 138.068 228.942 139.433 228.073C139.979 227.726 140.571 227.446 141.227 227.356C142.113 227.233 144.259 227.543 144.413 228.66C144.48 229.146 144.125 229.616 143.627 229.684C142.862 229.79 142.054 229.407 141.229 229.521C139.832 229.713 139.795 230.337 139.969 231.6ZM140.682 235.151C140.942 235.153 141.213 235.14 141.48 235.103C142.16 235.009 143.681 234.465 143.558 233.579C143.503 233.178 143.262 232.865 142.825 232.925C142.011 233.038 141.091 233.449 140.295 233.695C140.425 234.185 140.528 234.665 140.682 235.151ZM131.883 233.006C131.756 233.736 131.699 235.174 130.707 235.219C130.352 235.235 130.049 235.04 129.887 234.728C129.495 233.936 129.463 232.956 128.953 231.973C128.831 231.733 128.734 231.48 128.721 231.198C128.69 230.513 129.127 229.867 129.85 229.835C130.682 229.797 131.001 230.335 131.408 230.917C132.362 230.592 132.84 230.03 133.966 229.979C135.754 229.899 137.112 231.162 137.192 232.937C137.3 235.313 135.674 237.349 133.225 237.46C132.405 237.497 130.669 237.367 130.619 236.266C130.537 234.441 134.729 235.994 134.584 232.773C134.562 232.296 134.367 232.047 133.877 232.069C133.424 232.09 132.313 232.766 131.883 233.006ZM125.514 236.46C124.964 236.72 124.697 236.942 124.048 236.915C121.17 236.799 121.547 233.87 121.635 231.702C121.661 231.041 121.874 230.044 122.731 230.079C123.466 230.108 123.872 230.677 123.91 231.562C123.966 232.889 123.59 235.204 124.215 235.229C124.766 235.252 125.324 234.195 125.343 233.717C125.369 233.093 125.235 232.45 125.261 231.825C125.292 231.041 125.469 230.018 126.497 230.06C127.894 230.116 127.694 232.022 127.655 232.965C127.626 233.687 127.521 236.284 127.23 236.787C127.072 237.063 126.77 237.247 126.44 237.233C125.913 237.212 125.756 236.838 125.514 236.46ZM118.041 230.393C118.1 229.844 118.411 229.36 119.033 229.427C120.093 229.541 120.297 231.313 120.209 232.129C120.124 232.922 119.815 234.54 118.742 234.425C118.035 234.349 117.833 233.822 117.813 233.203C117.797 232.671 117.911 232.067 118.041 230.393ZM117.462 236.358C117.518 235.834 117.994 235.417 118.531 235.475C119.067 235.532 119.442 236.053 119.386 236.577C119.332 237.077 118.859 237.47 118.347 237.415C117.798 237.356 117.402 236.919 117.462 236.358ZM110.837 236.55C109.93 236.4 108.716 235.552 108.891 234.5C108.988 233.92 109.711 233.456 110.279 233.55C110.763 233.631 111.065 234.128 111.573 234.213C112.577 234.379 113.696 233.099 113.849 232.181C113.982 231.383 113.405 230.815 112.655 230.69C112.015 230.584 111.33 230.743 110.677 230.635C110.024 230.526 109.476 230.012 109.592 229.311C109.807 228.018 112.161 228.135 113.116 228.294C115.352 228.666 116.863 230.718 116.491 232.955C116.017 235.808 113.484 236.99 110.837 236.55ZM98.3215 233.509C97.4403 233.248 96.341 232.257 96.6445 231.234C96.8119 230.67 97.5868 230.3 98.1391 230.464C98.609 230.603 98.8477 231.134 99.3412 231.281C100.316 231.57 101.586 230.438 101.851 229.545C102.081 228.77 101.579 228.135 100.851 227.919C100.228 227.734 99.5285 227.808 98.894 227.619C98.2596 227.431 97.779 226.853 97.9813 226.172C98.3545 224.915 100.675 225.323 101.604 225.598C103.777 226.244 105.022 228.467 104.377 230.641C103.554 233.414 100.895 234.273 98.3215 233.509ZM93.7154 223.165C94.5458 223.498 95.2806 224.07 95.8194 224.801C96.6925 225.983 96.398 227.212 95.8872 228.486C94.8657 231.034 92.9009 231.884 90.3526 230.862C85.438 228.892 88.9714 221.264 93.7154 223.165ZM91.1987 228.521C92.6663 229.109 93.5246 228.714 94.1083 227.258C94.5644 226.12 93.9184 225.623 92.9172 225.222C90.7785 224.365 88.9462 227.618 91.1987 228.521ZM86.1766 223.972C86.6169 224.376 87.2549 224.744 86.8922 225.453C86.5463 226.13 85.7761 225.832 85.2016 225.717C84.613 226.545 83.6383 228.263 82.4379 227.649C81.1939 227.013 82.3207 225.456 82.7392 224.637C82.6468 224.549 82.5488 224.471 82.4397 224.415C81.7086 224.041 79.8989 223.515 80.5351 222.271C81.1768 221.016 82.9591 222.134 83.7994 222.564C83.8438 222.504 83.8826 222.455 83.916 222.389C84.4796 221.287 83.5217 221.142 82.7687 220.757C82.0048 220.366 81.3795 219.812 81.8538 218.885C82.4787 217.662 83.8202 218.431 84.6714 218.866C87.0503 220.083 87.1177 221.728 86.1766 223.972ZM78.4925 219.866C78.8973 220.306 79.5021 220.726 79.0811 221.402C78.6794 222.047 77.937 221.686 77.3741 221.524C76.7181 222.299 75.6024 223.929 74.4578 223.216C73.2717 222.478 74.5255 221.021 75.0113 220.24C74.9267 220.144 74.8356 220.059 74.7316 219.994C74.0344 219.56 72.2755 218.883 73.0139 217.697C73.7589 216.501 75.4409 217.765 76.2421 218.263C76.2914 218.207 76.3342 218.162 76.373 218.099C77.0273 217.048 76.085 216.823 75.3671 216.376C74.6387 215.922 74.0621 215.318 74.6127 214.434C75.3383 213.268 76.6104 214.147 77.422 214.652C79.6902 216.064 79.619 217.709 78.4925 219.866ZM71.1699 210.451C71.885 210.988 72.4453 211.732 72.775 212.578C73.31 213.947 72.7054 215.056 71.8803 216.153C70.23 218.347 68.1116 218.656 65.9176 217.005C61.6862 213.823 67.0854 207.378 71.1699 210.451ZM67.3446 214.965C68.6081 215.916 69.5398 215.758 70.4829 214.504C71.2196 213.525 70.7253 212.877 69.8634 212.228C68.0219 210.843 65.4052 213.507 67.3446 214.965ZM61.1905 210.834C60.5999 210.688 60.2529 210.691 59.7666 210.261C57.6106 208.351 59.7536 206.32 61.1921 204.696C61.6309 204.2 62.4258 203.562 63.068 204.131C63.6185 204.618 63.5739 205.316 63.0438 206.025C62.2487 207.089 60.4936 208.645 60.9615 209.06C61.3744 209.425 62.4749 208.959 62.7918 208.602C63.2063 208.134 63.5096 207.551 63.9241 207.083C64.4442 206.496 65.2277 205.814 65.9984 206.497C67.0443 207.424 65.6848 208.774 65.059 209.48C64.5796 210.021 62.8567 211.966 62.3135 212.173C62.0165 212.286 61.6663 212.238 61.4186 212.019C61.0241 211.669 61.1394 211.28 61.1905 210.834ZM53.8706 198.287C54.0436 198.477 54.1605 198.752 54.3418 198.952C54.9268 199.596 55.6776 200.04 56.2543 200.675C56.6333 201.093 57.0493 201.642 56.4958 202.144C56.2508 202.367 55.8782 202.358 55.5897 202.222C55.0721 201.98 53.1365 200.195 52.7081 199.723C52.2961 199.27 51.7953 198.499 52.3761 197.972C52.8661 197.527 53.4998 197.879 53.8706 198.287ZM47.6183 193.881C47.9776 194.362 48.1358 194.901 47.576 195.319C47.3795 195.466 47.1564 195.495 46.9188 195.443C45.7085 195.154 45.3404 195.337 44.198 195.364C43.8548 195.375 43.4997 195.227 43.2944 194.952C42.7444 194.216 43.4474 193.354 44.0268 192.922C45.392 191.902 47.1572 190.661 48.5443 189.671C48.8856 189.432 49.288 189.254 49.7096 189.245C50.1313 189.236 50.555 189.394 50.8116 189.738C51.7355 190.975 50.1496 192.067 49.3148 192.691C48.9318 192.977 48.134 193.465 47.7608 193.744C47.7117 193.78 47.6601 193.834 47.6183 193.881ZM39.4763 189.42C38.0025 187.132 38.4877 185.668 40.7028 184.241C42.6088 183.012 45.7893 182.246 47.2631 184.533C48.6639 186.707 47.5051 189.072 45.5167 190.354C43.487 191.661 40.8704 191.583 39.4763 189.42ZM41.6056 185.642C40.9051 186.093 40.3968 186.639 40.888 187.402C41.7245 188.7 43.4199 188.774 44.6459 187.984C45.5525 187.4 46.0413 186.574 45.3907 185.565C44.5874 184.318 42.5947 185.004 41.6056 185.642ZM34.8032 181.449C33.5211 179.049 34.1243 177.629 36.4486 176.387C38.4486 175.319 41.681 174.815 42.9631 177.215C44.1816 179.496 42.8335 181.759 40.7471 182.873C38.6174 184.011 36.0159 183.719 34.8032 181.449ZM37.234 177.858C36.4989 178.25 35.9477 178.753 36.375 179.553C37.1027 180.915 38.7863 181.128 40.0727 180.44C41.0241 179.932 41.5787 179.15 41.0127 178.09C40.314 176.782 38.2718 177.303 37.234 177.858ZM30.1072 170.363C29.9761 170.06 30.067 169.713 30.3596 169.587C30.4609 169.543 30.5816 169.545 30.6959 169.562C31.8392 169.83 32.9743 170.047 34.1271 170.244C35.0029 170.387 35.8913 170.404 36.7588 170.404C37.5055 170.402 38.363 170.285 39.1117 170.443C39.334 170.494 39.5242 170.625 39.6213 170.85C39.7815 171.222 39.5748 171.578 39.2484 171.719C38.0105 172.253 30.6171 171.545 30.1072 170.363ZM33.1766 172.496C34.0657 172.113 35.188 172.363 35.6347 173.398C36.0183 174.287 35.4607 175.315 34.6842 175.65C32.7936 176.466 31.1172 173.385 33.1766 172.496ZM34.5122 173.736C34.1723 172.948 33.4868 173.617 33.6342 174.021C33.7865 174.436 34.7453 174.276 34.5122 173.736ZM36.9948 169.527C36.5109 169.736 35.8944 169.669 35.4078 169.438C35.1403 169.313 34.8996 168.91 34.7782 168.628C34.4917 167.964 35.038 166.941 35.6232 166.689C36.3322 166.383 37.4432 166.638 37.7928 167.448C38.1764 168.337 37.7938 169.183 36.9948 169.527ZM36.6108 168.452C36.8021 168.369 36.9722 168.176 36.8703 167.939C36.7877 167.748 36.4561 167.691 36.2985 167.759C35.9722 167.9 36.0819 168.68 36.6108 168.452ZM34.7987 157.715C35.0484 158.574 35.051 159.505 34.8074 160.38C34.4148 161.796 33.2657 162.321 31.9475 162.704C29.3111 163.471 27.431 162.447 26.6648 159.811C25.1872 154.726 33.3724 152.807 34.7987 157.715ZM29.0301 159.034C29.4713 160.552 30.3117 160.984 31.8182 160.547C32.9951 160.205 32.9881 159.39 32.6871 158.354C32.044 156.141 28.3528 156.704 29.0301 159.034ZM26.4479 151.704C26.2008 151.255 25.7746 150.557 25.6714 150.078C25.5242 149.395 25.8468 148.448 26.6016 148.285C27.8357 148.019 27.9552 149.272 28.1333 150.099C28.3889 151.285 29.1931 150.886 30.0454 150.653C30.4476 150.541 30.8498 150.429 31.2572 150.341C31.9521 150.192 32.8924 150.541 33.0551 151.296C33.3545 152.686 31.671 152.96 30.7364 153.162C29.706 153.384 26.2839 154.434 25.9406 152.841C25.7961 152.17 26.2549 152.146 26.4479 151.704ZM28.9681 140.73C29.2291 141.573 29.5801 142.441 29.697 143.315C29.934 145.089 28.6442 146.448 26.9435 146.676C24.8418 146.957 23.3137 145.145 23.0572 143.226C22.9971 142.776 23.0116 142.329 23.1021 141.897C22.6388 141.761 22.1674 141.564 22.0943 141.018C22.005 140.349 22.5111 139.973 23.1185 139.891C23.9446 139.781 24.8072 139.851 25.6576 139.738C26.7145 139.596 27.7722 139.368 28.8413 139.226C30.2383 139.039 31.6338 138.84 32.4968 140.208C32.842 140.756 33.1191 141.349 33.2068 142.005C33.3253 142.892 33.0061 145.037 31.8884 145.186C31.4025 145.251 30.9342 144.894 30.8677 144.395C30.7654 143.63 31.1523 142.824 31.0419 141.998C30.8552 140.601 30.2315 140.561 28.9681 140.73ZM25.4135 141.427C25.4112 141.687 25.4226 141.958 25.4583 142.225C25.5492 142.905 26.0867 144.429 26.9735 144.31C27.3744 144.256 27.6886 144.017 27.6301 143.579C27.5214 142.765 27.1137 141.843 26.8713 141.047C26.3813 141.174 25.9002 141.276 25.4135 141.427ZM27.5386 132.672C26.8082 132.55 25.3698 132.501 25.319 131.509C25.3008 131.154 25.4939 130.85 25.8046 130.687C26.5942 130.29 27.5741 130.253 28.554 129.736C28.7931 129.613 29.0458 129.514 29.3273 129.5C30.0128 129.465 30.6609 129.898 30.6979 130.62C30.7405 131.452 30.2048 131.774 29.6245 132.185C29.9555 133.137 30.5198 133.611 30.5776 134.738C30.6692 136.525 29.4137 137.89 27.6389 137.981C25.2642 138.103 23.2179 136.489 23.0925 134.041C23.0504 133.221 23.1701 131.485 24.2717 131.428C26.0955 131.335 24.5682 135.536 27.7874 135.371C28.2648 135.347 28.5124 135.15 28.4873 134.661C28.4641 134.208 27.7815 133.101 27.5386 132.672ZM24.0218 126.384C23.7537 125.837 23.5275 125.574 23.544 124.925C23.6174 122.045 26.5515 122.378 28.7201 122.433C29.3818 122.45 30.3821 122.647 30.3602 123.505C30.3415 124.24 29.7792 124.655 28.8952 124.706C27.5691 124.782 25.2483 124.441 25.2324 125.066C25.2183 125.617 26.2834 126.159 26.7613 126.172C27.3861 126.187 28.0273 126.044 28.6522 126.06C29.4363 126.08 30.4621 126.241 30.4359 127.271C30.4003 128.667 28.492 128.496 27.5486 128.472C26.8257 128.454 24.2282 128.387 23.7204 128.105C23.4424 127.951 23.2538 127.651 23.2623 127.321C23.2757 126.794 23.6476 126.632 24.0218 126.384ZM29.9655 118.823C30.5149 118.872 31.0049 119.174 30.9496 119.797C30.8552 120.859 29.0869 121.095 28.269 121.023C27.4754 120.952 25.8515 120.673 25.9469 119.598C26.0098 118.89 26.5331 118.678 27.1511 118.647C27.6826 118.621 28.2887 118.724 29.9655 118.823ZM23.9902 118.354C24.5152 118.401 24.9412 118.869 24.8934 119.406C24.8457 119.944 24.3316 120.329 23.8067 120.282C23.3061 120.237 22.9046 119.771 22.9501 119.258C22.9989 118.709 23.4287 118.304 23.9902 118.354ZM23.6386 111.776C23.7674 110.866 24.5856 109.632 25.6413 109.781C26.2239 109.864 26.7049 110.576 26.6242 111.146C26.5556 111.631 26.0654 111.946 25.9933 112.456C25.8508 113.463 27.1575 114.551 28.0798 114.682C28.8807 114.795 29.4346 114.205 29.541 113.453C29.632 112.809 29.4561 112.128 29.5488 111.473C29.6415 110.818 30.1417 110.257 30.8455 110.357C32.144 110.541 32.0831 112.896 31.9474 113.855C31.6298 116.1 29.6143 117.659 27.3692 117.342C24.5052 116.936 23.2625 114.433 23.6386 111.776ZM26.3074 99.2329C26.5415 98.344 27.4981 97.2145 28.5292 97.4861C29.0981 97.6359 29.4929 98.399 29.3461 98.956C29.2213 99.4301 28.6978 99.6851 28.5667 100.183C28.3076 101.167 29.4782 102.4 30.379 102.638C31.1612 102.844 31.7802 102.322 31.9738 101.587C32.1392 100.959 32.0439 100.262 32.2125 99.6223C32.3811 98.9823 32.9433 98.484 33.6307 98.665C34.8989 98.9991 34.5634 101.332 34.3167 102.268C33.7392 104.46 31.5555 105.774 29.3628 105.196C26.5657 104.459 25.6237 101.829 26.3074 99.2329ZM36.48 94.3003C36.1777 95.1423 35.6331 95.8974 34.9223 96.4626C33.7731 97.3783 32.5343 97.1289 31.2424 96.665C28.6584 95.7372 27.7375 93.8047 28.6653 91.2208C30.4546 86.2375 38.2072 89.49 36.48 94.3003ZM31.036 91.9809C30.5017 93.4689 30.9281 94.3122 32.4047 94.8424C33.5582 95.2566 34.0309 94.5929 34.3954 93.5778C35.1741 91.4091 31.8561 89.6969 31.036 91.9809ZM35.3872 86.8061C35.001 87.2623 34.6593 87.9145 33.936 87.5804C33.2461 87.2618 33.5126 86.4803 33.6043 85.9017C32.7536 85.3467 30.9982 84.4414 31.5635 83.2174C32.1493 81.949 33.7507 83.0126 34.5852 83.3981C34.67 83.3022 34.7436 83.2012 34.795 83.0899C35.1393 82.3444 35.5927 80.5152 36.8611 81.1011C38.1407 81.6921 37.095 83.5177 36.6993 84.3745C36.7609 84.4165 36.8114 84.4533 36.8782 84.4841C38.002 85.0032 38.1093 84.0402 38.4639 83.2724C38.8236 82.4936 39.352 81.8466 40.2978 82.2834C41.544 82.859 40.8297 84.2301 40.4288 85.098C39.3084 87.5237 37.6674 87.6568 35.3872 86.8061ZM39.1778 78.9676C38.7552 79.3902 38.3606 80.0119 37.6675 79.6191C37.0064 79.2444 37.3367 78.4877 37.476 77.9186C36.6742 77.2952 34.9997 76.2476 35.6644 75.0746C36.3534 73.8591 37.8611 75.0516 38.6608 75.5049C38.7532 75.4164 38.835 75.3218 38.8954 75.2152C39.3003 74.5008 39.9036 72.7154 41.1192 73.4043C42.3454 74.0993 41.1521 75.832 40.6868 76.653C40.7447 76.7 40.792 76.7408 40.856 76.7771C41.933 77.3875 42.1196 76.4366 42.5366 75.7009C42.9596 74.9545 43.5397 74.3534 44.4461 74.8671C45.6403 75.5439 44.8149 76.8512 44.3436 77.6829C43.0262 80.0075 41.3798 80.0042 39.1778 78.9676ZM48.2873 71.2652C47.7787 72.0013 47.0584 72.5911 46.2262 72.9547C44.8803 73.5444 43.7473 72.9851 42.6179 72.2048C40.359 70.6443 39.9655 68.5401 41.526 66.2813C44.5356 61.925 51.1923 67.0601 48.2873 71.2652ZM43.6218 67.6249C42.7232 68.9258 42.9186 69.8503 44.2094 70.7421C45.2178 71.4387 45.8452 70.9187 46.4582 70.0313C47.7679 68.1356 45.0012 65.6283 43.6218 67.6249ZM47.524 61.2964C47.6488 60.7008 47.6324 60.3541 48.045 59.8523C49.8743 57.6276 51.9829 59.6946 53.6585 61.0725C54.1698 61.4928 54.8371 62.2637 54.2922 62.9264C53.8251 63.4944 53.1266 63.4754 52.3983 62.9718C51.3058 62.2163 49.6861 60.5195 49.2891 61.0023C48.9388 61.4283 49.445 62.511 49.8142 62.8146C50.297 63.2116 50.8905 63.4933 51.3733 63.8903C51.9792 64.3885 52.6888 65.1465 52.0349 65.9417C51.1475 67.021 49.7485 65.7119 49.0195 65.1125C48.461 64.6533 46.454 63.003 46.2276 62.4678C46.1033 62.1751 46.1386 61.8234 46.3488 61.5677C46.6836 61.1607 47.0765 61.2617 47.524 61.2964ZM59.8014 53.5211C59.617 53.7006 59.3467 53.8271 59.1535 54.0152C58.53 54.6223 58.1125 55.3881 57.4978 55.9867C57.0939 56.38 56.5594 56.8149 56.0378 56.2793C55.807 56.0422 55.8032 55.6695 55.9285 55.3764C56.1521 54.8507 57.8688 52.854 58.3254 52.4094C58.7645 51.9818 59.5168 51.4545 60.0641 52.0164C60.5258 52.4906 60.1966 53.1363 59.8014 53.5211ZM64.0336 47.1235C63.5628 47.4963 63.0279 47.6697 62.5942 47.122C62.442 46.9298 62.4068 46.7076 62.452 46.4686C62.707 45.2505 62.5136 44.8878 62.4543 43.7466C62.4331 43.4039 62.5708 43.0447 62.8399 42.8317C63.5606 42.2611 64.4415 42.9393 64.8903 43.5063C65.9478 44.842 67.2388 46.5713 68.2675 47.9298C68.5166 48.2641 68.706 48.6613 68.7268 49.0825C68.7476 49.5037 68.6019 49.9318 68.2656 50.198C67.0548 51.1566 65.918 49.6023 65.2713 48.7855C64.9746 48.4108 64.4637 47.6272 64.1746 47.2621C64.1365 47.214 64.0813 47.164 64.0336 47.1235ZM68.3144 38.8503C70.5669 37.324 72.0422 37.7752 73.5204 39.9566C74.7924 41.8337 75.6321 44.9957 73.3796 46.522C71.2387 47.9727 68.8474 46.8689 67.5204 44.9106C66.166 42.9118 66.1836 40.2941 68.3144 38.8503ZM72.1405 40.8917C71.673 40.2017 71.1152 39.7062 70.3643 40.215C69.0859 41.0813 69.0511 42.7779 69.8692 43.9853C70.4743 44.8782 71.3107 45.3478 72.305 44.674C73.5327 43.8421 72.8006 41.8657 72.1405 40.8917ZM76.2555 33.9892C78.6358 32.6709 80.0647 33.2526 81.3414 35.5578C82.4399 37.5413 82.9928 40.7658 80.6125 42.084C78.3502 43.337 76.0675 42.0233 74.9214 39.9539C73.7516 37.8417 74.0039 35.2362 76.2555 33.9892ZM79.8832 36.3654C79.4794 35.6363 78.9683 35.0927 78.1748 35.5322C76.8239 36.2804 76.6371 37.967 77.3437 39.2429C77.8663 40.1864 78.6572 40.7291 79.708 40.1472C81.0053 39.4287 80.4533 37.3947 79.8832 36.3654ZM87.3652 29.153C87.6682 29.02 88.015 29.1087 88.143 29.4005C88.1874 29.5015 88.1868 29.6222 88.1701 29.7367C87.9097 30.8816 87.6991 32.0181 87.5095 33.172C87.3723 34.0488 87.3607 34.9372 87.3667 35.8047C87.3732 36.5514 87.4949 37.4081 87.3421 38.1578C87.2925 38.3804 87.1622 38.5714 86.9377 38.6699C86.5674 38.8325 86.2099 38.628 86.0671 38.3025C85.5252 37.068 86.1867 29.6702 87.3652 29.153ZM85.2514 32.2357C85.6406 33.1223 85.3977 34.2462 84.3652 34.6993C83.4785 35.0885 82.447 34.5374 82.1071 33.763C81.2795 31.8775 84.35 30.1819 85.2514 32.2357ZM84.0207 33.579C84.8063 33.2342 84.1324 32.5528 83.7298 32.7028C83.3159 32.8577 83.482 33.8154 84.0207 33.579ZM88.2442 36.0352C88.0324 35.5526 88.0962 34.9357 88.3237 34.4477C88.4469 34.1794 88.8488 33.9361 89.1293 33.813C89.7915 33.5224 90.8182 34.0622 91.0743 34.6458C91.3846 35.3529 91.1368 36.4655 90.3288 36.8202C89.4421 37.2093 88.5939 36.8321 88.2442 36.0352ZM89.3175 35.6445C89.4012 35.8353 89.5958 36.0042 89.8315 35.9007C90.0223 35.817 90.0773 35.485 90.0084 35.3278C89.8655 35.0024 89.086 35.117 89.3175 35.6445ZM100.059 33.817C99.1985 34.0627 98.2675 34.0609 97.3937 33.8133C95.9796 33.4142 95.4595 32.2626 95.0825 30.9426C94.3286 28.3027 95.3608 26.4274 98.0007 25.6734C103.092 24.2194 104.973 32.4134 100.059 33.817ZM98.7665 28.0423C97.2462 28.4765 96.81 29.3148 97.2409 30.8233C97.5775 32.0018 98.3923 31.9986 99.4294 31.7024C101.645 31.0696 101.1 27.3758 98.7665 28.0423ZM106.203 25.5144C106.656 25.2754 107.361 24.8615 107.842 24.7668C108.528 24.6317 109.469 24.9709 109.618 25.7285C109.862 26.9671 108.607 27.0645 107.778 27.228C106.587 27.4625 106.972 28.2737 107.191 29.13C107.295 29.5341 107.4 29.9382 107.48 30.3471C107.618 31.0446 107.252 31.9786 106.495 32.1278C105.1 32.4027 104.854 30.7146 104.67 29.7766C104.466 28.7425 103.476 25.3024 105.075 24.9872C105.749 24.8545 105.764 25.3137 106.203 25.5144ZM117.137 28.2387C116.289 28.4833 115.414 28.8173 114.537 28.9171C112.759 29.1196 111.425 27.8035 111.231 26.0987C110.991 23.9919 112.832 22.4994 114.756 22.2803C115.207 22.229 115.653 22.2522 116.084 22.3511C116.229 21.8906 116.435 21.423 116.983 21.3606C117.652 21.2844 118.019 21.7977 118.089 22.4066C118.183 23.2347 118.096 24.0957 118.193 24.9482C118.314 26.0076 118.521 27.0696 118.643 28.1412C118.802 29.5417 118.974 30.9407 117.589 31.7769C117.035 32.1113 116.436 32.3769 115.778 32.4518C114.889 32.553 112.751 32.192 112.624 31.0717C112.568 30.5846 112.935 30.1234 113.434 30.0665C114.202 29.9792 115 30.3817 115.828 30.2874C117.228 30.1279 117.281 29.5052 117.137 28.2387ZM116.508 24.6712C116.249 24.6638 115.978 24.67 115.71 24.7005C115.028 24.7781 113.495 25.2858 113.596 26.1748C113.642 26.5766 113.875 26.8954 114.314 26.8455C115.129 26.7526 116.06 26.363 116.86 26.1361C116.743 25.6438 116.651 25.1608 116.508 24.6712ZM125.256 27.0269C125.4 26.3005 125.493 24.8643 126.485 24.8433C126.84 24.8357 127.139 25.0378 127.293 25.3533C127.665 26.1545 127.674 27.1351 128.161 28.13C128.276 28.3728 128.367 28.6283 128.373 28.9101C128.388 29.5963 127.935 30.2311 127.212 30.2464C126.379 30.264 126.073 29.7189 125.681 29.1265C124.719 29.4288 124.228 29.9786 123.1 30.0024C121.311 30.0403 119.985 28.7444 119.947 26.9676C119.897 24.5904 121.571 22.5935 124.021 22.5416C124.842 22.5243 126.575 22.696 126.598 23.7988C126.637 25.6246 122.482 23.9717 122.551 27.1944C122.561 27.6723 122.75 27.9258 123.24 27.9154C123.694 27.9058 124.82 27.2568 125.256 27.0269ZM131.74 23.7424C132.298 23.4986 132.571 23.2842 133.219 23.3293C136.092 23.5293 135.631 26.4459 135.48 28.6101C135.434 29.2703 135.193 30.261 134.337 30.2014C133.604 30.1503 133.214 29.5703 133.202 28.6849C133.184 27.3567 133.627 25.0532 133.003 25.0098C132.453 24.9715 131.865 26.0117 131.832 26.4885C131.788 27.1121 131.903 27.759 131.859 28.3825C131.805 29.165 131.599 30.1827 130.572 30.1112C129.178 30.0142 129.433 28.1153 129.499 27.1738C129.549 26.4525 129.729 23.8604 130.034 23.3656C130.2 23.0946 130.507 22.9194 130.838 22.9424C131.363 22.979 131.509 23.3577 131.74 23.7424ZM139.027 29.9962C138.957 30.5433 138.637 31.0213 138.017 30.9421C136.959 30.807 136.791 29.031 136.895 28.2164C136.995 27.4261 137.337 25.8141 138.407 25.9507C139.112 26.0408 139.304 26.5718 139.311 27.1906C139.318 27.7227 139.191 28.3243 139.027 29.9962ZM139.726 24.0433C139.659 24.5661 139.174 24.9737 138.639 24.9054C138.104 24.8371 137.74 24.3086 137.806 23.7858C137.87 23.2874 138.351 22.904 138.862 22.9692C139.409 23.0391 139.797 23.484 139.726 24.0433ZM146.388 24.0163C147.291 24.1893 148.483 25.0668 148.282 26.114C148.171 26.6918 147.437 27.1376 146.871 27.0291C146.39 26.9368 146.1 26.4319 145.594 26.335C144.595 26.1435 143.444 27.3954 143.269 28.3102C143.116 29.1047 143.679 29.6867 144.425 29.8298C145.063 29.9521 145.752 29.8096 146.402 29.9342C147.052 30.0588 147.587 30.5858 147.453 31.2839C147.206 32.5719 144.857 32.396 143.906 32.2137C141.679 31.7867 140.22 29.6975 140.647 27.4706C141.191 24.6298 143.752 23.5109 146.388 24.0163ZM158.832 27.3841C159.706 27.6685 160.779 28.6879 160.449 29.7019C160.267 30.2613 159.483 30.6119 158.935 30.4337C158.469 30.282 158.244 29.7448 157.754 29.5856C156.787 29.2708 155.489 30.3692 155.201 31.255C154.95 32.0242 155.435 32.6719 156.158 32.907C156.776 33.108 157.477 33.0526 158.106 33.2574C158.736 33.4622 159.201 34.0519 158.981 34.7279C158.575 35.9749 156.266 35.507 155.345 35.2074C153.189 34.5058 152.002 32.2507 152.704 30.0946C153.599 27.344 156.279 26.5535 158.832 27.3841ZM163.172 37.8306C162.349 37.4789 161.628 36.8905 161.106 36.1475C160.26 34.946 160.582 33.7242 161.122 32.462C162.201 29.9376 164.185 29.1328 166.709 30.2121C171.578 32.2935 167.872 39.8398 163.172 37.8306ZM165.81 32.5335C164.356 31.912 163.489 32.2878 162.872 33.7303C162.391 34.8572 163.025 35.3685 164.017 35.7924C166.135 36.6982 168.041 33.4875 165.81 32.5335ZM170.728 37.1967C170.297 36.7825 169.668 36.4003 170.047 35.6996C170.408 35.0312 171.172 35.3464 171.743 35.4745C172.351 34.6605 173.365 32.9656 174.551 33.6071C175.78 34.2718 174.617 35.8028 174.18 36.6114C174.27 36.702 174.366 36.7819 174.474 36.8402C175.197 37.2309 176.993 37.7988 176.329 39.0277C175.658 40.2675 173.902 39.1086 173.072 38.6596C173.026 38.7185 172.986 38.7666 172.951 38.8313C172.362 39.9201 173.317 40.0879 174.061 40.4902C174.815 40.8984 175.428 41.4665 174.932 42.3829C174.279 43.5903 172.956 42.7909 172.115 42.3361C169.765 41.0649 169.735 39.4187 170.728 37.1967ZM178.314 41.4776C177.92 41.0289 177.324 40.5954 177.761 39.9288C178.177 39.293 178.911 39.6709 179.47 39.8463C180.143 39.0859 181.296 37.4818 182.424 38.2201C183.593 38.9853 182.306 40.4138 181.803 41.1829C181.885 41.2808 181.975 41.3684 182.077 41.4356C182.764 41.8853 184.507 42.6014 183.742 43.7705C182.97 44.9498 181.317 43.6482 180.528 43.1314C180.477 43.1862 180.433 43.2308 180.393 43.2923C179.715 44.3281 180.652 44.5751 181.36 45.0382C182.078 45.5081 182.64 46.1254 182.07 46.9971C181.318 48.1457 180.066 47.2384 179.266 46.7149C177.031 45.2517 177.139 43.6089 178.314 41.4776ZM185.422 51.0586C184.719 50.5045 184.176 49.7483 183.866 48.8949C183.362 47.5144 183.992 46.419 184.842 45.3411C186.542 43.1855 188.667 42.9257 190.823 44.6259C194.98 47.9048 189.435 54.2236 185.422 51.0586ZM189.35 46.6326C188.108 45.6535 187.173 45.7901 186.202 47.0219C185.443 47.9843 185.922 48.6433 186.769 49.3112C188.578 50.7381 191.255 48.1354 189.35 46.6326ZM195.419 50.9265C196.006 51.0885 196.353 51.094 196.828 51.5373C198.933 53.5031 196.737 55.4774 195.256 57.0629C194.805 57.5466 193.993 58.1641 193.366 57.5785C192.829 57.0766 192.892 56.3807 193.44 55.6855C194.263 54.6428 196.058 53.1332 195.602 52.7066C195.198 52.3302 194.086 52.7671 193.76 53.1165C193.333 53.5733 193.015 54.1479 192.588 54.6047C192.053 55.178 191.252 55.8385 190.499 55.1358C189.478 54.1822 190.872 52.8684 191.517 52.1786C192.01 51.6501 193.783 49.7511 194.332 49.5589C194.632 49.4532 194.981 49.5106 195.222 49.7365C195.608 50.0962 195.482 50.4821 195.419 50.9265ZM200.016 60.8536C199.841 60.6649 199.722 60.3915 199.538 60.1938C198.946 59.5558 198.191 59.1198 197.608 58.4907C197.224 58.0773 196.802 57.5324 197.35 57.024C197.593 56.799 197.966 56.8043 198.256 56.9367C198.776 57.1731 200.73 58.9378 201.164 59.4051C201.58 59.8544 202.089 60.6194 201.514 61.1528C201.029 61.6029 200.391 61.258 200.016 60.8536Z" fill="#F8FCE1" stroke="#F8FCE1" stroke-width="4.59615"/>
</svg>
