<svg width="353" height="494" viewBox="0 0 353 494" fill="none" xmlns="http://www.w3.org/2000/svg">
<path d="M295.42 305.99C294.247 311.977 293.103 317.813 291.906 323.915C292.259 324.494 292.744 325.318 293.253 326.132C298.198 334.053 301.67 342.57 303.431 351.741C304.778 358.648 305.155 365.708 304.551 372.718C303.157 388.513 297.568 402.808 289.093 416.065C281.504 427.935 272.067 438.179 261.251 447.164C257.697 450.117 253.957 452.845 250.274 455.641C247.282 457.912 244.304 460.211 241.225 462.359C232.966 468.122 223.998 472.557 214.661 476.269C203.27 480.803 191.532 484.167 179.551 486.742C170.685 488.651 161.754 490.117 152.758 491.138C147.222 491.778 141.62 492.088 136.05 492.544C125.654 493.391 115.225 493.023 104.829 492.981C102.332 492.981 99.82 492.615 97.3447 492.336C82.9597 490.717 68.7406 488.221 54.8248 484.175C41.2701 480.226 28.2189 475.064 15.94 468.053C4.39661 461.472 -6.09498 453.532 -15.026 443.636C-26.1634 431.3 -33.8107 417.153 -37.2297 400.82C-39.2173 391.311 -39.531 381.729 -38.4529 372.094C-37.0926 359.926 -33.5735 348.372 -28.4358 337.289C-28.3734 337.107 -28.2958 336.931 -28.2038 336.762C-27.1994 335.283 -27.1889 333.735 -27.7319 332.079C-29.1528 327.751 -29.5772 323.239 -30.1439 318.753C-30.2151 318.182 -30.2863 317.61 -30.4075 317.047C-30.4418 316.886 -30.6369 316.76 -30.8689 316.491C-31.686 316.823 -32.5586 317.163 -33.4206 317.529C-38.466 319.669 -43.7145 320.688 -49.2054 320.382C-57.3404 319.922 -64.0228 316.489 -69.3767 310.444C-73.5549 305.724 -76.0486 300.135 -77.5143 294.054C-79.3226 286.554 -79.378 278.996 -78.2313 271.401C-76.2384 258.191 -71.1745 246.263 -63.1898 235.569C-58.6558 229.496 -53.3203 224.249 -46.9199 220.137C-46.601 219.932 -46.311 219.679 -45.8655 219.347C-46.2372 218.763 -46.5693 218.208 -46.9199 217.673C-52.8959 208.754 -57.1268 199.14 -58.4897 188.415C-60.6934 171.066 -55.59 155.892 -44.5686 142.55C-37.7754 134.332 -29.361 128.137 -19.9528 123.222C-19.017 122.73 -18.0786 122.238 -17.1454 121.743C-17.0609 121.681 -16.9831 121.61 -16.9135 121.532C-16.4442 120.524 -16.7263 119.458 -16.7579 118.418C-17.1032 106.811 -15.0656 95.6357 -10.861 84.8132C-6.82634 74.4766 -1.21745 64.8242 5.76736 56.1973C22.3219 35.6212 42.6725 19.9707 67.0826 9.71685C78.2858 4.99087 90.1265 1.94283 102.221 0.671371C111.076 -0.260554 119.925 -0.168404 128.783 0.616098C143.149 1.88762 157.136 5.07301 170.907 9.19559C183.175 12.8812 195.359 16.83 207.583 20.6657C218.064 23.9511 228.627 26.9364 239.361 29.2952C244.08 30.2923 248.906 30.6877 253.725 30.4719C259.709 30.2561 265.635 29.5874 271.471 28.1763C272.698 27.9162 273.958 27.8478 275.206 27.9736C279.98 28.3475 282.561 32.3674 280.848 36.8296C280.099 38.8109 279.181 40.7248 278.106 42.5501C271.147 54.2044 264.417 66.0036 256.799 77.2578C256.655 77.4954 256.527 77.7416 256.414 77.9949C256.572 78.7846 257.249 78.7215 257.774 78.8662C266.151 81.1532 274.187 84.542 281.67 88.9437C294.494 96.557 304.931 106.603 312.857 119.268C318.889 128.903 322.426 139.397 323.892 150.596C325.366 161.85 324.032 172.867 320.702 183.682C319.237 188.47 317.378 193.129 315.143 197.61C314.671 198.548 314.215 199.495 313.688 200.569C314.276 201.096 314.813 201.622 315.406 202.073C327.757 211.597 337.286 223.42 344.158 237.386C347.727 244.55 350.219 252.199 351.555 260.089C352.902 268.25 352.873 276.387 350.588 284.416C348.864 290.448 345.974 295.821 341.533 300.304C336.192 305.701 329.67 308.752 322.218 309.907C314.297 311.137 306.665 309.844 299.192 307.293C297.919 306.867 296.667 306.422 295.42 305.99ZM6.18122 253.184C5.90986 253.443 5.65457 253.718 5.41677 254.008C-2.79726 266.017 -9.16601 278.909 -13.1333 292.933C-15.4531 301.13 -16.7342 309.47 -16.3493 318.024C-16.1384 322.681 -15.3555 327.206 -13.4707 331.492C-12.3451 334.059 -12.5376 336.457 -13.8292 338.958C-20.2665 351.415 -24.3577 364.538 -25.1275 378.625C-25.4552 384.492 -25.0969 390.377 -24.0599 396.161C-21.8034 408.734 -16.468 419.927 -8.565 429.928C-1.19716 439.256 7.77869 446.777 17.7958 453.095C29.4473 460.427 42.0003 465.771 55.1148 469.864C64.7813 472.841 74.6476 475.129 84.6389 476.709C89.2019 477.449 93.7913 478.025 98.386 478.552C103.273 479.094 108.19 479.186 113.106 479.262C122.364 479.41 131.614 479.197 140.84 478.457C149.582 477.796 158.286 476.693 166.916 475.153C175.916 473.508 184.842 471.676 193.541 468.714C207.174 464.073 220.262 458.292 232.573 450.812C245.158 443.152 256.582 434.069 266.436 423.086C272.834 415.955 278.322 408.194 282.616 399.612C287.19 390.474 290.163 380.868 290.851 370.654C291.758 357.183 288.611 344.684 281.375 333.248C280.655 332.108 279.912 330.981 279.129 329.886C277.956 328.251 277.352 326.464 277.626 324.458C277.845 322.841 278.04 321.204 278.483 319.643C280.758 311.632 281.791 303.439 282.15 295.16C282.384 288.904 282.065 282.64 281.195 276.44C280.304 269.832 278.797 263.382 276.303 257.193C274.679 253.163 272.681 249.322 269.758 246.039C269.302 245.575 268.823 245.136 268.321 244.723C267.327 245.215 266.444 245.599 265.608 246.071C258.963 249.832 251.869 252.576 244.68 255.058C237.009 257.706 229.07 259.27 221.014 260.218C216.532 260.744 212.006 261.131 207.504 261.6C198.003 262.626 188.404 262.301 178.995 260.634C167.256 258.528 156.103 254.579 145.482 249.198C135.17 243.97 126.065 237.059 117.84 228.962C117.034 228.172 116.335 227.229 115.173 226.592C114.685 227.09 114.221 227.556 113.768 228.027C112.096 229.759 110.496 231.565 108.759 233.218C101.114 240.453 92.2729 245.855 82.5484 249.83C72.128 254.092 61.2885 256.561 50.064 257.504C38.2338 258.494 26.3219 257.728 14.7169 255.229C11.9042 254.589 9.10464 253.876 6.18122 253.184ZM260.826 44.356C260.407 44.1375 260.32 44.0533 260.236 44.0559C258.889 44.0954 257.539 44.1296 256.192 44.2007C248.289 44.6037 240.37 43.8489 232.686 41.9604C220.033 38.8882 207.575 35.2237 195.207 31.2064C183.848 27.5208 172.497 23.8063 160.961 20.6946C146.787 16.8721 132.444 14.0553 117.695 13.792C111.814 13.6557 105.931 13.9938 100.105 14.803C86.231 16.8011 73.1613 21.258 60.8271 27.8973C44.871 36.4926 30.9841 47.6415 19.3221 61.5387C10.6678 71.8505 4.08818 83.26 0.400307 96.2648C-1.84586 104.245 -2.91157 112.51 -2.76299 120.798C-2.74717 121.951 -2.6101 123.101 -2.53629 124.254C-2.32013 127.521 -3.55382 130.088 -6.33752 131.836C-7.40372 132.492 -8.51444 133.072 -9.6616 133.573C-13.711 135.371 -17.5925 137.524 -21.2603 140.007C-27.8743 144.483 -33.5629 149.911 -37.8861 156.664C-43.9939 166.204 -46.4033 176.563 -44.6371 187.817C-43.6259 194.107 -41.3973 200.14 -38.0759 205.579C-32.5138 214.84 -24.9139 222.13 -15.917 227.995C-0.52758 238.025 16.5068 242.964 34.7511 243.957C41.7835 244.347 48.8374 244 55.7975 242.922C64.805 241.524 73.4803 239.055 81.6943 235.082C92.0225 230.08 100.848 223.259 107.388 213.706C107.853 212.977 108.383 212.29 108.97 211.655C109.755 210.812 110.633 210.059 111.585 209.41C113.406 208.259 115.426 208.072 117.384 209.004C118.312 209.444 119.132 210.189 119.883 210.918C122.024 212.998 124.03 215.214 126.21 217.236C146.326 235.901 170.364 245.233 197.558 246.905C212.507 247.773 227.491 245.932 241.783 241.471C250.31 238.7 258.477 234.925 266.112 230.228C278.718 222.522 289.338 212.779 297.534 200.48C304.82 189.534 309.278 177.577 310.24 164.414C310.853 155.845 309.718 147.241 306.905 139.123C302.727 126.818 295.011 116.93 285.384 108.527C275.103 99.545 262.959 94.0482 249.644 91.1234C248.811 90.9392 247.947 90.8997 247.048 90.7891C246.499 91.4367 245.993 92.0106 245.521 92.5977C241.438 97.5995 237.471 102.688 233.256 107.572C221.393 121.295 207.886 133.142 192.476 142.737C168.938 157.39 143.55 167.483 116.314 172.817C111.972 173.667 107.56 174.373 103.152 174.604C94.938 175.041 86.7873 174.167 78.7683 172.301C73.6728 171.116 68.8197 169.3 64.3911 166.444C60.2393 163.764 56.3985 160.705 53.1008 157.03C42.0978 144.762 38.4495 130.662 42.8675 114.698C44.8709 107.458 48.5298 101.03 53.2431 95.196C58.42 88.8302 64.5881 83.3371 71.5112 78.9268C88.5692 67.9359 107.383 62.7576 127.557 62.1864C134.324 61.9968 141.038 62.676 147.689 63.8817C153.665 64.9578 159.5 66.701 165.087 69.0784C166.248 69.5473 167.356 70.1376 168.392 70.8396C169.623 71.7116 170.522 72.9748 170.94 74.4227C171.359 75.8706 171.274 77.4176 170.699 78.811C169.481 81.8463 166.526 83.5496 163.276 82.9994C162.238 82.7983 161.227 82.4749 160.265 82.0358C153.583 79.14 146.587 77.4394 139.377 76.5654C131.577 75.6203 123.795 75.8783 116.027 76.9655C104.844 78.5451 94.2553 81.9016 84.3357 87.3089C77.3475 91.1208 71.0367 95.8278 65.7276 101.788C61.6549 106.369 58.4178 111.455 56.5013 117.32C54.9449 121.898 54.5075 126.781 55.2255 131.562C56.1138 137.338 58.626 142.356 62.4272 146.749C66.1178 151.035 70.6228 154.292 75.5839 156.982C80.081 159.42 84.8734 160.639 89.9505 160.891C95.1486 161.139 100.358 160.973 105.53 160.394C113.096 159.538 120.58 158.074 127.91 156.016C145.113 151.282 161.681 144.492 177.255 135.793C187.271 130.19 196.684 123.574 205.345 116.048C214.405 108.196 222.427 99.3712 229.971 90.0809C241.23 76.2126 251.102 61.4071 260.022 45.9461C260.307 45.4512 260.539 44.9352 260.832 44.356H260.826ZM280.742 237.367C281.085 237.873 281.38 238.36 281.728 238.807C285.049 243.112 287.49 247.895 289.462 252.934C293.031 262.058 294.832 271.569 295.623 281.297C295.747 282.829 295.841 284.366 295.926 285.904C296.013 287.528 296.071 289.155 296.139 290.787C298.301 292.269 300.652 293.122 302.993 293.994C307.633 295.726 312.414 296.755 317.399 296.539C326.76 296.134 333.411 291.216 336.572 282.826C337.669 279.843 338.312 276.712 338.48 273.539C338.944 266.223 337.729 259.144 335.351 252.268C330.192 237.351 321.33 224.976 309.283 214.835C308.342 214.045 307.422 213.182 306.12 212.632C303.547 215.638 301.111 218.716 298.414 221.582C295.718 224.449 292.879 227.2 289.921 229.822C286.963 232.444 283.858 234.824 280.747 237.367H280.742ZM-7.4631 248.295C-10.1967 246.939 -12.7221 245.765 -15.171 244.446C-17.6199 243.127 -20.0557 241.729 -22.4044 240.234C-24.8322 238.673 -27.1968 236.999 -29.4981 235.259C-31.715 233.582 -33.816 231.755 -35.8932 230.054C-37.1559 230.201 -38.0021 230.881 -38.8904 231.426C-43.4614 234.227 -47.3048 237.854 -50.6658 241.99C-57.3894 250.243 -61.987 260.014 -64.0571 270.451C-65.3909 277.008 -65.6677 283.613 -64.2047 290.229C-63.3638 294.03 -61.9798 297.6 -59.5441 300.688C-57.1084 303.776 -54.04 305.806 -50.1465 306.401C-47.5655 306.791 -44.9321 306.657 -42.4043 306.006C-37.6251 304.8 -33.5471 302.32 -29.7222 299.325C-28.9504 298.736 -28.4389 297.87 -28.296 296.91C-28.0641 295.594 -27.7319 294.278 -27.4077 292.962C-23.7541 278.154 -17.554 264.441 -9.48235 251.536L-7.4631 248.295Z" fill="#E67C4F"/>
<path d="M106.276 390.256C101.847 390.35 97.3895 389.648 93.0163 388.387C89.6656 387.463 86.5078 385.947 83.6925 383.911C82.5953 383.132 81.6054 382.212 80.748 381.176C78.7077 378.593 78.8474 375.142 80.9378 372.662C81.9151 371.519 83.2421 370.729 84.7137 370.414C86.1854 370.099 87.72 370.277 89.0806 370.919C89.611 371.15 90.1083 371.45 90.5594 371.812C93.6885 374.489 97.4739 375.582 101.417 376.127C105.93 376.748 110.451 376.672 114.898 375.498C117.337 374.855 119.643 373.918 121.676 372.381C123.257 371.18 125.082 370.625 127.109 370.943C132.117 371.733 134.598 377.467 131.614 381.571C130.843 382.553 129.929 383.414 128.901 384.124C126.16 386.144 123.065 387.476 119.815 388.442C115.502 389.713 111.421 390.261 106.276 390.256Z" fill="#E67C4F"/>
<path d="M177.94 325.834C185.297 326.008 192.312 327.438 198.873 330.802C201.3 331.999 203.504 333.602 205.39 335.541C207.153 337.407 207.915 339.6 207.235 342.172C206.992 343.156 206.53 344.072 205.884 344.854C205.238 345.635 204.424 346.261 203.503 346.686C202.581 347.11 201.576 347.322 200.562 347.305C199.547 347.288 198.549 347.044 197.642 346.589C196.951 346.249 196.311 345.815 195.739 345.299C193.617 343.378 191.099 342.198 188.419 341.351C182.968 339.647 177.179 339.323 171.571 340.408C169.384 340.8 167.291 341.604 165.406 342.777C164.518 343.349 163.558 343.799 162.551 344.115C161.198 344.503 159.757 344.452 158.435 343.969C157.114 343.486 155.98 342.596 155.199 341.427C153.477 338.91 153.533 335.704 155.499 333.379C156.322 332.44 157.275 331.623 158.33 330.955C161.852 328.656 165.767 327.314 169.897 326.685C172.565 326.266 175.262 326.105 177.94 325.834Z" fill="#E67C4F"/>
<path d="M45.6275 317.01C51.5903 317.163 57.3396 318.174 62.8807 320.327C66.044 321.556 68.999 323.165 71.5797 325.382C72.4745 326.114 73.2718 326.958 73.9522 327.893C74.8158 329.128 75.2339 330.62 75.1382 332.123C75.0424 333.627 74.4384 335.054 73.425 336.17C72.3964 337.338 70.9976 338.118 69.4623 338.38C67.927 338.642 66.3482 338.37 64.9895 337.61C64.3983 337.287 63.8464 336.898 63.3446 336.449C61.3755 334.667 59.0478 333.553 56.5673 332.703C51.0684 330.834 45.4298 330.597 39.7359 331.471C37.2418 331.809 34.8609 332.723 32.7819 334.14C31.5268 335.058 30.0061 335.541 28.4508 335.517C25.7014 335.469 23.6163 334.259 22.3879 331.797C21.1146 329.236 21.4151 326.753 23.1629 324.486C24.183 323.17 25.5723 322.278 27.0036 321.475C30.018 319.739 33.3227 318.565 36.7571 318.008C39.6885 317.552 42.6672 317.331 45.6275 317.01Z" fill="#E67C4F"/>
</svg>
